<?xml version='1.0' encoding='utf-8'?>
<svg xmlns="http://www.w3.org/2000/svg" xmlns:xlink="http://www.w3.org/1999/xlink" width="676px" height="25px" viewBox="0 0 6766 259" version="1.1">
<defs>
<path id="gl1798" d="M 52 11 C 33 16 19 29 17 48 C 15 69 25 83 54 97 C 73 107 78 113 78 124 C 78 146 55 154 38 138 C 34 133 33 132 30 124 C 25 114 23 112 19 112 C 13 111 10 116 11 123 C 14 141 16 150 20 153 C 28 159 56 164 68 160 C 92 154 106 136 105 113 C 103 95 94 84 72 73 C 60 67 55 65 52 63 C 33 50 43 22 66 26 C 74 28 79 32 83 43 C 85 49 87 51 89 52 C 93 55 98 53 100 49 C 102 45 97 21 94 17 C 90 12 64 9 52 11 z" fill="black"/><!-- width=119 height=175 -->
<path id="gl257" d="M 31 9 C 28 10 24 10 21 10 C 14 10 10 12 10 16 C 9 21 12 24 18 25 C 22 26 23 27 24 30 C 25 31 25 44 25 60 C 24 93 25 96 31 105 C 40 117 62 118 75 108 C 78 106 82 103 84 103 C 85 103 87 105 87 108 C 89 114 91 115 101 112 C 103 112 109 111 113 110 C 123 109 126 106 126 102 C 127 98 124 96 117 95 C 110 94 109 93 108 88 C 108 79 109 19 110 19 C 111 18 109 12 108 10 C 106 9 103 8 97 9 C 94 9 88 10 82 10 C 73 10 71 11 69 14 C 66 19 70 24 78 25 C 87 26 87 25 87 60 C 87 67 87 76 87 84 C 87 85 86 86 85 87 C 84 89 83 90 79 92 C 63 100 51 97 48 85 C 46 81 46 38 48 24 C 48 9 46 7 31 9 z" fill="black"/><!-- width=136 height=128 -->
<path id="gl2" d="M 79 10 C 75 12 69 14 63 18 C 55 23 54 23 52 19 C 50 12 48 11 37 13 C 33 15 27 16 25 16 C 18 17 15 20 15 24 C 15 28 19 31 24 31 C 26 31 30 35 30 37 C 30 52 30 96 30 97 C 28 100 27 102 21 103 C 18 103 16 104 16 104 C 15 104 13 108 13 111 C 13 115 18 118 23 117 C 33 116 42 116 50 117 C 60 117 62 117 64 115 C 69 111 66 106 58 103 C 54 101 53 100 52 98 C 52 95 52 40 52 39 C 54 36 57 34 62 33 C 72 28 80 28 85 33 C 91 37 92 39 92 68 C 92 100 92 100 84 103 C 78 105 75 108 76 111 C 76 114 76 114 79 116 C 82 117 83 117 94 117 C 103 116 109 117 114 117 C 117 117 119 117 121 118 C 123 117 124 117 125 116 C 126 115 127 115 128 114 C 128 113 128 112 128 111 C 129 106 127 105 121 103 C 114 100 114 103 114 67 C 114 56 114 46 114 36 C 114 34 113 33 113 32 C 109 20 102 14 92 12 C 87 10 83 10 79 10 z" fill="black"/><!-- width=141 height=130 -->
<path id="gl261" d="M 54 8 C 42 10 22 22 19 29 C 15 37 21 46 30 45 C 35 44 37 42 40 34 C 43 25 50 21 59 23 C 66 24 70 31 70 40 C 70 46 69 48 57 51 C 46 55 30 62 25 66 C 10 78 15 103 35 112 C 44 115 50 114 61 106 C 65 104 67 103 69 103 C 69 103 70 102 71 102 C 72 104 73 105 74 106 C 80 114 83 115 93 111 C 96 109 100 108 102 106 C 109 104 110 103 110 100 C 111 94 107 92 100 93 C 90 94 90 93 91 43 C 91 30 91 28 88 21 C 85 10 70 4 54 8 M 69 61 C 71 62 72 63 71 75 C 70 88 70 88 65 91 C 53 99 41 96 40 85 C 39 76 42 72 57 64 C 65 60 66 60 69 61 z" fill="black"/><!-- width=121 height=130 -->
<path id="gl2" d="M 79 10 C 75 12 69 14 63 18 C 55 23 54 23 52 19 C 50 12 48 11 37 13 C 33 15 27 16 25 16 C 18 17 15 20 15 24 C 15 28 19 31 24 31 C 26 31 30 35 30 37 C 30 52 30 96 30 97 C 28 100 27 102 21 103 C 18 103 16 104 16 104 C 15 104 13 108 13 111 C 13 115 18 118 23 117 C 33 116 42 116 50 117 C 60 117 62 117 64 115 C 69 111 66 106 58 103 C 54 101 53 100 52 98 C 52 95 52 40 52 39 C 54 36 57 34 62 33 C 72 28 80 28 85 33 C 91 37 92 39 92 68 C 92 100 92 100 84 103 C 78 105 75 108 76 111 C 76 114 76 114 79 116 C 82 117 83 117 94 117 C 103 116 109 117 114 117 C 117 117 119 117 121 118 C 123 117 124 117 125 116 C 126 115 127 115 128 114 C 128 113 128 112 128 111 C 129 106 127 105 121 103 C 114 100 114 103 114 67 C 114 56 114 46 114 36 C 114 34 113 33 113 32 C 109 20 102 14 92 12 C 87 10 83 10 79 10 z" fill="black"/><!-- width=141 height=130 -->
<path id="gl10266" d="M 82 11 C 67 14 67 14 66 16 C 62 20 63 24 69 27 C 77 30 78 31 77 49 C 77 64 76 65 66 66 C 49 67 35 73 24 85 C 15 93 12 99 9 110 C 7 118 8 133 10 141 C 15 154 24 163 36 169 C 48 175 57 175 68 169 C 73 167 75 167 78 169 C 82 174 82 174 96 170 C 101 169 108 168 110 167 C 119 165 122 162 120 157 C 119 155 114 153 112 152 C 110 152 108 150 107 147 C 106 145 106 121 106 81 C 106 43 105 17 105 15 C 103 7 100 7 82 11 M 67 82 C 72 84 75 86 76 90 C 78 94 78 144 76 147 C 74 150 70 152 64 152 C 46 152 35 127 42 101 C 45 87 56 79 67 82 z" fill="black"/><!-- width=137 height=210 -->
<path id="gl1807" d="M 24 10 C 19 10 16 12 16 15 C 15 18 17 20 23 24 C 33 28 33 30 31 69 C 27 136 27 138 18 142 C 13 144 12 147 12 150 C 12 156 18 156 45 156 C 61 155 64 154 64 149 C 64 146 62 144 54 141 C 46 139 46 136 46 104 C 46 75 48 66 50 67 C 52 67 58 79 70 107 C 88 151 89 152 95 152 C 100 152 103 148 111 129 C 112 126 115 120 117 116 C 118 112 120 106 122 103 C 132 79 140 63 142 63 C 144 63 145 75 145 108 C 145 117 145 126 145 135 C 144 135 144 136 144 137 C 142 139 141 140 137 142 C 134 144 132 145 131 146 C 129 149 130 153 135 155 C 139 156 184 156 187 154 C 194 152 193 145 186 142 C 176 139 175 138 175 103 C 174 90 174 71 173 60 C 172 29 172 28 181 24 C 188 20 190 18 188 14 C 186 10 186 10 167 10 C 144 10 146 9 136 31 C 135 35 130 44 127 52 C 104 105 105 105 100 100 C 99 99 95 91 87 74 C 84 67 81 60 79 57 C 76 51 70 38 66 28 C 58 12 57 11 48 10 C 41 9 29 9 24 10 z" fill="black"/><!-- width=208 height=171 -->
<path id="gl3860" d="M 56 13 C 37 18 22 33 16 52 C 13 60 14 78 16 86 C 29 123 76 133 102 105 C 122 85 123 49 103 28 C 97 22 87 16 79 14 C 75 13 61 12 56 13 M 73 30 C 78 33 82 39 85 49 C 87 57 87 81 85 88 C 82 100 76 106 67 106 C 53 106 42 85 44 58 C 45 34 58 22 73 30 z" fill="black"/><!-- width=132 height=135 -->
<path id="gl3860" d="M 56 13 C 37 18 22 33 16 52 C 13 60 14 78 16 86 C 29 123 76 133 102 105 C 122 85 123 49 103 28 C 97 22 87 16 79 14 C 75 13 61 12 56 13 M 73 30 C 78 33 82 39 85 49 C 87 57 87 81 85 88 C 82 100 76 106 67 106 C 53 106 42 85 44 58 C 45 34 58 22 73 30 z" fill="black"/><!-- width=132 height=135 -->
<path id="gl3334" d="M 78 12 C 73 13 68 15 63 19 C 55 24 54 24 52 18 C 51 12 48 12 38 14 C 34 15 30 16 27 17 C 19 18 15 21 15 25 C 15 28 18 30 24 31 C 27 32 30 34 30 37 C 31 39 31 97 30 99 C 28 102 27 103 22 104 C 16 105 15 106 13 108 C 10 115 15 118 25 118 C 36 117 44 116 52 117 C 60 118 63 117 65 115 C 69 112 67 107 62 105 C 52 102 52 105 52 70 C 52 35 51 38 60 34 C 70 28 81 28 87 34 C 93 38 93 40 93 72 C 93 103 93 103 84 105 C 76 106 73 113 80 116 C 81 117 82 117 83 118 C 86 117 90 117 93 117 C 102 116 114 117 120 118 C 121 118 125 117 127 115 C 129 115 129 114 129 111 C 129 108 127 106 121 104 C 114 101 114 104 115 68 C 115 58 115 48 115 37 C 114 36 114 34 113 33 C 111 26 109 24 106 20 C 100 13 88 10 78 12 z" fill="black"/><!-- width=141 height=131 -->
<path id="gl11018" d="M 27 16 C 13 21 9 38 19 49 C 28 59 46 56 51 43 C 57 27 42 10 27 16 M 28 84 C 14 89 9 107 19 118 C 27 126 40 126 47 118 C 52 112 54 102 50 95 C 46 87 36 82 28 84 z" fill="black"/><!-- width=66 height=139 -->
<path id="gl22280" d="M 110 14 C 106 16 100 19 97 22 C 93 24 88 27 87 27 C 66 38 58 42 46 49 C 45 50 43 51 42 51 C 42 51 40 52 39 52 C 35 55 28 59 21 61 C 11 66 9 69 9 75 C 9 79 9 79 11 82 C 13 84 13 85 24 90 C 28 91 34 95 38 97 C 51 103 79 119 84 121 C 87 122 91 124 93 126 C 95 127 98 128 100 129 C 102 130 106 132 109 134 C 118 139 121 139 126 135 C 128 132 128 131 128 129 C 127 124 121 119 115 117 C 114 117 101 111 87 103 C 73 96 60 90 57 88 C 36 79 36 79 34 76 C 34 72 33 73 52 64 C 56 63 66 57 74 53 C 87 46 100 40 118 31 C 128 27 131 18 125 13 C 121 10 119 10 110 14 z" fill="black"/><!-- width=138 height=149 -->
<path id="gl2326" d="M 223 14 C 218 15 54 15 31 15 C 16 14 15 14 13 18 C 11 21 11 28 13 31 C 16 35 16 35 31 34 C 41 34 210 34 230 34 C 232 34 234 34 235 34 C 237 34 237 33 238 32 C 241 29 242 21 239 17 C 237 13 233 13 223 14 z" fill="black"/><!-- width=253 height=49 -->
<path id="gl1284" d="M 51 8 C 49 8 46 9 43 10 C 41 11 35 13 30 13 C 19 16 18 16 15 19 C 13 21 13 25 15 27 C 16 29 19 30 26 30 C 33 30 36 31 36 34 C 36 34 36 58 36 85 C 36 134 36 136 35 137 C 33 140 30 141 25 141 C 18 141 14 143 13 148 C 13 150 13 151 16 153 C 19 156 21 157 30 156 C 39 154 53 154 64 156 C 67 156 70 156 72 157 C 73 156 74 156 75 156 C 79 154 80 151 80 148 C 80 144 76 141 70 141 C 63 141 59 139 58 134 C 58 132 58 31 59 15 C 59 10 56 7 51 8 z" fill="black"/><!-- width=92 height=174 -->
<path id="gl3088" d="M 24 57 C 19 59 18 61 16 76 C 15 87 16 91 21 91 C 24 91 25 90 28 85 C 32 79 34 79 56 79 C 79 79 82 79 82 84 C 81 90 66 122 38 174 C 33 183 28 193 27 195 C 25 202 32 205 43 202 C 48 201 51 195 73 142 C 76 136 91 102 97 90 C 107 66 108 64 106 61 C 104 57 105 57 64 57 C 33 57 26 57 24 57 z" fill="black"/><!-- width=121 height=217 -->
<path id="gl514" d="M 17 19 C 12 22 10 27 10 31 C 11 36 13 37 18 39 C 24 41 26 43 28 46 C 31 54 27 64 16 69 C 10 72 9 76 11 80 C 15 85 19 85 28 77 C 42 67 48 57 47 44 C 46 27 29 13 17 19 z" fill="black"/><!-- width=60 height=94 -->
<path id="gl2326" d="M 223 14 C 218 15 54 15 31 15 C 16 14 15 14 13 18 C 11 21 11 28 13 31 C 16 35 16 35 31 34 C 41 34 210 34 230 34 C 232 34 234 34 235 34 C 237 34 237 33 238 32 C 241 29 242 21 239 17 C 237 13 233 13 223 14 z" fill="black"/><!-- width=253 height=49 -->
<path id="gl22281" d="M 21 13 C 17 15 16 21 19 25 C 20 28 21 28 40 39 C 98 69 102 71 103 73 C 105 76 104 78 87 87 C 79 90 71 95 67 97 C 64 99 56 103 51 105 C 25 118 20 121 18 126 C 15 132 19 138 25 136 C 27 135 63 117 82 108 C 88 104 101 97 109 93 C 126 85 129 83 130 79 C 133 73 130 67 123 63 C 117 60 87 45 66 34 C 58 30 51 26 48 25 C 40 21 26 14 24 13 C 24 13 22 13 21 13 z" fill="black"/><!-- width=145 height=150 -->
<path id="gl2309" d="M 69 11 C 66 12 59 19 51 28 C 34 50 25 75 25 108 C 24 149 36 183 61 207 C 70 215 74 215 78 208 C 79 207 80 205 79 204 C 79 202 76 198 75 198 C 74 198 66 187 63 183 C 46 159 40 115 48 79 C 52 57 60 42 72 30 C 80 21 81 19 78 14 C 75 10 73 9 69 11 z" fill="black"/><!-- width=90 height=223 -->
<path id="gl1029" d="M 51 11 C 28 16 15 33 16 55 C 16 74 26 84 53 97 C 66 103 73 108 76 112 C 85 125 81 145 67 151 C 51 158 34 150 26 130 C 22 120 20 118 16 118 C 11 118 8 123 9 129 C 10 135 15 153 15 155 C 19 166 54 172 73 165 C 93 157 105 139 103 118 C 103 99 93 87 68 76 C 49 67 43 63 39 56 C 33 44 40 29 52 26 C 66 22 79 30 82 45 C 84 51 89 55 93 54 C 97 51 99 46 97 40 C 97 39 96 34 96 30 C 93 16 92 15 80 12 C 73 10 56 10 51 11 z" fill="black"/><!-- width=117 height=181 -->
<path id="gl257" d="M 31 9 C 28 10 24 10 21 10 C 14 10 10 12 10 16 C 9 21 12 24 18 25 C 22 26 23 27 24 30 C 25 31 25 44 25 60 C 24 93 25 96 31 105 C 40 117 62 118 75 108 C 78 106 82 103 84 103 C 85 103 87 105 87 108 C 89 114 91 115 101 112 C 103 112 109 111 113 110 C 123 109 126 106 126 102 C 127 98 124 96 117 95 C 110 94 109 93 108 88 C 108 79 109 19 110 19 C 111 18 109 12 108 10 C 106 9 103 8 97 9 C 94 9 88 10 82 10 C 73 10 71 11 69 14 C 66 19 70 24 78 25 C 87 26 87 25 87 60 C 87 67 87 76 87 84 C 87 85 86 86 85 87 C 84 89 83 90 79 92 C 63 100 51 97 48 85 C 46 81 46 38 48 24 C 48 9 46 7 31 9 z" fill="black"/><!-- width=136 height=128 -->
<path id="gl2" d="M 79 10 C 75 12 69 14 63 18 C 55 23 54 23 52 19 C 50 12 48 11 37 13 C 33 15 27 16 25 16 C 18 17 15 20 15 24 C 15 28 19 31 24 31 C 26 31 30 35 30 37 C 30 52 30 96 30 97 C 28 100 27 102 21 103 C 18 103 16 104 16 104 C 15 104 13 108 13 111 C 13 115 18 118 23 117 C 33 116 42 116 50 117 C 60 117 62 117 64 115 C 69 111 66 106 58 103 C 54 101 53 100 52 98 C 52 95 52 40 52 39 C 54 36 57 34 62 33 C 72 28 80 28 85 33 C 91 37 92 39 92 68 C 92 100 92 100 84 103 C 78 105 75 108 76 111 C 76 114 76 114 79 116 C 82 117 83 117 94 117 C 103 116 109 117 114 117 C 117 117 119 117 121 118 C 123 117 124 117 125 116 C 126 115 127 115 128 114 C 128 113 128 112 128 111 C 129 106 127 105 121 103 C 114 100 114 103 114 67 C 114 56 114 46 114 36 C 114 34 113 33 113 32 C 109 20 102 14 92 12 C 87 10 83 10 79 10 z" fill="black"/><!-- width=141 height=130 -->
<path id="gl4112" d="M 10 12 C 9 12 8 13 7 15 C 5 19 6 21 13 28 C 24 40 33 57 37 73 C 37 77 38 82 39 85 C 40 92 42 123 40 131 C 36 160 28 180 13 195 C 6 202 6 205 9 210 C 13 216 22 211 34 196 C 39 190 48 176 48 175 C 48 175 49 172 50 169 C 67 133 64 76 45 43 C 38 31 28 20 20 13 C 16 10 12 10 10 12 z" fill="black"/><!-- width=82 height=223 -->
<path id="gl22283" d="M 115 10 C 114 11 109 13 105 16 C 100 18 91 24 84 27 C 62 38 45 47 33 54 C 31 55 25 58 21 60 C 9 66 6 70 10 77 C 12 81 11 81 29 90 C 38 94 46 99 48 100 C 49 101 59 106 69 111 C 80 117 91 122 94 124 C 98 126 101 127 101 127 C 102 127 103 129 106 130 C 115 136 121 138 123 135 C 127 130 127 123 121 118 C 116 115 47 81 39 78 C 37 78 36 76 36 76 C 32 72 33 70 46 65 C 51 63 61 58 68 54 C 75 51 90 43 102 37 C 126 25 126 25 126 18 C 127 12 122 8 115 10 z" fill="black"/><!-- width=137 height=146 -->
<path id="gl2326" d="M 223 14 C 218 15 54 15 31 15 C 16 14 15 14 13 18 C 11 21 11 28 13 31 C 16 35 16 35 31 34 C 41 34 210 34 230 34 C 232 34 234 34 235 34 C 237 34 237 33 238 32 C 241 29 242 21 239 17 C 237 13 233 13 223 14 z" fill="black"/><!-- width=253 height=49 -->
<path id="gl1284" d="M 51 8 C 49 8 46 9 43 10 C 41 11 35 13 30 13 C 19 16 18 16 15 19 C 13 21 13 25 15 27 C 16 29 19 30 26 30 C 33 30 36 31 36 34 C 36 34 36 58 36 85 C 36 134 36 136 35 137 C 33 140 30 141 25 141 C 18 141 14 143 13 148 C 13 150 13 151 16 153 C 19 156 21 157 30 156 C 39 154 53 154 64 156 C 67 156 70 156 72 157 C 73 156 74 156 75 156 C 79 154 80 151 80 148 C 80 144 76 141 70 141 C 63 141 59 139 58 134 C 58 132 58 31 59 15 C 59 10 56 7 51 8 z" fill="black"/><!-- width=92 height=174 -->
<path id="gl3088" d="M 24 57 C 19 59 18 61 16 76 C 15 87 16 91 21 91 C 24 91 25 90 28 85 C 32 79 34 79 56 79 C 79 79 82 79 82 84 C 81 90 66 122 38 174 C 33 183 28 193 27 195 C 25 202 32 205 43 202 C 48 201 51 195 73 142 C 76 136 91 102 97 90 C 107 66 108 64 106 61 C 104 57 105 57 64 57 C 33 57 26 57 24 57 z" fill="black"/><!-- width=121 height=217 -->
<path id="gl1538" d="M 22 18 C 14 19 13 20 13 28 C 13 35 13 36 19 38 C 27 40 29 43 29 49 C 29 55 25 60 18 64 C 12 68 10 73 14 76 C 16 79 24 79 27 76 C 49 60 54 37 36 22 C 31 17 28 16 22 18 z" fill="black"/><!-- width=61 height=89 -->
<path id="gl2326" d="M 223 14 C 218 15 54 15 31 15 C 16 14 15 14 13 18 C 11 21 11 28 13 31 C 16 35 16 35 31 34 C 41 34 210 34 230 34 C 232 34 234 34 235 34 C 237 34 237 33 238 32 C 241 29 242 21 239 17 C 237 13 233 13 223 14 z" fill="black"/><!-- width=253 height=49 -->
<path id="gl22281" d="M 21 13 C 17 15 16 21 19 25 C 20 28 21 28 40 39 C 98 69 102 71 103 73 C 105 76 104 78 87 87 C 79 90 71 95 67 97 C 64 99 56 103 51 105 C 25 118 20 121 18 126 C 15 132 19 138 25 136 C 27 135 63 117 82 108 C 88 104 101 97 109 93 C 126 85 129 83 130 79 C 133 73 130 67 123 63 C 117 60 87 45 66 34 C 58 30 51 26 48 25 C 40 21 26 14 24 13 C 24 13 22 13 21 13 z" fill="black"/><!-- width=145 height=150 -->
<path id="gl22283" d="M 115 10 C 114 11 109 13 105 16 C 100 18 91 24 84 27 C 62 38 45 47 33 54 C 31 55 25 58 21 60 C 9 66 6 70 10 77 C 12 81 11 81 29 90 C 38 94 46 99 48 100 C 49 101 59 106 69 111 C 80 117 91 122 94 124 C 98 126 101 127 101 127 C 102 127 103 129 106 130 C 115 136 121 138 123 135 C 127 130 127 123 121 118 C 116 115 47 81 39 78 C 37 78 36 76 36 76 C 32 72 33 70 46 65 C 51 63 61 58 68 54 C 75 51 90 43 102 37 C 126 25 126 25 126 18 C 127 12 122 8 115 10 z" fill="black"/><!-- width=137 height=146 -->
<path id="gl2326" d="M 223 14 C 218 15 54 15 31 15 C 16 14 15 14 13 18 C 11 21 11 28 13 31 C 16 35 16 35 31 34 C 41 34 210 34 230 34 C 232 34 234 34 235 34 C 237 34 237 33 238 32 C 241 29 242 21 239 17 C 237 13 233 13 223 14 z" fill="black"/><!-- width=253 height=49 -->
<path id="gl1284" d="M 51 8 C 49 8 46 9 43 10 C 41 11 35 13 30 13 C 19 16 18 16 15 19 C 13 21 13 25 15 27 C 16 29 19 30 26 30 C 33 30 36 31 36 34 C 36 34 36 58 36 85 C 36 134 36 136 35 137 C 33 140 30 141 25 141 C 18 141 14 143 13 148 C 13 150 13 151 16 153 C 19 156 21 157 30 156 C 39 154 53 154 64 156 C 67 156 70 156 72 157 C 73 156 74 156 75 156 C 79 154 80 151 80 148 C 80 144 76 141 70 141 C 63 141 59 139 58 134 C 58 132 58 31 59 15 C 59 10 56 7 51 8 z" fill="black"/><!-- width=92 height=174 -->
<path id="gl3088" d="M 24 57 C 19 59 18 61 16 76 C 15 87 16 91 21 91 C 24 91 25 90 28 85 C 32 79 34 79 56 79 C 79 79 82 79 82 84 C 81 90 66 122 38 174 C 33 183 28 193 27 195 C 25 202 32 205 43 202 C 48 201 51 195 73 142 C 76 136 91 102 97 90 C 107 66 108 64 106 61 C 104 57 105 57 64 57 C 33 57 26 57 24 57 z" fill="black"/><!-- width=121 height=217 -->
<path id="gl514" d="M 17 19 C 12 22 10 27 10 31 C 11 36 13 37 18 39 C 24 41 26 43 28 46 C 31 54 27 64 16 69 C 10 72 9 76 11 80 C 15 85 19 85 28 77 C 42 67 48 57 47 44 C 46 27 29 13 17 19 z" fill="black"/><!-- width=60 height=94 -->
<path id="gl2326" d="M 223 14 C 218 15 54 15 31 15 C 16 14 15 14 13 18 C 11 21 11 28 13 31 C 16 35 16 35 31 34 C 41 34 210 34 230 34 C 232 34 234 34 235 34 C 237 34 237 33 238 32 C 241 29 242 21 239 17 C 237 13 233 13 223 14 z" fill="black"/><!-- width=253 height=49 -->
<path id="gl22281" d="M 21 13 C 17 15 16 21 19 25 C 20 28 21 28 40 39 C 98 69 102 71 103 73 C 105 76 104 78 87 87 C 79 90 71 95 67 97 C 64 99 56 103 51 105 C 25 118 20 121 18 126 C 15 132 19 138 25 136 C 27 135 63 117 82 108 C 88 104 101 97 109 93 C 126 85 129 83 130 79 C 133 73 130 67 123 63 C 117 60 87 45 66 34 C 58 30 51 26 48 25 C 40 21 26 14 24 13 C 24 13 22 13 21 13 z" fill="black"/><!-- width=145 height=150 -->
<path id="gl5403" d="M 67 11 C 63 12 52 23 43 35 C 38 43 31 57 28 66 C 28 69 27 73 26 75 C 21 93 22 133 27 149 C 28 150 28 154 30 157 C 34 172 45 189 57 202 C 67 213 70 214 75 208 C 79 204 78 202 71 195 C 43 166 34 109 49 63 C 54 48 61 37 71 27 C 76 21 78 19 76 16 C 73 10 72 9 67 11 z" fill="black"/><!-- width=86 height=222 -->
<path id="gl1282" d="M 24 9 C 17 9 15 10 13 12 C 11 15 13 19 19 21 C 29 24 31 27 31 40 C 31 60 27 119 25 131 C 24 142 22 144 15 147 C 10 150 9 151 9 154 C 9 160 12 160 38 160 C 56 160 57 160 59 159 C 64 155 62 149 55 148 C 46 145 43 142 42 130 C 42 127 42 123 42 121 C 42 121 43 111 43 102 C 44 71 45 61 47 61 C 48 61 52 67 53 71 C 54 73 55 75 55 75 C 56 76 57 78 58 80 C 58 82 61 87 63 91 C 65 96 69 105 72 112 C 76 123 78 127 84 141 C 89 151 90 151 92 154 C 94 156 95 156 97 156 C 101 155 103 153 108 142 C 114 130 119 118 124 105 C 129 96 135 83 140 72 C 141 69 142 67 142 67 C 142 66 148 58 148 58 C 150 58 151 69 151 102 C 152 144 152 144 141 148 C 133 151 133 159 142 160 C 148 160 181 160 187 160 C 197 159 198 150 189 148 C 176 144 177 148 175 67 C 174 25 174 24 184 21 C 191 19 193 16 191 12 C 190 9 188 9 172 9 C 151 9 154 6 139 39 C 137 44 132 56 127 64 C 124 73 118 85 115 91 C 107 109 105 112 103 112 C 100 112 100 114 79 69 C 51 9 53 12 48 10 C 46 9 37 8 24 9 z" fill="black"/><!-- width=208 height=177 -->
<path id="gl771" d="M 57 13 C 37 16 19 33 15 53 C 13 62 13 77 15 84 C 22 107 43 123 67 121 C 89 120 108 103 113 81 C 114 74 114 59 113 52 C 108 27 82 9 57 13 M 71 29 C 84 35 90 49 90 70 C 90 94 81 108 66 108 C 51 108 40 93 37 69 C 34 40 52 19 71 29 z" fill="black"/><!-- width=128 height=134 -->
<path id="gl4" d="M 54 12 C 36 15 19 31 14 51 C 7 76 15 98 34 112 C 47 121 65 124 80 118 C 93 113 103 103 109 88 C 112 81 112 78 112 66 C 113 54 112 51 109 43 C 100 23 82 12 61 12 C 58 12 55 12 54 12 M 69 28 C 76 32 84 42 87 53 C 88 58 88 80 87 85 C 82 109 58 114 44 94 C 36 82 34 60 38 46 C 41 39 42 37 45 34 C 52 27 61 24 69 28 z" fill="black"/><!-- width=125 height=134 -->
<path id="gl2" d="M 79 10 C 75 12 69 14 63 18 C 55 23 54 23 52 19 C 50 12 48 11 37 13 C 33 15 27 16 25 16 C 18 17 15 20 15 24 C 15 28 19 31 24 31 C 26 31 30 35 30 37 C 30 52 30 96 30 97 C 28 100 27 102 21 103 C 18 103 16 104 16 104 C 15 104 13 108 13 111 C 13 115 18 118 23 117 C 33 116 42 116 50 117 C 60 117 62 117 64 115 C 69 111 66 106 58 103 C 54 101 53 100 52 98 C 52 95 52 40 52 39 C 54 36 57 34 62 33 C 72 28 80 28 85 33 C 91 37 92 39 92 68 C 92 100 92 100 84 103 C 78 105 75 108 76 111 C 76 114 76 114 79 116 C 82 117 83 117 94 117 C 103 116 109 117 114 117 C 117 117 119 117 121 118 C 123 117 124 117 125 116 C 126 115 127 115 128 114 C 128 113 128 112 128 111 C 129 106 127 105 121 103 C 114 100 114 103 114 67 C 114 56 114 46 114 36 C 114 34 113 33 113 32 C 109 20 102 14 92 12 C 87 10 83 10 79 10 z" fill="black"/><!-- width=141 height=130 -->
<path id="gl8728" d="M 9 11 C 7 12 4 16 4 18 C 4 19 7 24 11 28 C 24 41 33 60 36 82 C 43 127 34 172 12 195 C 3 203 3 207 9 211 C 14 215 33 196 43 176 C 50 163 55 147 57 132 C 61 91 52 54 33 30 C 22 16 13 9 9 11 z" fill="black"/><!-- width=76 height=223 -->
<path id="gl22280" d="M 110 14 C 106 16 100 19 97 22 C 93 24 88 27 87 27 C 66 38 58 42 46 49 C 45 50 43 51 42 51 C 42 51 40 52 39 52 C 35 55 28 59 21 61 C 11 66 9 69 9 75 C 9 79 9 79 11 82 C 13 84 13 85 24 90 C 28 91 34 95 38 97 C 51 103 79 119 84 121 C 87 122 91 124 93 126 C 95 127 98 128 100 129 C 102 130 106 132 109 134 C 118 139 121 139 126 135 C 128 132 128 131 128 129 C 127 124 121 119 115 117 C 114 117 101 111 87 103 C 73 96 60 90 57 88 C 36 79 36 79 34 76 C 34 72 33 73 52 64 C 56 63 66 57 74 53 C 87 46 100 40 118 31 C 128 27 131 18 125 13 C 121 10 119 10 110 14 z" fill="black"/><!-- width=138 height=149 -->
<path id="gl2326" d="M 223 14 C 218 15 54 15 31 15 C 16 14 15 14 13 18 C 11 21 11 28 13 31 C 16 35 16 35 31 34 C 41 34 210 34 230 34 C 232 34 234 34 235 34 C 237 34 237 33 238 32 C 241 29 242 21 239 17 C 237 13 233 13 223 14 z" fill="black"/><!-- width=253 height=49 -->
<path id="gl1284" d="M 51 8 C 49 8 46 9 43 10 C 41 11 35 13 30 13 C 19 16 18 16 15 19 C 13 21 13 25 15 27 C 16 29 19 30 26 30 C 33 30 36 31 36 34 C 36 34 36 58 36 85 C 36 134 36 136 35 137 C 33 140 30 141 25 141 C 18 141 14 143 13 148 C 13 150 13 151 16 153 C 19 156 21 157 30 156 C 39 154 53 154 64 156 C 67 156 70 156 72 157 C 73 156 74 156 75 156 C 79 154 80 151 80 148 C 80 144 76 141 70 141 C 63 141 59 139 58 134 C 58 132 58 31 59 15 C 59 10 56 7 51 8 z" fill="black"/><!-- width=92 height=174 -->
<path id="gl3088" d="M 24 57 C 19 59 18 61 16 76 C 15 87 16 91 21 91 C 24 91 25 90 28 85 C 32 79 34 79 56 79 C 79 79 82 79 82 84 C 81 90 66 122 38 174 C 33 183 28 193 27 195 C 25 202 32 205 43 202 C 48 201 51 195 73 142 C 76 136 91 102 97 90 C 107 66 108 64 106 61 C 104 57 105 57 64 57 C 33 57 26 57 24 57 z" fill="black"/><!-- width=121 height=217 -->
<path id="gl514" d="M 17 19 C 12 22 10 27 10 31 C 11 36 13 37 18 39 C 24 41 26 43 28 46 C 31 54 27 64 16 69 C 10 72 9 76 11 80 C 15 85 19 85 28 77 C 42 67 48 57 47 44 C 46 27 29 13 17 19 z" fill="black"/><!-- width=60 height=94 -->
<path id="gl2326" d="M 223 14 C 218 15 54 15 31 15 C 16 14 15 14 13 18 C 11 21 11 28 13 31 C 16 35 16 35 31 34 C 41 34 210 34 230 34 C 232 34 234 34 235 34 C 237 34 237 33 238 32 C 241 29 242 21 239 17 C 237 13 233 13 223 14 z" fill="black"/><!-- width=253 height=49 -->
<path id="gl22281" d="M 21 13 C 17 15 16 21 19 25 C 20 28 21 28 40 39 C 98 69 102 71 103 73 C 105 76 104 78 87 87 C 79 90 71 95 67 97 C 64 99 56 103 51 105 C 25 118 20 121 18 126 C 15 132 19 138 25 136 C 27 135 63 117 82 108 C 88 104 101 97 109 93 C 126 85 129 83 130 79 C 133 73 130 67 123 63 C 117 60 87 45 66 34 C 58 30 51 26 48 25 C 40 21 26 14 24 13 C 24 13 22 13 21 13 z" fill="black"/><!-- width=145 height=150 -->
</defs>
<use xlink:href="#gl1798" x="0" y="41"/>
<use xlink:href="#gl257" x="103" y="89"/>
<use xlink:href="#gl2" x="219" y="87"/>
<use xlink:href="#gl261" x="389" y="91"/>
<use xlink:href="#gl2" x="488" y="87"/>
<use xlink:href="#gl10266" x="617" y="33"/>
<use xlink:href="#gl1807" x="782" y="47"/>
<use xlink:href="#gl3860" x="968" y="87"/>
<use xlink:href="#gl3860" x="1084" y="88"/>
<use xlink:href="#gl3334" x="1196" y="89"/>
<use xlink:href="#gl11018" x="1321" y="87"/>
<use xlink:href="#gl22280" x="1430" y="68"/>
<use xlink:href="#gl2326" x="1551" y="130"/>
<use xlink:href="#gl1284" x="1795" y="52"/>
<use xlink:href="#gl3088" x="1887" y="8"/>
<use xlink:href="#gl514" x="1997" y="26"/>
<use xlink:href="#gl2326" x="2038" y="131"/>
<use xlink:href="#gl22281" x="2267" y="70"/>
<use xlink:href="#gl2309" x="2451" y="35"/>
<use xlink:href="#gl1029" x="2539" y="47"/>
<use xlink:href="#gl257" x="2639" y="98"/>
<use xlink:href="#gl2" x="2754" y="94"/>
<use xlink:href="#gl4112" x="2891" y="36"/>
<use xlink:href="#gl22283" x="3019" y="74"/>
<use xlink:href="#gl2326" x="3138" y="134"/>
<use xlink:href="#gl1284" x="3382" y="56"/>
<use xlink:href="#gl3088" x="3474" y="10"/>
<use xlink:href="#gl1538" x="3584" y="30"/>
<use xlink:href="#gl2326" x="3626" y="131"/>
<use xlink:href="#gl22281" x="3856" y="69"/>
<use xlink:href="#gl22283" x="3999" y="70"/>
<use xlink:href="#gl2326" x="4119" y="130"/>
<use xlink:href="#gl1284" x="4362" y="52"/>
<use xlink:href="#gl3088" x="4454" y="5"/>
<use xlink:href="#gl514" x="4564" y="23"/>
<use xlink:href="#gl2326" x="4605" y="127"/>
<use xlink:href="#gl22281" x="4836" y="65"/>
<use xlink:href="#gl5403" x="5022" y="30"/>
<use xlink:href="#gl1282" x="5107" y="44"/>
<use xlink:href="#gl771" x="5296" y="85"/>
<use xlink:href="#gl4" x="5412" y="85"/>
<use xlink:href="#gl2" x="5520" y="86"/>
<use xlink:href="#gl8728" x="5659" y="28"/>
<use xlink:href="#gl22280" x="5784" y="62"/>
<use xlink:href="#gl2326" x="5904" y="124"/>
<use xlink:href="#gl1284" x="6149" y="45"/>
<use xlink:href="#gl3088" x="6241" y="0"/>
<use xlink:href="#gl514" x="6351" y="17"/>
<use xlink:href="#gl2326" x="6391" y="122"/>
<use xlink:href="#gl22281" x="6621" y="60"/>
</svg>
