<?xml version='1.0' encoding='utf-8'?>
<svg xmlns="http://www.w3.org/2000/svg" xmlns:xlink="http://www.w3.org/1999/xlink" width="455px" height="23px" viewBox="0 0 4552 236" version="1.1">
<defs>
<path id="gl10502" d="M 19 10 C 11 11 12 19 20 22 C 30 25 31 30 30 54 C 30 61 29 73 28 82 C 28 110 25 131 24 138 C 22 142 21 144 15 147 C 8 150 7 155 13 158 C 17 160 55 160 59 159 C 66 156 63 149 55 147 C 47 144 45 141 43 130 C 43 123 43 100 45 81 C 46 57 46 57 74 121 C 88 154 90 156 95 156 C 100 156 102 153 114 126 C 117 118 123 105 127 96 C 131 86 135 78 135 77 C 137 72 142 63 143 62 C 146 61 146 63 147 97 C 148 142 147 144 138 147 C 130 149 129 156 135 159 C 137 160 184 160 190 159 C 193 159 195 156 195 154 C 195 150 193 149 188 147 C 178 142 178 145 177 99 C 175 53 175 32 176 30 C 178 26 180 24 184 22 C 190 20 192 19 192 16 C 192 10 189 9 169 9 C 145 9 147 7 136 36 C 133 43 127 55 124 63 C 109 97 106 103 103 104 C 100 105 99 103 79 60 C 73 48 67 33 64 27 C 55 9 56 9 36 9 C 28 9 21 9 19 10 z" fill="black"/><!-- width=210 height=175 -->
<path id="gl20994" d="M 84 13 C 68 15 54 19 43 27 C 15 48 4 86 16 120 C 23 142 42 160 63 166 C 88 172 114 168 133 153 C 165 129 172 76 149 42 C 134 22 109 11 84 13 M 91 28 C 116 31 130 58 129 99 C 129 114 127 122 123 131 C 110 163 70 162 54 130 C 43 108 42 72 51 52 C 59 33 73 25 91 28 z" fill="black"/><!-- width=175 height=183 -->
<path id="gl20994" d="M 84 13 C 68 15 54 19 43 27 C 15 48 4 86 16 120 C 23 142 42 160 63 166 C 88 172 114 168 133 153 C 165 129 172 76 149 42 C 134 22 109 11 84 13 M 91 28 C 116 31 130 58 129 99 C 129 114 127 122 123 131 C 110 163 70 162 54 130 C 43 108 42 72 51 52 C 59 33 73 25 91 28 z" fill="black"/><!-- width=175 height=183 -->
<path id="gl4117" d="M 27 19 C 18 19 15 20 13 24 C 11 27 13 30 21 33 C 33 38 34 40 34 90 C 34 145 33 153 24 156 C 14 159 12 166 21 169 C 25 171 65 170 67 169 C 72 166 73 164 71 160 C 70 159 67 157 62 156 C 59 155 55 152 54 149 C 51 145 51 135 51 106 C 51 72 51 71 55 73 C 57 74 66 84 71 91 C 73 93 77 98 81 102 C 87 111 93 117 99 125 C 104 132 110 139 117 148 C 121 151 124 156 126 158 C 135 170 141 174 147 169 C 152 167 151 170 152 110 C 152 37 152 36 162 33 C 167 31 169 29 169 25 C 169 19 168 19 142 19 C 118 19 117 19 115 22 C 113 25 113 27 114 28 C 116 30 117 31 123 33 C 131 35 132 37 134 54 C 135 66 135 105 134 108 C 133 109 131 110 129 109 C 128 109 118 97 112 91 C 111 90 108 85 105 82 C 102 79 98 75 96 72 C 94 69 90 64 87 60 C 83 57 78 51 76 49 C 57 25 52 21 45 19 C 42 18 41 18 27 19 z" fill="black"/><!-- width=182 height=185 -->
<path id="gl1283" d="M 16 14 C 12 17 12 28 16 31 C 18 33 19 33 24 32 C 33 31 57 31 63 32 C 71 33 74 31 74 22 C 74 13 72 13 60 14 C 52 15 34 14 22 13 C 18 13 18 13 16 14 z" fill="black"/><!-- width=87 height=46 -->
<path id="gl3337" d="M 37 34 C 33 34 29 34 28 34 C 27 36 25 39 25 40 C 25 42 28 45 31 46 C 37 48 40 51 40 58 C 42 64 42 154 40 160 C 40 167 37 169 30 172 C 22 174 22 180 28 183 C 31 184 79 184 83 183 C 86 182 87 180 86 177 C 85 174 83 173 78 172 C 68 169 67 167 67 148 C 66 123 66 124 81 124 C 99 124 110 120 121 110 C 132 100 135 90 135 75 C 134 52 121 38 96 34 C 89 33 53 33 37 34 M 91 49 C 102 53 107 61 108 76 C 109 97 97 110 77 109 C 72 109 70 108 68 105 C 67 103 67 102 67 78 C 67 49 67 50 71 48 C 74 47 86 48 91 49 z" fill="black"/><!-- width=149 height=199 -->
<path id="gl4878" d="M 75 12 C 73 13 70 18 66 28 C 61 42 57 54 53 63 C 52 67 49 73 48 75 C 47 78 43 90 38 102 C 25 136 24 138 16 142 C 11 144 10 145 10 149 C 10 153 12 154 16 155 C 22 156 48 156 51 154 C 60 153 60 146 52 142 C 45 139 45 137 49 123 C 55 106 54 106 72 106 C 90 106 90 106 96 120 C 102 138 102 138 94 144 C 90 147 90 151 94 154 C 97 155 98 155 120 155 C 145 155 145 155 148 153 C 152 149 150 145 143 142 C 135 138 132 134 125 115 C 124 112 121 103 118 96 C 115 88 112 79 111 77 C 110 75 106 64 103 54 C 89 17 88 13 85 11 C 82 10 78 10 75 12 M 76 67 C 79 74 82 85 82 87 C 81 89 79 90 72 90 C 61 90 60 88 66 74 C 69 64 70 63 72 63 C 73 61 73 62 76 67 z" fill="black"/><!-- width=164 height=195 -->
<path id="gl1794" d="M 34 13 C 25 15 25 22 33 26 C 43 30 43 31 43 86 C 43 141 43 140 33 144 C 27 147 24 151 28 155 C 31 157 32 157 59 157 C 82 157 83 157 85 156 C 90 151 88 147 81 144 C 73 141 72 138 73 117 C 73 102 73 101 74 100 C 78 96 85 101 90 113 C 100 132 111 147 120 151 C 129 157 148 160 154 157 C 160 154 159 149 153 145 C 144 141 132 125 118 102 C 111 90 111 90 119 84 C 130 74 135 65 136 53 C 137 32 124 18 102 14 C 96 13 39 12 34 13 M 91 30 C 104 37 109 54 102 69 C 97 78 86 84 78 82 C 73 81 73 81 72 64 C 72 39 72 31 75 29 C 78 27 87 28 91 30 z" fill="black"/><!-- width=171 height=173 -->
<path id="gl1029" d="M 51 11 C 28 16 15 33 16 55 C 16 74 26 84 53 97 C 66 103 73 108 76 112 C 85 125 81 145 67 151 C 51 158 34 150 26 130 C 22 120 20 118 16 118 C 11 118 8 123 9 129 C 10 135 15 153 15 155 C 19 166 54 172 73 165 C 93 157 105 139 103 118 C 103 99 93 87 68 76 C 49 67 43 63 39 56 C 33 44 40 29 52 26 C 66 22 79 30 82 45 C 84 51 89 55 93 54 C 97 51 99 46 97 40 C 97 39 96 34 96 30 C 93 16 92 15 80 12 C 73 10 56 10 51 11 z" fill="black"/><!-- width=117 height=181 -->
<path id="gl2051" d="M 33 30 C 29 31 27 33 27 36 C 27 39 28 40 34 43 C 39 46 41 47 42 52 C 43 57 43 153 42 157 C 41 161 39 163 34 165 C 25 169 24 175 32 178 C 36 179 82 178 85 177 C 92 174 90 168 81 165 C 70 162 70 160 70 135 C 70 111 69 112 87 112 C 101 112 103 112 106 119 C 110 126 113 128 116 126 C 120 123 120 123 120 103 C 120 82 119 80 114 80 C 111 80 109 82 106 87 C 103 94 100 96 85 95 C 69 95 70 96 70 70 C 70 43 69 45 87 45 C 105 45 110 47 115 58 C 117 64 119 67 122 67 C 127 67 128 63 127 50 C 126 39 126 37 124 34 C 123 30 124 30 76 30 C 54 30 33 30 33 30 z" fill="black"/><!-- width=142 height=194 -->
<path id="gl20994" d="M 84 13 C 68 15 54 19 43 27 C 15 48 4 86 16 120 C 23 142 42 160 63 166 C 88 172 114 168 133 153 C 165 129 172 76 149 42 C 134 22 109 11 84 13 M 91 28 C 116 31 130 58 129 99 C 129 114 127 122 123 131 C 110 163 70 162 54 130 C 43 108 42 72 51 52 C 59 33 73 25 91 28 z" fill="black"/><!-- width=175 height=183 -->
<path id="gl5129" d="M 35 13 C 27 13 23 17 25 22 C 27 24 28 24 34 27 C 40 30 41 34 41 80 C 41 113 40 133 39 137 C 38 141 36 143 31 144 C 27 146 25 148 24 150 C 24 153 25 155 27 156 C 31 158 76 158 81 157 C 88 154 87 148 79 145 C 71 142 70 139 70 118 C 70 101 70 100 73 99 C 77 97 81 100 87 110 C 107 148 114 155 134 158 C 147 160 151 159 151 152 C 151 148 151 148 148 146 C 139 137 133 130 120 110 C 108 91 108 90 116 84 C 133 72 138 52 130 34 C 124 22 113 15 94 14 C 86 13 43 13 35 13 M 88 30 C 108 37 108 70 89 80 C 80 85 72 84 70 78 C 70 73 70 34 71 32 C 73 27 79 27 88 30 z" fill="black"/><!-- width=166 height=173 -->
<path id="gl32267" d="M 19 40 C 16 43 15 45 15 61 C 15 78 15 79 19 79 C 22 79 24 78 28 70 C 33 60 36 58 48 56 C 56 55 61 56 63 58 C 64 59 64 60 65 60 C 65 63 66 67 66 70 C 66 82 66 155 66 163 C 65 175 63 178 54 180 C 46 182 44 186 48 190 C 50 192 52 192 79 192 C 105 193 108 192 110 189 C 112 185 110 182 102 180 C 95 178 93 175 91 168 C 90 164 90 63 91 60 C 93 57 99 55 109 56 C 122 58 125 60 129 71 C 133 80 138 82 141 76 C 142 72 141 45 139 42 C 137 38 135 37 129 40 C 127 40 126 41 124 42 C 109 42 93 42 78 42 C 62 42 46 42 31 42 C 30 41 28 40 27 40 C 22 38 21 38 19 40 M 16 183 C 15 185 15 190 16 191 C 17 193 17 193 19 192 C 22 190 22 187 19 184 C 18 182 17 182 16 183 z" fill="black"/><!-- width=155 height=206 -->
<path id="gl33291" d="M 36 22 C 31 23 29 27 31 30 C 31 32 33 33 38 34 C 43 36 43 36 45 39 C 48 43 48 44 48 85 C 49 133 49 139 57 151 C 66 166 82 174 105 175 C 139 175 161 154 165 117 C 166 111 166 102 166 86 C 166 64 167 47 169 42 C 170 38 172 36 180 33 C 186 31 188 28 186 25 C 183 22 182 22 158 22 C 143 21 135 22 133 22 C 129 24 127 27 129 31 C 131 32 132 33 138 35 C 149 38 150 42 150 89 C 150 117 150 121 145 132 C 139 150 129 156 111 156 C 91 155 81 142 78 114 C 78 102 78 45 79 42 C 80 38 82 36 87 34 C 95 31 97 26 91 23 C 89 22 40 21 36 22 z" fill="black"/><!-- width=198 height=188 -->
<path id="gl1804" d="M 22 20 C 17 21 15 23 15 27 C 15 30 17 31 22 34 C 30 37 31 39 33 45 C 36 55 36 133 33 143 C 31 147 30 148 24 151 C 18 154 16 157 18 160 C 20 165 21 165 45 165 C 64 165 66 165 68 163 C 75 160 72 153 64 151 C 52 148 52 145 52 105 C 52 64 51 64 74 93 C 80 100 89 111 94 117 C 99 123 106 132 109 136 C 114 141 119 147 121 150 C 133 165 138 168 144 164 C 148 162 148 165 148 106 C 148 37 148 39 159 33 C 163 31 165 30 165 27 C 165 24 165 23 162 21 C 160 20 159 20 141 20 C 118 19 115 20 113 23 C 109 27 112 31 120 33 C 130 37 131 40 132 70 C 132 97 132 108 128 108 C 127 108 111 90 87 61 C 84 58 79 52 75 47 C 70 42 65 36 61 31 C 56 25 53 22 49 21 C 48 20 25 19 22 20 z" fill="black"/><!-- width=180 height=180 -->
<path id="gl33292" d="M 76 7 C 72 9 68 15 64 28 C 62 33 60 39 58 42 C 57 45 55 50 54 54 C 52 57 51 61 50 63 C 49 64 48 69 46 72 C 45 75 43 82 41 88 C 39 93 36 100 35 103 C 34 106 32 112 31 115 C 30 117 28 122 27 126 C 22 137 19 141 13 143 C 8 145 7 145 6 148 C 5 151 6 154 9 155 C 12 156 49 156 51 154 C 55 151 54 145 47 144 C 40 142 40 139 44 126 C 50 108 51 105 57 105 C 63 104 81 104 85 104 C 90 105 93 109 96 118 C 96 120 98 124 99 127 C 103 137 103 140 98 144 C 91 148 91 150 93 153 C 96 156 98 156 121 156 C 142 156 144 156 147 153 C 151 150 149 146 142 144 C 136 142 132 136 128 126 C 127 124 126 120 124 116 C 123 112 121 106 119 103 C 118 99 116 93 114 89 C 111 79 107 69 104 60 C 102 55 99 46 96 39 C 93 31 90 22 88 19 C 84 7 81 5 76 7 M 73 58 C 75 60 83 82 82 84 C 81 88 79 88 71 88 C 58 88 57 87 62 72 C 69 56 69 54 73 58 z" fill="black"/><!-- width=161 height=191 -->
<path id="gl15116" d="M 17 13 C 13 15 12 16 12 22 C 12 27 12 27 15 28 C 15 29 16 30 17 31 C 19 30 21 30 23 30 C 37 30 98 29 112 30 C 129 31 129 31 132 28 C 135 25 135 18 132 15 C 129 12 128 12 111 13 C 95 13 25 13 21 12 C 19 12 18 12 17 13 M 18 56 C 10 58 9 71 17 74 C 19 75 21 75 28 74 C 36 73 113 74 126 75 C 132 75 136 67 133 60 C 130 56 129 55 116 57 C 105 57 23 57 22 56 C 21 56 19 56 18 56 z" fill="black"/><!-- width=146 height=88 -->
<path id="gl1798" d="M 52 11 C 33 16 19 29 17 48 C 15 69 25 83 54 97 C 73 107 78 113 78 124 C 78 146 55 154 38 138 C 34 133 33 132 30 124 C 25 114 23 112 19 112 C 13 111 10 116 11 123 C 14 141 16 150 20 153 C 28 159 56 164 68 160 C 92 154 106 136 105 113 C 103 95 94 84 72 73 C 60 67 55 65 52 63 C 33 50 43 22 66 26 C 74 28 79 32 83 43 C 85 49 87 51 89 52 C 93 55 98 53 100 49 C 102 45 97 21 94 17 C 90 12 64 9 52 11 z" fill="black"/><!-- width=119 height=175 -->
<path id="gl5396" d="M 34 24 C 27 27 28 33 36 37 C 46 40 46 39 46 86 C 46 126 47 128 50 138 C 54 154 66 165 84 169 C 91 171 110 171 117 169 C 139 163 153 147 158 122 C 159 118 159 109 159 89 C 160 43 161 41 171 36 C 178 33 179 27 172 24 C 170 23 132 23 129 24 C 121 26 122 34 130 36 C 138 39 141 41 142 48 C 143 52 144 108 143 114 C 140 136 131 148 115 151 C 93 156 79 142 76 114 C 75 97 75 48 77 43 C 78 40 81 38 84 37 C 92 34 93 26 86 24 C 82 23 37 23 34 24 z" fill="black"/><!-- width=191 height=186 -->
<path id="gl1804" d="M 22 20 C 17 21 15 23 15 27 C 15 30 17 31 22 34 C 30 37 31 39 33 45 C 36 55 36 133 33 143 C 31 147 30 148 24 151 C 18 154 16 157 18 160 C 20 165 21 165 45 165 C 64 165 66 165 68 163 C 75 160 72 153 64 151 C 52 148 52 145 52 105 C 52 64 51 64 74 93 C 80 100 89 111 94 117 C 99 123 106 132 109 136 C 114 141 119 147 121 150 C 133 165 138 168 144 164 C 148 162 148 165 148 106 C 148 37 148 39 159 33 C 163 31 165 30 165 27 C 165 24 165 23 162 21 C 160 20 159 20 141 20 C 118 19 115 20 113 23 C 109 27 112 31 120 33 C 130 37 131 40 132 70 C 132 97 132 108 128 108 C 127 108 111 90 87 61 C 84 58 79 52 75 47 C 70 42 65 36 61 31 C 56 25 53 22 49 21 C 48 20 25 19 22 20 z" fill="black"/><!-- width=180 height=180 -->
<path id="gl1283" d="M 16 14 C 12 17 12 28 16 31 C 18 33 19 33 24 32 C 33 31 57 31 63 32 C 71 33 74 31 74 22 C 74 13 72 13 60 14 C 52 15 34 14 22 13 C 18 13 18 13 16 14 z" fill="black"/><!-- width=87 height=46 -->
<path id="gl1537" d="M 79 11 C 76 12 75 15 65 40 C 57 63 35 118 32 127 C 26 142 23 146 16 150 C 10 152 9 154 9 157 C 9 162 10 162 33 162 C 56 162 57 162 57 156 C 57 153 56 152 49 149 C 44 147 43 144 46 134 C 52 116 55 110 58 109 C 61 108 88 108 92 108 C 97 109 99 113 105 133 C 110 145 109 147 103 150 C 97 153 96 156 99 160 C 102 162 104 163 129 162 C 150 162 151 162 153 159 C 155 154 153 151 145 149 C 138 147 135 142 128 123 C 126 117 123 111 123 109 C 122 106 120 101 118 96 C 117 91 114 85 114 83 C 112 81 110 73 108 67 C 106 61 102 50 98 42 C 95 34 92 25 91 22 C 87 12 84 9 79 11 M 78 58 C 79 60 82 68 86 79 C 90 91 89 91 75 91 C 62 91 61 91 66 78 C 72 58 75 55 78 58 z" fill="black"/><!-- width=168 height=204 -->
<path id="gl1798" d="M 52 11 C 33 16 19 29 17 48 C 15 69 25 83 54 97 C 73 107 78 113 78 124 C 78 146 55 154 38 138 C 34 133 33 132 30 124 C 25 114 23 112 19 112 C 13 111 10 116 11 123 C 14 141 16 150 20 153 C 28 159 56 164 68 160 C 92 154 106 136 105 113 C 103 95 94 84 72 73 C 60 67 55 65 52 63 C 33 50 43 22 66 26 C 74 28 79 32 83 43 C 85 49 87 51 89 52 C 93 55 98 53 100 49 C 102 45 97 21 94 17 C 90 12 64 9 52 11 z" fill="black"/><!-- width=119 height=175 -->
<path id="gl33293" d="M 112 9 C 83 13 63 24 51 42 C 40 56 36 70 36 90 C 36 94 36 99 36 103 C 36 105 37 108 38 110 C 42 123 47 133 55 141 C 76 163 109 171 148 162 C 162 159 163 158 167 145 C 173 126 174 122 171 119 C 168 115 163 117 160 122 C 148 141 142 147 129 149 C 107 154 87 143 78 122 C 66 94 68 63 82 42 C 91 30 103 24 120 24 C 138 24 147 29 154 44 C 159 52 160 54 163 54 C 168 54 169 51 168 39 C 166 14 165 13 144 10 C 138 9 115 8 112 9 z" fill="black"/><!-- width=185 height=177 -->
<path id="gl33294" d="M 36 12 C 32 12 29 12 28 13 C 22 16 24 22 33 25 C 39 27 40 30 41 38 C 42 44 42 136 42 138 C 40 144 37 147 31 149 C 22 152 21 157 27 161 C 30 162 31 162 79 162 C 109 162 129 162 130 161 C 135 160 136 156 139 141 C 142 126 142 123 138 121 C 133 118 131 121 126 130 C 122 139 118 143 113 145 C 105 147 88 147 82 145 C 75 143 73 139 73 112 C 73 92 73 92 87 92 C 100 92 104 94 106 100 C 109 109 115 112 119 106 C 120 103 121 72 120 66 C 118 55 110 55 106 66 C 104 73 100 75 87 75 C 73 75 73 76 73 51 C 73 27 73 27 86 27 C 105 26 112 29 116 39 C 119 46 120 48 122 49 C 125 51 126 51 129 48 C 130 48 130 47 131 46 C 131 44 131 42 131 39 C 130 18 129 13 121 12 C 118 12 45 11 36 12 z" fill="black"/><!-- width=155 height=177 -->
<path id="gl1804" d="M 22 20 C 17 21 15 23 15 27 C 15 30 17 31 22 34 C 30 37 31 39 33 45 C 36 55 36 133 33 143 C 31 147 30 148 24 151 C 18 154 16 157 18 160 C 20 165 21 165 45 165 C 64 165 66 165 68 163 C 75 160 72 153 64 151 C 52 148 52 145 52 105 C 52 64 51 64 74 93 C 80 100 89 111 94 117 C 99 123 106 132 109 136 C 114 141 119 147 121 150 C 133 165 138 168 144 164 C 148 162 148 165 148 106 C 148 37 148 39 159 33 C 163 31 165 30 165 27 C 165 24 165 23 162 21 C 160 20 159 20 141 20 C 118 19 115 20 113 23 C 109 27 112 31 120 33 C 130 37 131 40 132 70 C 132 97 132 108 128 108 C 127 108 111 90 87 61 C 84 58 79 52 75 47 C 70 42 65 36 61 31 C 56 25 53 22 49 21 C 48 20 25 19 22 20 z" fill="black"/><!-- width=180 height=180 -->
<path id="gl33295" d="M 29 13 C 18 14 16 15 15 19 C 13 21 16 24 22 26 C 26 28 27 28 29 32 C 30 33 30 34 31 35 C 31 52 31 69 31 86 C 31 143 31 143 27 148 C 25 150 25 150 21 151 C 15 153 13 154 13 157 C 12 159 13 161 16 162 C 18 163 77 163 85 162 C 90 162 98 160 105 159 C 129 153 153 132 159 112 C 162 102 162 99 162 82 C 162 63 162 61 157 51 C 153 43 144 31 142 31 C 142 31 141 31 139 30 C 133 22 117 17 95 13 C 90 13 41 13 29 13 M 91 28 C 100 30 112 36 117 43 C 126 52 132 72 130 91 C 130 100 127 116 125 118 C 124 118 123 122 121 125 C 117 133 110 139 100 144 C 91 148 75 150 67 147 C 61 144 61 144 61 85 C 61 31 61 30 64 29 C 70 27 81 27 91 28 z" fill="black"/><!-- width=174 height=174 -->
<path id="gl1537" d="M 79 11 C 76 12 75 15 65 40 C 57 63 35 118 32 127 C 26 142 23 146 16 150 C 10 152 9 154 9 157 C 9 162 10 162 33 162 C 56 162 57 162 57 156 C 57 153 56 152 49 149 C 44 147 43 144 46 134 C 52 116 55 110 58 109 C 61 108 88 108 92 108 C 97 109 99 113 105 133 C 110 145 109 147 103 150 C 97 153 96 156 99 160 C 102 162 104 163 129 162 C 150 162 151 162 153 159 C 155 154 153 151 145 149 C 138 147 135 142 128 123 C 126 117 123 111 123 109 C 122 106 120 101 118 96 C 117 91 114 85 114 83 C 112 81 110 73 108 67 C 106 61 102 50 98 42 C 95 34 92 25 91 22 C 87 12 84 9 79 11 M 78 58 C 79 60 82 68 86 79 C 90 91 89 91 75 91 C 62 91 61 91 66 78 C 72 58 75 55 78 58 z" fill="black"/><!-- width=168 height=204 -->
<path id="gl3091" d="M 18 20 C 12 23 13 29 21 31 C 30 34 33 38 34 47 C 35 52 34 139 34 144 C 33 151 31 153 25 157 C 17 160 15 163 18 166 C 19 169 23 170 45 169 C 69 169 69 169 70 165 C 71 162 69 159 63 157 C 51 154 51 152 49 118 C 49 87 49 69 52 67 C 54 65 59 71 83 100 C 87 105 92 111 94 114 C 96 116 102 124 108 130 C 129 156 138 167 140 168 C 145 171 150 169 151 164 C 151 162 152 145 152 110 C 152 37 152 36 162 32 C 172 28 172 22 163 19 C 157 18 121 19 119 21 C 113 24 115 29 124 31 C 136 35 136 37 136 84 C 136 125 136 125 122 108 C 118 104 114 99 112 97 C 110 94 106 88 102 84 C 51 23 50 22 45 20 C 40 19 21 19 18 20 z" fill="black"/><!-- width=183 height=184 -->
<path id="gl33296" d="M 18 37 C 15 40 14 50 14 69 C 14 72 14 74 14 76 C 15 77 15 78 16 78 C 19 81 23 79 25 72 C 30 60 36 55 49 55 C 58 54 60 55 61 59 C 63 64 63 168 61 171 C 60 174 56 177 51 178 C 45 179 43 181 43 184 C 43 190 43 190 78 190 C 111 190 112 190 112 186 C 114 181 112 179 105 178 C 97 176 94 173 93 166 C 92 159 91 63 93 60 C 94 55 96 55 105 55 C 122 55 125 57 130 72 C 132 78 136 81 139 78 C 142 76 142 74 141 58 C 140 40 140 40 138 38 C 136 36 135 36 128 39 C 126 39 125 40 123 40 C 108 40 92 40 76 40 C 61 40 45 40 30 40 C 28 39 27 39 26 38 C 22 36 19 36 18 37 z" fill="black"/><!-- width=155 height=204 -->
</defs>
<use xlink:href="#gl10502" x="0" y="35"/>
<use xlink:href="#gl20994" x="196" y="30"/>
<use xlink:href="#gl20994" x="364" y="30"/>
<use xlink:href="#gl4117" x="523" y="27"/>
<use xlink:href="#gl1283" x="739" y="120"/>
<use xlink:href="#gl3337" x="852" y="13"/>
<use xlink:href="#gl4878" x="969" y="40"/>
<use xlink:href="#gl1794" x="1102" y="38"/>
<use xlink:href="#gl1029" x="1257" y="34"/>
<use xlink:href="#gl2051" x="1399" y="19"/>
<use xlink:href="#gl20994" x="1530" y="33"/>
<use xlink:href="#gl5129" x="1685" y="38"/>
<use xlink:href="#gl32267" x="1821" y="9"/>
<use xlink:href="#gl33291" x="1941" y="28"/>
<use xlink:href="#gl1804" x="2118" y="33"/>
<use xlink:href="#gl33292" x="2277" y="43"/>
<use xlink:href="#gl15116" x="2472" y="90"/>
<use xlink:href="#gl1798" x="2658" y="36"/>
<use xlink:href="#gl5396" x="2748" y="26"/>
<use xlink:href="#gl1804" x="2921" y="28"/>
<use xlink:href="#gl1283" x="3135" y="119"/>
<use xlink:href="#gl1537" x="3255" y="32"/>
<use xlink:href="#gl1798" x="3402" y="33"/>
<use xlink:href="#gl33293" x="3485" y="31"/>
<use xlink:href="#gl33294" x="3641" y="31"/>
<use xlink:href="#gl1804" x="3775" y="24"/>
<use xlink:href="#gl33295" x="3940" y="28"/>
<use xlink:href="#gl1537" x="4092" y="29"/>
<use xlink:href="#gl3091" x="4234" y="21"/>
<use xlink:href="#gl33296" x="4397" y="0"/>
</svg>
