<?xml version='1.0' encoding='utf-8'?>
<svg xmlns="http://www.w3.org/2000/svg" xmlns:xlink="http://www.w3.org/1999/xlink" width="529px" height="49px" viewBox="0 0 5295 492" version="1.1">
<defs>
<path id="gl13574" d="M 97 12 C 56 16 28 48 33 87 C 35 118 54 139 84 147 C 103 151 131 147 139 138 C 142 136 142 135 142 132 C 141 124 135 121 125 126 C 100 135 73 127 63 105 C 49 76 60 42 87 34 C 101 29 112 30 128 37 C 132 39 133 40 136 39 C 141 39 145 33 144 28 C 142 19 117 10 97 12 z" fill="black"/><!-- width=157 height=162 -->
<path id="gl13593" d="M 30 7 C 24 9 24 9 25 37 C 26 61 25 117 24 132 C 24 146 25 148 36 148 C 47 149 48 147 48 131 C 47 125 46 112 46 102 C 46 84 46 83 48 79 C 54 64 79 61 86 76 C 88 81 89 86 88 116 C 87 146 87 145 91 148 C 94 149 104 149 106 148 C 109 145 111 143 110 136 C 110 133 109 118 109 102 C 109 78 109 73 108 71 C 101 49 78 42 56 54 C 47 60 44 58 45 49 C 46 43 47 22 47 17 C 48 9 45 7 36 7 C 34 7 31 7 30 7 z" fill="black"/><!-- width=123 height=167 -->
<path id="gl13844" d="M 36 9 C 27 11 16 18 15 22 C 13 28 17 33 23 33 C 25 33 26 33 31 30 C 37 26 40 24 46 24 C 57 24 65 32 61 39 C 60 41 59 42 51 43 C 21 49 6 63 9 83 C 11 100 22 110 37 109 C 43 109 48 107 53 102 C 60 96 61 95 64 101 C 67 107 70 108 79 108 C 87 108 88 105 85 93 C 84 91 84 89 82 87 C 82 78 82 69 82 59 C 82 27 82 28 77 21 C 70 13 63 9 48 9 C 43 9 37 9 36 9 M 61 55 C 67 57 63 78 54 86 C 43 96 30 93 29 79 C 28 70 33 66 45 59 C 56 54 58 53 61 55 z" fill="black"/><!-- width=102 height=124 -->
<path id="gl13577" d="M 67 31 C 66 32 65 33 64 33 C 55 39 56 39 52 36 C 49 33 47 32 42 32 C 33 32 32 34 33 46 C 34 53 34 66 33 121 C 33 123 33 124 33 126 C 33 127 34 127 35 128 C 39 132 50 132 53 129 C 55 126 56 124 55 113 C 54 97 54 76 55 70 C 56 55 63 49 73 54 C 78 55 81 55 85 52 C 90 48 91 47 91 43 C 92 39 91 36 87 35 C 85 34 82 33 81 33 C 77 31 71 30 67 31 z" fill="black"/><!-- width=102 height=144 -->
<path id="gl14096" d="M 42 11 C 38 12 34 13 32 15 C 29 18 29 19 30 28 C 30 33 30 34 25 35 C 21 36 19 40 20 46 C 21 50 21 51 25 51 C 30 52 30 52 30 66 C 30 102 30 108 31 112 C 34 127 45 135 63 133 C 76 133 81 129 79 120 C 78 115 74 113 67 115 C 58 117 55 117 52 111 C 51 109 51 108 51 107 C 50 100 50 94 50 88 C 50 78 50 67 50 63 C 49 51 51 49 61 51 C 71 54 76 51 76 43 C 76 37 70 34 60 36 C 51 38 48 34 51 24 C 54 15 51 10 42 11 z" fill="black"/><!-- width=90 height=147 -->
<path id="gl13579" d="M 46 27 C 44 27 40 28 37 30 C 33 31 22 36 15 38 C 9 40 6 44 7 49 C 10 58 15 60 25 53 C 36 46 38 49 37 65 C 37 70 37 87 37 102 C 37 117 36 136 36 143 C 35 156 35 157 36 159 C 39 163 40 163 48 163 C 50 163 52 163 54 163 C 55 163 56 162 57 162 C 60 159 60 157 59 150 C 58 142 58 48 59 40 C 60 29 57 25 46 27 z" fill="black"/><!-- width=88 height=176 -->
<path id="gl15110" d="M 86 5 C 64 10 45 22 32 42 C 12 70 10 109 27 127 C 46 147 75 146 93 126 C 102 117 105 109 105 96 C 105 67 83 49 57 57 C 48 59 46 58 46 55 C 46 45 67 29 85 25 C 96 22 99 20 99 13 C 99 6 94 3 86 5 M 69 73 C 80 78 85 93 80 108 C 73 129 47 129 39 108 C 37 99 38 86 42 79 C 47 72 59 70 69 73 z" fill="black"/><!-- width=118 height=160 -->
<path id="gl13580" d="M 19 15 C 6 22 12 44 27 43 C 41 43 46 24 34 16 C 30 13 24 13 19 15 M 24 79 C 10 82 8 100 20 108 C 30 113 42 103 40 93 C 40 88 37 84 35 82 C 33 81 27 79 27 79 C 26 79 25 79 24 79 z" fill="black"/><!-- width=53 height=123 -->
<path id="gl16142" d="M 72 13 C 67 15 64 20 58 39 C 57 42 55 45 55 46 C 53 49 49 62 49 64 C 49 74 61 75 66 65 C 66 64 67 61 69 59 C 69 57 71 54 72 52 C 72 50 74 47 75 46 C 79 40 83 30 83 25 C 84 16 79 11 72 13 M 36 13 C 32 15 28 21 24 33 C 22 37 21 41 20 43 C 19 45 17 50 16 53 C 12 63 12 66 15 70 C 21 75 28 72 31 63 C 31 61 33 57 34 55 C 48 28 49 22 46 16 C 45 14 40 13 36 13 z" fill="black"/><!-- width=97 height=84 -->
<path id="gl13581" d="M 42 12 C 25 16 14 30 15 45 C 16 60 22 67 46 84 C 62 96 67 102 67 111 C 67 115 66 117 65 120 C 60 131 42 132 29 123 C 22 117 16 117 13 123 C 6 132 9 137 23 142 C 45 151 66 148 79 134 C 88 126 91 115 88 102 C 85 91 73 77 54 64 C 36 52 32 41 41 33 C 48 27 58 27 68 33 C 75 38 81 37 85 31 C 88 26 88 23 83 19 C 75 12 55 8 42 12 z" fill="black"/><!-- width=103 height=160 -->
<path id="gl13593" d="M 30 7 C 24 9 24 9 25 37 C 26 61 25 117 24 132 C 24 146 25 148 36 148 C 47 149 48 147 48 131 C 47 125 46 112 46 102 C 46 84 46 83 48 79 C 54 64 79 61 86 76 C 88 81 89 86 88 116 C 87 146 87 145 91 148 C 94 149 104 149 106 148 C 109 145 111 143 110 136 C 110 133 109 118 109 102 C 109 78 109 73 108 71 C 101 49 78 42 56 54 C 47 60 44 58 45 49 C 46 43 47 22 47 17 C 48 9 45 7 36 7 C 34 7 31 7 30 7 z" fill="black"/><!-- width=123 height=167 -->
<path id="gl14338" d="M 52 13 C 41 16 30 23 22 33 C 20 36 16 44 15 48 C 13 54 13 70 15 77 C 19 96 34 110 52 113 C 82 117 105 98 107 67 C 109 45 100 27 81 18 C 73 14 61 12 52 13 M 67 31 C 79 34 85 45 85 63 C 85 84 76 96 60 96 C 45 96 36 85 36 63 C 36 40 49 27 67 31 z" fill="black"/><!-- width=121 height=127 -->
<path id="gl13586" d="M 18 8 C 12 9 10 13 11 22 C 12 25 12 39 12 51 C 12 79 12 84 17 93 C 25 108 48 113 66 102 C 70 99 72 99 75 102 C 78 105 80 106 85 106 C 92 106 94 104 94 98 C 94 71 93 54 94 35 C 94 16 94 13 94 12 C 92 9 90 8 84 8 C 76 7 73 9 72 15 C 72 15 72 19 72 22 C 73 35 73 69 72 73 C 70 84 63 90 53 90 C 41 91 34 85 33 73 C 33 71 33 58 33 44 C 34 10 34 12 30 9 C 28 8 21 7 18 8 z" fill="black"/><!-- width=108 height=125 -->
<path id="gl13599" d="M 18 12 C 16 13 15 14 14 15 C 13 16 13 16 12 17 C 13 22 13 28 13 33 C 14 53 14 111 13 132 C 12 148 13 150 15 152 C 17 153 27 154 30 153 C 35 151 34 154 34 102 C 34 76 34 48 34 37 C 34 16 34 16 32 13 C 30 12 21 12 18 12 z" fill="black"/><!-- width=48 height=166 -->
<path id="gl13846" d="M 85 10 C 79 11 78 13 78 34 C 77 56 77 55 68 52 C 42 43 17 57 9 85 C 7 91 7 108 9 116 C 17 145 42 157 69 145 C 75 142 75 142 79 145 C 85 150 96 149 98 144 C 99 141 100 23 99 17 C 98 13 95 10 93 10 C 92 10 90 10 90 10 C 88 10 87 10 85 10 M 62 70 C 72 73 78 85 77 100 C 76 123 63 136 47 131 C 33 127 26 99 34 80 C 39 70 51 66 62 70 z" fill="black"/><!-- width=124 height=181 -->
<path id="gl14337" d="M 137 16 C 134 18 133 21 126 48 C 120 76 118 78 115 78 C 112 78 111 73 96 29 C 93 19 90 16 84 16 C 77 16 76 18 70 36 C 55 81 56 78 52 78 C 49 78 48 75 45 61 C 44 57 42 51 42 48 C 40 44 39 37 37 31 C 34 18 32 16 26 16 C 23 16 16 18 15 19 C 10 23 11 27 18 45 C 19 47 22 53 23 57 C 25 62 28 70 30 75 C 34 86 37 97 40 105 C 42 114 45 117 52 115 C 57 115 60 111 62 103 C 63 102 64 96 67 90 C 69 85 72 75 75 67 C 79 54 80 52 83 52 C 85 52 87 55 91 69 C 101 97 105 108 106 111 C 108 114 111 115 115 115 C 122 115 125 112 127 105 C 129 99 136 76 139 67 C 141 63 144 57 144 55 C 147 48 151 37 154 31 C 157 24 156 19 150 16 C 146 15 139 15 137 16 z" fill="black"/><!-- width=167 height=127 -->
<path id="gl18700" d="M 48 17 C 34 21 25 28 19 40 C 13 53 13 81 21 92 C 29 106 39 112 58 114 C 61 115 64 115 66 115 C 69 115 72 114 75 114 C 91 109 94 107 95 100 C 95 91 88 88 80 94 C 75 97 62 99 54 96 C 43 93 34 80 35 71 C 36 67 37 67 52 68 C 55 69 66 69 75 69 C 81 69 87 69 93 69 C 94 69 94 68 95 67 C 100 61 94 38 86 27 C 78 17 63 13 48 17 M 66 33 C 71 35 76 41 77 48 C 78 53 76 54 55 54 C 49 54 44 54 38 54 C 38 53 37 52 37 52 C 34 49 39 40 46 36 C 48 34 49 33 56 32 C 59 31 63 32 66 33 z" fill="black"/><!-- width=106 height=127 -->
<path id="gl18187" d="M 36 10 C 30 13 30 15 30 88 C 30 140 30 141 31 144 C 34 149 42 150 49 146 C 51 145 52 144 54 144 C 55 144 56 145 57 145 C 70 151 81 152 92 148 C 117 139 130 105 118 76 C 109 53 85 43 60 54 C 52 58 52 58 51 35 C 51 13 51 12 46 10 C 43 9 38 9 36 10 M 85 69 C 94 73 99 85 99 101 C 98 113 96 120 91 126 C 86 131 84 132 76 132 C 66 132 61 129 56 120 C 51 109 51 93 56 81 C 61 70 74 65 85 69 z" fill="black"/><!-- width=136 height=181 -->
<path id="gl18701" d="M 10 8 C 7 10 7 13 8 19 C 8 22 9 36 9 51 C 9 76 9 81 11 85 C 15 98 30 106 46 104 C 52 103 55 103 64 96 C 66 95 66 95 70 99 C 75 103 75 103 80 103 C 88 104 89 102 88 79 C 88 63 88 44 88 25 C 89 8 88 7 78 7 C 69 7 67 9 67 15 C 68 55 68 71 67 75 C 63 82 55 88 46 88 C 38 88 31 83 29 75 C 28 71 28 39 29 23 C 30 8 29 7 18 7 C 12 6 12 6 10 8 z" fill="black"/><!-- width=99 height=120 -->
<path id="gl14356" d="M 32 33 C 23 35 20 40 24 46 C 26 51 28 54 37 76 C 58 124 57 120 52 131 C 45 148 40 154 30 156 C 21 158 19 159 19 164 C 19 171 22 174 31 173 C 49 172 60 161 73 130 C 73 129 76 124 77 120 C 79 116 82 109 84 106 C 85 102 88 96 89 93 C 91 88 94 83 99 71 C 100 67 104 59 106 54 C 112 41 112 39 110 35 C 108 33 105 31 100 31 C 96 31 93 35 91 40 C 90 42 88 47 85 52 C 84 58 80 67 78 72 C 73 84 70 91 69 91 C 67 91 64 87 63 82 C 62 80 60 75 58 70 C 56 65 54 60 53 57 C 50 50 46 39 44 36 C 42 32 38 31 32 33 z" fill="black"/><!-- width=124 height=187 -->
<path id="gl13588" d="M 39 13 C 36 15 34 15 34 15 C 34 15 33 16 32 18 C 31 19 31 21 31 25 C 31 35 31 36 30 36 C 30 37 27 38 25 38 C 19 39 16 42 17 48 C 18 51 21 52 26 53 C 32 54 32 54 31 66 C 31 90 31 114 33 117 C 38 133 51 139 70 135 C 78 133 81 132 81 126 C 81 121 80 118 76 117 C 74 115 73 116 67 118 C 60 120 56 118 54 114 C 53 113 52 112 52 111 C 52 106 52 101 52 96 C 52 88 52 76 51 69 C 51 52 51 51 62 53 C 73 55 77 53 77 46 C 78 40 74 37 68 37 C 51 39 51 39 52 30 C 53 18 52 15 51 13 C 49 10 45 11 39 13 z" fill="black"/><!-- width=93 height=150 -->
<path id="gl13593" d="M 30 7 C 24 9 24 9 25 37 C 26 61 25 117 24 132 C 24 146 25 148 36 148 C 47 149 48 147 48 131 C 47 125 46 112 46 102 C 46 84 46 83 48 79 C 54 64 79 61 86 76 C 88 81 89 86 88 116 C 87 146 87 145 91 148 C 94 149 104 149 106 148 C 109 145 111 143 110 136 C 110 133 109 118 109 102 C 109 78 109 73 108 71 C 101 49 78 42 56 54 C 47 60 44 58 45 49 C 46 43 47 22 47 17 C 48 9 45 7 36 7 C 34 7 31 7 30 7 z" fill="black"/><!-- width=123 height=167 -->
<path id="gl13587" d="M 53 16 C 45 18 34 25 28 31 C 19 43 15 59 18 77 C 23 108 52 124 84 114 C 97 109 101 105 97 98 C 95 91 91 91 83 95 C 73 100 63 101 55 97 C 43 91 34 76 39 70 C 40 69 43 69 51 69 C 54 70 62 70 69 70 C 77 70 86 71 89 71 C 98 72 100 69 100 60 C 99 39 90 24 75 18 C 70 16 58 16 53 16 M 70 35 C 79 39 83 51 78 54 C 76 55 73 55 58 55 C 53 55 47 55 41 55 C 41 55 40 54 40 54 C 36 49 45 37 54 34 C 60 32 66 33 70 35 z" fill="black"/><!-- width=113 height=130 -->
<path id="gl13584" d="M 42 11 C 25 15 16 24 16 37 C 16 49 19 54 37 65 C 51 75 54 78 53 85 C 52 96 39 99 27 90 C 21 85 19 85 15 89 C 7 96 9 103 21 108 C 46 118 73 106 73 84 C 74 72 68 63 50 51 C 36 41 33 38 36 32 C 39 26 47 25 57 30 C 62 33 64 33 67 31 C 73 27 73 19 67 15 C 61 12 49 10 42 11 z" fill="black"/><!-- width=88 height=126 -->
<path id="gl13824" d="M 43 10 C 31 13 29 15 30 27 C 30 35 29 36 24 36 C 18 36 15 42 17 48 C 18 51 19 51 24 52 C 30 52 31 53 30 63 C 30 82 30 108 31 112 C 34 127 42 134 57 135 C 76 136 85 127 77 117 C 75 114 72 114 69 115 C 58 119 54 117 51 109 C 51 106 50 103 51 91 C 51 83 51 72 50 65 C 50 61 50 58 49 54 C 50 54 51 53 51 53 C 54 51 55 51 60 52 C 70 54 73 52 75 48 C 79 40 73 35 65 36 C 55 37 54 37 52 36 C 50 34 49 32 51 24 C 53 12 51 9 43 10 z" fill="black"/><!-- width=90 height=147 -->
<path id="gl13844" d="M 36 9 C 27 11 16 18 15 22 C 13 28 17 33 23 33 C 25 33 26 33 31 30 C 37 26 40 24 46 24 C 57 24 65 32 61 39 C 60 41 59 42 51 43 C 21 49 6 63 9 83 C 11 100 22 110 37 109 C 43 109 48 107 53 102 C 60 96 61 95 64 101 C 67 107 70 108 79 108 C 87 108 88 105 85 93 C 84 91 84 89 82 87 C 82 78 82 69 82 59 C 82 27 82 28 77 21 C 70 13 63 9 48 9 C 43 9 37 9 36 9 M 61 55 C 67 57 63 78 54 86 C 43 96 30 93 29 79 C 28 70 33 66 45 59 C 56 54 58 53 61 55 z" fill="black"/><!-- width=102 height=124 -->
<path id="gl13589" d="M 20 9 C 15 11 12 15 13 22 C 13 27 13 27 15 29 C 22 38 36 35 39 24 C 41 13 30 4 20 9 M 20 48 C 15 48 13 52 15 63 C 15 68 15 129 14 138 C 14 143 17 145 25 145 C 34 145 37 143 37 138 C 37 136 36 116 36 93 C 36 79 36 64 36 51 C 36 50 35 49 34 49 C 33 48 31 47 30 47 C 29 47 27 47 25 47 C 23 47 21 47 20 48 z" fill="black"/><!-- width=51 height=163 -->
<path id="gl13590" d="M 58 24 C 55 24 50 26 46 28 C 42 31 40 31 37 29 C 34 25 31 24 25 24 C 17 24 16 26 17 40 C 18 51 17 95 16 111 C 16 121 18 123 29 123 C 31 123 33 123 35 123 C 36 122 36 121 37 120 C 39 118 39 116 39 109 C 38 96 37 60 39 56 C 41 46 49 40 60 40 C 72 40 78 45 80 57 C 81 61 80 88 79 109 C 79 121 81 123 91 123 C 101 122 102 120 102 107 C 101 102 100 87 100 75 C 100 45 100 41 92 33 C 85 25 70 21 58 24 z" fill="black"/><!-- width=115 height=136 -->
<path id="gl13594" d="M 58 17 C 41 18 27 30 21 48 C 16 58 17 76 21 88 C 30 114 60 124 90 112 C 97 110 99 107 99 103 C 100 100 99 99 98 97 C 94 92 91 91 83 96 C 64 105 46 98 39 79 C 37 71 39 69 48 70 C 54 70 88 72 93 72 C 100 72 102 66 100 51 C 96 27 81 15 58 17 M 72 35 C 80 40 84 53 78 55 C 77 55 73 55 68 55 C 63 55 56 55 52 56 C 40 57 37 54 41 46 C 46 36 61 30 72 35 z" fill="black"/><!-- width=114 height=131 -->
<path id="gl13846" d="M 85 10 C 79 11 78 13 78 34 C 77 56 77 55 68 52 C 42 43 17 57 9 85 C 7 91 7 108 9 116 C 17 145 42 157 69 145 C 75 142 75 142 79 145 C 85 150 96 149 98 144 C 99 141 100 23 99 17 C 98 13 95 10 93 10 C 92 10 90 10 90 10 C 88 10 87 10 85 10 M 62 70 C 72 73 78 85 77 100 C 76 123 63 136 47 131 C 33 127 26 99 34 80 C 39 70 51 66 62 70 z" fill="black"/><!-- width=124 height=181 -->
<path id="gl15623" d="M 48 21 C 27 24 10 44 9 67 C 8 90 18 109 34 117 C 45 123 63 122 72 116 C 75 115 78 115 79 116 C 80 119 79 127 76 133 C 70 146 51 150 30 142 C 23 141 22 141 19 143 C 15 146 15 152 18 156 C 24 162 53 166 67 163 C 87 157 99 143 102 121 C 103 111 102 29 100 27 C 98 22 89 21 82 24 C 78 27 78 27 70 24 C 63 21 56 20 48 21 M 61 39 C 74 42 82 57 79 76 C 78 89 71 99 62 102 C 49 105 39 99 34 84 C 33 78 33 64 34 58 C 37 43 48 36 61 39 z" fill="black"/><!-- width=122 height=178 -->
<path id="gl13599" d="M 18 12 C 16 13 15 14 14 15 C 13 16 13 16 12 17 C 13 22 13 28 13 33 C 14 53 14 111 13 132 C 12 148 13 150 15 152 C 17 153 27 154 30 153 C 35 151 34 154 34 102 C 34 76 34 48 34 37 C 34 16 34 16 32 13 C 30 12 21 12 18 12 z" fill="black"/><!-- width=48 height=166 -->
<path id="gl14360" d="M 39 7 C 22 10 13 15 14 22 C 15 31 24 32 31 26 C 42 17 61 21 63 33 C 63 36 60 37 55 38 C 51 39 42 41 36 43 C 12 52 4 65 10 85 C 15 97 24 104 37 104 C 45 104 48 102 55 95 C 60 91 63 92 64 96 C 67 101 69 102 76 103 C 82 103 84 103 86 100 C 87 98 87 97 85 88 C 84 85 84 83 83 81 C 83 72 83 64 83 55 C 83 46 83 38 83 30 C 82 28 82 27 81 25 C 78 17 75 14 68 10 C 61 7 47 5 39 7 M 63 52 C 67 57 60 76 51 83 C 39 93 24 82 30 68 C 33 62 34 60 43 56 C 54 51 61 49 63 52 z" fill="black"/><!-- width=102 height=116 -->
<path id="gl13584" d="M 42 11 C 25 15 16 24 16 37 C 16 49 19 54 37 65 C 51 75 54 78 53 85 C 52 96 39 99 27 90 C 21 85 19 85 15 89 C 7 96 9 103 21 108 C 46 118 73 106 73 84 C 74 72 68 63 50 51 C 36 41 33 38 36 32 C 39 26 47 25 57 30 C 62 33 64 33 67 31 C 73 27 73 19 67 15 C 61 12 49 10 42 11 z" fill="black"/><!-- width=88 height=126 -->
<path id="gl16135" d="M 36 12 C 22 16 15 25 15 36 C 15 46 20 53 36 63 C 52 73 55 79 52 87 C 48 96 37 96 25 87 C 22 85 22 84 19 85 C 15 85 11 88 10 93 C 9 100 13 104 27 108 C 49 114 71 102 73 84 C 74 70 67 61 45 46 C 37 41 34 37 34 34 C 35 26 44 23 55 28 C 62 31 64 31 67 30 C 73 25 73 17 66 14 C 58 10 45 9 36 12 z" fill="black"/><!-- width=87 height=123 -->
<path id="gl18187" d="M 36 10 C 30 13 30 15 30 88 C 30 140 30 141 31 144 C 34 149 42 150 49 146 C 51 145 52 144 54 144 C 55 144 56 145 57 145 C 70 151 81 152 92 148 C 117 139 130 105 118 76 C 109 53 85 43 60 54 C 52 58 52 58 51 35 C 51 13 51 12 46 10 C 43 9 38 9 36 10 M 85 69 C 94 73 99 85 99 101 C 98 113 96 120 91 126 C 86 131 84 132 76 132 C 66 132 61 129 56 120 C 51 109 51 93 56 81 C 61 70 74 65 85 69 z" fill="black"/><!-- width=136 height=181 -->
<path id="gl13586" d="M 18 8 C 12 9 10 13 11 22 C 12 25 12 39 12 51 C 12 79 12 84 17 93 C 25 108 48 113 66 102 C 70 99 72 99 75 102 C 78 105 80 106 85 106 C 92 106 94 104 94 98 C 94 71 93 54 94 35 C 94 16 94 13 94 12 C 92 9 90 8 84 8 C 76 7 73 9 72 15 C 72 15 72 19 72 22 C 73 35 73 69 72 73 C 70 84 63 90 53 90 C 41 91 34 85 33 73 C 33 71 33 58 33 44 C 34 10 34 12 30 9 C 28 8 21 7 18 8 z" fill="black"/><!-- width=108 height=125 -->
<path id="gl13584" d="M 42 11 C 25 15 16 24 16 37 C 16 49 19 54 37 65 C 51 75 54 78 53 85 C 52 96 39 99 27 90 C 21 85 19 85 15 89 C 7 96 9 103 21 108 C 46 118 73 106 73 84 C 74 72 68 63 50 51 C 36 41 33 38 36 32 C 39 26 47 25 57 30 C 62 33 64 33 67 31 C 73 27 73 19 67 15 C 61 12 49 10 42 11 z" fill="black"/><!-- width=88 height=126 -->
<path id="gl13589" d="M 20 9 C 15 11 12 15 13 22 C 13 27 13 27 15 29 C 22 38 36 35 39 24 C 41 13 30 4 20 9 M 20 48 C 15 48 13 52 15 63 C 15 68 15 129 14 138 C 14 143 17 145 25 145 C 34 145 37 143 37 138 C 37 136 36 116 36 93 C 36 79 36 64 36 51 C 36 50 35 49 34 49 C 33 48 31 47 30 47 C 29 47 27 47 25 47 C 23 47 21 47 20 48 z" fill="black"/><!-- width=51 height=163 -->
<path id="gl13590" d="M 58 24 C 55 24 50 26 46 28 C 42 31 40 31 37 29 C 34 25 31 24 25 24 C 17 24 16 26 17 40 C 18 51 17 95 16 111 C 16 121 18 123 29 123 C 31 123 33 123 35 123 C 36 122 36 121 37 120 C 39 118 39 116 39 109 C 38 96 37 60 39 56 C 41 46 49 40 60 40 C 72 40 78 45 80 57 C 81 61 80 88 79 109 C 79 121 81 123 91 123 C 101 122 102 120 102 107 C 101 102 100 87 100 75 C 100 45 100 41 92 33 C 85 25 70 21 58 24 z" fill="black"/><!-- width=115 height=136 -->
<path id="gl13594" d="M 58 17 C 41 18 27 30 21 48 C 16 58 17 76 21 88 C 30 114 60 124 90 112 C 97 110 99 107 99 103 C 100 100 99 99 98 97 C 94 92 91 91 83 96 C 64 105 46 98 39 79 C 37 71 39 69 48 70 C 54 70 88 72 93 72 C 100 72 102 66 100 51 C 96 27 81 15 58 17 M 72 35 C 80 40 84 53 78 55 C 77 55 73 55 68 55 C 63 55 56 55 52 56 C 40 57 37 54 41 46 C 46 36 61 30 72 35 z" fill="black"/><!-- width=114 height=131 -->
<path id="gl13584" d="M 42 11 C 25 15 16 24 16 37 C 16 49 19 54 37 65 C 51 75 54 78 53 85 C 52 96 39 99 27 90 C 21 85 19 85 15 89 C 7 96 9 103 21 108 C 46 118 73 106 73 84 C 74 72 68 63 50 51 C 36 41 33 38 36 32 C 39 26 47 25 57 30 C 62 33 64 33 67 31 C 73 27 73 19 67 15 C 61 12 49 10 42 11 z" fill="black"/><!-- width=88 height=126 -->
<path id="gl16135" d="M 36 12 C 22 16 15 25 15 36 C 15 46 20 53 36 63 C 52 73 55 79 52 87 C 48 96 37 96 25 87 C 22 85 22 84 19 85 C 15 85 11 88 10 93 C 9 100 13 104 27 108 C 49 114 71 102 73 84 C 74 70 67 61 45 46 C 37 41 34 37 34 34 C 35 26 44 23 55 28 C 62 31 64 31 67 30 C 73 25 73 17 66 14 C 58 10 45 9 36 12 z" fill="black"/><!-- width=87 height=123 -->
<path id="gl18432" d="M 31 45 C 22 47 10 54 7 60 C 5 64 8 72 13 73 C 16 75 19 73 23 70 C 30 64 36 61 42 63 C 55 64 59 76 51 91 C 49 95 44 102 40 107 C 24 128 21 145 34 146 C 42 147 45 145 46 137 C 49 130 52 124 62 111 C 76 93 79 86 79 75 C 79 60 70 49 54 45 C 48 43 37 43 31 45 M 30 157 C 15 165 21 187 37 185 C 49 184 55 169 46 160 C 42 156 35 154 30 157 z" fill="black"/><!-- width=94 height=198 -->
<path id="gl17673" d="M 34 13 C 30 16 28 19 21 37 C 19 41 17 46 16 48 C 13 54 12 60 12 63 C 12 67 15 71 19 71 C 25 72 27 70 31 60 C 36 49 40 40 42 36 C 46 27 48 21 45 16 C 43 13 38 12 34 13 M 70 13 C 66 15 65 18 59 32 C 57 37 54 45 52 50 C 46 63 46 68 53 70 C 59 73 62 70 67 59 C 70 54 73 46 76 40 C 83 27 84 22 82 17 C 80 13 74 12 70 13 z" fill="black"/><!-- width=95 height=84 -->
<path id="gl13581" d="M 42 12 C 25 16 14 30 15 45 C 16 60 22 67 46 84 C 62 96 67 102 67 111 C 67 115 66 117 65 120 C 60 131 42 132 29 123 C 22 117 16 117 13 123 C 6 132 9 137 23 142 C 45 151 66 148 79 134 C 88 126 91 115 88 102 C 85 91 73 77 54 64 C 36 52 32 41 41 33 C 48 27 58 27 68 33 C 75 38 81 37 85 31 C 88 26 88 23 83 19 C 75 12 55 8 42 12 z" fill="black"/><!-- width=103 height=160 -->
<path id="gl14351" d="M 54 16 C 36 21 22 34 19 52 C 16 71 20 90 29 101 C 39 112 58 119 75 116 C 85 114 95 110 98 107 C 101 103 99 95 95 93 C 91 91 90 91 84 94 C 73 100 66 100 57 97 C 45 93 34 76 40 70 C 42 68 42 68 46 69 C 55 69 66 70 80 70 C 101 71 102 70 100 57 C 99 40 94 30 84 22 C 76 16 65 14 54 16 M 69 33 C 75 36 79 41 81 48 C 82 54 78 55 46 55 C 33 55 43 36 57 33 C 61 32 66 32 69 33 z" fill="black"/><!-- width=114 height=130 -->
<path id="gl14101" d="M 76 37 C 70 38 67 39 61 42 C 56 45 56 45 52 42 C 45 37 36 37 33 43 C 31 45 31 46 31 96 C 31 156 31 174 33 177 C 36 182 49 182 52 177 C 53 174 53 172 54 155 C 54 130 54 131 62 134 C 71 138 71 138 80 138 C 90 138 96 135 105 129 C 123 115 130 83 118 60 C 112 47 101 39 87 37 C 82 36 81 36 76 37 M 87 57 C 100 64 105 88 96 107 C 92 116 88 119 78 119 C 70 119 66 118 62 113 C 51 102 51 76 61 63 C 67 55 79 53 87 57 z" fill="black"/><!-- width=138 height=195 -->
<path id="gl13588" d="M 39 13 C 36 15 34 15 34 15 C 34 15 33 16 32 18 C 31 19 31 21 31 25 C 31 35 31 36 30 36 C 30 37 27 38 25 38 C 19 39 16 42 17 48 C 18 51 21 52 26 53 C 32 54 32 54 31 66 C 31 90 31 114 33 117 C 38 133 51 139 70 135 C 78 133 81 132 81 126 C 81 121 80 118 76 117 C 74 115 73 116 67 118 C 60 120 56 118 54 114 C 53 113 52 112 52 111 C 52 106 52 101 52 96 C 52 88 52 76 51 69 C 51 52 51 51 62 53 C 73 55 77 53 77 46 C 78 40 74 37 68 37 C 51 39 51 39 52 30 C 53 18 52 15 51 13 C 49 10 45 11 39 13 z" fill="black"/><!-- width=93 height=150 -->
<path id="gl13594" d="M 58 17 C 41 18 27 30 21 48 C 16 58 17 76 21 88 C 30 114 60 124 90 112 C 97 110 99 107 99 103 C 100 100 99 99 98 97 C 94 92 91 91 83 96 C 64 105 46 98 39 79 C 37 71 39 69 48 70 C 54 70 88 72 93 72 C 100 72 102 66 100 51 C 96 27 81 15 58 17 M 72 35 C 80 40 84 53 78 55 C 77 55 73 55 68 55 C 63 55 56 55 52 56 C 40 57 37 54 41 46 C 46 36 61 30 72 35 z" fill="black"/><!-- width=114 height=131 -->
<path id="gl15112" d="M 58 27 C 54 28 51 28 46 31 C 42 33 40 33 36 30 C 29 27 20 28 18 33 C 16 36 16 37 16 76 C 16 123 16 121 21 124 C 24 126 32 126 34 124 C 38 121 38 121 39 93 C 39 65 39 61 42 55 C 48 42 67 42 73 55 C 75 60 76 64 76 91 C 76 121 76 121 81 124 C 82 126 91 126 93 124 C 97 121 97 122 98 91 C 98 59 99 57 103 51 C 111 43 127 44 132 54 C 135 59 135 61 135 91 C 136 117 136 119 137 121 C 141 127 152 127 156 120 C 157 117 157 60 156 52 C 152 36 141 27 124 27 C 115 27 112 27 102 33 C 93 37 93 37 85 31 C 78 28 67 25 58 27 z" fill="black"/><!-- width=171 height=140 -->
<path id="gl18187" d="M 36 10 C 30 13 30 15 30 88 C 30 140 30 141 31 144 C 34 149 42 150 49 146 C 51 145 52 144 54 144 C 55 144 56 145 57 145 C 70 151 81 152 92 148 C 117 139 130 105 118 76 C 109 53 85 43 60 54 C 52 58 52 58 51 35 C 51 13 51 12 46 10 C 43 9 38 9 36 10 M 85 69 C 94 73 99 85 99 101 C 98 113 96 120 91 126 C 86 131 84 132 76 132 C 66 132 61 129 56 120 C 51 109 51 93 56 81 C 61 70 74 65 85 69 z" fill="black"/><!-- width=136 height=181 -->
<path id="gl13594" d="M 58 17 C 41 18 27 30 21 48 C 16 58 17 76 21 88 C 30 114 60 124 90 112 C 97 110 99 107 99 103 C 100 100 99 99 98 97 C 94 92 91 91 83 96 C 64 105 46 98 39 79 C 37 71 39 69 48 70 C 54 70 88 72 93 72 C 100 72 102 66 100 51 C 96 27 81 15 58 17 M 72 35 C 80 40 84 53 78 55 C 77 55 73 55 68 55 C 63 55 56 55 52 56 C 40 57 37 54 41 46 C 46 36 61 30 72 35 z" fill="black"/><!-- width=114 height=131 -->
<path id="gl13577" d="M 67 31 C 66 32 65 33 64 33 C 55 39 56 39 52 36 C 49 33 47 32 42 32 C 33 32 32 34 33 46 C 34 53 34 66 33 121 C 33 123 33 124 33 126 C 33 127 34 127 35 128 C 39 132 50 132 53 129 C 55 126 56 124 55 113 C 54 97 54 76 55 70 C 56 55 63 49 73 54 C 78 55 81 55 85 52 C 90 48 91 47 91 43 C 92 39 91 36 87 35 C 85 34 82 33 81 33 C 77 31 71 30 67 31 z" fill="black"/><!-- width=102 height=144 -->
<path id="gl14856" d="M 46 27 C 33 30 20 40 14 51 C 10 58 10 63 10 72 C 10 90 18 103 33 110 C 39 112 51 113 60 111 C 67 109 69 109 69 111 C 70 114 68 117 61 124 C 50 135 41 140 28 143 C 19 145 16 147 16 154 C 16 164 21 166 33 162 C 36 160 40 159 41 159 C 45 158 58 151 62 147 C 85 130 99 102 99 72 C 99 55 92 42 79 33 C 71 27 57 25 46 27 M 66 47 C 73 51 76 58 76 70 C 76 84 73 90 66 94 C 60 97 50 97 45 94 C 26 85 28 52 48 46 C 52 44 61 45 66 47 z" fill="black"/><!-- width=111 height=175 -->
<path id="gl13826" d="M 37 14 C 32 15 30 19 25 31 C 21 44 17 52 15 57 C 10 65 12 70 18 72 C 24 73 27 72 31 62 C 35 54 38 48 42 42 C 48 33 49 31 49 25 C 49 19 48 16 43 15 C 40 13 40 13 37 14 z" fill="black"/><!-- width=63 height=84 -->
<path id="gl13579" d="M 46 27 C 44 27 40 28 37 30 C 33 31 22 36 15 38 C 9 40 6 44 7 49 C 10 58 15 60 25 53 C 36 46 38 49 37 65 C 37 70 37 87 37 102 C 37 117 36 136 36 143 C 35 156 35 157 36 159 C 39 163 40 163 48 163 C 50 163 52 163 54 163 C 55 163 56 162 57 162 C 60 159 60 157 59 150 C 58 142 58 48 59 40 C 60 29 57 25 46 27 z" fill="black"/><!-- width=88 height=176 -->
<path id="gl13830" d="M 51 28 C 27 30 8 54 11 78 C 15 104 34 117 58 111 C 69 109 71 109 71 112 C 71 115 66 122 59 129 C 50 136 41 141 31 143 C 21 145 18 148 18 155 C 18 165 23 166 37 162 C 72 150 94 123 100 87 C 105 54 90 30 63 27 C 57 27 57 27 51 28 M 67 48 C 75 52 78 57 78 69 C 78 82 76 89 69 93 C 63 98 50 98 43 93 C 29 83 32 54 48 47 C 54 45 63 45 67 48 z" fill="black"/><!-- width=115 height=177 -->
<path id="gl18188" d="M 20 43 C 13 46 12 56 16 62 C 19 65 21 65 31 64 C 64 61 69 61 71 64 C 73 66 72 67 61 86 C 57 91 54 98 52 100 C 33 135 25 147 21 154 C 18 159 15 164 14 166 C 11 172 15 177 25 178 C 33 178 34 177 40 165 C 46 154 45 156 86 81 C 90 75 93 69 94 67 C 98 60 99 49 96 46 C 93 43 92 43 82 43 C 75 44 41 44 26 43 C 23 43 21 43 20 43 z" fill="black"/><!-- width=110 height=190 -->
<path id="gl13828" d="M 53 13 C 29 16 15 34 20 54 C 22 60 24 63 30 69 C 36 75 37 76 32 80 C 17 94 12 104 15 118 C 21 150 69 160 94 136 C 111 119 107 92 86 81 C 78 77 78 74 85 68 C 96 60 100 51 99 41 C 96 21 76 10 53 13 M 67 30 C 80 35 80 54 66 63 C 60 67 56 67 49 60 C 35 48 41 29 59 29 C 62 29 64 29 67 30 M 66 89 C 78 97 82 103 82 112 C 80 138 40 138 37 113 C 36 106 39 98 45 92 C 53 84 57 84 66 89 z" fill="black"/><!-- width=118 height=164 -->
<path id="gl13826" d="M 37 14 C 32 15 30 19 25 31 C 21 44 17 52 15 57 C 10 65 12 70 18 72 C 24 73 27 72 31 62 C 35 54 38 48 42 42 C 48 33 49 31 49 25 C 49 19 48 16 43 15 C 40 13 40 13 37 14 z" fill="black"/><!-- width=63 height=84 -->
<path id="gl14345" d="M 45 27 C 41 28 37 29 31 31 C 28 33 22 35 18 37 C 7 40 4 43 7 51 C 9 57 13 58 22 53 C 30 49 32 49 34 51 C 35 52 35 49 34 87 C 33 165 33 157 37 160 C 39 163 51 163 54 160 C 57 158 57 157 57 142 C 55 126 55 53 56 42 C 57 29 55 26 45 27 z" fill="black"/><!-- width=84 height=175 -->
<path id="gl13580" d="M 19 15 C 6 22 12 44 27 43 C 41 43 46 24 34 16 C 30 13 24 13 19 15 M 24 79 C 10 82 8 100 20 108 C 30 113 42 103 40 93 C 40 88 37 84 35 82 C 33 81 27 79 27 79 C 26 79 25 79 24 79 z" fill="black"/><!-- width=53 height=123 -->
<path id="gl13831" d="M 30 13 C 24 14 15 17 12 19 C 6 23 6 34 13 37 C 16 39 18 38 25 35 C 43 26 57 31 57 46 C 57 59 46 68 30 68 C 25 69 21 72 21 78 C 21 85 24 87 36 87 C 52 87 61 92 64 103 C 68 124 47 137 24 128 C 14 124 9 126 7 133 C 4 144 15 150 40 150 C 67 150 87 132 87 109 C 87 94 82 86 69 79 C 61 75 61 73 69 66 C 79 57 81 49 79 37 C 75 19 54 9 30 13 z" fill="black"/><!-- width=106 height=164 -->
<path id="gl13832" d="M 55 15 C 37 16 24 31 18 56 C 13 72 13 91 18 110 C 27 148 59 163 85 142 C 94 135 102 120 105 104 C 114 52 91 10 55 15 M 67 35 C 78 40 83 55 83 81 C 83 115 75 133 61 133 C 47 133 39 119 38 89 C 36 49 49 25 67 35 z" fill="black"/><!-- width=121 height=166 -->
<path id="gl14366" d="M 28 33 C 25 35 25 37 26 49 C 27 65 27 97 25 113 C 25 129 25 129 28 132 C 31 134 39 134 42 132 C 46 129 46 125 45 110 C 43 96 43 95 55 94 C 64 94 69 93 75 88 C 84 82 87 76 88 64 C 90 50 81 37 68 34 C 60 32 58 31 43 31 C 39 31 34 31 30 31 C 30 31 29 32 28 33 M 60 49 C 67 52 69 56 69 63 C 68 75 61 82 49 82 C 43 82 43 82 43 67 C 44 52 44 51 47 48 C 49 46 55 46 60 49 z" fill="black"/><!-- width=101 height=145 -->
<path id="gl263" d="M 23 13 C 19 15 16 20 15 24 C 12 31 16 40 23 44 C 32 48 41 43 44 34 C 48 21 35 8 23 13 z" fill="black"/><!-- width=59 height=58 -->
<path id="gl18702" d="M 15 10 C 12 12 12 16 13 24 C 14 32 14 52 13 73 C 12 100 12 105 13 107 C 19 115 31 109 30 100 C 28 93 27 55 27 51 C 28 46 28 46 30 47 C 32 48 34 51 36 53 C 36 54 37 57 38 59 C 39 61 40 63 40 63 C 40 63 42 69 45 75 C 51 89 52 93 55 99 C 57 106 60 109 64 109 C 69 109 72 107 74 100 C 75 98 76 94 77 92 C 78 90 79 88 79 87 C 79 87 81 84 85 75 C 87 74 88 71 89 69 C 94 55 99 46 101 46 C 104 46 105 59 104 78 C 102 103 102 105 103 108 C 104 108 104 109 105 109 C 107 109 109 109 112 109 C 121 109 123 108 121 98 C 121 91 120 31 121 23 C 123 12 121 9 114 9 C 106 8 103 10 100 18 C 97 24 89 40 87 44 C 84 48 78 60 72 75 C 67 84 64 82 58 69 C 57 64 55 61 55 61 C 55 60 53 55 50 50 C 47 45 44 38 43 36 C 42 33 40 30 39 27 C 39 25 37 22 36 19 C 32 10 30 9 20 9 C 17 9 16 9 15 10 z" fill="black"/><!-- width=134 height=121 -->
<path id="gl263" d="M 23 13 C 19 15 16 20 15 24 C 12 31 16 40 23 44 C 32 48 41 43 44 34 C 48 21 35 8 23 13 z" fill="black"/><!-- width=59 height=58 -->
<path id="gl13843" d="M 40 39 C 36 39 34 40 32 42 C 31 44 31 48 30 96 C 30 157 30 164 32 167 C 34 170 37 171 42 171 C 52 170 52 169 53 144 C 54 121 54 120 60 121 C 63 122 73 121 79 119 C 92 115 104 103 109 90 C 111 85 111 70 109 65 C 105 52 95 43 81 40 C 77 39 49 37 40 39 M 73 59 C 82 62 85 67 85 79 C 85 86 85 86 84 90 C 80 97 73 102 63 103 C 54 104 54 105 54 83 C 53 61 54 58 58 57 C 61 57 70 58 73 59 z" fill="black"/><!-- width=124 height=184 -->
<path id="gl14852" d="M 47 10 C 33 13 21 21 16 33 C 14 37 14 49 16 54 C 18 62 25 69 38 78 C 42 81 48 86 51 88 C 63 97 66 102 66 111 C 66 117 66 118 62 123 C 59 127 55 128 46 128 C 39 128 34 126 28 121 C 21 116 15 117 11 124 C 6 133 13 140 30 144 C 61 152 88 136 88 110 C 88 94 79 81 55 65 C 49 61 42 55 39 52 C 32 43 37 30 49 29 C 56 28 60 29 69 34 C 76 39 80 38 84 31 C 88 26 86 21 79 17 C 72 12 58 9 47 10 z" fill="black"/><!-- width=102 height=159 -->
<path id="gl14347" d="M 21 53 C 16 54 13 58 14 63 C 15 70 17 70 34 71 C 45 72 48 72 49 72 C 54 75 54 72 54 127 C 54 175 54 178 55 180 C 58 186 72 186 75 180 C 76 178 76 175 76 127 C 77 88 77 76 78 75 C 79 72 82 71 96 71 C 103 71 110 70 111 70 C 118 68 119 57 112 54 C 111 52 26 52 21 53 z" fill="black"/><!-- width=131 height=199 -->
<path id="gl13583" d="M 34 15 C 30 18 29 19 21 42 C 20 45 18 50 16 54 C 11 64 11 66 16 70 C 21 74 27 72 30 64 C 31 60 41 42 43 40 C 48 35 50 24 48 19 C 45 15 39 12 34 15 z" fill="black"/><!-- width=62 height=84 -->
<path id="gl13579" d="M 46 27 C 44 27 40 28 37 30 C 33 31 22 36 15 38 C 9 40 6 44 7 49 C 10 58 15 60 25 53 C 36 46 38 49 37 65 C 37 70 37 87 37 102 C 37 117 36 136 36 143 C 35 156 35 157 36 159 C 39 163 40 163 48 163 C 50 163 52 163 54 163 C 55 163 56 162 57 162 C 60 159 60 157 59 150 C 58 142 58 48 59 40 C 60 29 57 25 46 27 z" fill="black"/><!-- width=88 height=176 -->
<path id="gl13579" d="M 46 27 C 44 27 40 28 37 30 C 33 31 22 36 15 38 C 9 40 6 44 7 49 C 10 58 15 60 25 53 C 36 46 38 49 37 65 C 37 70 37 87 37 102 C 37 117 36 136 36 143 C 35 156 35 157 36 159 C 39 163 40 163 48 163 C 50 163 52 163 54 163 C 55 163 56 162 57 162 C 60 159 60 157 59 150 C 58 142 58 48 59 40 C 60 29 57 25 46 27 z" fill="black"/><!-- width=88 height=176 -->
<path id="gl14364" d="M 86 5 C 81 6 76 7 74 9 C 73 9 70 10 68 10 C 57 15 38 30 31 41 C 30 42 28 45 27 46 C 21 56 14 80 14 94 C 13 106 15 112 19 120 C 27 134 42 142 60 142 C 76 142 92 131 100 115 C 108 99 102 75 90 64 C 79 55 67 54 53 58 C 46 60 45 60 45 55 C 44 52 45 52 48 48 C 51 43 57 39 62 35 C 66 31 77 27 85 25 C 95 22 96 21 96 15 C 97 7 93 4 86 5 M 67 74 C 88 81 83 121 61 123 C 52 124 45 121 40 114 C 33 103 36 81 45 75 C 50 72 60 72 67 74 z" fill="black"/><!-- width=115 height=162 -->
<path id="gl13839" d="M 28 18 C 17 19 16 25 22 46 C 23 49 25 55 27 60 C 28 64 30 72 31 75 C 34 84 37 96 41 108 C 42 112 44 119 45 123 C 46 126 48 132 49 135 C 52 148 56 151 66 150 C 73 149 74 147 81 125 C 82 121 84 114 85 110 C 87 106 88 100 89 97 C 94 78 99 63 101 63 C 103 63 104 66 108 76 C 113 95 115 103 118 111 C 119 115 121 122 123 126 C 124 130 126 136 126 138 C 129 148 132 150 139 150 C 148 150 150 148 155 133 C 156 130 158 123 160 115 C 163 107 166 97 168 92 C 169 87 171 79 172 76 C 174 73 176 66 177 61 C 179 56 181 49 182 46 C 187 30 188 25 187 22 C 184 18 177 16 173 18 C 170 20 169 22 166 32 C 164 37 162 45 160 49 C 156 65 154 72 151 79 C 147 96 143 108 142 108 C 142 108 141 107 140 106 C 138 105 138 103 130 77 C 127 69 125 61 124 58 C 123 55 122 50 121 47 C 113 20 111 17 101 18 C 93 19 93 21 86 45 C 85 48 83 55 81 59 C 77 75 74 83 73 88 C 71 95 66 107 66 108 C 64 109 61 102 60 96 C 59 94 58 90 57 88 C 57 86 55 81 54 77 C 53 73 51 66 50 61 C 48 56 46 50 46 46 C 45 43 43 39 43 36 C 42 33 40 28 40 26 C 38 21 34 17 31 18 C 31 18 30 18 28 18 z" fill="black"/><!-- width=202 height=165 -->
<path id="gl15626" d="M 73 9 C 70 10 67 13 58 26 C 54 31 49 38 47 40 C 45 42 42 46 40 48 C 39 51 35 55 33 57 C 31 60 28 64 26 66 C 22 70 16 79 10 85 C 6 91 6 93 6 98 C 6 102 6 103 7 104 C 8 105 9 105 9 106 C 13 106 18 105 22 105 C 30 105 42 105 48 104 C 65 103 64 103 63 122 C 62 137 62 138 65 141 C 67 142 67 143 73 143 C 85 143 86 141 85 126 C 83 106 83 105 91 105 C 99 105 102 103 101 96 C 101 89 99 87 91 87 C 83 87 84 89 84 62 C 84 48 84 35 85 28 C 86 15 86 13 83 10 C 81 9 76 8 73 9 M 64 51 C 65 54 65 82 64 85 C 63 88 61 89 48 89 C 30 89 29 87 40 73 C 43 70 47 65 49 63 C 54 55 55 54 58 51 C 61 48 63 48 64 51 z" fill="black"/><!-- width=120 height=155 -->
<path id="gl15110" d="M 86 5 C 64 10 45 22 32 42 C 12 70 10 109 27 127 C 46 147 75 146 93 126 C 102 117 105 109 105 96 C 105 67 83 49 57 57 C 48 59 46 58 46 55 C 46 45 67 29 85 25 C 96 22 99 20 99 13 C 99 6 94 3 86 5 M 69 73 C 80 78 85 93 80 108 C 73 129 47 129 39 108 C 37 99 38 86 42 79 C 47 72 59 70 69 73 z" fill="black"/><!-- width=118 height=160 -->
<path id="gl13826" d="M 37 14 C 32 15 30 19 25 31 C 21 44 17 52 15 57 C 10 65 12 70 18 72 C 24 73 27 72 31 62 C 35 54 38 48 42 42 C 48 33 49 31 49 25 C 49 19 48 16 43 15 C 40 13 40 13 37 14 z" fill="black"/><!-- width=63 height=84 -->
<path id="gl15626" d="M 73 9 C 70 10 67 13 58 26 C 54 31 49 38 47 40 C 45 42 42 46 40 48 C 39 51 35 55 33 57 C 31 60 28 64 26 66 C 22 70 16 79 10 85 C 6 91 6 93 6 98 C 6 102 6 103 7 104 C 8 105 9 105 9 106 C 13 106 18 105 22 105 C 30 105 42 105 48 104 C 65 103 64 103 63 122 C 62 137 62 138 65 141 C 67 142 67 143 73 143 C 85 143 86 141 85 126 C 83 106 83 105 91 105 C 99 105 102 103 101 96 C 101 89 99 87 91 87 C 83 87 84 89 84 62 C 84 48 84 35 85 28 C 86 15 86 13 83 10 C 81 9 76 8 73 9 M 64 51 C 65 54 65 82 64 85 C 63 88 61 89 48 89 C 30 89 29 87 40 73 C 43 70 47 65 49 63 C 54 55 55 54 58 51 C 61 48 63 48 64 51 z" fill="black"/><!-- width=120 height=155 -->
<path id="gl18188" d="M 20 43 C 13 46 12 56 16 62 C 19 65 21 65 31 64 C 64 61 69 61 71 64 C 73 66 72 67 61 86 C 57 91 54 98 52 100 C 33 135 25 147 21 154 C 18 159 15 164 14 166 C 11 172 15 177 25 178 C 33 178 34 177 40 165 C 46 154 45 156 86 81 C 90 75 93 69 94 67 C 98 60 99 49 96 46 C 93 43 92 43 82 43 C 75 44 41 44 26 43 C 23 43 21 43 20 43 z" fill="black"/><!-- width=110 height=190 -->
<path id="gl13841" d="M 115 13 C 113 14 110 18 109 20 C 109 21 109 39 109 61 C 108 96 108 100 107 100 C 105 103 102 100 85 79 C 80 73 72 63 68 58 C 61 50 51 37 44 30 C 33 17 29 14 23 14 C 18 13 16 15 14 18 C 12 22 12 137 14 141 C 17 148 28 148 31 141 C 33 139 33 137 33 100 C 33 78 33 60 34 59 C 36 55 38 57 59 83 C 66 92 76 104 81 109 C 86 115 92 123 95 126 C 110 145 111 146 119 145 C 123 145 126 144 127 141 C 129 139 129 136 129 80 C 129 13 129 17 125 15 C 123 13 117 13 115 13 z" fill="black"/><!-- width=142 height=160 -->
<path id="gl14368" d="M 75 9 C 72 10 70 12 64 22 C 61 27 57 31 55 33 C 53 36 43 48 33 61 C 30 64 27 69 26 70 C 25 72 21 76 14 84 C 6 93 5 102 11 105 C 13 105 24 105 51 103 C 55 103 60 103 64 103 C 64 103 65 104 66 105 C 68 107 68 109 66 124 C 64 139 66 141 77 142 C 89 142 91 139 88 121 C 86 107 87 104 96 104 C 102 104 104 103 105 99 C 107 91 104 87 95 87 C 91 86 90 86 89 85 C 88 84 88 84 87 83 C 88 76 88 68 88 61 C 88 48 88 33 89 27 C 90 13 89 11 85 9 C 83 8 77 8 75 9 M 67 51 C 69 52 69 52 69 69 C 68 85 68 86 65 87 C 63 89 40 88 39 87 C 36 84 37 81 43 74 C 46 70 54 61 55 58 C 61 49 64 48 67 51 z" fill="black"/><!-- width=127 height=154 -->
<path id="gl13579" d="M 46 27 C 44 27 40 28 37 30 C 33 31 22 36 15 38 C 9 40 6 44 7 49 C 10 58 15 60 25 53 C 36 46 38 49 37 65 C 37 70 37 87 37 102 C 37 117 36 136 36 143 C 35 156 35 157 36 159 C 39 163 40 163 48 163 C 50 163 52 163 54 163 C 55 163 56 162 57 162 C 60 159 60 157 59 150 C 58 142 58 48 59 40 C 60 29 57 25 46 27 z" fill="black"/><!-- width=88 height=176 -->
<path id="gl14350" d="M 39 12 C 38 12 37 13 36 14 C 36 15 36 16 35 16 C 35 36 35 57 35 76 C 35 135 35 136 36 139 C 37 142 40 143 46 142 C 57 142 57 143 57 113 C 57 97 58 89 58 88 C 58 88 58 87 59 87 C 60 87 60 88 61 88 C 64 90 67 94 90 121 C 107 141 108 142 112 142 C 116 142 124 139 126 138 C 130 133 128 130 109 109 C 100 99 85 81 81 76 C 76 70 77 69 93 52 C 114 31 121 23 121 20 C 121 15 114 10 108 11 C 106 12 102 15 93 25 C 90 28 82 36 75 43 C 60 60 58 61 57 53 C 57 12 57 13 52 12 C 49 10 41 10 39 12 z" fill="black"/><!-- width=141 height=156 -->
<path id="gl14338" d="M 52 13 C 41 16 30 23 22 33 C 20 36 16 44 15 48 C 13 54 13 70 15 77 C 19 96 34 110 52 113 C 82 117 105 98 107 67 C 109 45 100 27 81 18 C 73 14 61 12 52 13 M 67 31 C 79 34 85 45 85 63 C 85 84 76 96 60 96 C 45 96 36 85 36 63 C 36 40 49 27 67 31 z" fill="black"/><!-- width=121 height=127 -->
<path id="gl14369" d="M 72 12 C 45 14 25 35 26 62 C 26 94 48 115 79 113 C 90 112 102 108 105 104 C 108 100 106 93 103 90 C 100 88 97 88 92 91 C 79 97 69 97 60 90 C 47 81 43 56 54 42 C 61 31 73 28 88 33 C 90 33 93 34 96 35 C 96 34 97 34 98 34 C 105 30 106 20 100 16 C 93 13 84 11 72 12 z" fill="black"/><!-- width=118 height=127 -->
<path id="gl13593" d="M 30 7 C 24 9 24 9 25 37 C 26 61 25 117 24 132 C 24 146 25 148 36 148 C 47 149 48 147 48 131 C 47 125 46 112 46 102 C 46 84 46 83 48 79 C 54 64 79 61 86 76 C 88 81 89 86 88 116 C 87 146 87 145 91 148 C 94 149 104 149 106 148 C 109 145 111 143 110 136 C 110 133 109 118 109 102 C 109 78 109 73 108 71 C 101 49 78 42 56 54 C 47 60 44 58 45 49 C 46 43 47 22 47 17 C 48 9 45 7 36 7 C 34 7 31 7 30 7 z" fill="black"/><!-- width=123 height=167 -->
<path id="gl13598" d="M 97 15 C 91 16 91 16 92 42 C 93 70 94 69 81 68 C 70 67 60 67 48 68 C 33 69 33 70 35 42 C 36 15 36 15 24 15 C 21 15 19 15 16 15 C 16 16 15 17 15 18 C 14 18 13 19 12 20 C 12 22 13 25 13 28 C 13 48 14 105 13 124 C 12 144 12 145 13 146 C 16 149 18 150 24 150 C 34 150 36 147 36 138 C 35 126 34 95 34 91 C 34 88 34 87 36 87 C 37 85 36 85 55 85 C 64 86 71 85 78 85 C 87 84 89 85 90 85 C 93 87 93 85 91 127 C 91 149 91 150 103 150 C 114 149 115 148 115 135 C 114 120 114 45 115 32 C 115 19 115 18 111 16 C 109 15 100 14 97 15 z" fill="black"/><!-- width=129 height=163 -->
<path id="gl14338" d="M 52 13 C 41 16 30 23 22 33 C 20 36 16 44 15 48 C 13 54 13 70 15 77 C 19 96 34 110 52 113 C 82 117 105 98 107 67 C 109 45 100 27 81 18 C 73 14 61 12 52 13 M 67 31 C 79 34 85 45 85 63 C 85 84 76 96 60 96 C 45 96 36 85 36 63 C 36 40 49 27 67 31 z" fill="black"/><!-- width=121 height=127 -->
<path id="gl13586" d="M 18 8 C 12 9 10 13 11 22 C 12 25 12 39 12 51 C 12 79 12 84 17 93 C 25 108 48 113 66 102 C 70 99 72 99 75 102 C 78 105 80 106 85 106 C 92 106 94 104 94 98 C 94 71 93 54 94 35 C 94 16 94 13 94 12 C 92 9 90 8 84 8 C 76 7 73 9 72 15 C 72 15 72 19 72 22 C 73 35 73 69 72 73 C 70 84 63 90 53 90 C 41 91 34 85 33 73 C 33 71 33 58 33 44 C 34 10 34 12 30 9 C 28 8 21 7 18 8 z" fill="black"/><!-- width=108 height=125 -->
<path id="gl13584" d="M 42 11 C 25 15 16 24 16 37 C 16 49 19 54 37 65 C 51 75 54 78 53 85 C 52 96 39 99 27 90 C 21 85 19 85 15 89 C 7 96 9 103 21 108 C 46 118 73 106 73 84 C 74 72 68 63 50 51 C 36 41 33 38 36 32 C 39 26 47 25 57 30 C 62 33 64 33 67 31 C 73 27 73 19 67 15 C 61 12 49 10 42 11 z" fill="black"/><!-- width=88 height=126 -->
<path id="gl13594" d="M 58 17 C 41 18 27 30 21 48 C 16 58 17 76 21 88 C 30 114 60 124 90 112 C 97 110 99 107 99 103 C 100 100 99 99 98 97 C 94 92 91 91 83 96 C 64 105 46 98 39 79 C 37 71 39 69 48 70 C 54 70 88 72 93 72 C 100 72 102 66 100 51 C 96 27 81 15 58 17 M 72 35 C 80 40 84 53 78 55 C 77 55 73 55 68 55 C 63 55 56 55 52 56 C 40 57 37 54 41 46 C 46 36 61 30 72 35 z" fill="black"/><!-- width=114 height=131 -->
<path id="gl13584" d="M 42 11 C 25 15 16 24 16 37 C 16 49 19 54 37 65 C 51 75 54 78 53 85 C 52 96 39 99 27 90 C 21 85 19 85 15 89 C 7 96 9 103 21 108 C 46 118 73 106 73 84 C 74 72 68 63 50 51 C 36 41 33 38 36 32 C 39 26 47 25 57 30 C 62 33 64 33 67 31 C 73 27 73 19 67 15 C 61 12 49 10 42 11 z" fill="black"/><!-- width=88 height=126 -->
<path id="gl10513" d="M 17 15 C 10 18 15 40 22 39 C 27 37 28 33 27 25 C 24 16 21 13 17 15 z" fill="black"/><!-- width=41 height=54 -->
</defs>
<use xlink:href="#gl13574" x="418" y="41"/>
<use xlink:href="#gl13593" x="553" y="41"/>
<use xlink:href="#gl13844" x="670" y="81"/>
<use xlink:href="#gl13577" x="741" y="59"/>
<use xlink:href="#gl14096" x="812" y="56"/>
<use xlink:href="#gl13579" x="947" y="27"/>
<use xlink:href="#gl15110" x="1037" y="51"/>
<use xlink:href="#gl13580" x="1149" y="83"/>
<use xlink:href="#gl16142" x="1303" y="40"/>
<use xlink:href="#gl13581" x="1392" y="45"/>
<use xlink:href="#gl13593" x="1473" y="43"/>
<use xlink:href="#gl14338" x="1585" y="79"/>
<use xlink:href="#gl13586" x="1696" y="85"/>
<use xlink:href="#gl13599" x="1798" y="40"/>
<use xlink:href="#gl13846" x="1842" y="43"/>
<use xlink:href="#gl14337" x="1990" y="77"/>
<use xlink:href="#gl18700" x="2135" y="77"/>
<use xlink:href="#gl18187" x="2268" y="43"/>
<use xlink:href="#gl18701" x="2397" y="89"/>
<use xlink:href="#gl14356" x="2475" y="62"/>
<use xlink:href="#gl13588" x="2624" y="56"/>
<use xlink:href="#gl13593" x="2687" y="43"/>
<use xlink:href="#gl13587" x="2795" y="75"/>
<use xlink:href="#gl13584" x="2944" y="79"/>
<use xlink:href="#gl13824" x="3006" y="56"/>
<use xlink:href="#gl13844" x="3081" y="81"/>
<use xlink:href="#gl13589" x="3170" y="44"/>
<use xlink:href="#gl13590" x="3211" y="66"/>
<use xlink:href="#gl13594" x="3311" y="72"/>
<use xlink:href="#gl13846" x="3411" y="39"/>
<use xlink:href="#gl15623" x="3569" y="68"/>
<use xlink:href="#gl13599" x="3679" y="35"/>
<use xlink:href="#gl14360" x="3720" y="83"/>
<use xlink:href="#gl13584" x="3806" y="76"/>
<use xlink:href="#gl16135" x="3877" y="77"/>
<use xlink:href="#gl18187" x="3987" y="37"/>
<use xlink:href="#gl13586" x="4114" y="79"/>
<use xlink:href="#gl13584" x="4210" y="74"/>
<use xlink:href="#gl13589" x="4284" y="41"/>
<use xlink:href="#gl13590" x="4325" y="63"/>
<use xlink:href="#gl13594" x="4424" y="69"/>
<use xlink:href="#gl13584" x="4521" y="74"/>
<use xlink:href="#gl16135" x="4590" y="75"/>
<use xlink:href="#gl18432" x="4668" y="0"/>
<use xlink:href="#gl17673" x="4747" y="31"/>
<use xlink:href="#gl13581" x="0" y="259"/>
<use xlink:href="#gl14351" x="83" y="290"/>
<use xlink:href="#gl14101" x="165" y="269"/>
<use xlink:href="#gl13588" x="278" y="271"/>
<use xlink:href="#gl13594" x="344" y="290"/>
<use xlink:href="#gl15112" x="442" y="280"/>
<use xlink:href="#gl18187" x="590" y="257"/>
<use xlink:href="#gl13594" x="705" y="291"/>
<use xlink:href="#gl13577" x="786" y="276"/>
<use xlink:href="#gl14856" x="922" y="245"/>
<use xlink:href="#gl13826" x="1017" y="365"/>
<use xlink:href="#gl13579" x="1138" y="245"/>
<use xlink:href="#gl13830" x="1229" y="245"/>
<use xlink:href="#gl18188" x="1339" y="232"/>
<use xlink:href="#gl13828" x="1435" y="261"/>
<use xlink:href="#gl13826" x="1535" y="366"/>
<use xlink:href="#gl14345" x="1658" y="247"/>
<use xlink:href="#gl13580" x="1753" y="302"/>
<use xlink:href="#gl13831" x="1813" y="263"/>
<use xlink:href="#gl13832" x="1901" y="260"/>
<use xlink:href="#gl14366" x="2049" y="277"/>
<use xlink:href="#gl263" x="2135" y="367"/>
<use xlink:href="#gl18702" x="2186" y="299"/>
<use xlink:href="#gl263" x="2313" y="368"/>
<use xlink:href="#gl13843" x="2401" y="240"/>
<use xlink:href="#gl14852" x="2515" y="264"/>
<use xlink:href="#gl14347" x="2596" y="224"/>
<use xlink:href="#gl13583" x="2700" y="367"/>
<use xlink:href="#gl13579" x="2821" y="245"/>
<use xlink:href="#gl13579" x="2924" y="245"/>
<use xlink:href="#gl14364" x="3017" y="267"/>
<use xlink:href="#gl13839" x="3107" y="256"/>
<use xlink:href="#gl15626" x="3290" y="264"/>
<use xlink:href="#gl15110" x="3389" y="266"/>
<use xlink:href="#gl13826" x="3489" y="364"/>
<use xlink:href="#gl15626" x="3600" y="263"/>
<use xlink:href="#gl18188" x="3708" y="228"/>
<use xlink:href="#gl13841" x="3811" y="258"/>
<use xlink:href="#gl14368" x="3945" y="262"/>
<use xlink:href="#gl13579" x="4062" y="242"/>
<use xlink:href="#gl14350" x="4242" y="260"/>
<use xlink:href="#gl14338" x="4362" y="290"/>
<use xlink:href="#gl14369" x="4454" y="290"/>
<use xlink:href="#gl13593" x="4547" y="254"/>
<use xlink:href="#gl13598" x="4718" y="252"/>
<use xlink:href="#gl14338" x="4837" y="290"/>
<use xlink:href="#gl13586" x="4948" y="294"/>
<use xlink:href="#gl13584" x="5045" y="290"/>
<use xlink:href="#gl13594" x="5110" y="285"/>
<use xlink:href="#gl13584" x="5207" y="289"/>
<use xlink:href="#gl10513" x="2252" y="438"/>
</svg>
