<?xml version='1.0' encoding='utf-8'?>
<svg xmlns="http://www.w3.org/2000/svg" xmlns:xlink="http://www.w3.org/1999/xlink" width="546px" height="26px" viewBox="0 0 5464 261" version="1.1">
<defs>
<path id="gl3337" d="M 37 34 C 33 34 29 34 28 34 C 27 36 25 39 25 40 C 25 42 28 45 31 46 C 37 48 40 51 40 58 C 42 64 42 154 40 160 C 40 167 37 169 30 172 C 22 174 22 180 28 183 C 31 184 79 184 83 183 C 86 182 87 180 86 177 C 85 174 83 173 78 172 C 68 169 67 167 67 148 C 66 123 66 124 81 124 C 99 124 110 120 121 110 C 132 100 135 90 135 75 C 134 52 121 38 96 34 C 89 33 53 33 37 34 M 91 49 C 102 53 107 61 108 76 C 109 97 97 110 77 109 C 72 109 70 108 68 105 C 67 103 67 102 67 78 C 67 49 67 50 71 48 C 74 47 86 48 91 49 z" fill="black"/><!-- width=149 height=199 -->
<path id="gl1537" d="M 79 11 C 76 12 75 15 65 40 C 57 63 35 118 32 127 C 26 142 23 146 16 150 C 10 152 9 154 9 157 C 9 162 10 162 33 162 C 56 162 57 162 57 156 C 57 153 56 152 49 149 C 44 147 43 144 46 134 C 52 116 55 110 58 109 C 61 108 88 108 92 108 C 97 109 99 113 105 133 C 110 145 109 147 103 150 C 97 153 96 156 99 160 C 102 162 104 163 129 162 C 150 162 151 162 153 159 C 155 154 153 151 145 149 C 138 147 135 142 128 123 C 126 117 123 111 123 109 C 122 106 120 101 118 96 C 117 91 114 85 114 83 C 112 81 110 73 108 67 C 106 61 102 50 98 42 C 95 34 92 25 91 22 C 87 12 84 9 79 11 M 78 58 C 79 60 82 68 86 79 C 90 91 89 91 75 91 C 62 91 61 91 66 78 C 72 58 75 55 78 58 z" fill="black"/><!-- width=168 height=204 -->
<path id="gl3850" d="M 45 12 C 33 12 32 12 30 15 C 28 18 30 21 37 24 C 42 26 43 28 45 32 C 46 35 46 99 46 123 C 46 129 46 135 46 140 C 45 141 45 142 44 144 C 42 147 40 148 36 150 C 28 152 26 158 32 161 C 35 162 80 163 84 162 C 91 159 88 152 81 150 C 72 147 70 142 71 117 C 71 112 71 108 71 103 C 72 102 72 102 73 101 C 75 100 75 100 78 100 C 85 100 90 103 96 114 C 117 151 125 159 144 163 C 156 165 161 163 160 157 C 160 155 160 154 155 151 C 146 145 129 123 118 102 C 112 93 112 92 120 85 C 132 76 138 65 138 51 C 138 26 121 13 91 12 C 74 12 56 12 45 12 M 91 26 C 106 30 115 44 111 61 C 108 77 98 85 81 85 C 70 85 70 87 70 55 C 70 27 70 27 77 25 C 80 24 87 25 91 26 z" fill="black"/><!-- width=175 height=177 -->
<path id="gl1798" d="M 52 11 C 33 16 19 29 17 48 C 15 69 25 83 54 97 C 73 107 78 113 78 124 C 78 146 55 154 38 138 C 34 133 33 132 30 124 C 25 114 23 112 19 112 C 13 111 10 116 11 123 C 14 141 16 150 20 153 C 28 159 56 164 68 160 C 92 154 106 136 105 113 C 103 95 94 84 72 73 C 60 67 55 65 52 63 C 33 50 43 22 66 26 C 74 28 79 32 83 43 C 85 49 87 51 89 52 C 93 55 98 53 100 49 C 102 45 97 21 94 17 C 90 12 64 9 52 11 z" fill="black"/><!-- width=119 height=175 -->
<path id="gl2051" d="M 33 30 C 29 31 27 33 27 36 C 27 39 28 40 34 43 C 39 46 41 47 42 52 C 43 57 43 153 42 157 C 41 161 39 163 34 165 C 25 169 24 175 32 178 C 36 179 82 178 85 177 C 92 174 90 168 81 165 C 70 162 70 160 70 135 C 70 111 69 112 87 112 C 101 112 103 112 106 119 C 110 126 113 128 116 126 C 120 123 120 123 120 103 C 120 82 119 80 114 80 C 111 80 109 82 106 87 C 103 94 100 96 85 95 C 69 95 70 96 70 70 C 70 43 69 45 87 45 C 105 45 110 47 115 58 C 117 64 119 67 122 67 C 127 67 128 63 127 50 C 126 39 126 37 124 34 C 123 30 124 30 76 30 C 54 30 33 30 33 30 z" fill="black"/><!-- width=142 height=194 -->
<path id="gl20994" d="M 84 13 C 68 15 54 19 43 27 C 15 48 4 86 16 120 C 23 142 42 160 63 166 C 88 172 114 168 133 153 C 165 129 172 76 149 42 C 134 22 109 11 84 13 M 91 28 C 116 31 130 58 129 99 C 129 114 127 122 123 131 C 110 163 70 162 54 130 C 43 108 42 72 51 52 C 59 33 73 25 91 28 z" fill="black"/><!-- width=175 height=183 -->
<path id="gl5129" d="M 35 13 C 27 13 23 17 25 22 C 27 24 28 24 34 27 C 40 30 41 34 41 80 C 41 113 40 133 39 137 C 38 141 36 143 31 144 C 27 146 25 148 24 150 C 24 153 25 155 27 156 C 31 158 76 158 81 157 C 88 154 87 148 79 145 C 71 142 70 139 70 118 C 70 101 70 100 73 99 C 77 97 81 100 87 110 C 107 148 114 155 134 158 C 147 160 151 159 151 152 C 151 148 151 148 148 146 C 139 137 133 130 120 110 C 108 91 108 90 116 84 C 133 72 138 52 130 34 C 124 22 113 15 94 14 C 86 13 43 13 35 13 M 88 30 C 108 37 108 70 89 80 C 80 85 72 84 70 78 C 70 73 70 34 71 32 C 73 27 79 27 88 30 z" fill="black"/><!-- width=166 height=173 -->
<path id="gl14606" d="M 21 37 C 18 39 18 41 16 57 C 16 74 16 77 22 77 C 25 76 26 75 30 68 C 34 59 37 57 45 55 C 54 53 61 54 63 58 C 64 60 64 158 63 162 C 61 168 58 169 51 172 C 43 174 43 181 51 183 C 56 184 106 184 108 183 C 115 180 112 173 103 171 C 97 169 95 167 94 162 C 93 157 92 75 93 64 C 93 55 94 54 102 54 C 108 54 114 55 118 57 C 122 58 125 61 127 68 C 131 77 135 79 139 75 C 141 73 141 72 141 63 C 140 37 138 33 127 37 C 126 38 124 39 123 39 C 108 39 93 39 79 39 C 64 39 49 39 34 39 C 33 39 31 38 30 37 C 24 36 24 36 21 37 M 18 175 C 16 178 16 178 18 181 C 19 183 19 183 21 181 C 23 179 23 178 22 175 C 20 173 19 173 18 175 z" fill="black"/><!-- width=156 height=198 -->
<path id="gl5396" d="M 34 24 C 27 27 28 33 36 37 C 46 40 46 39 46 86 C 46 126 47 128 50 138 C 54 154 66 165 84 169 C 91 171 110 171 117 169 C 139 163 153 147 158 122 C 159 118 159 109 159 89 C 160 43 161 41 171 36 C 178 33 179 27 172 24 C 170 23 132 23 129 24 C 121 26 122 34 130 36 C 138 39 141 41 142 48 C 143 52 144 108 143 114 C 140 136 131 148 115 151 C 93 156 79 142 76 114 C 75 97 75 48 77 43 C 78 40 81 38 84 37 C 92 34 93 26 86 24 C 82 23 37 23 34 24 z" fill="black"/><!-- width=191 height=186 -->
<path id="gl3091" d="M 18 20 C 12 23 13 29 21 31 C 30 34 33 38 34 47 C 35 52 34 139 34 144 C 33 151 31 153 25 157 C 17 160 15 163 18 166 C 19 169 23 170 45 169 C 69 169 69 169 70 165 C 71 162 69 159 63 157 C 51 154 51 152 49 118 C 49 87 49 69 52 67 C 54 65 59 71 83 100 C 87 105 92 111 94 114 C 96 116 102 124 108 130 C 129 156 138 167 140 168 C 145 171 150 169 151 164 C 151 162 152 145 152 110 C 152 37 152 36 162 32 C 172 28 172 22 163 19 C 157 18 121 19 119 21 C 113 24 115 29 124 31 C 136 35 136 37 136 84 C 136 125 136 125 122 108 C 118 104 114 99 112 97 C 110 94 106 88 102 84 C 51 23 50 22 45 20 C 40 19 21 19 18 20 z" fill="black"/><!-- width=183 height=184 -->
<path id="gl4878" d="M 75 12 C 73 13 70 18 66 28 C 61 42 57 54 53 63 C 52 67 49 73 48 75 C 47 78 43 90 38 102 C 25 136 24 138 16 142 C 11 144 10 145 10 149 C 10 153 12 154 16 155 C 22 156 48 156 51 154 C 60 153 60 146 52 142 C 45 139 45 137 49 123 C 55 106 54 106 72 106 C 90 106 90 106 96 120 C 102 138 102 138 94 144 C 90 147 90 151 94 154 C 97 155 98 155 120 155 C 145 155 145 155 148 153 C 152 149 150 145 143 142 C 135 138 132 134 125 115 C 124 112 121 103 118 96 C 115 88 112 79 111 77 C 110 75 106 64 103 54 C 89 17 88 13 85 11 C 82 10 78 10 75 12 M 76 67 C 79 74 82 85 82 87 C 81 89 79 90 72 90 C 61 90 60 88 66 74 C 69 64 70 63 72 63 C 73 61 73 62 76 67 z" fill="black"/><!-- width=164 height=195 -->
<path id="gl2309" d="M 69 11 C 66 12 59 19 51 28 C 34 50 25 75 25 108 C 24 149 36 183 61 207 C 70 215 74 215 78 208 C 79 207 80 205 79 204 C 79 202 76 198 75 198 C 74 198 66 187 63 183 C 46 159 40 115 48 79 C 52 57 60 42 72 30 C 80 21 81 19 78 14 C 75 10 73 9 69 11 z" fill="black"/><!-- width=90 height=223 -->
<path id="gl773" d="M 37 12 C 24 15 22 16 22 21 C 22 23 24 25 28 27 C 35 31 34 24 35 97 C 35 118 35 139 35 160 C 36 161 36 162 36 163 C 41 172 68 177 86 172 C 128 162 145 108 115 79 C 102 67 88 63 70 68 C 58 72 58 73 58 40 C 58 6 58 6 37 12 M 80 85 C 87 87 95 93 99 100 C 103 107 103 111 103 122 C 103 136 100 145 94 151 C 84 163 62 161 60 147 C 58 142 58 92 60 90 C 62 84 69 83 80 85 z" fill="black"/><!-- width=142 height=202 -->
<path id="gl769" d="M 37 58 C 26 58 25 59 24 63 C 22 66 24 69 29 70 C 36 73 38 76 43 90 C 44 93 46 98 47 101 C 49 105 51 111 52 115 C 59 133 64 149 64 153 C 65 163 57 179 46 190 C 40 196 38 199 39 203 C 40 212 51 217 57 212 C 59 210 61 207 64 199 C 65 195 67 189 69 185 C 72 176 90 134 94 124 C 96 121 97 117 98 115 C 105 100 114 81 117 77 C 118 75 121 73 123 72 C 129 68 131 65 129 61 C 126 58 124 58 113 58 C 94 57 90 58 88 63 C 88 66 89 68 93 70 C 98 73 98 75 93 89 C 85 110 81 118 79 115 C 76 114 73 105 66 84 C 63 75 63 75 67 69 C 69 67 71 66 71 65 C 71 63 69 60 67 59 C 64 58 51 58 37 58 z" fill="black"/><!-- width=143 height=229 -->
<path id="gl259" d="M 82 13 C 71 16 69 16 67 19 C 65 22 67 25 73 28 C 81 30 81 31 81 50 C 81 55 81 59 81 63 C 80 64 79 64 79 65 C 78 67 77 67 70 67 C 44 69 25 81 15 101 C 1 130 15 164 45 173 C 53 176 59 175 70 169 C 77 166 78 166 82 170 C 85 174 87 174 99 171 C 117 166 118 166 118 161 C 118 158 117 156 112 155 C 108 154 106 153 105 150 C 105 149 104 123 104 83 C 104 46 103 16 103 15 C 102 9 98 9 82 13 M 72 84 C 76 85 79 88 80 91 C 81 94 81 144 80 147 C 79 152 67 157 58 154 C 48 153 39 142 36 129 C 34 119 36 105 40 97 C 45 85 60 79 72 84 z" fill="black"/><!-- width=138 height=214 -->
<path id="gl22285" d="M 54 10 C 43 14 25 24 21 29 C 15 37 19 48 30 48 C 36 48 39 46 41 39 C 45 27 55 22 64 27 C 67 29 69 31 70 36 C 73 45 71 49 63 52 C 48 57 30 66 25 69 C 17 76 15 87 19 96 C 26 114 44 122 57 113 C 58 112 61 110 63 108 C 65 107 67 106 69 106 C 70 105 70 105 72 105 C 72 106 73 108 75 109 C 81 117 85 118 94 114 C 97 112 102 111 105 109 C 111 108 111 107 112 104 C 113 97 109 94 100 95 C 99 95 97 96 95 96 C 94 95 94 94 93 93 C 93 93 93 92 92 91 C 93 81 93 71 93 60 C 93 50 93 40 93 30 C 93 28 92 27 91 25 C 88 17 84 13 75 10 C 67 8 63 8 54 10 M 69 63 C 72 65 72 67 72 78 C 72 91 70 94 60 97 C 47 102 37 90 43 78 C 46 73 49 71 58 66 C 66 62 67 62 69 63 z" fill="black"/><!-- width=124 height=135 -->
<path id="gl769" d="M 37 58 C 26 58 25 59 24 63 C 22 66 24 69 29 70 C 36 73 38 76 43 90 C 44 93 46 98 47 101 C 49 105 51 111 52 115 C 59 133 64 149 64 153 C 65 163 57 179 46 190 C 40 196 38 199 39 203 C 40 212 51 217 57 212 C 59 210 61 207 64 199 C 65 195 67 189 69 185 C 72 176 90 134 94 124 C 96 121 97 117 98 115 C 105 100 114 81 117 77 C 118 75 121 73 123 72 C 129 68 131 65 129 61 C 126 58 124 58 113 58 C 94 57 90 58 88 63 C 88 66 89 68 93 70 C 98 73 98 75 93 89 C 85 110 81 118 79 115 C 76 114 73 105 66 84 C 63 75 63 75 67 69 C 69 67 71 66 71 65 C 71 63 69 60 67 59 C 64 58 51 58 37 58 z" fill="black"/><!-- width=143 height=229 -->
<path id="gl8728" d="M 9 11 C 7 12 4 16 4 18 C 4 19 7 24 11 28 C 24 41 33 60 36 82 C 43 127 34 172 12 195 C 3 203 3 207 9 211 C 14 215 33 196 43 176 C 50 163 55 147 57 132 C 61 91 52 54 33 30 C 22 16 13 9 9 11 z" fill="black"/><!-- width=76 height=223 -->
<path id="gl15116" d="M 17 13 C 13 15 12 16 12 22 C 12 27 12 27 15 28 C 15 29 16 30 17 31 C 19 30 21 30 23 30 C 37 30 98 29 112 30 C 129 31 129 31 132 28 C 135 25 135 18 132 15 C 129 12 128 12 111 13 C 95 13 25 13 21 12 C 19 12 18 12 17 13 M 18 56 C 10 58 9 71 17 74 C 19 75 21 75 28 74 C 36 73 113 74 126 75 C 132 75 136 67 133 60 C 130 56 129 55 116 57 C 105 57 23 57 22 56 C 21 56 19 56 18 56 z" fill="black"/><!-- width=146 height=88 -->
<path id="gl33292" d="M 76 7 C 72 9 68 15 64 28 C 62 33 60 39 58 42 C 57 45 55 50 54 54 C 52 57 51 61 50 63 C 49 64 48 69 46 72 C 45 75 43 82 41 88 C 39 93 36 100 35 103 C 34 106 32 112 31 115 C 30 117 28 122 27 126 C 22 137 19 141 13 143 C 8 145 7 145 6 148 C 5 151 6 154 9 155 C 12 156 49 156 51 154 C 55 151 54 145 47 144 C 40 142 40 139 44 126 C 50 108 51 105 57 105 C 63 104 81 104 85 104 C 90 105 93 109 96 118 C 96 120 98 124 99 127 C 103 137 103 140 98 144 C 91 148 91 150 93 153 C 96 156 98 156 121 156 C 142 156 144 156 147 153 C 151 150 149 146 142 144 C 136 142 132 136 128 126 C 127 124 126 120 124 116 C 123 112 121 106 119 103 C 118 99 116 93 114 89 C 111 79 107 69 104 60 C 102 55 99 46 96 39 C 93 31 90 22 88 19 C 84 7 81 5 76 7 M 73 58 C 75 60 83 82 82 84 C 81 88 79 88 71 88 C 58 88 57 87 62 72 C 69 56 69 54 73 58 z" fill="black"/><!-- width=161 height=191 -->
<path id="gl1798" d="M 52 11 C 33 16 19 29 17 48 C 15 69 25 83 54 97 C 73 107 78 113 78 124 C 78 146 55 154 38 138 C 34 133 33 132 30 124 C 25 114 23 112 19 112 C 13 111 10 116 11 123 C 14 141 16 150 20 153 C 28 159 56 164 68 160 C 92 154 106 136 105 113 C 103 95 94 84 72 73 C 60 67 55 65 52 63 C 33 50 43 22 66 26 C 74 28 79 32 83 43 C 85 49 87 51 89 52 C 93 55 98 53 100 49 C 102 45 97 21 94 17 C 90 12 64 9 52 11 z" fill="black"/><!-- width=119 height=175 -->
<path id="gl33301" d="M 52 14 C -15 48 0 153 76 158 C 120 163 134 158 139 134 C 148 110 144 110 124 129 C 91 172 33 129 43 67 C 52 24 100 4 124 38 C 129 43 134 48 139 48 C 144 48 139 14 129 9 C 120 4 72 4 52 14 z" fill="black"/><!-- width=153 height=172 -->
<path id="gl33294" d="M 36 12 C 32 12 29 12 28 13 C 22 16 24 22 33 25 C 39 27 40 30 41 38 C 42 44 42 136 42 138 C 40 144 37 147 31 149 C 22 152 21 157 27 161 C 30 162 31 162 79 162 C 109 162 129 162 130 161 C 135 160 136 156 139 141 C 142 126 142 123 138 121 C 133 118 131 121 126 130 C 122 139 118 143 113 145 C 105 147 88 147 82 145 C 75 143 73 139 73 112 C 73 92 73 92 87 92 C 100 92 104 94 106 100 C 109 109 115 112 119 106 C 120 103 121 72 120 66 C 118 55 110 55 106 66 C 104 73 100 75 87 75 C 73 75 73 76 73 51 C 73 27 73 27 86 27 C 105 26 112 29 116 39 C 119 46 120 48 122 49 C 125 51 126 51 129 48 C 130 48 130 47 131 46 C 131 44 131 42 131 39 C 130 18 129 13 121 12 C 118 12 45 11 36 12 z" fill="black"/><!-- width=155 height=177 -->
<path id="gl1804" d="M 22 20 C 17 21 15 23 15 27 C 15 30 17 31 22 34 C 30 37 31 39 33 45 C 36 55 36 133 33 143 C 31 147 30 148 24 151 C 18 154 16 157 18 160 C 20 165 21 165 45 165 C 64 165 66 165 68 163 C 75 160 72 153 64 151 C 52 148 52 145 52 105 C 52 64 51 64 74 93 C 80 100 89 111 94 117 C 99 123 106 132 109 136 C 114 141 119 147 121 150 C 133 165 138 168 144 164 C 148 162 148 165 148 106 C 148 37 148 39 159 33 C 163 31 165 30 165 27 C 165 24 165 23 162 21 C 160 20 159 20 141 20 C 118 19 115 20 113 23 C 109 27 112 31 120 33 C 130 37 131 40 132 70 C 132 97 132 108 128 108 C 127 108 111 90 87 61 C 84 58 79 52 75 47 C 70 42 65 36 61 31 C 56 25 53 22 49 21 C 48 20 25 19 22 20 z" fill="black"/><!-- width=180 height=180 -->
<path id="gl33295" d="M 29 13 C 18 14 16 15 15 19 C 13 21 16 24 22 26 C 26 28 27 28 29 32 C 30 33 30 34 31 35 C 31 52 31 69 31 86 C 31 143 31 143 27 148 C 25 150 25 150 21 151 C 15 153 13 154 13 157 C 12 159 13 161 16 162 C 18 163 77 163 85 162 C 90 162 98 160 105 159 C 129 153 153 132 159 112 C 162 102 162 99 162 82 C 162 63 162 61 157 51 C 153 43 144 31 142 31 C 142 31 141 31 139 30 C 133 22 117 17 95 13 C 90 13 41 13 29 13 M 91 28 C 100 30 112 36 117 43 C 126 52 132 72 130 91 C 130 100 127 116 125 118 C 124 118 123 122 121 125 C 117 133 110 139 100 144 C 91 148 75 150 67 147 C 61 144 61 144 61 85 C 61 31 61 30 64 29 C 70 27 81 27 91 28 z" fill="black"/><!-- width=174 height=174 -->
<path id="gl5131" d="M 76 9 C 72 12 70 15 55 54 C 52 64 46 78 43 85 C 40 92 36 104 33 111 C 25 134 23 136 16 139 C 11 142 9 144 9 147 C 9 153 10 153 33 153 C 55 153 57 153 57 147 C 57 144 56 143 51 141 C 44 137 43 135 49 121 C 54 105 54 105 72 105 C 89 105 90 105 94 115 C 101 133 102 137 96 140 C 89 144 88 149 94 152 C 98 154 141 154 145 152 C 152 148 150 144 141 139 C 134 136 131 132 124 115 C 114 87 112 79 108 70 C 105 61 99 44 92 25 C 90 20 88 15 87 13 C 85 9 79 7 76 9 M 73 61 C 74 62 76 66 78 71 C 84 87 83 88 72 88 C 60 88 59 86 67 67 C 70 59 71 58 73 61 z" fill="black"/><!-- width=163 height=191 -->
<path id="gl1804" d="M 22 20 C 17 21 15 23 15 27 C 15 30 17 31 22 34 C 30 37 31 39 33 45 C 36 55 36 133 33 143 C 31 147 30 148 24 151 C 18 154 16 157 18 160 C 20 165 21 165 45 165 C 64 165 66 165 68 163 C 75 160 72 153 64 151 C 52 148 52 145 52 105 C 52 64 51 64 74 93 C 80 100 89 111 94 117 C 99 123 106 132 109 136 C 114 141 119 147 121 150 C 133 165 138 168 144 164 C 148 162 148 165 148 106 C 148 37 148 39 159 33 C 163 31 165 30 165 27 C 165 24 165 23 162 21 C 160 20 159 20 141 20 C 118 19 115 20 113 23 C 109 27 112 31 120 33 C 130 37 131 40 132 70 C 132 97 132 108 128 108 C 127 108 111 90 87 61 C 84 58 79 52 75 47 C 70 42 65 36 61 31 C 56 25 53 22 49 21 C 48 20 25 19 22 20 z" fill="black"/><!-- width=180 height=180 -->
<path id="gl1799" d="M 19 39 C 15 40 15 42 14 64 C 13 75 14 78 19 79 C 22 80 25 78 28 70 C 31 61 37 58 49 57 C 51 57 54 57 56 57 C 57 57 57 58 58 58 C 59 59 60 60 60 60 C 60 71 61 82 61 93 C 61 112 61 132 61 144 C 60 168 60 169 49 172 C 45 174 43 176 43 179 C 43 181 44 184 47 184 C 51 186 101 186 105 184 C 112 183 111 175 102 172 C 90 169 90 171 90 109 C 90 58 90 60 94 57 C 97 55 110 57 115 59 C 120 61 121 64 124 71 C 128 79 132 81 136 78 C 138 75 138 73 138 57 C 136 37 135 36 122 40 C 119 40 113 41 74 40 C 30 40 30 40 26 39 C 22 37 21 37 19 39 z" fill="black"/><!-- width=151 height=199 -->
<path id="gl15114" d="M 70 16 C 68 17 65 19 64 22 C 64 24 63 31 63 40 C 63 66 63 66 52 67 C 49 67 40 67 34 67 C 27 67 21 67 19 68 C 12 70 11 78 17 82 C 19 83 21 83 39 83 C 58 84 58 84 60 85 C 63 87 63 89 64 111 C 64 122 64 132 65 133 C 66 138 71 140 76 138 C 81 136 81 136 82 110 C 82 93 82 87 82 87 C 84 84 87 83 106 83 C 127 82 128 82 130 79 C 132 77 132 72 130 70 C 127 67 127 67 106 67 C 84 66 83 66 82 62 C 82 61 81 51 81 41 C 81 25 81 22 79 21 C 78 18 75 16 70 16 z" fill="black"/><!-- width=145 height=153 -->
<path id="gl10502" d="M 19 10 C 11 11 12 19 20 22 C 30 25 31 30 30 54 C 30 61 29 73 28 82 C 28 110 25 131 24 138 C 22 142 21 144 15 147 C 8 150 7 155 13 158 C 17 160 55 160 59 159 C 66 156 63 149 55 147 C 47 144 45 141 43 130 C 43 123 43 100 45 81 C 46 57 46 57 74 121 C 88 154 90 156 95 156 C 100 156 102 153 114 126 C 117 118 123 105 127 96 C 131 86 135 78 135 77 C 137 72 142 63 143 62 C 146 61 146 63 147 97 C 148 142 147 144 138 147 C 130 149 129 156 135 159 C 137 160 184 160 190 159 C 193 159 195 156 195 154 C 195 150 193 149 188 147 C 178 142 178 145 177 99 C 175 53 175 32 176 30 C 178 26 180 24 184 22 C 190 20 192 19 192 16 C 192 10 189 9 169 9 C 145 9 147 7 136 36 C 133 43 127 55 124 63 C 109 97 106 103 103 104 C 100 105 99 103 79 60 C 73 48 67 33 64 27 C 55 9 56 9 36 9 C 28 9 21 9 19 10 z" fill="black"/><!-- width=210 height=175 -->
<path id="gl1793" d="M 80 13 C 48 16 24 38 15 71 C 13 79 13 100 15 110 C 24 147 57 168 96 162 C 127 158 151 134 157 102 C 159 94 159 77 157 70 C 150 31 118 9 80 13 M 93 29 C 114 34 126 60 125 97 C 124 130 112 148 90 148 C 69 148 53 131 48 102 C 40 55 61 21 93 29 z" fill="black"/><!-- width=172 height=177 -->
<path id="gl20994" d="M 84 13 C 68 15 54 19 43 27 C 15 48 4 86 16 120 C 23 142 42 160 63 166 C 88 172 114 168 133 153 C 165 129 172 76 149 42 C 134 22 109 11 84 13 M 91 28 C 116 31 130 58 129 99 C 129 114 127 122 123 131 C 110 163 70 162 54 130 C 43 108 42 72 51 52 C 59 33 73 25 91 28 z" fill="black"/><!-- width=175 height=183 -->
<path id="gl3091" d="M 18 20 C 12 23 13 29 21 31 C 30 34 33 38 34 47 C 35 52 34 139 34 144 C 33 151 31 153 25 157 C 17 160 15 163 18 166 C 19 169 23 170 45 169 C 69 169 69 169 70 165 C 71 162 69 159 63 157 C 51 154 51 152 49 118 C 49 87 49 69 52 67 C 54 65 59 71 83 100 C 87 105 92 111 94 114 C 96 116 102 124 108 130 C 129 156 138 167 140 168 C 145 171 150 169 151 164 C 151 162 152 145 152 110 C 152 37 152 36 162 32 C 172 28 172 22 163 19 C 157 18 121 19 119 21 C 113 24 115 29 124 31 C 136 35 136 37 136 84 C 136 125 136 125 122 108 C 118 104 114 99 112 97 C 110 94 106 88 102 84 C 51 23 50 22 45 20 C 40 19 21 19 18 20 z" fill="black"/><!-- width=183 height=184 -->
<path id="gl1283" d="M 16 14 C 12 17 12 28 16 31 C 18 33 19 33 24 32 C 33 31 57 31 63 32 C 71 33 74 31 74 22 C 74 13 72 13 60 14 C 52 15 34 14 22 13 C 18 13 18 13 16 14 z" fill="black"/><!-- width=87 height=46 -->
<path id="gl1029" d="M 51 11 C 28 16 15 33 16 55 C 16 74 26 84 53 97 C 66 103 73 108 76 112 C 85 125 81 145 67 151 C 51 158 34 150 26 130 C 22 120 20 118 16 118 C 11 118 8 123 9 129 C 10 135 15 153 15 155 C 19 166 54 172 73 165 C 93 157 105 139 103 118 C 103 99 93 87 68 76 C 49 67 43 63 39 56 C 33 44 40 29 52 26 C 66 22 79 30 82 45 C 84 51 89 55 93 54 C 97 51 99 46 97 40 C 97 39 96 34 96 30 C 93 16 92 15 80 12 C 73 10 56 10 51 11 z" fill="black"/><!-- width=117 height=181 -->
<path id="gl33291" d="M 36 22 C 31 23 29 27 31 30 C 31 32 33 33 38 34 C 43 36 43 36 45 39 C 48 43 48 44 48 85 C 49 133 49 139 57 151 C 66 166 82 174 105 175 C 139 175 161 154 165 117 C 166 111 166 102 166 86 C 166 64 167 47 169 42 C 170 38 172 36 180 33 C 186 31 188 28 186 25 C 183 22 182 22 158 22 C 143 21 135 22 133 22 C 129 24 127 27 129 31 C 131 32 132 33 138 35 C 149 38 150 42 150 89 C 150 117 150 121 145 132 C 139 150 129 156 111 156 C 91 155 81 142 78 114 C 78 102 78 45 79 42 C 80 38 82 36 87 34 C 95 31 97 26 91 23 C 89 22 40 21 36 22 z" fill="black"/><!-- width=198 height=188 -->
<path id="gl3091" d="M 18 20 C 12 23 13 29 21 31 C 30 34 33 38 34 47 C 35 52 34 139 34 144 C 33 151 31 153 25 157 C 17 160 15 163 18 166 C 19 169 23 170 45 169 C 69 169 69 169 70 165 C 71 162 69 159 63 157 C 51 154 51 152 49 118 C 49 87 49 69 52 67 C 54 65 59 71 83 100 C 87 105 92 111 94 114 C 96 116 102 124 108 130 C 129 156 138 167 140 168 C 145 171 150 169 151 164 C 151 162 152 145 152 110 C 152 37 152 36 162 32 C 172 28 172 22 163 19 C 157 18 121 19 119 21 C 113 24 115 29 124 31 C 136 35 136 37 136 84 C 136 125 136 125 122 108 C 118 104 114 99 112 97 C 110 94 106 88 102 84 C 51 23 50 22 45 20 C 40 19 21 19 18 20 z" fill="black"/><!-- width=183 height=184 -->
<path id="gl263" d="M 23 13 C 19 15 16 20 15 24 C 12 31 16 40 23 44 C 32 48 41 43 44 34 C 48 21 35 8 23 13 z" fill="black"/><!-- width=59 height=58 -->
</defs>
<use xlink:href="#gl3337" x="0" y="3"/>
<use xlink:href="#gl1537" x="115" y="25"/>
<use xlink:href="#gl3850" x="247" y="24"/>
<use xlink:href="#gl1798" x="402" y="26"/>
<use xlink:href="#gl2051" x="545" y="9"/>
<use xlink:href="#gl20994" x="677" y="22"/>
<use xlink:href="#gl5129" x="831" y="27"/>
<use xlink:href="#gl14606" x="968" y="2"/>
<use xlink:href="#gl5396" x="1091" y="18"/>
<use xlink:href="#gl3091" x="1263" y="21"/>
<use xlink:href="#gl4878" x="1423" y="33"/>
<use xlink:href="#gl2309" x="1613" y="16"/>
<use xlink:href="#gl773" x="1681" y="19"/>
<use xlink:href="#gl769" x="1793" y="30"/>
<use xlink:href="#gl259" x="1966" y="19"/>
<use xlink:href="#gl22285" x="2076" y="78"/>
<use xlink:href="#gl769" x="2160" y="32"/>
<use xlink:href="#gl8728" x="2293" y="18"/>
<use xlink:href="#gl15116" x="2411" y="84"/>
<use xlink:href="#gl33292" x="2596" y="36"/>
<use xlink:href="#gl1798" x="2741" y="31"/>
<use xlink:href="#gl33301" x="2852" y="33"/>
<use xlink:href="#gl33294" x="2980" y="29"/>
<use xlink:href="#gl1804" x="3114" y="22"/>
<use xlink:href="#gl33295" x="3278" y="26"/>
<use xlink:href="#gl5131" x="3433" y="33"/>
<use xlink:href="#gl1804" x="3574" y="20"/>
<use xlink:href="#gl1799" x="3738" y="0"/>
<use xlink:href="#gl15114" x="3925" y="47"/>
<use xlink:href="#gl10502" x="4111" y="25"/>
<use xlink:href="#gl1793" x="4308" y="22"/>
<use xlink:href="#gl20994" x="4474" y="18"/>
<use xlink:href="#gl3091" x="4633" y="14"/>
<use xlink:href="#gl1283" x="4849" y="107"/>
<use xlink:href="#gl1029" x="4974" y="19"/>
<use xlink:href="#gl33291" x="5059" y="11"/>
<use xlink:href="#gl3091" x="5235" y="12"/>
<use xlink:href="#gl263" x="5405" y="136"/>
</svg>
