<?xml version='1.0' encoding='utf-8'?>
<svg xmlns="http://www.w3.org/2000/svg" xmlns:xlink="http://www.w3.org/1999/xlink" width="562px" height="26px" viewBox="0 0 5623 262" version="1.1">
<defs>
<path id="gl1808" d="M 33 34 C 23 36 22 43 31 47 C 40 51 40 48 40 108 C 40 157 40 157 39 160 C 37 163 34 166 31 166 C 24 169 22 176 28 178 C 31 180 79 180 82 179 C 87 178 89 175 87 171 C 86 169 85 168 79 166 C 70 163 69 160 69 139 C 69 121 68 123 83 123 C 115 123 139 97 133 68 C 130 49 117 38 95 36 C 89 34 39 34 33 34 M 85 50 C 98 54 104 63 103 79 C 102 89 100 96 94 100 C 86 108 72 109 70 102 C 69 99 69 56 70 53 C 72 49 78 48 85 50 z" fill="black"/><!-- width=149 height=196 -->
<path id="gl16404" d="M 74 10 C 71 14 69 18 66 27 C 64 32 62 37 61 40 C 60 42 58 46 57 49 C 56 52 54 56 54 58 C 52 64 48 73 46 76 C 46 77 45 79 45 81 C 43 84 36 104 33 111 C 32 114 30 119 28 124 C 23 136 21 139 14 142 C 9 145 7 147 7 150 C 7 155 10 156 34 155 C 40 155 46 155 53 155 C 53 154 54 154 54 153 C 57 150 56 147 50 144 C 43 139 42 138 47 124 C 53 106 52 106 70 106 C 91 106 90 105 97 124 C 102 137 102 140 96 143 C 90 146 89 153 94 155 C 97 156 141 156 145 154 C 151 152 150 146 142 143 C 135 139 129 130 119 100 C 118 97 117 94 116 93 C 115 91 114 87 113 84 C 112 80 110 75 108 71 C 107 68 105 63 104 60 C 100 49 97 39 96 37 C 96 37 94 33 93 30 C 92 27 90 22 89 19 C 87 12 86 11 84 10 C 79 7 77 8 74 10 M 75 64 C 78 72 82 84 82 85 C 82 89 74 91 66 90 C 60 89 59 87 63 75 C 64 71 66 67 66 66 C 67 63 70 58 72 59 C 72 59 73 61 75 64 z" fill="black"/><!-- width=163 height=193 -->
<path id="gl1794" d="M 34 13 C 25 15 25 22 33 26 C 43 30 43 31 43 86 C 43 141 43 140 33 144 C 27 147 24 151 28 155 C 31 157 32 157 59 157 C 82 157 83 157 85 156 C 90 151 88 147 81 144 C 73 141 72 138 73 117 C 73 102 73 101 74 100 C 78 96 85 101 90 113 C 100 132 111 147 120 151 C 129 157 148 160 154 157 C 160 154 159 149 153 145 C 144 141 132 125 118 102 C 111 90 111 90 119 84 C 130 74 135 65 136 53 C 137 32 124 18 102 14 C 96 13 39 12 34 13 M 91 30 C 104 37 109 54 102 69 C 97 78 86 84 78 82 C 73 81 73 81 72 64 C 72 39 72 31 75 29 C 78 27 87 28 91 30 z" fill="black"/><!-- width=171 height=173 -->
<path id="gl1798" d="M 52 11 C 33 16 19 29 17 48 C 15 69 25 83 54 97 C 73 107 78 113 78 124 C 78 146 55 154 38 138 C 34 133 33 132 30 124 C 25 114 23 112 19 112 C 13 111 10 116 11 123 C 14 141 16 150 20 153 C 28 159 56 164 68 160 C 92 154 106 136 105 113 C 103 95 94 84 72 73 C 60 67 55 65 52 63 C 33 50 43 22 66 26 C 74 28 79 32 83 43 C 85 49 87 51 89 52 C 93 55 98 53 100 49 C 102 45 97 21 94 17 C 90 12 64 9 52 11 z" fill="black"/><!-- width=119 height=175 -->
<path id="gl3849" d="M 40 29 C 35 30 30 30 30 30 C 24 33 25 38 33 40 C 38 43 39 43 41 47 C 42 48 42 49 43 51 C 43 69 43 86 43 104 C 43 147 43 158 42 160 C 41 163 39 165 34 167 C 27 169 25 172 27 175 C 29 179 31 180 57 179 C 72 179 81 179 83 178 C 91 177 90 170 81 168 C 75 166 73 165 72 163 C 69 160 68 157 68 142 C 67 124 68 115 70 114 C 72 111 77 111 88 111 C 102 111 104 112 107 120 C 109 126 114 128 117 125 C 119 123 119 120 119 103 C 119 86 118 85 117 82 C 114 78 109 80 107 87 C 104 95 102 96 85 96 C 67 96 68 97 68 69 C 68 42 67 43 81 43 C 103 42 110 45 115 58 C 117 65 120 67 124 66 C 127 64 127 60 126 46 C 126 34 124 30 118 30 C 115 29 50 29 40 29 z" fill="black"/><!-- width=141 height=193 -->
<path id="gl20994" d="M 84 13 C 68 15 54 19 43 27 C 15 48 4 86 16 120 C 23 142 42 160 63 166 C 88 172 114 168 133 153 C 165 129 172 76 149 42 C 134 22 109 11 84 13 M 91 28 C 116 31 130 58 129 99 C 129 114 127 122 123 131 C 110 163 70 162 54 130 C 43 108 42 72 51 52 C 59 33 73 25 91 28 z" fill="black"/><!-- width=175 height=183 -->
<path id="gl3850" d="M 45 12 C 33 12 32 12 30 15 C 28 18 30 21 37 24 C 42 26 43 28 45 32 C 46 35 46 99 46 123 C 46 129 46 135 46 140 C 45 141 45 142 44 144 C 42 147 40 148 36 150 C 28 152 26 158 32 161 C 35 162 80 163 84 162 C 91 159 88 152 81 150 C 72 147 70 142 71 117 C 71 112 71 108 71 103 C 72 102 72 102 73 101 C 75 100 75 100 78 100 C 85 100 90 103 96 114 C 117 151 125 159 144 163 C 156 165 161 163 160 157 C 160 155 160 154 155 151 C 146 145 129 123 118 102 C 112 93 112 92 120 85 C 132 76 138 65 138 51 C 138 26 121 13 91 12 C 74 12 56 12 45 12 M 91 26 C 106 30 115 44 111 61 C 108 77 98 85 81 85 C 70 85 70 87 70 55 C 70 27 70 27 77 25 C 80 24 87 25 91 26 z" fill="black"/><!-- width=175 height=177 -->
<path id="gl33296" d="M 18 37 C 15 40 14 50 14 69 C 14 72 14 74 14 76 C 15 77 15 78 16 78 C 19 81 23 79 25 72 C 30 60 36 55 49 55 C 58 54 60 55 61 59 C 63 64 63 168 61 171 C 60 174 56 177 51 178 C 45 179 43 181 43 184 C 43 190 43 190 78 190 C 111 190 112 190 112 186 C 114 181 112 179 105 178 C 97 176 94 173 93 166 C 92 159 91 63 93 60 C 94 55 96 55 105 55 C 122 55 125 57 130 72 C 132 78 136 81 139 78 C 142 76 142 74 141 58 C 140 40 140 40 138 38 C 136 36 135 36 128 39 C 126 39 125 40 123 40 C 108 40 92 40 76 40 C 61 40 45 40 30 40 C 28 39 27 39 26 38 C 22 36 19 36 18 37 z" fill="black"/><!-- width=155 height=204 -->
<path id="gl33291" d="M 36 22 C 31 23 29 27 31 30 C 31 32 33 33 38 34 C 43 36 43 36 45 39 C 48 43 48 44 48 85 C 49 133 49 139 57 151 C 66 166 82 174 105 175 C 139 175 161 154 165 117 C 166 111 166 102 166 86 C 166 64 167 47 169 42 C 170 38 172 36 180 33 C 186 31 188 28 186 25 C 183 22 182 22 158 22 C 143 21 135 22 133 22 C 129 24 127 27 129 31 C 131 32 132 33 138 35 C 149 38 150 42 150 89 C 150 117 150 121 145 132 C 139 150 129 156 111 156 C 91 155 81 142 78 114 C 78 102 78 45 79 42 C 80 38 82 36 87 34 C 95 31 97 26 91 23 C 89 22 40 21 36 22 z" fill="black"/><!-- width=198 height=188 -->
<path id="gl3091" d="M 18 20 C 12 23 13 29 21 31 C 30 34 33 38 34 47 C 35 52 34 139 34 144 C 33 151 31 153 25 157 C 17 160 15 163 18 166 C 19 169 23 170 45 169 C 69 169 69 169 70 165 C 71 162 69 159 63 157 C 51 154 51 152 49 118 C 49 87 49 69 52 67 C 54 65 59 71 83 100 C 87 105 92 111 94 114 C 96 116 102 124 108 130 C 129 156 138 167 140 168 C 145 171 150 169 151 164 C 151 162 152 145 152 110 C 152 37 152 36 162 32 C 172 28 172 22 163 19 C 157 18 121 19 119 21 C 113 24 115 29 124 31 C 136 35 136 37 136 84 C 136 125 136 125 122 108 C 118 104 114 99 112 97 C 110 94 106 88 102 84 C 51 23 50 22 45 20 C 40 19 21 19 18 20 z" fill="black"/><!-- width=183 height=184 -->
<path id="gl1537" d="M 79 11 C 76 12 75 15 65 40 C 57 63 35 118 32 127 C 26 142 23 146 16 150 C 10 152 9 154 9 157 C 9 162 10 162 33 162 C 56 162 57 162 57 156 C 57 153 56 152 49 149 C 44 147 43 144 46 134 C 52 116 55 110 58 109 C 61 108 88 108 92 108 C 97 109 99 113 105 133 C 110 145 109 147 103 150 C 97 153 96 156 99 160 C 102 162 104 163 129 162 C 150 162 151 162 153 159 C 155 154 153 151 145 149 C 138 147 135 142 128 123 C 126 117 123 111 123 109 C 122 106 120 101 118 96 C 117 91 114 85 114 83 C 112 81 110 73 108 67 C 106 61 102 50 98 42 C 95 34 92 25 91 22 C 87 12 84 9 79 11 M 78 58 C 79 60 82 68 86 79 C 90 91 89 91 75 91 C 62 91 61 91 66 78 C 72 58 75 55 78 58 z" fill="black"/><!-- width=168 height=204 -->
<path id="gl2309" d="M 69 11 C 66 12 59 19 51 28 C 34 50 25 75 25 108 C 24 149 36 183 61 207 C 70 215 74 215 78 208 C 79 207 80 205 79 204 C 79 202 76 198 75 198 C 74 198 66 187 63 183 C 46 159 40 115 48 79 C 52 57 60 42 72 30 C 80 21 81 19 78 14 C 75 10 73 9 69 11 z" fill="black"/><!-- width=90 height=223 -->
<path id="gl773" d="M 37 12 C 24 15 22 16 22 21 C 22 23 24 25 28 27 C 35 31 34 24 35 97 C 35 118 35 139 35 160 C 36 161 36 162 36 163 C 41 172 68 177 86 172 C 128 162 145 108 115 79 C 102 67 88 63 70 68 C 58 72 58 73 58 40 C 58 6 58 6 37 12 M 80 85 C 87 87 95 93 99 100 C 103 107 103 111 103 122 C 103 136 100 145 94 151 C 84 163 62 161 60 147 C 58 142 58 92 60 90 C 62 84 69 83 80 85 z" fill="black"/><!-- width=142 height=202 -->
<path id="gl769" d="M 37 58 C 26 58 25 59 24 63 C 22 66 24 69 29 70 C 36 73 38 76 43 90 C 44 93 46 98 47 101 C 49 105 51 111 52 115 C 59 133 64 149 64 153 C 65 163 57 179 46 190 C 40 196 38 199 39 203 C 40 212 51 217 57 212 C 59 210 61 207 64 199 C 65 195 67 189 69 185 C 72 176 90 134 94 124 C 96 121 97 117 98 115 C 105 100 114 81 117 77 C 118 75 121 73 123 72 C 129 68 131 65 129 61 C 126 58 124 58 113 58 C 94 57 90 58 88 63 C 88 66 89 68 93 70 C 98 73 98 75 93 89 C 85 110 81 118 79 115 C 76 114 73 105 66 84 C 63 75 63 75 67 69 C 69 67 71 66 71 65 C 71 63 69 60 67 59 C 64 58 51 58 37 58 z" fill="black"/><!-- width=143 height=229 -->
<path id="gl2" d="M 79 10 C 75 12 69 14 63 18 C 55 23 54 23 52 19 C 50 12 48 11 37 13 C 33 15 27 16 25 16 C 18 17 15 20 15 24 C 15 28 19 31 24 31 C 26 31 30 35 30 37 C 30 52 30 96 30 97 C 28 100 27 102 21 103 C 18 103 16 104 16 104 C 15 104 13 108 13 111 C 13 115 18 118 23 117 C 33 116 42 116 50 117 C 60 117 62 117 64 115 C 69 111 66 106 58 103 C 54 101 53 100 52 98 C 52 95 52 40 52 39 C 54 36 57 34 62 33 C 72 28 80 28 85 33 C 91 37 92 39 92 68 C 92 100 92 100 84 103 C 78 105 75 108 76 111 C 76 114 76 114 79 116 C 82 117 83 117 94 117 C 103 116 109 117 114 117 C 117 117 119 117 121 118 C 123 117 124 117 125 116 C 126 115 127 115 128 114 C 128 113 128 112 128 111 C 129 106 127 105 121 103 C 114 100 114 103 114 67 C 114 56 114 46 114 36 C 114 34 113 33 113 32 C 109 20 102 14 92 12 C 87 10 83 10 79 10 z" fill="black"/><!-- width=141 height=130 -->
<path id="gl3" d="M 38 8 C 34 9 30 12 28 15 C 25 19 25 27 27 31 C 37 49 61 37 55 18 C 53 12 46 7 38 8 M 45 61 C 39 63 28 66 25 66 C 18 67 15 69 14 74 C 13 78 15 80 24 82 C 30 84 30 82 30 116 C 30 150 30 150 25 153 C 24 153 22 153 21 154 C 19 154 15 156 13 157 C 12 160 12 162 15 165 C 16 166 17 167 18 168 C 20 168 22 168 24 168 C 31 167 50 167 57 168 C 63 168 65 168 68 165 C 73 160 67 153 58 153 C 57 153 54 151 53 148 C 52 146 52 91 53 75 C 54 69 53 67 53 66 C 52 63 48 60 45 61 z" fill="black"/><!-- width=81 height=202 -->
<path id="gl2078" d="M 59 16 C 27 20 12 55 33 79 C 38 84 38 86 33 90 C 22 96 22 103 31 113 C 36 118 36 119 29 126 C 21 135 18 142 21 150 C 30 181 82 184 106 154 C 114 145 116 138 116 127 C 116 118 114 114 109 108 C 102 102 97 100 74 99 C 53 99 51 98 54 94 C 55 91 57 90 64 90 C 77 88 88 83 96 74 C 102 66 103 60 103 46 C 103 44 103 41 102 39 C 104 37 105 37 106 36 C 115 30 118 26 117 23 C 115 19 112 18 96 19 C 86 20 86 20 79 18 C 72 16 65 15 59 16 M 67 30 C 79 35 84 57 75 70 C 68 81 52 75 49 60 C 45 41 54 25 67 30 M 84 123 C 100 128 99 148 82 156 C 76 158 64 158 58 156 C 39 150 38 129 57 122 C 62 121 78 121 84 123 z" fill="black"/><!-- width=132 height=189 -->
<path id="gl5" d="M 43 12 C 31 14 30 15 28 17 C 24 21 26 24 33 27 C 40 30 40 24 40 91 C 40 130 40 150 39 152 C 39 156 37 157 33 160 C 26 163 25 169 31 172 C 34 172 70 172 73 171 C 79 169 78 163 70 159 C 64 156 63 154 64 120 C 64 112 64 105 64 97 C 64 96 65 95 66 94 C 72 85 88 84 96 91 C 101 96 102 101 102 129 C 102 156 102 156 94 160 C 90 162 89 163 89 166 C 88 172 91 172 114 172 C 136 172 138 172 138 166 C 138 163 137 162 133 159 C 131 158 129 156 128 156 C 127 155 127 154 126 154 C 126 144 126 135 126 125 C 126 109 125 95 125 93 C 119 69 97 60 72 72 C 69 73 66 73 64 72 C 64 71 64 64 63 43 C 63 5 64 6 43 12 z" fill="black"/><!-- width=152 height=210 -->
<path id="gl0" d="M 44 10 C 42 12 37 17 34 22 C 31 25 31 25 31 30 C 30 35 29 37 25 37 C 19 38 15 41 14 45 C 13 50 16 52 24 52 C 27 52 29 52 30 53 C 31 54 31 52 31 90 C 30 115 30 119 31 123 C 36 139 48 147 64 141 C 79 135 82 133 83 129 C 84 125 82 122 79 121 C 77 120 77 120 71 121 C 62 125 58 124 55 119 C 53 115 52 112 52 96 C 52 88 52 76 52 69 C 52 62 52 56 52 55 C 52 51 57 51 66 52 C 76 54 82 50 81 43 C 80 37 76 35 64 37 C 53 39 51 37 53 26 C 55 16 54 13 52 10 C 51 9 46 9 44 10 z" fill="black"/><!-- width=93 height=156 -->
<path id="gl2310" d="M 9 11 C 6 12 4 14 4 18 C 4 22 6 23 11 28 C 23 40 32 61 37 87 C 38 94 37 129 36 136 C 31 163 24 180 12 193 C 5 200 4 201 4 204 C 4 210 10 213 15 210 C 19 208 30 196 37 186 C 64 148 65 81 40 40 C 33 30 20 15 15 12 C 12 10 12 10 9 11 z" fill="black"/><!-- width=76 height=223 -->
<path id="gl15116" d="M 17 13 C 13 15 12 16 12 22 C 12 27 12 27 15 28 C 15 29 16 30 17 31 C 19 30 21 30 23 30 C 37 30 98 29 112 30 C 129 31 129 31 132 28 C 135 25 135 18 132 15 C 129 12 128 12 111 13 C 95 13 25 13 21 12 C 19 12 18 12 17 13 M 18 56 C 10 58 9 71 17 74 C 19 75 21 75 28 74 C 36 73 113 74 126 75 C 132 75 136 67 133 60 C 130 56 129 55 116 57 C 105 57 23 57 22 56 C 21 56 19 56 18 56 z" fill="black"/><!-- width=146 height=88 -->
<path id="gl1537" d="M 79 11 C 76 12 75 15 65 40 C 57 63 35 118 32 127 C 26 142 23 146 16 150 C 10 152 9 154 9 157 C 9 162 10 162 33 162 C 56 162 57 162 57 156 C 57 153 56 152 49 149 C 44 147 43 144 46 134 C 52 116 55 110 58 109 C 61 108 88 108 92 108 C 97 109 99 113 105 133 C 110 145 109 147 103 150 C 97 153 96 156 99 160 C 102 162 104 163 129 162 C 150 162 151 162 153 159 C 155 154 153 151 145 149 C 138 147 135 142 128 123 C 126 117 123 111 123 109 C 122 106 120 101 118 96 C 117 91 114 85 114 83 C 112 81 110 73 108 67 C 106 61 102 50 98 42 C 95 34 92 25 91 22 C 87 12 84 9 79 11 M 78 58 C 79 60 82 68 86 79 C 90 91 89 91 75 91 C 62 91 61 91 66 78 C 72 58 75 55 78 58 z" fill="black"/><!-- width=168 height=204 -->
<path id="gl1029" d="M 51 11 C 28 16 15 33 16 55 C 16 74 26 84 53 97 C 66 103 73 108 76 112 C 85 125 81 145 67 151 C 51 158 34 150 26 130 C 22 120 20 118 16 118 C 11 118 8 123 9 129 C 10 135 15 153 15 155 C 19 166 54 172 73 165 C 93 157 105 139 103 118 C 103 99 93 87 68 76 C 49 67 43 63 39 56 C 33 44 40 29 52 26 C 66 22 79 30 82 45 C 84 51 89 55 93 54 C 97 51 99 46 97 40 C 97 39 96 34 96 30 C 93 16 92 15 80 12 C 73 10 56 10 51 11 z" fill="black"/><!-- width=117 height=181 -->
<path id="gl33293" d="M 112 9 C 83 13 63 24 51 42 C 40 56 36 70 36 90 C 36 94 36 99 36 103 C 36 105 37 108 38 110 C 42 123 47 133 55 141 C 76 163 109 171 148 162 C 162 159 163 158 167 145 C 173 126 174 122 171 119 C 168 115 163 117 160 122 C 148 141 142 147 129 149 C 107 154 87 143 78 122 C 66 94 68 63 82 42 C 91 30 103 24 120 24 C 138 24 147 29 154 44 C 159 52 160 54 163 54 C 168 54 169 51 168 39 C 166 14 165 13 144 10 C 138 9 115 8 112 9 z" fill="black"/><!-- width=185 height=177 -->
<path id="gl33294" d="M 36 12 C 32 12 29 12 28 13 C 22 16 24 22 33 25 C 39 27 40 30 41 38 C 42 44 42 136 42 138 C 40 144 37 147 31 149 C 22 152 21 157 27 161 C 30 162 31 162 79 162 C 109 162 129 162 130 161 C 135 160 136 156 139 141 C 142 126 142 123 138 121 C 133 118 131 121 126 130 C 122 139 118 143 113 145 C 105 147 88 147 82 145 C 75 143 73 139 73 112 C 73 92 73 92 87 92 C 100 92 104 94 106 100 C 109 109 115 112 119 106 C 120 103 121 72 120 66 C 118 55 110 55 106 66 C 104 73 100 75 87 75 C 73 75 73 76 73 51 C 73 27 73 27 86 27 C 105 26 112 29 116 39 C 119 46 120 48 122 49 C 125 51 126 51 129 48 C 130 48 130 47 131 46 C 131 44 131 42 131 39 C 130 18 129 13 121 12 C 118 12 45 11 36 12 z" fill="black"/><!-- width=155 height=177 -->
<path id="gl3091" d="M 18 20 C 12 23 13 29 21 31 C 30 34 33 38 34 47 C 35 52 34 139 34 144 C 33 151 31 153 25 157 C 17 160 15 163 18 166 C 19 169 23 170 45 169 C 69 169 69 169 70 165 C 71 162 69 159 63 157 C 51 154 51 152 49 118 C 49 87 49 69 52 67 C 54 65 59 71 83 100 C 87 105 92 111 94 114 C 96 116 102 124 108 130 C 129 156 138 167 140 168 C 145 171 150 169 151 164 C 151 162 152 145 152 110 C 152 37 152 36 162 32 C 172 28 172 22 163 19 C 157 18 121 19 119 21 C 113 24 115 29 124 31 C 136 35 136 37 136 84 C 136 125 136 125 122 108 C 118 104 114 99 112 97 C 110 94 106 88 102 84 C 51 23 50 22 45 20 C 40 19 21 19 18 20 z" fill="black"/><!-- width=183 height=184 -->
<path id="gl2069" d="M 24 16 C 16 19 17 24 25 28 C 35 33 35 31 34 95 C 34 138 34 142 33 145 C 31 150 30 152 23 154 C 16 156 15 162 21 165 C 24 166 25 166 51 166 C 82 166 90 166 105 162 C 145 151 168 119 163 78 C 160 42 136 20 94 16 C 85 15 27 15 24 16 M 88 30 C 118 32 134 49 136 81 C 139 125 115 153 76 151 C 65 151 61 149 60 139 C 59 134 58 42 59 37 C 61 28 66 27 88 30 z" fill="black"/><!-- width=178 height=181 -->
<path id="gl16404" d="M 74 10 C 71 14 69 18 66 27 C 64 32 62 37 61 40 C 60 42 58 46 57 49 C 56 52 54 56 54 58 C 52 64 48 73 46 76 C 46 77 45 79 45 81 C 43 84 36 104 33 111 C 32 114 30 119 28 124 C 23 136 21 139 14 142 C 9 145 7 147 7 150 C 7 155 10 156 34 155 C 40 155 46 155 53 155 C 53 154 54 154 54 153 C 57 150 56 147 50 144 C 43 139 42 138 47 124 C 53 106 52 106 70 106 C 91 106 90 105 97 124 C 102 137 102 140 96 143 C 90 146 89 153 94 155 C 97 156 141 156 145 154 C 151 152 150 146 142 143 C 135 139 129 130 119 100 C 118 97 117 94 116 93 C 115 91 114 87 113 84 C 112 80 110 75 108 71 C 107 68 105 63 104 60 C 100 49 97 39 96 37 C 96 37 94 33 93 30 C 92 27 90 22 89 19 C 87 12 86 11 84 10 C 79 7 77 8 74 10 M 75 64 C 78 72 82 84 82 85 C 82 89 74 91 66 90 C 60 89 59 87 63 75 C 64 71 66 67 66 66 C 67 63 70 58 72 59 C 72 59 73 61 75 64 z" fill="black"/><!-- width=163 height=193 -->
<path id="gl1804" d="M 22 20 C 17 21 15 23 15 27 C 15 30 17 31 22 34 C 30 37 31 39 33 45 C 36 55 36 133 33 143 C 31 147 30 148 24 151 C 18 154 16 157 18 160 C 20 165 21 165 45 165 C 64 165 66 165 68 163 C 75 160 72 153 64 151 C 52 148 52 145 52 105 C 52 64 51 64 74 93 C 80 100 89 111 94 117 C 99 123 106 132 109 136 C 114 141 119 147 121 150 C 133 165 138 168 144 164 C 148 162 148 165 148 106 C 148 37 148 39 159 33 C 163 31 165 30 165 27 C 165 24 165 23 162 21 C 160 20 159 20 141 20 C 118 19 115 20 113 23 C 109 27 112 31 120 33 C 130 37 131 40 132 70 C 132 97 132 108 128 108 C 127 108 111 90 87 61 C 84 58 79 52 75 47 C 70 42 65 36 61 31 C 56 25 53 22 49 21 C 48 20 25 19 22 20 z" fill="black"/><!-- width=180 height=180 -->
<path id="gl33296" d="M 18 37 C 15 40 14 50 14 69 C 14 72 14 74 14 76 C 15 77 15 78 16 78 C 19 81 23 79 25 72 C 30 60 36 55 49 55 C 58 54 60 55 61 59 C 63 64 63 168 61 171 C 60 174 56 177 51 178 C 45 179 43 181 43 184 C 43 190 43 190 78 190 C 111 190 112 190 112 186 C 114 181 112 179 105 178 C 97 176 94 173 93 166 C 92 159 91 63 93 60 C 94 55 96 55 105 55 C 122 55 125 57 130 72 C 132 78 136 81 139 78 C 142 76 142 74 141 58 C 140 40 140 40 138 38 C 136 36 135 36 128 39 C 126 39 125 40 123 40 C 108 40 92 40 76 40 C 61 40 45 40 30 40 C 28 39 27 39 26 38 C 22 36 19 36 18 37 z" fill="black"/><!-- width=155 height=204 -->
<path id="gl15114" d="M 70 16 C 68 17 65 19 64 22 C 64 24 63 31 63 40 C 63 66 63 66 52 67 C 49 67 40 67 34 67 C 27 67 21 67 19 68 C 12 70 11 78 17 82 C 19 83 21 83 39 83 C 58 84 58 84 60 85 C 63 87 63 89 64 111 C 64 122 64 132 65 133 C 66 138 71 140 76 138 C 81 136 81 136 82 110 C 82 93 82 87 82 87 C 84 84 87 83 106 83 C 127 82 128 82 130 79 C 132 77 132 72 130 70 C 127 67 127 67 106 67 C 84 66 83 66 82 62 C 82 61 81 51 81 41 C 81 25 81 22 79 21 C 78 18 75 16 70 16 z" fill="black"/><!-- width=145 height=153 -->
<path id="gl1029" d="M 51 11 C 28 16 15 33 16 55 C 16 74 26 84 53 97 C 66 103 73 108 76 112 C 85 125 81 145 67 151 C 51 158 34 150 26 130 C 22 120 20 118 16 118 C 11 118 8 123 9 129 C 10 135 15 153 15 155 C 19 166 54 172 73 165 C 93 157 105 139 103 118 C 103 99 93 87 68 76 C 49 67 43 63 39 56 C 33 44 40 29 52 26 C 66 22 79 30 82 45 C 84 51 89 55 93 54 C 97 51 99 46 97 40 C 97 39 96 34 96 30 C 93 16 92 15 80 12 C 73 10 56 10 51 11 z" fill="black"/><!-- width=117 height=181 -->
<path id="gl33291" d="M 36 22 C 31 23 29 27 31 30 C 31 32 33 33 38 34 C 43 36 43 36 45 39 C 48 43 48 44 48 85 C 49 133 49 139 57 151 C 66 166 82 174 105 175 C 139 175 161 154 165 117 C 166 111 166 102 166 86 C 166 64 167 47 169 42 C 170 38 172 36 180 33 C 186 31 188 28 186 25 C 183 22 182 22 158 22 C 143 21 135 22 133 22 C 129 24 127 27 129 31 C 131 32 132 33 138 35 C 149 38 150 42 150 89 C 150 117 150 121 145 132 C 139 150 129 156 111 156 C 91 155 81 142 78 114 C 78 102 78 45 79 42 C 80 38 82 36 87 34 C 95 31 97 26 91 23 C 89 22 40 21 36 22 z" fill="black"/><!-- width=198 height=188 -->
<path id="gl1804" d="M 22 20 C 17 21 15 23 15 27 C 15 30 17 31 22 34 C 30 37 31 39 33 45 C 36 55 36 133 33 143 C 31 147 30 148 24 151 C 18 154 16 157 18 160 C 20 165 21 165 45 165 C 64 165 66 165 68 163 C 75 160 72 153 64 151 C 52 148 52 145 52 105 C 52 64 51 64 74 93 C 80 100 89 111 94 117 C 99 123 106 132 109 136 C 114 141 119 147 121 150 C 133 165 138 168 144 164 C 148 162 148 165 148 106 C 148 37 148 39 159 33 C 163 31 165 30 165 27 C 165 24 165 23 162 21 C 160 20 159 20 141 20 C 118 19 115 20 113 23 C 109 27 112 31 120 33 C 130 37 131 40 132 70 C 132 97 132 108 128 108 C 127 108 111 90 87 61 C 84 58 79 52 75 47 C 70 42 65 36 61 31 C 56 25 53 22 49 21 C 48 20 25 19 22 20 z" fill="black"/><!-- width=180 height=180 -->
<path id="gl1283" d="M 16 14 C 12 17 12 28 16 31 C 18 33 19 33 24 32 C 33 31 57 31 63 32 C 71 33 74 31 74 22 C 74 13 72 13 60 14 C 52 15 34 14 22 13 C 18 13 18 13 16 14 z" fill="black"/><!-- width=87 height=46 -->
<path id="gl10502" d="M 19 10 C 11 11 12 19 20 22 C 30 25 31 30 30 54 C 30 61 29 73 28 82 C 28 110 25 131 24 138 C 22 142 21 144 15 147 C 8 150 7 155 13 158 C 17 160 55 160 59 159 C 66 156 63 149 55 147 C 47 144 45 141 43 130 C 43 123 43 100 45 81 C 46 57 46 57 74 121 C 88 154 90 156 95 156 C 100 156 102 153 114 126 C 117 118 123 105 127 96 C 131 86 135 78 135 77 C 137 72 142 63 143 62 C 146 61 146 63 147 97 C 148 142 147 144 138 147 C 130 149 129 156 135 159 C 137 160 184 160 190 159 C 193 159 195 156 195 154 C 195 150 193 149 188 147 C 178 142 178 145 177 99 C 175 53 175 32 176 30 C 178 26 180 24 184 22 C 190 20 192 19 192 16 C 192 10 189 9 169 9 C 145 9 147 7 136 36 C 133 43 127 55 124 63 C 109 97 106 103 103 104 C 100 105 99 103 79 60 C 73 48 67 33 64 27 C 55 9 56 9 36 9 C 28 9 21 9 19 10 z" fill="black"/><!-- width=210 height=175 -->
<path id="gl20994" d="M 84 13 C 68 15 54 19 43 27 C 15 48 4 86 16 120 C 23 142 42 160 63 166 C 88 172 114 168 133 153 C 165 129 172 76 149 42 C 134 22 109 11 84 13 M 91 28 C 116 31 130 58 129 99 C 129 114 127 122 123 131 C 110 163 70 162 54 130 C 43 108 42 72 51 52 C 59 33 73 25 91 28 z" fill="black"/><!-- width=175 height=183 -->
<path id="gl20994" d="M 84 13 C 68 15 54 19 43 27 C 15 48 4 86 16 120 C 23 142 42 160 63 166 C 88 172 114 168 133 153 C 165 129 172 76 149 42 C 134 22 109 11 84 13 M 91 28 C 116 31 130 58 129 99 C 129 114 127 122 123 131 C 110 163 70 162 54 130 C 43 108 42 72 51 52 C 59 33 73 25 91 28 z" fill="black"/><!-- width=175 height=183 -->
<path id="gl33299" d="M 19 18 C 18 18 15 18 14 19 C 10 22 13 29 18 30 C 20 30 25 32 28 34 C 33 39 34 45 33 95 C 33 141 33 145 30 148 C 28 151 27 153 24 154 C 16 156 13 159 15 163 C 18 167 18 167 42 167 C 68 167 69 166 71 163 C 73 159 70 156 64 154 C 62 154 59 153 57 152 C 50 150 49 142 49 98 C 49 67 49 66 52 67 C 54 67 61 73 63 78 C 64 79 65 81 66 81 C 66 81 68 84 70 85 C 72 88 73 90 75 92 C 76 93 76 94 76 94 C 76 95 78 96 79 97 C 80 99 84 104 88 109 C 92 113 96 118 97 120 C 99 122 103 126 105 130 C 108 133 112 138 115 141 C 117 144 120 146 120 147 C 121 148 123 150 124 153 C 126 154 128 156 128 157 C 128 158 137 166 139 168 C 141 168 145 168 147 166 C 150 165 150 166 150 113 C 150 57 151 42 153 37 C 156 31 159 30 164 28 C 170 27 171 21 166 18 C 164 17 141 16 126 17 C 117 18 117 18 114 19 C 113 21 112 21 113 24 C 114 27 115 28 120 29 C 126 30 127 30 130 33 C 131 34 132 34 133 36 C 133 38 133 40 133 42 C 136 73 136 112 133 112 C 132 112 115 94 111 89 C 110 88 108 85 106 84 C 105 82 103 79 102 78 C 101 76 97 73 94 69 C 87 61 84 58 80 52 C 78 50 75 46 72 43 C 70 40 67 37 66 36 C 65 34 63 33 55 24 C 49 18 49 18 38 18 C 34 18 28 17 26 17 C 24 17 21 17 19 18 z" fill="black"/><!-- width=181 height=180 -->
<path id="gl263" d="M 23 13 C 19 15 16 20 15 24 C 12 31 16 40 23 44 C 32 48 41 43 44 34 C 48 21 35 8 23 13 z" fill="black"/><!-- width=59 height=58 -->
</defs>
<use xlink:href="#gl1808" x="0" y="6"/>
<use xlink:href="#gl16404" x="118" y="32"/>
<use xlink:href="#gl1794" x="250" y="29"/>
<use xlink:href="#gl1798" x="403" y="29"/>
<use xlink:href="#gl3849" x="546" y="12"/>
<use xlink:href="#gl20994" x="677" y="24"/>
<use xlink:href="#gl3850" x="827" y="28"/>
<use xlink:href="#gl33296" x="969" y="1"/>
<use xlink:href="#gl33291" x="1088" y="20"/>
<use xlink:href="#gl3091" x="1264" y="23"/>
<use xlink:href="#gl1537" x="1423" y="29"/>
<use xlink:href="#gl2309" x="1613" y="18"/>
<use xlink:href="#gl773" x="1680" y="22"/>
<use xlink:href="#gl769" x="1793" y="32"/>
<use xlink:href="#gl2" x="1959" y="78"/>
<use xlink:href="#gl3" x="2081" y="27"/>
<use xlink:href="#gl2078" x="2138" y="73"/>
<use xlink:href="#gl5" x="2233" y="23"/>
<use xlink:href="#gl0" x="2363" y="55"/>
<use xlink:href="#gl2310" x="2452" y="21"/>
<use xlink:href="#gl15116" x="2570" y="86"/>
<use xlink:href="#gl1537" x="2752" y="33"/>
<use xlink:href="#gl1029" x="2901" y="30"/>
<use xlink:href="#gl33293" x="2982" y="32"/>
<use xlink:href="#gl33294" x="3138" y="31"/>
<use xlink:href="#gl3091" x="3270" y="23"/>
<use xlink:href="#gl2069" x="3436" y="25"/>
<use xlink:href="#gl16404" x="3593" y="34"/>
<use xlink:href="#gl1804" x="3733" y="23"/>
<use xlink:href="#gl33296" x="3894" y="0"/>
<use xlink:href="#gl15114" x="4084" y="49"/>
<use xlink:href="#gl1029" x="4272" y="25"/>
<use xlink:href="#gl33291" x="4357" y="16"/>
<use xlink:href="#gl1804" x="4534" y="20"/>
<use xlink:href="#gl1283" x="4749" y="111"/>
<use xlink:href="#gl10502" x="4872" y="26"/>
<use xlink:href="#gl20994" x="5067" y="20"/>
<use xlink:href="#gl20994" x="5234" y="19"/>
<use xlink:href="#gl33299" x="5394" y="17"/>
<use xlink:href="#gl263" x="5564" y="140"/>
</svg>
