<?xml version='1.0' encoding='utf-8'?>
<svg xmlns="http://www.w3.org/2000/svg" xmlns:xlink="http://www.w3.org/1999/xlink" width="632px" height="55px" viewBox="0 0 6326 552" version="1.1">
<defs>
<path id="gl17669" d="M 38 14 C 32 17 33 21 41 25 C 47 28 48 29 48 34 C 48 39 46 52 44 62 C 43 66 42 73 41 78 C 40 82 38 94 36 103 C 34 112 33 123 31 127 C 28 146 25 149 16 152 C 8 154 6 160 12 163 C 15 165 69 165 79 163 C 120 156 147 137 160 105 C 164 94 165 90 165 75 C 165 61 163 55 158 45 C 150 28 133 18 111 14 C 103 13 40 13 38 14 M 106 27 C 129 33 139 47 139 74 C 139 109 120 138 91 147 C 79 151 61 151 56 148 C 52 146 52 142 54 129 C 55 124 57 118 57 114 C 58 111 59 104 60 99 C 62 89 66 70 66 64 C 67 61 67 58 68 56 C 69 54 70 48 70 43 C 73 30 74 27 80 26 C 84 25 100 26 106 27 z" fill="black"/><!-- width=181 height=178 -->
<path id="gl2585" d="M 69 10 C 45 15 28 30 18 54 C 12 69 9 94 13 105 C 15 113 21 118 27 117 C 33 116 45 108 53 99 C 56 96 60 91 62 90 C 65 87 66 86 67 87 C 71 87 71 88 69 96 C 66 106 66 108 67 111 C 69 116 72 118 78 116 C 83 114 106 100 108 97 C 110 94 110 90 108 88 C 105 85 102 86 97 90 C 94 92 90 93 89 91 C 88 90 88 88 90 78 C 94 64 96 53 98 46 C 99 42 100 36 102 31 C 106 13 105 12 90 10 C 80 9 75 9 69 10 M 77 25 C 82 27 82 30 78 44 C 74 61 72 64 60 78 C 48 90 43 94 39 95 C 26 97 33 57 49 37 C 57 27 69 22 77 25 z" fill="black"/><!-- width=120 height=133 -->
<path id="gl2816" d="M 66 12 C 66 12 63 15 60 18 C 53 24 51 27 50 33 C 49 40 48 41 40 41 C 33 41 30 42 27 46 C 25 49 26 52 28 54 C 29 55 30 55 31 56 C 33 56 34 55 36 55 C 41 55 42 55 43 57 C 45 58 45 60 42 70 C 40 79 37 93 33 110 C 29 129 29 137 34 142 C 37 144 42 144 46 142 C 54 139 75 123 77 119 C 79 116 79 112 77 110 C 73 106 70 108 64 114 C 58 120 55 122 52 120 C 51 118 51 114 54 103 C 57 92 61 74 63 65 C 64 55 66 54 76 55 C 90 57 95 54 95 46 C 96 41 91 39 82 40 C 68 43 67 40 74 24 C 77 16 75 11 69 12 C 68 12 67 12 66 12 z" fill="black"/><!-- width=108 height=157 -->
<path id="gl2581" d="M 77 15 C 58 17 39 33 29 54 C 15 86 22 118 44 122 C 56 124 79 115 94 102 C 99 97 100 90 95 87 C 91 85 88 86 80 93 C 74 99 66 103 60 104 C 51 105 46 100 43 88 C 42 78 43 76 55 73 C 76 68 96 55 102 43 C 109 27 96 12 77 15 M 78 31 C 81 33 82 39 81 43 C 78 49 75 51 64 58 C 48 66 43 64 49 52 C 56 37 69 27 78 31 z" fill="black"/><!-- width=117 height=136 -->
<path id="gl6673" d="M 36 14 C 24 19 22 37 33 43 C 37 46 44 46 48 44 C 58 37 58 22 49 16 C 46 13 40 12 36 14 M 21 87 C 11 93 10 109 20 116 C 24 118 30 118 34 116 C 45 109 45 91 34 87 C 30 85 25 85 21 87 z" fill="black"/><!-- width=69 height=132 -->
<path id="gl39937" d="M 43 14 C 19 28 0 105 9 139 C 24 172 67 163 86 124 C 124 57 96 -10 43 14 M 81 43 C 86 62 72 115 62 129 C 38 163 24 139 28 91 C 43 28 72 0 81 43 z" fill="black"/><!-- width=115 height=172 -->
<path id="gl30987" d="M 120 9 C 115 9 97 14 92 16 C 75 22 60 32 49 45 C 30 65 21 91 23 117 C 25 133 34 149 45 154 C 57 160 66 161 79 156 C 97 151 112 133 116 114 C 121 82 99 58 70 64 C 63 65 63 65 63 62 C 63 61 64 59 64 58 C 65 58 66 56 67 54 C 74 43 93 30 106 25 C 123 20 128 17 128 14 C 128 11 123 8 120 9 M 81 84 C 92 90 96 108 89 127 C 82 148 60 153 52 135 C 45 123 46 92 54 85 C 58 81 73 80 81 84 z" fill="black"/><!-- width=141 height=181 -->
<path id="gl1283" d="M 16 14 C 12 17 12 28 16 31 C 18 33 19 33 24 32 C 33 31 57 31 63 32 C 71 33 74 31 74 22 C 74 13 72 13 60 14 C 52 15 34 14 22 13 C 18 13 18 13 16 14 z" fill="black"/><!-- width=87 height=46 -->
<path id="gl31002" d="M 49 27 C 46 28 45 29 44 31 C 44 35 46 37 51 38 C 53 39 55 40 57 42 C 57 42 58 43 59 43 C 59 45 59 47 59 49 C 59 53 58 58 57 65 C 55 71 54 78 54 82 C 53 85 52 92 51 98 C 49 104 47 115 46 124 C 39 163 34 178 25 188 C 23 190 16 193 15 193 C 13 193 10 198 10 199 C 10 205 16 207 28 203 C 45 198 55 186 61 162 C 64 151 64 149 73 102 C 84 42 84 42 96 38 C 100 36 102 35 102 32 C 102 29 100 28 94 27 C 88 26 52 26 49 27 z" fill="black"/><!-- width=117 height=218 -->
<path id="gl33310" d="M 44 7 C 40 9 27 16 22 21 C 21 22 18 25 16 26 C 11 29 9 36 12 39 C 13 41 18 40 21 38 C 22 37 25 36 26 35 C 27 34 27 34 28 34 C 28 34 28 34 29 35 C 31 37 30 40 28 48 C 27 51 25 56 25 59 C 24 62 23 67 22 70 C 22 73 20 79 19 83 C 18 87 18 92 17 94 C 15 102 16 110 21 114 C 30 123 46 114 67 88 C 69 86 72 84 73 83 C 74 82 75 82 76 82 C 76 82 76 82 77 83 C 78 85 77 90 75 97 C 72 108 71 112 75 115 C 79 119 85 117 102 106 C 113 98 116 94 114 90 C 112 86 108 85 102 90 C 100 91 99 91 97 91 C 93 91 93 88 100 65 C 101 62 102 56 103 52 C 104 49 105 45 106 43 C 106 41 107 37 108 33 C 109 30 109 26 110 25 C 112 22 114 14 113 12 C 111 7 107 6 99 9 C 91 13 88 18 87 31 C 87 36 85 40 84 45 C 83 48 82 51 82 52 C 82 53 71 69 66 76 C 54 88 48 94 45 96 C 44 96 43 96 42 96 C 41 96 40 95 40 94 C 37 91 37 85 42 72 C 43 70 44 64 45 60 C 46 55 47 49 48 46 C 49 44 49 40 50 37 C 50 35 51 30 53 26 C 56 16 55 13 50 9 C 48 7 47 7 44 7 z" fill="black"/><!-- width=124 height=132 -->
<path id="gl2586" d="M 40 21 C 37 22 37 22 24 31 C 10 41 8 44 10 48 C 12 53 15 53 21 49 C 29 43 31 46 28 57 C 25 65 24 69 19 91 C 16 101 13 112 13 114 C 9 126 13 130 24 126 C 33 123 35 120 36 111 C 37 98 40 82 43 77 C 49 67 70 46 79 42 C 84 40 87 42 87 46 C 87 48 85 54 83 61 C 81 69 79 78 78 82 C 77 85 75 94 73 100 C 68 119 68 120 70 124 C 75 131 80 130 97 119 C 112 109 112 109 112 103 C 112 98 108 96 103 99 C 94 105 92 103 95 92 C 97 83 102 69 103 61 C 104 57 106 51 106 48 C 112 25 106 15 90 22 C 80 25 70 33 60 43 C 54 49 52 51 51 51 C 48 51 48 49 50 39 C 52 28 52 27 51 24 C 49 21 46 19 40 21 z" fill="black"/><!-- width=124 height=141 -->
<path id="gl6922" d="M 67 15 C 40 24 24 46 19 79 C 19 82 18 85 18 88 C 18 91 19 94 19 97 C 22 111 28 118 38 121 C 43 123 46 123 56 120 C 67 118 82 109 91 101 C 98 96 96 85 88 85 C 85 85 84 87 79 91 C 65 104 52 108 45 100 C 40 94 38 80 42 76 C 43 75 50 73 59 71 C 67 69 82 60 89 54 C 101 44 103 30 96 21 C 88 13 79 11 67 15 M 75 30 C 81 34 79 45 70 51 C 63 56 52 62 49 62 C 46 63 43 60 44 58 C 48 43 60 29 70 29 C 72 29 73 29 75 30 z" fill="black"/><!-- width=111 height=135 -->
<path id="gl16391" d="M 63 13 C 57 15 32 15 25 15 C 14 13 11 15 12 23 C 12 32 14 34 22 33 C 31 33 52 33 60 33 C 71 34 73 33 73 24 C 73 18 72 15 69 14 C 67 13 66 13 63 13 z" fill="black"/><!-- width=86 height=48 -->
<path id="gl30976" d="M 60 10 C 57 10 54 12 50 14 C 47 16 44 18 44 18 C 43 18 33 27 32 30 C 31 31 30 34 29 36 C 27 39 27 40 27 46 C 26 60 27 64 36 72 C 44 80 43 82 32 87 C 9 99 1 121 12 144 C 14 147 15 148 21 153 C 27 158 37 162 46 161 C 55 161 67 159 70 156 C 72 155 73 154 76 153 C 78 152 79 150 80 149 C 81 148 83 145 85 144 C 91 138 96 130 99 119 C 100 114 99 105 96 99 C 95 96 90 88 89 88 C 88 88 78 78 78 77 C 78 76 81 73 88 70 C 100 63 105 55 105 41 C 105 32 104 28 99 22 C 97 20 95 18 94 17 C 91 12 72 7 60 10 M 76 25 C 78 26 79 28 81 30 C 82 31 83 33 84 34 C 84 36 84 38 84 40 C 84 50 82 54 76 61 C 69 71 65 72 55 63 C 48 56 46 48 48 39 C 50 31 57 25 62 24 C 66 23 73 24 76 25 M 58 89 C 60 90 69 99 72 103 C 76 110 77 117 75 123 C 71 139 60 148 46 146 C 38 145 36 144 31 135 C 30 133 30 132 28 130 C 28 128 29 126 29 124 C 30 113 34 103 44 94 C 50 88 54 87 58 89 z" fill="black"/><!-- width=118 height=172 -->
<path id="gl30746" d="M 60 25 C 48 28 43 31 34 40 C 23 51 19 61 18 76 C 18 92 24 105 36 112 C 44 116 57 118 66 115 C 69 114 72 115 72 116 C 72 117 69 123 67 125 C 66 126 65 127 64 129 C 61 133 49 145 43 148 C 37 153 26 158 19 160 C 9 164 6 168 9 171 C 13 176 22 175 42 168 C 53 164 56 162 70 152 C 90 137 105 112 109 88 C 111 81 111 63 109 56 C 108 48 102 38 96 33 C 88 25 73 23 60 25 M 72 39 C 75 39 81 44 82 48 C 87 57 87 83 83 91 C 80 96 63 100 56 97 C 48 92 43 86 43 75 C 43 66 43 62 46 54 C 51 42 62 36 72 39 z" fill="black"/><!-- width=128 height=187 -->
<path id="gl30745" d="M 69 10 C 56 12 48 18 39 30 C 33 38 32 39 33 42 C 34 45 34 45 37 45 C 40 45 40 44 49 37 C 55 31 58 30 64 29 C 87 25 96 47 81 71 C 73 85 59 100 34 122 C 9 145 6 149 9 153 C 11 156 13 157 50 157 C 87 157 88 157 92 153 C 94 151 102 137 103 133 C 105 125 98 123 91 129 C 85 135 80 136 63 135 C 49 135 48 135 48 132 C 47 130 47 130 58 119 C 65 113 72 106 75 104 C 90 91 105 73 109 64 C 114 53 114 39 109 28 C 103 14 85 7 69 10 z" fill="black"/><!-- width=139 height=180 -->
<path id="gl39938" d="M 61 17 C 50 19 41 24 35 31 C 29 39 28 42 31 45 C 33 47 36 46 41 43 C 58 30 73 33 73 49 C 73 58 67 64 49 73 C 41 76 38 79 36 81 C 34 83 34 83 35 85 C 37 88 40 89 47 88 C 59 87 66 90 72 100 C 73 104 73 116 72 123 C 67 139 55 150 40 150 C 37 150 28 147 25 145 C 14 136 8 139 8 151 C 8 161 14 166 29 166 C 42 167 62 159 74 149 C 85 139 93 129 96 118 C 101 101 99 90 87 78 C 81 72 81 72 88 64 C 97 55 100 48 97 37 C 96 27 90 22 78 18 C 71 15 70 15 61 17 z" fill="black"/><!-- width=130 height=180 -->
<path id="gl6673" d="M 36 14 C 24 19 22 37 33 43 C 37 46 44 46 48 44 C 58 37 58 22 49 16 C 46 13 40 12 36 14 M 21 87 C 11 93 10 109 20 116 C 24 118 30 118 34 116 C 45 109 45 91 34 87 C 30 85 25 85 21 87 z" fill="black"/><!-- width=69 height=132 -->
<path id="gl30738" d="M 46 22 C 43 24 42 27 35 49 C 34 51 33 55 32 58 C 23 85 24 91 37 88 C 42 87 53 86 58 87 C 74 90 81 109 75 131 C 70 144 60 151 46 151 C 39 151 35 150 29 146 C 19 140 16 139 12 142 C 4 147 6 156 15 162 C 40 179 89 156 99 122 C 105 100 98 81 81 72 C 73 69 66 67 56 68 C 51 68 47 68 47 68 C 45 66 45 60 49 50 C 53 41 52 41 78 40 C 100 40 100 40 103 37 C 109 31 109 24 104 22 C 101 20 49 20 46 22 z" fill="black"/><!-- width=127 height=181 -->
<path id="gl39939" d="M 67 24 C 38 52 4 105 4 110 C 4 110 19 115 33 115 C 52 115 62 115 62 120 C 62 129 48 139 38 139 C 33 139 33 144 33 148 C 33 153 43 153 62 153 C 96 148 100 148 86 139 C 72 134 76 115 91 115 C 100 115 105 110 100 105 C 100 100 96 96 96 96 C 86 96 86 91 91 52 C 100 0 96 0 67 24 M 67 67 C 62 96 62 96 48 96 C 33 96 33 91 52 67 C 72 38 72 38 67 67 z" fill="black"/><!-- width=115 height=163 -->
<path id="gl6659" d="M 49 10 C 40 11 38 12 38 16 C 37 19 39 21 45 23 C 48 25 49 25 50 27 C 52 31 52 33 47 60 C 46 65 45 71 45 73 C 42 91 33 133 31 138 C 29 145 27 147 19 150 C 10 152 9 159 17 161 C 19 162 29 162 64 162 C 120 162 115 163 121 148 C 129 129 130 121 123 121 C 120 121 118 123 114 130 C 104 145 100 147 81 147 C 61 148 57 146 57 138 C 56 134 57 133 62 105 C 64 90 66 90 82 90 C 96 91 98 92 100 99 C 103 107 108 108 111 100 C 113 95 118 67 118 64 C 117 58 111 58 107 65 C 102 74 100 75 84 75 C 80 75 76 75 72 75 C 72 74 71 73 70 73 C 68 70 69 63 74 37 C 76 25 78 25 95 25 C 110 24 116 26 118 30 C 120 32 120 34 122 41 C 123 45 124 47 127 47 C 132 47 133 44 135 30 C 136 16 135 14 131 12 C 129 11 66 10 49 10 z" fill="black"/><!-- width=149 height=176 -->
<path id="gl39940" d="M 49 13 C 40 13 39 13 36 15 C 30 18 30 22 39 26 C 43 28 45 31 45 35 C 45 39 43 55 42 59 C 41 63 39 69 35 93 C 34 99 33 106 32 108 C 31 111 30 117 30 121 C 29 126 28 132 27 133 C 27 135 26 138 25 140 C 24 144 21 148 16 150 C 12 152 10 158 13 162 C 13 163 13 163 13 164 C 19 165 25 165 30 165 C 48 165 49 165 71 163 C 79 163 84 162 87 162 C 89 160 93 160 95 159 C 102 158 113 153 122 147 C 141 135 157 113 161 93 C 165 70 163 55 153 39 C 144 25 129 17 107 15 C 97 13 66 13 49 13 M 99 28 C 110 29 122 35 127 42 C 137 55 139 78 132 100 C 129 109 129 111 122 121 C 117 129 106 139 97 144 C 81 151 57 153 52 145 C 50 143 51 133 54 121 C 54 118 56 111 57 106 C 58 100 59 96 59 95 C 59 95 60 92 60 88 C 61 85 62 79 63 75 C 63 72 64 66 65 62 C 66 59 67 51 68 46 C 70 40 71 35 71 34 C 72 31 75 28 77 28 C 78 28 79 27 79 27 C 82 27 93 27 99 28 z" fill="black"/><!-- width=177 height=176 -->
<path id="gl31007" d="M 39 41 C 36 43 34 45 33 53 C 31 57 30 63 29 66 C 27 73 27 76 29 79 C 32 82 37 81 41 73 C 48 61 55 58 69 58 C 82 57 82 59 77 84 C 75 93 72 112 70 118 C 69 128 64 154 61 164 C 58 177 56 180 46 183 C 40 184 38 186 38 189 C 38 194 39 195 69 194 C 101 194 102 194 102 189 C 102 186 100 184 95 182 C 82 178 82 178 94 121 C 94 117 96 110 96 106 C 97 102 99 95 99 91 C 100 87 102 80 102 75 C 106 58 106 58 120 58 C 135 58 139 60 142 71 C 143 76 145 80 147 81 C 150 81 152 79 154 76 C 154 76 155 69 156 61 C 158 44 158 43 154 41 C 151 40 151 40 146 42 C 144 42 142 43 141 43 C 126 43 111 43 96 43 C 51 43 51 43 48 42 C 43 40 40 40 39 41 z" fill="black"/><!-- width=171 height=207 -->
<path id="gl32263" d="M 49 30 C 47 31 46 32 45 34 C 45 37 48 40 52 42 C 57 43 58 45 58 50 C 59 54 57 66 54 78 C 54 82 52 89 52 93 C 51 96 50 102 49 106 C 49 109 46 121 44 132 C 39 160 37 165 28 167 C 21 169 18 173 21 177 C 23 180 24 180 51 180 C 75 180 75 180 78 178 C 85 175 82 170 71 166 C 64 164 63 160 65 148 C 72 108 70 111 91 111 C 105 111 108 112 109 120 C 110 124 112 126 115 126 C 120 126 121 123 124 106 C 129 85 129 84 125 82 C 122 79 119 81 115 87 C 110 95 108 96 92 96 C 73 96 74 97 81 61 C 85 43 85 43 104 43 C 125 43 127 45 129 57 C 130 63 131 64 134 65 C 139 67 141 63 143 46 C 144 34 142 30 136 29 C 133 28 51 28 49 30 z" fill="black"/><!-- width=157 height=195 -->
<path id="gl39941" d="M 24 19 C 4 28 0 43 19 38 C 24 33 28 38 24 43 C 14 81 9 110 14 115 C 24 120 33 105 38 81 C 43 52 48 38 57 33 C 62 33 67 33 72 33 C 76 33 81 28 81 24 C 86 4 72 4 57 19 C 48 24 48 28 48 19 C 48 9 38 4 24 19 z" fill="black"/><!-- width=96 height=124 -->
<path id="gl2826" d="M 64 13 C 45 18 27 35 19 57 C 13 73 13 93 19 105 C 33 132 74 123 93 89 C 104 68 107 43 100 28 C 94 16 79 10 64 13 M 73 29 C 86 36 83 72 67 96 C 58 109 44 109 39 94 C 37 89 37 71 39 63 C 45 38 60 23 73 29 z" fill="black"/><!-- width=118 height=133 -->
<path id="gl2580" d="M 91 24 C 85 25 73 33 64 40 C 52 49 52 49 52 38 C 52 30 52 30 50 27 C 46 22 40 23 27 31 C 18 38 12 45 12 48 C 12 53 14 54 20 53 C 25 52 26 52 25 57 C 25 60 24 69 22 77 C 15 109 12 120 13 123 C 13 128 18 130 25 127 C 33 124 34 122 36 108 C 41 85 43 81 52 69 C 66 53 77 45 81 47 C 83 48 83 48 82 53 C 82 58 78 76 73 99 C 67 123 67 125 70 127 C 73 130 82 127 87 124 C 89 121 90 120 92 111 C 94 99 97 87 99 84 C 104 70 130 45 137 46 C 141 48 141 51 132 87 C 124 118 123 122 128 127 C 131 130 135 130 143 126 C 150 123 159 116 162 112 C 168 106 165 100 156 102 C 150 103 150 101 157 70 C 165 39 165 32 159 27 C 152 20 139 25 118 42 C 109 49 108 49 107 40 C 106 27 101 22 91 24 z" fill="black"/><!-- width=180 height=144 -->
<path id="gl6673" d="M 36 14 C 24 19 22 37 33 43 C 37 46 44 46 48 44 C 58 37 58 22 49 16 C 46 13 40 12 36 14 M 21 87 C 11 93 10 109 20 116 C 24 118 30 118 34 116 C 45 109 45 91 34 87 C 30 85 25 85 21 87 z" fill="black"/><!-- width=69 height=132 -->
<path id="gl6659" d="M 49 10 C 40 11 38 12 38 16 C 37 19 39 21 45 23 C 48 25 49 25 50 27 C 52 31 52 33 47 60 C 46 65 45 71 45 73 C 42 91 33 133 31 138 C 29 145 27 147 19 150 C 10 152 9 159 17 161 C 19 162 29 162 64 162 C 120 162 115 163 121 148 C 129 129 130 121 123 121 C 120 121 118 123 114 130 C 104 145 100 147 81 147 C 61 148 57 146 57 138 C 56 134 57 133 62 105 C 64 90 66 90 82 90 C 96 91 98 92 100 99 C 103 107 108 108 111 100 C 113 95 118 67 118 64 C 117 58 111 58 107 65 C 102 74 100 75 84 75 C 80 75 76 75 72 75 C 72 74 71 73 70 73 C 68 70 69 63 74 37 C 76 25 78 25 95 25 C 110 24 116 26 118 30 C 120 32 120 34 122 41 C 123 45 124 47 127 47 C 132 47 133 44 135 30 C 136 16 135 14 131 12 C 129 11 66 10 49 10 z" fill="black"/><!-- width=149 height=176 -->
<path id="gl2833" d="M 93 13 C 81 16 80 16 79 19 C 76 22 79 26 85 27 C 92 28 93 31 90 45 C 87 64 86 65 78 66 C 46 70 24 88 13 118 C 3 147 9 174 26 174 C 33 174 42 168 57 155 C 67 147 67 147 68 159 C 68 169 70 173 77 173 C 84 173 106 159 108 152 C 109 147 106 145 101 145 C 92 147 92 148 100 109 C 102 98 106 75 110 57 C 117 21 118 16 117 14 C 114 9 109 8 93 13 M 76 83 C 82 85 82 91 76 109 C 70 126 45 154 37 151 C 34 150 33 147 33 140 C 33 119 43 95 55 87 C 61 82 70 81 76 83 z" fill="black"/><!-- width=137 height=213 -->
<path id="gl2829" d="M 44 32 C 42 33 40 35 40 37 C 40 39 42 41 46 43 C 54 47 55 50 52 68 C 46 97 44 108 41 124 C 34 164 33 166 21 169 C 13 172 12 180 19 181 C 25 182 70 181 72 180 C 77 177 76 172 69 169 C 60 168 59 166 58 159 C 58 153 63 127 65 123 C 66 120 68 120 75 121 C 97 125 124 113 135 94 C 142 81 143 63 137 51 C 131 40 120 33 103 32 C 96 31 46 31 44 32 M 99 45 C 103 46 108 49 111 51 C 120 62 117 85 105 97 C 98 104 84 109 75 107 C 67 105 67 105 75 66 C 78 51 79 47 82 46 C 85 44 92 43 99 45 z" fill="black"/><!-- width=156 height=195 -->
<path id="gl2581" d="M 77 15 C 58 17 39 33 29 54 C 15 86 22 118 44 122 C 56 124 79 115 94 102 C 99 97 100 90 95 87 C 91 85 88 86 80 93 C 74 99 66 103 60 104 C 51 105 46 100 43 88 C 42 78 43 76 55 73 C 76 68 96 55 102 43 C 109 27 96 12 77 15 M 78 31 C 81 33 82 39 81 43 C 78 49 75 51 64 58 C 48 66 43 64 49 52 C 56 37 69 27 78 31 z" fill="black"/><!-- width=117 height=136 -->
<path id="gl2817" d="M 90 37 C 85 39 83 41 78 48 C 73 54 73 54 71 54 C 70 54 69 54 69 54 C 69 52 69 50 69 48 C 69 41 69 41 66 39 C 63 35 59 36 51 42 C 42 48 31 55 30 58 C 27 63 29 68 34 68 C 36 68 38 67 40 65 C 45 61 46 61 48 63 C 49 64 49 65 46 77 C 43 91 42 94 38 110 C 37 118 34 126 33 129 C 31 136 31 138 32 140 C 34 145 37 145 45 142 C 54 139 56 137 57 126 C 58 119 58 115 60 108 C 61 105 61 100 62 97 C 64 84 73 67 80 62 C 83 60 87 60 90 61 C 94 64 97 64 101 62 C 105 60 106 58 106 49 C 106 41 105 39 101 37 C 96 35 93 35 90 37 z" fill="black"/><!-- width=121 height=157 -->
<path id="gl2817" d="M 90 37 C 85 39 83 41 78 48 C 73 54 73 54 71 54 C 70 54 69 54 69 54 C 69 52 69 50 69 48 C 69 41 69 41 66 39 C 63 35 59 36 51 42 C 42 48 31 55 30 58 C 27 63 29 68 34 68 C 36 68 38 67 40 65 C 45 61 46 61 48 63 C 49 64 49 65 46 77 C 43 91 42 94 38 110 C 37 118 34 126 33 129 C 31 136 31 138 32 140 C 34 145 37 145 45 142 C 54 139 56 137 57 126 C 58 119 58 115 60 108 C 61 105 61 100 62 97 C 64 84 73 67 80 62 C 83 60 87 60 90 61 C 94 64 97 64 101 62 C 105 60 106 58 106 49 C 106 41 105 39 101 37 C 96 35 93 35 90 37 z" fill="black"/><!-- width=121 height=157 -->
<path id="gl2826" d="M 64 13 C 45 18 27 35 19 57 C 13 73 13 93 19 105 C 33 132 74 123 93 89 C 104 68 107 43 100 28 C 94 16 79 10 64 13 M 73 29 C 86 36 83 72 67 96 C 58 109 44 109 39 94 C 37 89 37 71 39 63 C 45 38 60 23 73 29 z" fill="black"/><!-- width=118 height=133 -->
<path id="gl2586" d="M 40 21 C 37 22 37 22 24 31 C 10 41 8 44 10 48 C 12 53 15 53 21 49 C 29 43 31 46 28 57 C 25 65 24 69 19 91 C 16 101 13 112 13 114 C 9 126 13 130 24 126 C 33 123 35 120 36 111 C 37 98 40 82 43 77 C 49 67 70 46 79 42 C 84 40 87 42 87 46 C 87 48 85 54 83 61 C 81 69 79 78 78 82 C 77 85 75 94 73 100 C 68 119 68 120 70 124 C 75 131 80 130 97 119 C 112 109 112 109 112 103 C 112 98 108 96 103 99 C 94 105 92 103 95 92 C 97 83 102 69 103 61 C 104 57 106 51 106 48 C 112 25 106 15 90 22 C 80 25 70 33 60 43 C 54 49 52 51 51 51 C 48 51 48 49 50 39 C 52 28 52 27 51 24 C 49 21 46 19 40 21 z" fill="black"/><!-- width=124 height=141 -->
<path id="gl2581" d="M 77 15 C 58 17 39 33 29 54 C 15 86 22 118 44 122 C 56 124 79 115 94 102 C 99 97 100 90 95 87 C 91 85 88 86 80 93 C 74 99 66 103 60 104 C 51 105 46 100 43 88 C 42 78 43 76 55 73 C 76 68 96 55 102 43 C 109 27 96 12 77 15 M 78 31 C 81 33 82 39 81 43 C 78 49 75 51 64 58 C 48 66 43 64 49 52 C 56 37 69 27 78 31 z" fill="black"/><!-- width=117 height=136 -->
<path id="gl2840" d="M 62 10 C 30 18 16 54 36 78 C 39 82 46 88 57 96 C 72 106 78 114 78 126 C 78 141 67 152 52 152 C 37 152 27 144 22 127 C 18 118 11 117 9 125 C 8 130 9 148 10 151 C 16 165 49 171 71 162 C 91 154 102 136 101 115 C 100 100 93 89 75 77 C 64 70 58 65 56 62 C 42 46 50 24 71 24 C 84 23 90 28 94 42 C 97 51 100 53 105 49 C 107 48 107 45 108 33 C 108 18 107 16 96 13 C 87 9 72 9 62 10 z" fill="black"/><!-- width=124 height=179 -->
<path id="gl2841" d="M 105 8 C 99 9 93 13 91 17 C 91 18 90 21 90 24 C 87 49 82 57 65 77 C 53 91 48 95 44 95 C 38 95 38 90 43 70 C 46 63 48 52 49 46 C 51 41 52 34 53 33 C 57 18 57 13 53 10 C 49 6 43 7 28 18 C 15 27 13 29 13 34 C 12 40 18 42 24 37 C 28 34 31 34 31 37 C 31 38 30 44 28 51 C 26 61 23 74 19 88 C 16 106 21 118 33 116 C 42 114 57 103 67 91 C 73 82 77 80 78 84 C 79 85 78 88 76 96 C 73 108 73 111 76 114 C 79 117 84 117 90 113 C 100 107 112 99 114 97 C 118 93 116 85 111 85 C 109 85 108 86 106 87 C 102 90 98 91 97 89 C 96 87 96 86 99 75 C 100 70 103 61 104 54 C 108 40 112 26 114 21 C 115 14 115 10 110 8 C 108 7 108 7 105 8 z" fill="black"/><!-- width=128 height=131 -->
<path id="gl9216" d="M 55 10 C 51 10 45 12 42 13 C 32 16 29 19 33 24 C 35 25 36 25 40 26 C 43 27 45 28 46 30 C 46 32 43 51 37 74 C 35 85 31 106 29 115 C 28 120 27 127 26 131 C 23 145 22 155 25 161 C 30 171 43 175 59 171 C 85 164 103 145 112 113 C 115 100 116 84 114 77 C 110 68 102 64 92 67 C 88 67 75 74 70 78 C 56 87 57 87 64 52 C 70 22 72 16 71 14 C 70 7 66 6 55 10 M 89 88 C 94 94 91 117 82 136 C 75 150 66 157 58 157 C 47 157 44 149 48 130 C 51 115 54 108 64 99 C 75 87 85 83 89 88 z" fill="black"/><!-- width=129 height=196 -->
<path id="gl39942" d="M 69 9 C 62 12 60 20 63 27 C 66 33 71 35 78 32 C 84 30 87 26 87 19 C 87 10 78 4 69 9 M 69 61 C 62 63 44 75 39 80 C 37 82 36 86 37 88 C 39 91 42 91 48 88 C 50 87 52 85 53 85 C 55 85 55 90 55 94 C 54 97 54 100 53 103 C 53 106 52 111 51 115 C 51 119 49 125 49 128 C 49 132 48 136 47 139 C 46 141 45 148 44 155 C 43 162 42 168 42 170 C 36 198 34 200 22 199 C 13 197 9 199 7 208 C 6 222 25 222 39 207 C 48 198 53 192 57 181 C 62 169 65 161 66 156 C 66 152 67 148 68 145 C 69 144 69 138 70 134 C 71 128 75 109 79 86 C 82 70 81 63 75 61 C 71 60 72 60 69 61 z" fill="black"/><!-- width=113 height=240 -->
<path id="gl6922" d="M 67 15 C 40 24 24 46 19 79 C 19 82 18 85 18 88 C 18 91 19 94 19 97 C 22 111 28 118 38 121 C 43 123 46 123 56 120 C 67 118 82 109 91 101 C 98 96 96 85 88 85 C 85 85 84 87 79 91 C 65 104 52 108 45 100 C 40 94 38 80 42 76 C 43 75 50 73 59 71 C 67 69 82 60 89 54 C 101 44 103 30 96 21 C 88 13 79 11 67 15 M 75 30 C 81 34 79 45 70 51 C 63 56 52 62 49 62 C 46 63 43 60 44 58 C 48 43 60 29 70 29 C 72 29 73 29 75 30 z" fill="black"/><!-- width=111 height=135 -->
<path id="gl2830" d="M 84 10 C 58 15 39 35 31 66 C 29 76 29 91 31 98 C 34 106 39 112 45 115 C 50 118 60 117 69 114 C 86 108 103 96 103 91 C 103 87 100 84 96 83 C 93 82 90 84 85 88 C 71 102 55 102 52 88 C 50 77 54 57 60 43 C 69 26 79 22 88 31 C 95 37 97 38 102 36 C 112 31 114 19 106 13 C 100 9 92 8 84 10 z" fill="black"/><!-- width=123 height=132 -->
<path id="gl7438" d="M 60 11 C 56 13 48 21 47 24 C 46 25 45 28 45 31 C 43 38 43 39 34 39 C 26 39 21 42 21 46 C 21 51 25 53 32 53 C 39 53 40 55 37 66 C 35 71 31 91 29 99 C 28 102 27 107 27 111 C 22 129 25 139 35 138 C 39 138 42 137 50 132 C 72 117 78 109 69 105 C 66 103 63 104 57 110 C 53 115 51 116 48 115 C 45 114 45 112 48 99 C 52 83 54 76 56 66 C 58 52 60 51 69 52 C 79 54 82 53 83 49 C 84 46 83 41 82 39 C 81 37 81 37 69 39 C 63 39 62 36 66 27 C 69 19 70 15 67 11 C 66 9 62 9 60 11 z" fill="black"/><!-- width=96 height=152 -->
<path id="gl32272" d="M 13 14 C 11 17 11 25 13 28 C 15 29 15 29 17 27 C 22 23 22 20 18 15 C 16 13 15 13 13 14 M 36 15 C 33 16 28 21 27 24 C 22 39 36 52 48 44 C 57 38 58 24 51 16 C 48 14 41 13 36 15 M 26 85 C 21 87 15 92 13 97 C 12 100 13 108 15 111 C 17 115 23 118 27 118 C 34 117 40 114 41 109 C 45 98 41 90 33 87 C 31 85 29 85 29 85 C 28 85 27 85 26 85 z" fill="black"/><!-- width=67 height=129 -->
<path id="gl3840" d="M 43 15 C 36 17 36 24 43 27 C 54 30 54 31 46 67 C 45 76 43 88 42 93 C 31 151 32 150 19 153 C 15 154 12 157 13 160 C 13 165 18 166 51 165 C 64 165 67 165 69 162 C 72 159 70 155 64 153 C 55 150 55 148 61 114 C 64 100 65 97 67 96 C 70 93 126 93 129 96 C 132 97 132 99 130 114 C 124 147 123 150 112 153 C 106 155 104 157 104 160 C 104 162 106 165 110 165 C 114 166 154 166 157 165 C 164 163 164 156 157 153 C 147 150 147 147 152 118 C 157 96 159 82 163 63 C 168 32 169 30 180 27 C 185 25 187 23 187 20 C 187 15 184 14 155 15 C 133 15 132 15 130 18 C 128 21 130 24 136 27 C 142 29 143 30 143 38 C 143 46 139 69 136 73 C 134 78 135 78 102 78 C 74 78 73 78 72 76 C 69 75 69 72 72 59 C 76 33 78 30 87 27 C 94 25 97 22 96 19 C 94 15 94 15 67 15 C 54 15 44 15 43 15 z" fill="black"/><!-- width=201 height=180 -->
<path id="gl2820" d="M 63 13 C 55 15 51 16 46 20 C 42 22 31 33 30 35 C 29 36 28 37 27 38 C 25 40 22 46 20 51 C 19 52 18 55 18 58 C 15 63 13 74 13 84 C 12 106 27 124 48 121 C 61 120 78 108 87 96 C 91 88 93 86 94 82 C 95 80 96 78 96 78 C 98 75 101 58 102 48 C 102 32 98 24 87 17 C 79 12 74 11 63 13 M 70 30 C 78 33 79 39 79 52 C 78 64 78 69 76 72 C 75 74 74 78 73 81 C 72 83 71 86 70 87 C 70 88 69 90 68 91 C 63 101 57 106 49 106 C 39 106 34 95 36 75 C 36 60 42 45 51 36 C 58 28 64 27 70 30 z" fill="black"/><!-- width=115 height=134 -->
<path id="gl2817" d="M 90 37 C 85 39 83 41 78 48 C 73 54 73 54 71 54 C 70 54 69 54 69 54 C 69 52 69 50 69 48 C 69 41 69 41 66 39 C 63 35 59 36 51 42 C 42 48 31 55 30 58 C 27 63 29 68 34 68 C 36 68 38 67 40 65 C 45 61 46 61 48 63 C 49 64 49 65 46 77 C 43 91 42 94 38 110 C 37 118 34 126 33 129 C 31 136 31 138 32 140 C 34 145 37 145 45 142 C 54 139 56 137 57 126 C 58 119 58 115 60 108 C 61 105 61 100 62 97 C 64 84 73 67 80 62 C 83 60 87 60 90 61 C 94 64 97 64 101 62 C 105 60 106 58 106 49 C 106 41 105 39 101 37 C 96 35 93 35 90 37 z" fill="black"/><!-- width=121 height=157 -->
<path id="gl2827" d="M 69 9 C 43 15 23 35 16 62 C 11 81 12 103 17 111 C 24 120 36 115 55 96 C 67 84 67 84 69 84 C 72 85 72 88 70 96 C 66 109 67 114 75 115 C 78 116 81 115 89 109 C 92 108 96 105 99 103 C 110 97 113 91 108 87 C 106 84 102 85 99 88 C 90 95 87 91 91 76 C 93 72 95 61 97 52 C 99 44 101 33 103 28 C 107 12 106 11 91 9 C 80 8 75 8 69 9 M 76 24 C 82 24 83 28 79 40 C 75 58 73 62 64 73 C 49 90 41 95 37 93 C 32 91 31 84 36 66 C 42 43 55 25 69 24 C 71 23 73 23 73 23 C 73 23 75 24 76 24 z" fill="black"/><!-- width=122 height=131 -->
<path id="gl2817" d="M 90 37 C 85 39 83 41 78 48 C 73 54 73 54 71 54 C 70 54 69 54 69 54 C 69 52 69 50 69 48 C 69 41 69 41 66 39 C 63 35 59 36 51 42 C 42 48 31 55 30 58 C 27 63 29 68 34 68 C 36 68 38 67 40 65 C 45 61 46 61 48 63 C 49 64 49 65 46 77 C 43 91 42 94 38 110 C 37 118 34 126 33 129 C 31 136 31 138 32 140 C 34 145 37 145 45 142 C 54 139 56 137 57 126 C 58 119 58 115 60 108 C 61 105 61 100 62 97 C 64 84 73 67 80 62 C 83 60 87 60 90 61 C 94 64 97 64 101 62 C 105 60 106 58 106 49 C 106 41 105 39 101 37 C 96 35 93 35 90 37 z" fill="black"/><!-- width=121 height=157 -->
<path id="gl2828" d="M 58 46 C 54 48 51 49 44 55 C 33 65 30 70 34 74 C 35 76 37 76 42 73 C 50 70 51 70 53 83 C 55 100 57 139 56 144 C 55 151 37 172 24 186 C 16 193 14 196 17 199 C 19 202 22 202 29 199 C 41 195 44 192 59 169 C 61 165 68 155 73 147 C 79 139 86 128 90 123 C 93 117 102 103 109 92 C 126 67 127 66 127 59 C 127 47 116 40 108 48 C 104 51 103 54 103 63 C 103 66 103 69 103 71 C 103 73 102 75 101 76 C 95 91 82 112 78 112 C 76 112 76 109 73 78 C 72 60 72 54 69 51 C 67 46 63 44 58 46 z" fill="black"/><!-- width=141 height=216 -->
<path id="gl39943" d="M 62 14 C 0 38 -10 144 43 163 C 52 163 72 172 81 177 C 124 201 163 201 120 177 C 110 172 105 168 96 163 C 105 158 110 153 120 148 C 187 86 139 -15 62 14 M 105 24 C 124 38 129 72 120 110 C 100 172 33 168 33 100 C 33 43 72 4 105 24 z" fill="black"/><!-- width=163 height=206 -->
<path id="gl2841" d="M 105 8 C 99 9 93 13 91 17 C 91 18 90 21 90 24 C 87 49 82 57 65 77 C 53 91 48 95 44 95 C 38 95 38 90 43 70 C 46 63 48 52 49 46 C 51 41 52 34 53 33 C 57 18 57 13 53 10 C 49 6 43 7 28 18 C 15 27 13 29 13 34 C 12 40 18 42 24 37 C 28 34 31 34 31 37 C 31 38 30 44 28 51 C 26 61 23 74 19 88 C 16 106 21 118 33 116 C 42 114 57 103 67 91 C 73 82 77 80 78 84 C 79 85 78 88 76 96 C 73 108 73 111 76 114 C 79 117 84 117 90 113 C 100 107 112 99 114 97 C 118 93 116 85 111 85 C 109 85 108 86 106 87 C 102 90 98 91 97 89 C 96 87 96 86 99 75 C 100 70 103 61 104 54 C 108 40 112 26 114 21 C 115 14 115 10 110 8 C 108 7 108 7 105 8 z" fill="black"/><!-- width=128 height=131 -->
<path id="gl2581" d="M 77 15 C 58 17 39 33 29 54 C 15 86 22 118 44 122 C 56 124 79 115 94 102 C 99 97 100 90 95 87 C 91 85 88 86 80 93 C 74 99 66 103 60 104 C 51 105 46 100 43 88 C 42 78 43 76 55 73 C 76 68 96 55 102 43 C 109 27 96 12 77 15 M 78 31 C 81 33 82 39 81 43 C 78 49 75 51 64 58 C 48 66 43 64 49 52 C 56 37 69 27 78 31 z" fill="black"/><!-- width=117 height=136 -->
<path id="gl2587" d="M 55 12 C 41 15 25 29 23 42 C 21 53 24 60 36 68 C 52 78 57 84 55 92 C 52 103 39 105 30 96 C 22 88 17 88 12 94 C 6 101 9 111 19 115 C 33 122 48 119 61 106 C 70 98 73 90 73 81 C 73 69 70 64 55 54 C 46 48 43 46 42 43 C 39 36 44 28 52 28 C 56 28 58 30 63 34 C 70 40 75 39 79 32 C 87 20 72 8 55 12 z" fill="black"/><!-- width=94 height=133 -->
<path id="gl2816" d="M 66 12 C 66 12 63 15 60 18 C 53 24 51 27 50 33 C 49 40 48 41 40 41 C 33 41 30 42 27 46 C 25 49 26 52 28 54 C 29 55 30 55 31 56 C 33 56 34 55 36 55 C 41 55 42 55 43 57 C 45 58 45 60 42 70 C 40 79 37 93 33 110 C 29 129 29 137 34 142 C 37 144 42 144 46 142 C 54 139 75 123 77 119 C 79 116 79 112 77 110 C 73 106 70 108 64 114 C 58 120 55 122 52 120 C 51 118 51 114 54 103 C 57 92 61 74 63 65 C 64 55 66 54 76 55 C 90 57 95 54 95 46 C 96 41 91 39 82 40 C 68 43 67 40 74 24 C 77 16 75 11 69 12 C 68 12 67 12 66 12 z" fill="black"/><!-- width=108 height=157 -->
<path id="gl2583" d="M 48 8 C 34 12 33 33 45 36 C 56 39 65 31 64 19 C 64 10 57 5 48 8 M 47 60 C 41 61 16 77 13 81 C 10 84 10 89 13 91 C 15 93 18 93 24 88 C 28 85 30 85 31 88 C 33 89 32 90 30 97 C 29 101 25 114 22 127 C 19 139 16 150 16 152 C 13 164 19 172 28 168 C 31 166 55 150 58 147 C 62 143 63 139 60 136 C 57 133 54 133 46 139 C 43 142 39 141 40 138 C 40 138 41 132 43 127 C 44 121 48 109 50 100 C 52 91 55 81 55 78 C 60 65 56 58 47 60 z" fill="black"/><!-- width=77 height=199 -->
<path id="gl2826" d="M 64 13 C 45 18 27 35 19 57 C 13 73 13 93 19 105 C 33 132 74 123 93 89 C 104 68 107 43 100 28 C 94 16 79 10 64 13 M 73 29 C 86 36 83 72 67 96 C 58 109 44 109 39 94 C 37 89 37 71 39 63 C 45 38 60 23 73 29 z" fill="black"/><!-- width=118 height=133 -->
<path id="gl2831" d="M 42 21 C 39 22 36 24 30 28 C 12 40 11 42 11 46 C 10 52 16 54 22 49 C 26 47 27 46 29 48 C 31 49 30 52 27 63 C 25 67 23 79 21 87 C 18 96 16 106 15 111 C 12 120 11 123 13 126 C 16 129 20 129 28 125 C 34 122 36 120 37 109 C 39 97 41 85 42 81 C 45 75 52 66 65 54 C 78 42 82 39 86 43 C 88 46 88 47 84 63 C 82 69 79 81 76 88 C 75 96 72 106 72 109 C 68 122 70 129 78 129 C 82 129 91 124 107 113 C 113 109 115 103 111 100 C 109 97 108 97 102 100 C 93 105 93 102 97 86 C 99 82 101 73 103 66 C 105 58 107 49 108 47 C 109 39 109 28 107 25 C 101 15 83 22 62 42 C 57 46 53 51 53 51 C 52 51 52 51 51 51 C 50 51 49 49 49 48 C 49 46 49 43 51 39 C 54 30 54 26 51 23 C 49 21 45 20 42 21 z" fill="black"/><!-- width=126 height=142 -->
</defs>
<use xlink:href="#gl17669" x="0" y="29"/>
<use xlink:href="#gl2585" x="159" y="79"/>
<use xlink:href="#gl2816" x="252" y="54"/>
<use xlink:href="#gl2581" x="318" y="74"/>
<use xlink:href="#gl6673" x="410" y="79"/>
<use xlink:href="#gl39937" x="1162" y="39"/>
<use xlink:href="#gl30987" x="1247" y="38"/>
<use xlink:href="#gl1283" x="1364" y="119"/>
<use xlink:href="#gl31002" x="1428" y="19"/>
<use xlink:href="#gl33310" x="1509" y="82"/>
<use xlink:href="#gl2586" x="1625" y="70"/>
<use xlink:href="#gl6922" x="1729" y="75"/>
<use xlink:href="#gl16391" x="1825" y="117"/>
<use xlink:href="#gl30976" x="1905" y="37"/>
<use xlink:href="#gl30746" x="2007" y="23"/>
<use xlink:href="#gl30745" x="2154" y="39"/>
<use xlink:href="#gl39938" x="2266" y="31"/>
<use xlink:href="#gl6673" x="2364" y="79"/>
<use xlink:href="#gl30738" x="2420" y="29"/>
<use xlink:href="#gl39939" x="2526" y="43"/>
<use xlink:href="#gl6659" x="2670" y="34"/>
<use xlink:href="#gl39940" x="2794" y="30"/>
<use xlink:href="#gl31007" x="2946" y="0"/>
<use xlink:href="#gl32263" x="4792" y="6"/>
<use xlink:href="#gl39941" x="4926" y="72"/>
<use xlink:href="#gl2826" x="4993" y="67"/>
<use xlink:href="#gl2580" x="5099" y="56"/>
<use xlink:href="#gl6673" x="5264" y="68"/>
<use xlink:href="#gl6659" x="5363" y="22"/>
<use xlink:href="#gl2833" x="5492" y="10"/>
<use xlink:href="#gl2829" x="5642" y="0"/>
<use xlink:href="#gl2581" x="5754" y="60"/>
<use xlink:href="#gl2817" x="5833" y="38"/>
<use xlink:href="#gl2817" x="5913" y="38"/>
<use xlink:href="#gl2826" x="6002" y="60"/>
<use xlink:href="#gl2586" x="6108" y="52"/>
<use xlink:href="#gl2581" x="6209" y="58"/>
<use xlink:href="#gl2840" x="6" y="312"/>
<use xlink:href="#gl2841" x="108" y="364"/>
<use xlink:href="#gl9216" x="213" y="306"/>
<use xlink:href="#gl39942" x="302" y="312"/>
<use xlink:href="#gl6922" x="374" y="359"/>
<use xlink:href="#gl2830" x="448" y="363"/>
<use xlink:href="#gl7438" x="540" y="340"/>
<use xlink:href="#gl32272" x="610" y="361"/>
<use xlink:href="#gl3840" x="1149" y="313"/>
<use xlink:href="#gl2820" x="1316" y="360"/>
<use xlink:href="#gl2817" x="1399" y="338"/>
<use xlink:href="#gl2827" x="1488" y="366"/>
<use xlink:href="#gl2817" x="1577" y="337"/>
<use xlink:href="#gl2828" x="1655" y="329"/>
<use xlink:href="#gl39943" x="1834" y="317"/>
<use xlink:href="#gl2841" x="1984" y="365"/>
<use xlink:href="#gl2581" x="2088" y="359"/>
<use xlink:href="#gl2587" x="2180" y="362"/>
<use xlink:href="#gl2816" x="2242" y="338"/>
<use xlink:href="#gl2583" x="2323" y="313"/>
<use xlink:href="#gl2826" x="2378" y="361"/>
<use xlink:href="#gl2831" x="2482" y="352"/>
</svg>
