<?xml version='1.0' encoding='utf-8'?>
<svg xmlns="http://www.w3.org/2000/svg" xmlns:xlink="http://www.w3.org/1999/xlink" width="522px" height="170px" viewBox="0 0 5227 1708" version="1.1">
<defs>
<path id="gl16393" d="M 43 16 C 31 17 21 17 21 18 C 15 21 16 27 25 30 C 30 31 33 34 34 38 C 35 42 35 154 33 157 C 32 161 30 163 25 165 C 16 168 13 174 21 177 C 25 179 98 178 108 177 C 152 169 180 137 180 94 C 180 57 156 28 119 19 C 106 16 91 16 43 16 M 102 33 C 128 40 141 60 142 93 C 144 135 123 162 88 162 C 78 162 73 160 70 154 C 69 150 68 135 69 84 C 69 33 69 35 72 33 C 76 30 91 31 102 33 z" fill="black"/><!-- width=193 height=194 -->
<path id="gl34085" d="M 36 8 C 31 10 27 15 26 19 C 23 32 30 41 42 41 C 61 41 65 15 47 8 C 45 7 38 7 36 8 M 47 67 C 45 68 40 70 37 72 C 33 73 30 75 25 75 C 22 76 19 76 18 77 C 13 81 13 90 19 92 C 28 94 28 94 27 117 C 27 127 27 139 28 143 C 28 156 27 160 21 161 C 13 162 11 174 19 177 C 22 178 22 178 32 176 C 38 175 39 175 56 177 C 67 177 69 177 70 174 C 74 168 70 162 63 162 C 59 161 58 159 57 154 C 56 147 56 96 57 84 C 58 73 58 73 57 70 C 55 66 52 66 47 67 z" fill="black"/><!-- width=83 height=216 -->
<path id="gl2576" d="M 90 25 C 86 26 84 28 79 33 C 73 38 70 37 70 32 C 69 25 66 24 55 28 C 52 29 46 30 43 31 C 35 32 31 34 31 37 C 30 42 32 45 38 46 C 43 47 45 48 46 50 C 47 52 47 108 46 112 C 45 115 43 117 39 117 C 34 118 33 119 31 122 C 29 126 30 130 34 131 C 36 132 37 132 52 130 C 59 130 61 130 70 131 C 84 132 87 132 90 129 C 93 124 88 118 80 117 C 75 117 73 117 72 114 C 70 111 70 111 70 85 C 70 77 70 68 70 60 C 70 58 71 57 72 56 C 77 47 82 45 90 51 C 97 55 102 55 109 47 C 111 44 112 43 114 42 C 117 41 120 37 119 33 C 119 28 118 27 112 28 C 108 28 108 28 103 26 C 99 24 94 24 90 25 z" fill="black"/><!-- width=132 height=145 -->
<path id="gl12292" d="M 62 12 C 31 18 12 52 22 88 C 31 122 66 134 94 113 C 99 109 107 101 108 99 C 109 96 109 90 108 88 C 105 85 100 86 95 91 C 76 107 53 99 45 73 C 41 59 43 57 57 58 C 61 58 73 59 84 59 C 90 59 96 59 102 59 C 102 59 103 58 104 58 C 108 55 108 51 106 42 C 103 27 93 16 80 13 C 76 12 66 11 62 12 M 70 26 C 78 28 83 41 78 46 C 75 48 50 49 48 47 C 42 42 52 28 63 26 C 66 25 67 25 70 26 z" fill="black"/><!-- width=120 height=138 -->
<path id="gl12803" d="M 73 9 C 61 10 53 15 44 22 C 33 33 26 47 24 61 C 22 84 31 104 46 113 C 63 122 82 122 97 114 C 103 110 115 99 117 95 C 118 90 117 85 114 84 C 109 82 107 83 102 88 C 94 96 87 98 80 97 C 63 96 52 80 52 57 C 51 36 59 24 73 24 C 79 24 82 25 88 34 C 91 40 94 42 99 42 C 106 43 112 39 114 31 C 116 24 114 18 108 14 C 101 10 85 7 73 9 z" fill="black"/><!-- width=128 height=135 -->
<path id="gl11034" d="M 52 7 C 51 9 48 11 45 16 C 40 24 33 30 24 34 C 15 39 15 49 25 49 C 28 49 31 51 31 52 C 31 52 31 68 31 87 C 31 125 31 124 35 130 C 42 140 60 142 73 134 C 87 126 91 119 87 114 C 84 111 81 112 76 114 C 68 117 63 117 60 111 C 58 109 58 108 59 93 C 59 84 59 72 58 64 C 58 47 58 46 72 49 C 85 51 88 49 88 41 C 88 30 85 29 70 31 C 60 33 58 30 60 19 C 62 10 58 5 52 7 z" fill="black"/><!-- width=101 height=153 -->
<path id="gl12804" d="M 38 9 C 30 12 25 22 28 31 C 34 45 56 44 60 30 C 64 16 52 4 38 9 M 51 67 C 49 67 46 69 42 70 C 39 72 34 74 29 75 C 18 78 16 79 16 84 C 16 88 18 91 22 91 C 30 94 30 92 30 127 C 30 162 30 159 24 161 C 19 163 18 163 16 166 C 15 169 16 172 18 174 C 21 177 23 177 31 175 C 40 174 51 174 59 175 C 67 177 69 177 72 174 C 77 169 74 162 67 161 C 58 160 58 162 58 126 C 58 110 59 91 60 84 C 60 73 60 72 59 70 C 57 67 54 66 51 67 z" fill="black"/><!-- width=88 height=215 -->
<path id="gl11032" d="M 61 15 C 47 16 34 24 24 36 C 10 54 9 85 23 105 C 49 141 103 133 118 91 C 124 77 124 58 117 45 C 108 25 85 13 61 15 M 75 31 C 80 34 85 40 88 48 C 94 64 94 88 88 100 C 80 117 60 117 50 102 C 40 85 40 50 51 36 C 56 30 67 27 75 31 z" fill="black"/><!-- width=136 height=141 -->
<path id="gl23053" d="M 84 12 C 79 13 73 15 67 19 C 59 25 58 24 56 18 C 55 15 54 15 53 13 C 50 12 49 12 42 16 C 37 18 34 19 21 22 C 12 24 12 34 20 37 C 29 39 28 36 28 72 C 28 107 28 105 21 106 C 13 109 12 116 18 120 C 21 121 21 121 28 120 C 39 118 44 118 55 119 C 64 120 65 120 67 118 C 74 115 72 109 63 107 C 55 105 56 107 55 70 C 55 36 55 38 66 34 C 77 31 85 33 89 40 C 90 41 90 42 90 43 C 90 52 90 62 90 71 C 90 105 91 105 83 107 C 76 109 74 114 78 118 C 80 120 79 120 95 118 C 106 118 108 118 117 119 C 128 121 129 120 131 117 C 135 112 132 106 124 106 C 122 106 120 105 119 102 C 118 101 118 96 118 67 C 118 39 118 33 117 31 C 114 20 106 14 95 12 C 89 11 90 11 84 12 z" fill="black"/><!-- width=144 height=133 -->
<path id="gl12297" d="M 42 13 C 16 13 16 13 14 15 C 9 18 12 24 20 25 C 24 27 28 30 29 34 C 30 38 30 148 28 153 C 27 157 25 159 19 160 C 12 163 10 167 13 171 C 16 173 18 173 48 173 C 81 173 81 173 83 168 C 84 164 82 162 75 160 C 69 159 66 156 64 151 C 63 148 63 105 64 103 C 66 99 67 99 100 99 C 135 99 135 99 136 103 C 138 106 138 151 136 154 C 135 157 132 159 126 160 C 119 162 117 165 118 169 C 120 173 120 173 154 173 C 189 172 188 173 190 168 C 191 164 189 162 182 160 C 177 158 175 157 174 154 C 172 151 171 52 172 38 C 172 29 174 27 183 25 C 187 23 189 21 189 19 C 189 16 189 15 186 13 C 182 12 123 12 120 14 C 116 17 118 23 124 24 C 125 25 127 25 129 26 C 132 27 135 30 136 32 C 138 35 138 72 137 75 C 135 79 136 79 104 80 C 69 80 66 80 64 75 C 63 72 63 35 64 32 C 66 28 69 27 75 25 C 81 24 82 22 82 19 C 82 15 79 12 72 13 C 70 13 57 13 42 13 z" fill="black"/><!-- width=203 height=186 -->
<path id="gl9747" d="M 64 12 C 41 15 21 34 16 57 C 9 90 25 118 55 127 C 64 130 78 130 87 127 C 103 121 115 109 121 95 C 127 79 127 61 121 46 C 112 24 88 10 64 12 M 75 29 C 85 33 92 46 93 63 C 96 96 87 115 71 114 C 55 113 45 91 46 63 C 48 37 60 23 75 29 z" fill="black"/><!-- width=141 height=143 -->
<path id="gl4101" d="M 39 12 C 34 13 30 14 24 14 C 15 14 15 14 13 15 C 9 20 11 27 17 29 C 25 31 25 29 25 65 C 25 101 25 104 32 111 C 42 122 63 123 75 113 C 78 110 81 108 83 108 C 85 108 86 109 87 114 C 89 119 92 120 100 117 C 105 116 109 115 117 115 C 128 114 132 112 130 106 C 130 102 127 100 121 99 C 117 99 115 97 115 93 C 114 89 114 37 115 25 C 117 10 115 9 100 12 C 94 13 90 14 84 14 C 74 15 72 15 70 19 C 69 21 69 21 70 24 C 72 27 73 27 79 29 C 86 31 87 33 87 46 C 87 51 87 63 87 72 C 87 91 87 91 81 95 C 68 101 56 99 53 88 C 52 86 52 38 53 30 C 54 27 54 22 54 20 C 55 11 52 9 39 12 z" fill="black"/><!-- width=141 height=135 -->
<path id="gl12298" d="M 45 10 C 29 14 16 27 15 42 C 14 58 21 69 43 80 C 57 87 60 90 60 96 C 60 113 36 114 30 97 C 29 96 28 93 27 91 C 24 83 13 84 13 93 C 13 105 16 114 19 117 C 25 123 49 125 61 121 C 79 115 88 99 84 80 C 82 70 76 64 58 55 C 44 48 41 46 39 40 C 36 31 42 25 52 25 C 61 25 64 28 67 37 C 70 45 74 48 79 45 C 82 43 82 41 82 31 C 82 19 81 17 76 15 C 71 12 52 9 45 10 z" fill="black"/><!-- width=99 height=136 -->
<path id="gl21255" d="M 63 11 C 21 18 5 79 36 110 C 54 128 81 126 102 105 C 108 99 109 96 109 92 C 109 88 108 87 104 85 C 102 84 98 86 96 89 C 93 93 82 98 76 98 C 61 98 51 88 46 70 C 43 63 43 60 46 58 C 48 56 49 55 59 57 C 70 58 102 58 104 57 C 114 52 105 25 91 16 C 83 11 72 9 63 11 M 72 25 C 76 27 81 33 81 39 C 81 45 79 45 63 46 C 58 46 54 46 49 46 C 49 46 49 45 48 45 C 44 40 52 28 61 25 C 63 24 69 24 72 25 z" fill="black"/><!-- width=121 height=135 -->
<path id="gl11036" d="M 37 36 C 34 36 31 36 28 36 C 27 37 27 37 26 38 C 24 42 25 46 29 48 C 36 51 37 51 38 54 C 39 55 39 58 39 60 C 40 67 40 170 39 174 C 38 179 36 181 31 183 C 27 185 25 186 25 189 C 24 192 27 195 30 195 C 31 196 46 196 62 196 C 91 195 92 195 94 194 C 96 192 97 191 96 189 C 96 186 93 184 88 183 C 80 182 78 180 75 175 C 74 172 74 171 74 152 C 74 126 74 126 81 129 C 88 132 110 128 121 121 C 146 107 151 69 131 49 C 125 42 119 39 106 36 C 103 36 55 35 37 36 M 91 52 C 103 57 108 66 108 82 C 108 93 107 96 103 103 C 100 111 95 114 85 116 C 83 117 80 117 79 118 C 76 119 76 119 75 117 C 74 114 74 112 74 86 C 73 55 74 54 76 52 C 78 50 86 50 91 52 z" fill="black"/><!-- width=156 height=210 -->
<path id="gl11015" d="M 47 8 C 45 9 42 10 40 11 C 36 13 29 15 22 17 C 11 20 10 29 21 33 C 23 34 25 35 26 36 C 27 37 27 37 27 38 C 27 58 27 79 27 100 C 27 137 27 162 27 164 C 26 166 25 168 20 169 C 13 170 11 176 15 181 C 18 183 19 183 30 182 C 37 181 51 181 58 183 C 63 183 64 183 66 183 C 74 179 73 170 64 168 C 59 168 57 166 57 163 C 55 159 55 40 57 24 C 57 12 57 10 54 9 C 52 7 50 7 47 8 z" fill="black"/><!-- width=82 height=198 -->
<path id="gl20760" d="M 58 9 C 52 10 25 24 21 28 C 15 34 12 44 15 48 C 18 54 28 54 34 48 C 37 46 39 43 40 38 C 42 30 46 27 56 28 C 66 28 72 34 72 46 C 72 54 70 55 60 57 C 42 63 24 70 19 76 C 15 81 13 84 13 93 C 13 103 15 106 18 111 C 28 122 46 122 60 111 C 69 104 71 104 75 111 C 79 117 83 119 90 119 C 96 119 97 119 100 117 C 112 112 117 103 112 99 C 111 97 110 97 105 97 C 102 97 100 96 99 93 C 97 91 97 87 97 61 C 98 29 97 28 94 21 C 89 11 73 6 58 9 M 70 69 C 72 72 72 85 70 89 C 65 100 46 103 42 94 C 37 87 42 78 52 72 C 64 67 68 66 70 69 z" fill="black"/><!-- width=126 height=137 -->
<path id="gl3862" d="M 81 13 C 75 15 75 15 69 19 C 61 24 60 24 58 17 C 56 12 52 11 44 15 C 39 17 35 18 27 19 C 18 21 16 24 16 29 C 16 33 18 35 22 36 C 30 38 30 36 30 71 C 30 105 30 104 22 106 C 12 109 13 121 24 120 C 25 120 28 120 30 120 C 36 118 45 118 55 119 C 66 120 69 120 71 117 C 74 113 71 108 65 106 C 58 104 58 104 58 79 C 58 68 57 55 57 51 C 57 39 58 37 69 34 C 76 31 84 32 88 36 C 92 40 92 40 92 72 C 91 106 92 103 85 106 C 79 109 76 113 79 117 C 81 120 83 120 94 119 C 106 118 109 118 121 120 C 130 121 135 119 135 114 C 135 108 133 108 126 105 C 119 103 120 105 120 67 C 120 30 120 30 115 23 C 110 15 103 12 91 12 C 85 12 84 12 81 13 z" fill="black"/><!-- width=147 height=133 -->
<path id="gl11016" d="M 59 13 C 23 24 7 71 29 105 C 43 127 69 131 92 115 C 97 112 106 103 108 100 C 111 94 108 88 103 88 C 100 88 99 88 94 93 C 75 108 54 100 45 74 C 41 61 43 58 55 60 C 61 60 82 61 99 61 C 105 61 108 57 107 50 C 106 33 97 21 82 15 C 76 12 66 12 59 13 M 72 28 C 77 31 81 39 79 43 C 78 48 76 48 63 49 C 47 49 45 48 47 40 C 51 30 63 24 72 28 z" fill="black"/><!-- width=120 height=139 -->
<path id="gl11034" d="M 52 7 C 51 9 48 11 45 16 C 40 24 33 30 24 34 C 15 39 15 49 25 49 C 28 49 31 51 31 52 C 31 52 31 68 31 87 C 31 125 31 124 35 130 C 42 140 60 142 73 134 C 87 126 91 119 87 114 C 84 111 81 112 76 114 C 68 117 63 117 60 111 C 58 109 58 108 59 93 C 59 84 59 72 58 64 C 58 47 58 46 72 49 C 85 51 88 49 88 41 C 88 30 85 29 70 31 C 60 33 58 30 60 19 C 62 10 58 5 52 7 z" fill="black"/><!-- width=101 height=153 -->
<path id="gl16393" d="M 43 16 C 31 17 21 17 21 18 C 15 21 16 27 25 30 C 30 31 33 34 34 38 C 35 42 35 154 33 157 C 32 161 30 163 25 165 C 16 168 13 174 21 177 C 25 179 98 178 108 177 C 152 169 180 137 180 94 C 180 57 156 28 119 19 C 106 16 91 16 43 16 M 102 33 C 128 40 141 60 142 93 C 144 135 123 162 88 162 C 78 162 73 160 70 154 C 69 150 68 135 69 84 C 69 33 69 35 72 33 C 76 30 91 31 102 33 z" fill="black"/><!-- width=193 height=194 -->
<path id="gl12804" d="M 38 9 C 30 12 25 22 28 31 C 34 45 56 44 60 30 C 64 16 52 4 38 9 M 51 67 C 49 67 46 69 42 70 C 39 72 34 74 29 75 C 18 78 16 79 16 84 C 16 88 18 91 22 91 C 30 94 30 92 30 127 C 30 162 30 159 24 161 C 19 163 18 163 16 166 C 15 169 16 172 18 174 C 21 177 23 177 31 175 C 40 174 51 174 59 175 C 67 177 69 177 72 174 C 77 169 74 162 67 161 C 58 160 58 162 58 126 C 58 110 59 91 60 84 C 60 73 60 72 59 70 C 57 67 54 66 51 67 z" fill="black"/><!-- width=88 height=215 -->
<path id="gl2576" d="M 90 25 C 86 26 84 28 79 33 C 73 38 70 37 70 32 C 69 25 66 24 55 28 C 52 29 46 30 43 31 C 35 32 31 34 31 37 C 30 42 32 45 38 46 C 43 47 45 48 46 50 C 47 52 47 108 46 112 C 45 115 43 117 39 117 C 34 118 33 119 31 122 C 29 126 30 130 34 131 C 36 132 37 132 52 130 C 59 130 61 130 70 131 C 84 132 87 132 90 129 C 93 124 88 118 80 117 C 75 117 73 117 72 114 C 70 111 70 111 70 85 C 70 77 70 68 70 60 C 70 58 71 57 72 56 C 77 47 82 45 90 51 C 97 55 102 55 109 47 C 111 44 112 43 114 42 C 117 41 120 37 119 33 C 119 28 118 27 112 28 C 108 28 108 28 103 26 C 99 24 94 24 90 25 z" fill="black"/><!-- width=132 height=145 -->
<path id="gl12292" d="M 62 12 C 31 18 12 52 22 88 C 31 122 66 134 94 113 C 99 109 107 101 108 99 C 109 96 109 90 108 88 C 105 85 100 86 95 91 C 76 107 53 99 45 73 C 41 59 43 57 57 58 C 61 58 73 59 84 59 C 90 59 96 59 102 59 C 102 59 103 58 104 58 C 108 55 108 51 106 42 C 103 27 93 16 80 13 C 76 12 66 11 62 12 M 70 26 C 78 28 83 41 78 46 C 75 48 50 49 48 47 C 42 42 52 28 63 26 C 66 25 67 25 70 26 z" fill="black"/><!-- width=120 height=138 -->
<path id="gl12803" d="M 73 9 C 61 10 53 15 44 22 C 33 33 26 47 24 61 C 22 84 31 104 46 113 C 63 122 82 122 97 114 C 103 110 115 99 117 95 C 118 90 117 85 114 84 C 109 82 107 83 102 88 C 94 96 87 98 80 97 C 63 96 52 80 52 57 C 51 36 59 24 73 24 C 79 24 82 25 88 34 C 91 40 94 42 99 42 C 106 43 112 39 114 31 C 116 24 114 18 108 14 C 101 10 85 7 73 9 z" fill="black"/><!-- width=128 height=135 -->
<path id="gl11034" d="M 52 7 C 51 9 48 11 45 16 C 40 24 33 30 24 34 C 15 39 15 49 25 49 C 28 49 31 51 31 52 C 31 52 31 68 31 87 C 31 125 31 124 35 130 C 42 140 60 142 73 134 C 87 126 91 119 87 114 C 84 111 81 112 76 114 C 68 117 63 117 60 111 C 58 109 58 108 59 93 C 59 84 59 72 58 64 C 58 47 58 46 72 49 C 85 51 88 49 88 41 C 88 30 85 29 70 31 C 60 33 58 30 60 19 C 62 10 58 5 52 7 z" fill="black"/><!-- width=101 height=153 -->
<path id="gl12804" d="M 38 9 C 30 12 25 22 28 31 C 34 45 56 44 60 30 C 64 16 52 4 38 9 M 51 67 C 49 67 46 69 42 70 C 39 72 34 74 29 75 C 18 78 16 79 16 84 C 16 88 18 91 22 91 C 30 94 30 92 30 127 C 30 162 30 159 24 161 C 19 163 18 163 16 166 C 15 169 16 172 18 174 C 21 177 23 177 31 175 C 40 174 51 174 59 175 C 67 177 69 177 72 174 C 77 169 74 162 67 161 C 58 160 58 162 58 126 C 58 110 59 91 60 84 C 60 73 60 72 59 70 C 57 67 54 66 51 67 z" fill="black"/><!-- width=88 height=215 -->
<path id="gl10257" d="M 66 12 C 58 13 46 18 40 22 C 7 44 5 95 36 118 C 66 141 107 130 121 96 C 126 83 127 64 123 51 C 116 27 90 9 66 12 M 76 30 C 87 34 94 51 94 73 C 94 101 85 117 70 115 C 55 112 46 95 46 67 C 46 54 48 49 51 42 C 57 30 66 25 76 30 z" fill="black"/><!-- width=141 height=144 -->
<path id="gl3862" d="M 81 13 C 75 15 75 15 69 19 C 61 24 60 24 58 17 C 56 12 52 11 44 15 C 39 17 35 18 27 19 C 18 21 16 24 16 29 C 16 33 18 35 22 36 C 30 38 30 36 30 71 C 30 105 30 104 22 106 C 12 109 13 121 24 120 C 25 120 28 120 30 120 C 36 118 45 118 55 119 C 66 120 69 120 71 117 C 74 113 71 108 65 106 C 58 104 58 104 58 79 C 58 68 57 55 57 51 C 57 39 58 37 69 34 C 76 31 84 32 88 36 C 92 40 92 40 92 72 C 91 106 92 103 85 106 C 79 109 76 113 79 117 C 81 120 83 120 94 119 C 106 118 109 118 121 120 C 130 121 135 119 135 114 C 135 108 133 108 126 105 C 119 103 120 105 120 67 C 120 30 120 30 115 23 C 110 15 103 12 91 12 C 85 12 84 12 81 13 z" fill="black"/><!-- width=147 height=133 -->
<path id="gl12806" d="M 56 9 C 37 12 22 25 18 43 C 16 50 16 65 18 72 C 23 84 33 94 51 105 C 69 114 75 118 78 123 C 88 139 79 159 61 160 C 48 162 36 152 27 135 C 23 127 18 124 15 128 C 12 130 12 133 13 143 C 17 167 18 169 36 174 C 70 183 103 169 111 141 C 114 133 114 118 111 111 C 106 96 97 87 73 75 C 52 64 46 58 46 48 C 45 34 52 25 64 23 C 75 21 85 28 91 40 C 95 49 98 51 102 49 C 106 48 106 45 105 31 C 103 13 102 13 86 9 C 80 8 62 7 56 9 z" fill="black"/><!-- width=127 height=189 -->
<path id="gl12804" d="M 38 9 C 30 12 25 22 28 31 C 34 45 56 44 60 30 C 64 16 52 4 38 9 M 51 67 C 49 67 46 69 42 70 C 39 72 34 74 29 75 C 18 78 16 79 16 84 C 16 88 18 91 22 91 C 30 94 30 92 30 127 C 30 162 30 159 24 161 C 19 163 18 163 16 166 C 15 169 16 172 18 174 C 21 177 23 177 31 175 C 40 174 51 174 59 175 C 67 177 69 177 72 174 C 77 169 74 162 67 161 C 58 160 58 162 58 126 C 58 110 59 91 60 84 C 60 73 60 72 59 70 C 57 67 54 66 51 67 z" fill="black"/><!-- width=88 height=215 -->
<path id="gl33551" d="M 52 18 C 20 24 8 55 28 79 C 34 86 34 86 28 92 C 22 97 21 99 22 105 C 22 111 24 115 28 119 C 33 123 33 124 26 130 C 21 136 19 139 18 144 C 15 163 32 175 60 175 C 98 175 121 157 121 126 C 121 117 120 113 114 108 C 106 100 101 100 75 100 C 55 100 52 99 51 97 C 49 94 51 93 61 93 C 78 93 87 89 97 79 C 106 71 108 64 108 51 C 108 43 109 42 114 40 C 120 39 123 33 121 28 C 119 24 117 24 105 23 C 95 23 91 22 84 19 C 75 16 61 16 52 18 M 67 31 C 79 36 82 69 71 76 C 60 82 49 70 49 52 C 49 36 57 27 67 31 M 85 130 C 99 133 102 144 91 154 C 81 163 57 165 46 157 C 39 152 39 141 46 136 C 53 130 73 127 85 130 z" fill="black"/><!-- width=135 height=189 -->
<path id="gl3862" d="M 81 13 C 75 15 75 15 69 19 C 61 24 60 24 58 17 C 56 12 52 11 44 15 C 39 17 35 18 27 19 C 18 21 16 24 16 29 C 16 33 18 35 22 36 C 30 38 30 36 30 71 C 30 105 30 104 22 106 C 12 109 13 121 24 120 C 25 120 28 120 30 120 C 36 118 45 118 55 119 C 66 120 69 120 71 117 C 74 113 71 108 65 106 C 58 104 58 104 58 79 C 58 68 57 55 57 51 C 57 39 58 37 69 34 C 76 31 84 32 88 36 C 92 40 92 40 92 72 C 91 106 92 103 85 106 C 79 109 76 113 79 117 C 81 120 83 120 94 119 C 106 118 109 118 121 120 C 130 121 135 119 135 114 C 135 108 133 108 126 105 C 119 103 120 105 120 67 C 120 30 120 30 115 23 C 110 15 103 12 91 12 C 85 12 84 12 81 13 z" fill="black"/><!-- width=147 height=133 -->
<path id="gl3086" d="M 34 11 C 24 12 22 19 33 24 C 37 25 40 28 42 31 C 43 36 43 137 42 141 C 40 145 37 148 32 149 C 25 151 23 153 24 157 C 25 160 26 161 30 162 C 33 162 124 162 127 161 C 131 159 133 156 136 142 C 139 127 139 124 135 123 C 133 122 132 121 132 121 C 130 121 127 126 124 132 C 118 145 114 147 95 147 C 69 148 67 147 67 113 C 67 91 67 91 78 91 C 85 90 96 91 99 93 C 102 94 102 95 105 100 C 108 108 113 109 116 103 C 117 100 118 69 116 64 C 114 57 108 58 104 67 C 101 73 100 74 91 75 C 84 76 74 75 71 74 C 67 73 67 72 67 50 C 67 24 66 25 87 25 C 106 25 111 28 115 41 C 117 47 121 49 124 48 C 127 45 128 43 127 32 C 126 16 125 14 121 12 C 118 11 45 10 34 11 z" fill="black"/><!-- width=152 height=177 -->
<path id="gl1537" d="M 79 11 C 76 12 75 15 65 40 C 57 63 35 118 32 127 C 26 142 23 146 16 150 C 10 152 9 154 9 157 C 9 162 10 162 33 162 C 56 162 57 162 57 156 C 57 153 56 152 49 149 C 44 147 43 144 46 134 C 52 116 55 110 58 109 C 61 108 88 108 92 108 C 97 109 99 113 105 133 C 110 145 109 147 103 150 C 97 153 96 156 99 160 C 102 162 104 163 129 162 C 150 162 151 162 153 159 C 155 154 153 151 145 149 C 138 147 135 142 128 123 C 126 117 123 111 123 109 C 122 106 120 101 118 96 C 117 91 114 85 114 83 C 112 81 110 73 108 67 C 106 61 102 50 98 42 C 95 34 92 25 91 22 C 87 12 84 9 79 11 M 78 58 C 79 60 82 68 86 79 C 90 91 89 91 75 91 C 62 91 61 91 66 78 C 72 58 75 55 78 58 z" fill="black"/><!-- width=168 height=204 -->
<path id="gl1029" d="M 51 11 C 28 16 15 33 16 55 C 16 74 26 84 53 97 C 66 103 73 108 76 112 C 85 125 81 145 67 151 C 51 158 34 150 26 130 C 22 120 20 118 16 118 C 11 118 8 123 9 129 C 10 135 15 153 15 155 C 19 166 54 172 73 165 C 93 157 105 139 103 118 C 103 99 93 87 68 76 C 49 67 43 63 39 56 C 33 44 40 29 52 26 C 66 22 79 30 82 45 C 84 51 89 55 93 54 C 97 51 99 46 97 40 C 97 39 96 34 96 30 C 93 16 92 15 80 12 C 73 10 56 10 51 11 z" fill="black"/><!-- width=117 height=181 -->
<path id="gl1281" d="M 19 42 C 16 44 15 45 15 57 C 13 78 14 82 19 82 C 22 82 24 81 27 73 C 33 62 37 60 52 60 C 60 60 61 60 62 61 C 66 63 66 63 65 119 C 65 137 65 154 65 172 C 64 173 64 174 64 175 C 62 180 60 181 55 183 C 49 184 47 186 46 187 C 43 192 46 195 52 196 C 60 197 106 196 108 195 C 111 193 112 190 110 187 C 109 186 107 184 102 183 C 96 181 93 179 91 174 C 90 171 89 69 90 64 C 92 60 93 60 103 60 C 119 60 125 63 129 73 C 131 82 136 85 139 81 C 142 79 142 76 141 61 C 140 46 140 45 137 43 C 135 41 133 41 128 43 C 126 43 125 44 123 45 C 108 45 93 45 77 45 C 61 45 46 45 31 45 C 30 44 28 43 27 43 C 21 41 21 41 19 42 z" fill="black"/><!-- width=156 height=210 -->
<path id="gl1284" d="M 51 8 C 49 8 46 9 43 10 C 41 11 35 13 30 13 C 19 16 18 16 15 19 C 13 21 13 25 15 27 C 16 29 19 30 26 30 C 33 30 36 31 36 34 C 36 34 36 58 36 85 C 36 134 36 136 35 137 C 33 140 30 141 25 141 C 18 141 14 143 13 148 C 13 150 13 151 16 153 C 19 156 21 157 30 156 C 39 154 53 154 64 156 C 67 156 70 156 72 157 C 73 156 74 156 75 156 C 79 154 80 151 80 148 C 80 144 76 141 70 141 C 63 141 59 139 58 134 C 58 132 58 31 59 15 C 59 10 56 7 51 8 z" fill="black"/><!-- width=92 height=174 -->
<path id="gl516" d="M 45 10 C 29 15 20 24 17 37 C 14 52 21 62 43 72 C 55 78 58 81 60 86 C 64 96 58 105 47 105 C 39 105 33 100 28 91 C 27 88 26 84 25 84 C 21 75 12 78 12 87 C 12 91 14 103 15 106 C 17 112 25 117 38 118 C 67 124 92 96 79 72 C 76 66 70 61 58 55 C 45 49 43 48 40 44 C 30 34 39 21 53 25 C 57 26 61 30 64 35 C 69 45 76 46 79 39 C 81 33 75 16 70 13 C 65 10 51 9 45 10 z" fill="black"/><!-- width=97 height=133 -->
<path id="gl0" d="M 44 10 C 42 12 37 17 34 22 C 31 25 31 25 31 30 C 30 35 29 37 25 37 C 19 38 15 41 14 45 C 13 50 16 52 24 52 C 27 52 29 52 30 53 C 31 54 31 52 31 90 C 30 115 30 119 31 123 C 36 139 48 147 64 141 C 79 135 82 133 83 129 C 84 125 82 122 79 121 C 77 120 77 120 71 121 C 62 125 58 124 55 119 C 53 115 52 112 52 96 C 52 88 52 76 52 69 C 52 62 52 56 52 55 C 52 51 57 51 66 52 C 76 54 82 50 81 43 C 80 37 76 35 64 37 C 53 39 51 37 53 26 C 55 16 54 13 52 10 C 51 9 46 9 44 10 z" fill="black"/><!-- width=93 height=156 -->
<path id="gl3095" d="M 36 42 C 22 42 21 43 21 48 C 21 50 22 52 27 54 C 34 58 37 61 44 79 C 46 85 49 91 50 94 C 51 96 53 102 55 106 C 56 111 58 117 60 120 C 61 122 63 127 64 130 C 68 142 70 147 73 154 C 75 159 77 165 79 169 C 86 189 88 191 93 192 C 99 192 99 192 109 166 C 110 163 112 159 113 156 C 114 154 115 149 117 147 C 118 144 120 138 121 135 C 123 132 124 126 126 123 C 127 121 129 115 130 111 C 132 107 135 101 136 97 C 150 63 153 58 161 54 C 166 52 168 51 168 48 C 168 42 166 42 144 42 C 124 42 123 42 121 44 C 117 47 120 52 126 54 C 135 57 135 59 124 88 C 122 93 120 99 119 101 C 118 103 117 108 115 111 C 112 119 108 130 105 137 C 104 141 103 143 101 145 C 100 146 99 147 99 148 C 97 147 97 145 96 144 C 94 141 93 138 93 136 C 92 134 90 129 88 124 C 84 116 82 111 78 99 C 76 96 75 90 73 87 C 72 84 70 79 69 75 C 67 72 66 68 66 66 C 63 59 63 57 69 54 C 76 50 76 46 72 43 C 69 42 56 41 36 42 z" fill="black"/><!-- width=181 height=206 -->
<path id="gl1" d="M 60 16 C 32 23 14 55 20 86 C 25 114 57 132 81 120 C 94 114 104 105 103 99 C 102 91 96 90 87 97 C 76 106 61 105 49 94 C 44 88 39 76 40 69 C 40 64 42 63 55 64 C 63 65 67 64 76 64 C 82 63 88 63 90 63 C 104 63 108 52 100 37 C 92 21 75 12 60 16 M 71 32 C 78 36 82 45 78 49 C 76 51 72 52 65 51 C 63 51 57 51 53 52 C 51 52 49 52 46 52 C 46 52 45 51 45 51 C 41 47 45 39 53 34 C 58 30 66 29 71 32 z" fill="black"/><!-- width=116 height=138 -->
<path id="gl2" d="M 79 10 C 75 12 69 14 63 18 C 55 23 54 23 52 19 C 50 12 48 11 37 13 C 33 15 27 16 25 16 C 18 17 15 20 15 24 C 15 28 19 31 24 31 C 26 31 30 35 30 37 C 30 52 30 96 30 97 C 28 100 27 102 21 103 C 18 103 16 104 16 104 C 15 104 13 108 13 111 C 13 115 18 118 23 117 C 33 116 42 116 50 117 C 60 117 62 117 64 115 C 69 111 66 106 58 103 C 54 101 53 100 52 98 C 52 95 52 40 52 39 C 54 36 57 34 62 33 C 72 28 80 28 85 33 C 91 37 92 39 92 68 C 92 100 92 100 84 103 C 78 105 75 108 76 111 C 76 114 76 114 79 116 C 82 117 83 117 94 117 C 103 116 109 117 114 117 C 117 117 119 117 121 118 C 123 117 124 117 125 116 C 126 115 127 115 128 114 C 128 113 128 112 128 111 C 129 106 127 105 121 103 C 114 100 114 103 114 67 C 114 56 114 46 114 36 C 114 34 113 33 113 32 C 109 20 102 14 92 12 C 87 10 83 10 79 10 z" fill="black"/><!-- width=141 height=130 -->
<path id="gl257" d="M 31 9 C 28 10 24 10 21 10 C 14 10 10 12 10 16 C 9 21 12 24 18 25 C 22 26 23 27 24 30 C 25 31 25 44 25 60 C 24 93 25 96 31 105 C 40 117 62 118 75 108 C 78 106 82 103 84 103 C 85 103 87 105 87 108 C 89 114 91 115 101 112 C 103 112 109 111 113 110 C 123 109 126 106 126 102 C 127 98 124 96 117 95 C 110 94 109 93 108 88 C 108 79 109 19 110 19 C 111 18 109 12 108 10 C 106 9 103 8 97 9 C 94 9 88 10 82 10 C 73 10 71 11 69 14 C 66 19 70 24 78 25 C 87 26 87 25 87 60 C 87 67 87 76 87 84 C 87 85 86 86 85 87 C 84 89 83 90 79 92 C 63 100 51 97 48 85 C 46 81 46 38 48 24 C 48 9 46 7 31 9 z" fill="black"/><!-- width=136 height=128 -->
<path id="gl6" d="M 46 10 C 20 13 7 43 24 60 C 30 65 31 66 44 72 C 58 79 61 82 61 91 C 61 102 51 108 40 103 C 35 101 32 97 28 91 C 24 81 24 81 21 79 C 19 78 18 78 17 78 C 11 81 11 85 15 104 C 16 110 21 114 33 117 C 62 124 89 101 81 76 C 77 66 71 60 55 54 C 43 48 39 45 37 40 C 33 32 40 22 50 24 C 55 24 60 28 64 34 C 66 40 70 43 73 43 C 79 42 81 37 77 25 C 73 14 72 12 61 10 C 55 9 52 9 46 10 z" fill="black"/><!-- width=96 height=132 -->
<path id="gl5141" d="M 30 42 C 29 42 28 43 27 43 C 25 43 23 46 23 48 C 23 51 25 52 29 55 C 38 58 39 60 54 99 C 56 105 59 112 60 114 C 61 119 66 130 72 146 C 77 160 80 168 85 180 C 90 192 94 195 99 192 C 102 190 104 186 117 152 C 118 149 120 142 122 138 C 124 133 128 123 131 116 C 153 61 154 58 165 54 C 171 52 172 46 167 43 C 164 42 128 42 124 43 C 121 45 121 48 122 50 C 123 52 124 52 130 55 C 137 58 136 60 120 103 C 111 129 109 134 105 142 C 103 146 102 148 100 146 C 98 145 93 132 84 109 C 63 55 64 58 72 54 C 79 51 79 45 72 43 C 69 42 31 42 30 42 z" fill="black"/><!-- width=185 height=207 -->
<path id="gl3" d="M 38 8 C 34 9 30 12 28 15 C 25 19 25 27 27 31 C 37 49 61 37 55 18 C 53 12 46 7 38 8 M 45 61 C 39 63 28 66 25 66 C 18 67 15 69 14 74 C 13 78 15 80 24 82 C 30 84 30 82 30 116 C 30 150 30 150 25 153 C 24 153 22 153 21 154 C 19 154 15 156 13 157 C 12 160 12 162 15 165 C 16 166 17 167 18 168 C 20 168 22 168 24 168 C 31 167 50 167 57 168 C 63 168 65 168 68 165 C 73 160 67 153 58 153 C 57 153 54 151 53 148 C 52 146 52 91 53 75 C 54 69 53 67 53 66 C 52 63 48 60 45 61 z" fill="black"/><!-- width=81 height=202 -->
<path id="gl262" d="M 78 24 C 76 25 74 27 70 30 C 63 38 60 39 59 33 C 58 24 56 23 43 26 C 39 27 34 28 32 28 C 28 29 27 29 25 31 C 20 36 23 43 30 44 C 33 44 37 46 37 48 C 39 50 38 109 37 111 C 36 113 33 115 30 115 C 27 116 22 118 22 120 C 22 121 22 122 22 123 C 22 124 22 125 24 127 C 25 128 26 129 27 130 C 28 130 30 130 31 130 C 34 130 39 129 42 129 C 48 128 50 128 59 129 C 74 131 76 130 78 126 C 82 121 76 115 67 115 C 64 115 60 112 60 110 C 60 109 59 97 59 83 C 59 75 59 67 59 58 C 60 57 60 56 61 55 C 66 47 72 45 78 48 C 86 52 89 53 94 49 C 100 45 102 34 97 28 C 92 23 84 21 78 24 z" fill="black"/><!-- width=110 height=142 -->
<path id="gl34324" d="M 19 19 C 4 33 4 48 14 62 C 24 72 24 76 14 81 C 9 91 9 91 14 100 C 24 110 24 110 14 115 C 4 124 4 144 19 158 C 28 163 28 163 19 168 C 14 168 24 168 48 168 C 67 168 76 168 76 168 C 67 163 72 158 81 148 C 115 124 96 86 57 91 C 24 91 19 81 48 76 C 72 72 91 52 86 38 C 86 33 86 28 91 24 C 96 24 100 19 100 14 C 100 0 28 4 19 19 M 57 24 C 72 38 67 62 48 62 C 33 62 24 33 38 24 C 43 14 43 14 57 24 M 76 120 C 86 129 72 144 57 144 C 38 148 28 139 28 124 C 28 110 67 100 76 120 z" fill="black"/><!-- width=110 height=177 -->
<path id="gl4" d="M 54 12 C 36 15 19 31 14 51 C 7 76 15 98 34 112 C 47 121 65 124 80 118 C 93 113 103 103 109 88 C 112 81 112 78 112 66 C 113 54 112 51 109 43 C 100 23 82 12 61 12 C 58 12 55 12 54 12 M 69 28 C 76 32 84 42 87 53 C 88 58 88 80 87 85 C 82 109 58 114 44 94 C 36 82 34 60 38 46 C 41 39 42 37 45 34 C 52 27 61 24 69 28 z" fill="black"/><!-- width=125 height=134 -->
<path id="gl34325" d="M 38 4 C 37 4 36 6 36 7 C 35 9 35 10 32 10 C 28 9 4 9 4 9 C 2 10 2 12 3 13 C 3 15 4 15 18 15 C 41 15 38 15 42 11 C 46 7 46 7 44 5 C 42 3 40 3 38 4 z" fill="black"/><!-- width=54 height=22 -->
<path id="gl1029" d="M 51 11 C 28 16 15 33 16 55 C 16 74 26 84 53 97 C 66 103 73 108 76 112 C 85 125 81 145 67 151 C 51 158 34 150 26 130 C 22 120 20 118 16 118 C 11 118 8 123 9 129 C 10 135 15 153 15 155 C 19 166 54 172 73 165 C 93 157 105 139 103 118 C 103 99 93 87 68 76 C 49 67 43 63 39 56 C 33 44 40 29 52 26 C 66 22 79 30 82 45 C 84 51 89 55 93 54 C 97 51 99 46 97 40 C 97 39 96 34 96 30 C 93 16 92 15 80 12 C 73 10 56 10 51 11 z" fill="black"/><!-- width=117 height=181 -->
<path id="gl773" d="M 37 12 C 24 15 22 16 22 21 C 22 23 24 25 28 27 C 35 31 34 24 35 97 C 35 118 35 139 35 160 C 36 161 36 162 36 163 C 41 172 68 177 86 172 C 128 162 145 108 115 79 C 102 67 88 63 70 68 C 58 72 58 73 58 40 C 58 6 58 6 37 12 M 80 85 C 87 87 95 93 99 100 C 103 107 103 111 103 122 C 103 136 100 145 94 151 C 84 163 62 161 60 147 C 58 142 58 92 60 90 C 62 84 69 83 80 85 z" fill="black"/><!-- width=142 height=202 -->
<path id="gl3335" d="M 26 31 C 23 31 21 34 21 37 C 22 40 22 40 27 42 C 36 46 37 50 43 70 C 63 130 76 172 78 175 C 82 182 88 182 92 175 C 93 174 99 155 106 134 C 120 93 122 87 124 87 C 127 87 127 86 149 146 C 156 163 160 174 161 176 C 164 181 171 181 174 177 C 175 174 178 163 187 136 C 206 73 210 60 214 53 C 216 47 217 46 224 43 C 229 40 231 38 230 35 C 229 31 228 30 210 30 C 187 30 183 30 183 36 C 183 39 184 40 189 42 C 196 46 196 47 192 67 C 183 102 175 127 172 129 C 169 130 168 126 157 96 C 136 38 136 38 133 36 C 130 33 125 34 123 39 C 121 41 117 54 110 76 C 93 130 92 133 88 126 C 85 120 64 55 64 50 C 64 46 66 44 70 42 C 78 40 78 33 71 31 C 68 30 28 30 26 31 z" fill="black"/><!-- width=245 height=195 -->
<path id="gl4885" d="M 31 12 C 27 13 25 15 25 18 C 25 21 26 21 32 24 C 42 29 42 27 42 88 C 42 104 42 120 42 136 C 41 138 40 139 40 141 C 39 146 36 148 31 150 C 22 153 20 158 27 161 C 30 163 123 163 126 161 C 130 159 131 157 134 145 C 138 130 137 124 132 123 C 129 123 127 124 123 132 C 116 146 112 148 90 148 C 67 148 66 147 66 114 C 66 92 66 92 78 91 C 85 91 94 92 97 94 C 100 95 100 96 103 99 C 106 106 108 108 112 106 C 116 105 116 103 116 84 C 115 65 115 63 112 61 C 108 60 106 61 103 69 C 99 75 97 76 84 76 C 66 76 66 77 66 51 C 66 25 65 26 85 26 C 105 26 108 28 114 40 C 116 46 118 48 121 48 C 126 48 127 45 126 31 C 125 18 124 15 120 13 C 118 12 36 11 31 12 z" fill="black"/><!-- width=150 height=177 -->
<path id="gl1537" d="M 79 11 C 76 12 75 15 65 40 C 57 63 35 118 32 127 C 26 142 23 146 16 150 C 10 152 9 154 9 157 C 9 162 10 162 33 162 C 56 162 57 162 57 156 C 57 153 56 152 49 149 C 44 147 43 144 46 134 C 52 116 55 110 58 109 C 61 108 88 108 92 108 C 97 109 99 113 105 133 C 110 145 109 147 103 150 C 97 153 96 156 99 160 C 102 162 104 163 129 162 C 150 162 151 162 153 159 C 155 154 153 151 145 149 C 138 147 135 142 128 123 C 126 117 123 111 123 109 C 122 106 120 101 118 96 C 117 91 114 85 114 83 C 112 81 110 73 108 67 C 106 61 102 50 98 42 C 95 34 92 25 91 22 C 87 12 84 9 79 11 M 78 58 C 79 60 82 68 86 79 C 90 91 89 91 75 91 C 62 91 61 91 66 78 C 72 58 75 55 78 58 z" fill="black"/><!-- width=168 height=204 -->
<path id="gl1029" d="M 51 11 C 28 16 15 33 16 55 C 16 74 26 84 53 97 C 66 103 73 108 76 112 C 85 125 81 145 67 151 C 51 158 34 150 26 130 C 22 120 20 118 16 118 C 11 118 8 123 9 129 C 10 135 15 153 15 155 C 19 166 54 172 73 165 C 93 157 105 139 103 118 C 103 99 93 87 68 76 C 49 67 43 63 39 56 C 33 44 40 29 52 26 C 66 22 79 30 82 45 C 84 51 89 55 93 54 C 97 51 99 46 97 40 C 97 39 96 34 96 30 C 93 16 92 15 80 12 C 73 10 56 10 51 11 z" fill="black"/><!-- width=117 height=181 -->
<path id="gl1281" d="M 19 42 C 16 44 15 45 15 57 C 13 78 14 82 19 82 C 22 82 24 81 27 73 C 33 62 37 60 52 60 C 60 60 61 60 62 61 C 66 63 66 63 65 119 C 65 137 65 154 65 172 C 64 173 64 174 64 175 C 62 180 60 181 55 183 C 49 184 47 186 46 187 C 43 192 46 195 52 196 C 60 197 106 196 108 195 C 111 193 112 190 110 187 C 109 186 107 184 102 183 C 96 181 93 179 91 174 C 90 171 89 69 90 64 C 92 60 93 60 103 60 C 119 60 125 63 129 73 C 131 82 136 85 139 81 C 142 79 142 76 141 61 C 140 46 140 45 137 43 C 135 41 133 41 128 43 C 126 43 125 44 123 45 C 108 45 93 45 77 45 C 61 45 46 45 31 45 C 30 44 28 43 27 43 C 21 41 21 41 19 42 z" fill="black"/><!-- width=156 height=210 -->
<path id="gl1284" d="M 51 8 C 49 8 46 9 43 10 C 41 11 35 13 30 13 C 19 16 18 16 15 19 C 13 21 13 25 15 27 C 16 29 19 30 26 30 C 33 30 36 31 36 34 C 36 34 36 58 36 85 C 36 134 36 136 35 137 C 33 140 30 141 25 141 C 18 141 14 143 13 148 C 13 150 13 151 16 153 C 19 156 21 157 30 156 C 39 154 53 154 64 156 C 67 156 70 156 72 157 C 73 156 74 156 75 156 C 79 154 80 151 80 148 C 80 144 76 141 70 141 C 63 141 59 139 58 134 C 58 132 58 31 59 15 C 59 10 56 7 51 8 z" fill="black"/><!-- width=92 height=174 -->
<path id="gl6" d="M 46 10 C 20 13 7 43 24 60 C 30 65 31 66 44 72 C 58 79 61 82 61 91 C 61 102 51 108 40 103 C 35 101 32 97 28 91 C 24 81 24 81 21 79 C 19 78 18 78 17 78 C 11 81 11 85 15 104 C 16 110 21 114 33 117 C 62 124 89 101 81 76 C 77 66 71 60 55 54 C 43 48 39 45 37 40 C 33 32 40 22 50 24 C 55 24 60 28 64 34 C 66 40 70 43 73 43 C 79 42 81 37 77 25 C 73 14 72 12 61 10 C 55 9 52 9 46 10 z" fill="black"/><!-- width=96 height=132 -->
<path id="gl0" d="M 44 10 C 42 12 37 17 34 22 C 31 25 31 25 31 30 C 30 35 29 37 25 37 C 19 38 15 41 14 45 C 13 50 16 52 24 52 C 27 52 29 52 30 53 C 31 54 31 52 31 90 C 30 115 30 119 31 123 C 36 139 48 147 64 141 C 79 135 82 133 83 129 C 84 125 82 122 79 121 C 77 120 77 120 71 121 C 62 125 58 124 55 119 C 53 115 52 112 52 96 C 52 88 52 76 52 69 C 52 62 52 56 52 55 C 52 51 57 51 66 52 C 76 54 82 50 81 43 C 80 37 76 35 64 37 C 53 39 51 37 53 26 C 55 16 54 13 52 10 C 51 9 46 9 44 10 z" fill="black"/><!-- width=93 height=156 -->
<path id="gl3095" d="M 36 42 C 22 42 21 43 21 48 C 21 50 22 52 27 54 C 34 58 37 61 44 79 C 46 85 49 91 50 94 C 51 96 53 102 55 106 C 56 111 58 117 60 120 C 61 122 63 127 64 130 C 68 142 70 147 73 154 C 75 159 77 165 79 169 C 86 189 88 191 93 192 C 99 192 99 192 109 166 C 110 163 112 159 113 156 C 114 154 115 149 117 147 C 118 144 120 138 121 135 C 123 132 124 126 126 123 C 127 121 129 115 130 111 C 132 107 135 101 136 97 C 150 63 153 58 161 54 C 166 52 168 51 168 48 C 168 42 166 42 144 42 C 124 42 123 42 121 44 C 117 47 120 52 126 54 C 135 57 135 59 124 88 C 122 93 120 99 119 101 C 118 103 117 108 115 111 C 112 119 108 130 105 137 C 104 141 103 143 101 145 C 100 146 99 147 99 148 C 97 147 97 145 96 144 C 94 141 93 138 93 136 C 92 134 90 129 88 124 C 84 116 82 111 78 99 C 76 96 75 90 73 87 C 72 84 70 79 69 75 C 67 72 66 68 66 66 C 63 59 63 57 69 54 C 76 50 76 46 72 43 C 69 42 56 41 36 42 z" fill="black"/><!-- width=181 height=206 -->
<path id="gl1" d="M 60 16 C 32 23 14 55 20 86 C 25 114 57 132 81 120 C 94 114 104 105 103 99 C 102 91 96 90 87 97 C 76 106 61 105 49 94 C 44 88 39 76 40 69 C 40 64 42 63 55 64 C 63 65 67 64 76 64 C 82 63 88 63 90 63 C 104 63 108 52 100 37 C 92 21 75 12 60 16 M 71 32 C 78 36 82 45 78 49 C 76 51 72 52 65 51 C 63 51 57 51 53 52 C 51 52 49 52 46 52 C 46 52 45 51 45 51 C 41 47 45 39 53 34 C 58 30 66 29 71 32 z" fill="black"/><!-- width=116 height=138 -->
<path id="gl2" d="M 79 10 C 75 12 69 14 63 18 C 55 23 54 23 52 19 C 50 12 48 11 37 13 C 33 15 27 16 25 16 C 18 17 15 20 15 24 C 15 28 19 31 24 31 C 26 31 30 35 30 37 C 30 52 30 96 30 97 C 28 100 27 102 21 103 C 18 103 16 104 16 104 C 15 104 13 108 13 111 C 13 115 18 118 23 117 C 33 116 42 116 50 117 C 60 117 62 117 64 115 C 69 111 66 106 58 103 C 54 101 53 100 52 98 C 52 95 52 40 52 39 C 54 36 57 34 62 33 C 72 28 80 28 85 33 C 91 37 92 39 92 68 C 92 100 92 100 84 103 C 78 105 75 108 76 111 C 76 114 76 114 79 116 C 82 117 83 117 94 117 C 103 116 109 117 114 117 C 117 117 119 117 121 118 C 123 117 124 117 125 116 C 126 115 127 115 128 114 C 128 113 128 112 128 111 C 129 106 127 105 121 103 C 114 100 114 103 114 67 C 114 56 114 46 114 36 C 114 34 113 33 113 32 C 109 20 102 14 92 12 C 87 10 83 10 79 10 z" fill="black"/><!-- width=141 height=130 -->
<path id="gl257" d="M 31 9 C 28 10 24 10 21 10 C 14 10 10 12 10 16 C 9 21 12 24 18 25 C 22 26 23 27 24 30 C 25 31 25 44 25 60 C 24 93 25 96 31 105 C 40 117 62 118 75 108 C 78 106 82 103 84 103 C 85 103 87 105 87 108 C 89 114 91 115 101 112 C 103 112 109 111 113 110 C 123 109 126 106 126 102 C 127 98 124 96 117 95 C 110 94 109 93 108 88 C 108 79 109 19 110 19 C 111 18 109 12 108 10 C 106 9 103 8 97 9 C 94 9 88 10 82 10 C 73 10 71 11 69 14 C 66 19 70 24 78 25 C 87 26 87 25 87 60 C 87 67 87 76 87 84 C 87 85 86 86 85 87 C 84 89 83 90 79 92 C 63 100 51 97 48 85 C 46 81 46 38 48 24 C 48 9 46 7 31 9 z" fill="black"/><!-- width=136 height=128 -->
<path id="gl6" d="M 46 10 C 20 13 7 43 24 60 C 30 65 31 66 44 72 C 58 79 61 82 61 91 C 61 102 51 108 40 103 C 35 101 32 97 28 91 C 24 81 24 81 21 79 C 19 78 18 78 17 78 C 11 81 11 85 15 104 C 16 110 21 114 33 117 C 62 124 89 101 81 76 C 77 66 71 60 55 54 C 43 48 39 45 37 40 C 33 32 40 22 50 24 C 55 24 60 28 64 34 C 66 40 70 43 73 43 C 79 42 81 37 77 25 C 73 14 72 12 61 10 C 55 9 52 9 46 10 z" fill="black"/><!-- width=96 height=132 -->
<path id="gl14592" d="M 27 42 C 24 42 21 45 21 47 C 21 50 24 52 28 54 C 37 57 39 60 51 92 C 54 99 57 108 61 118 C 63 122 68 136 73 148 C 77 160 82 173 83 175 C 84 178 85 182 87 184 C 89 190 91 192 95 192 C 100 192 102 190 107 175 C 114 157 124 132 126 127 C 127 124 128 121 129 119 C 129 117 131 114 132 110 C 133 107 137 99 139 93 C 153 59 154 58 164 54 C 171 51 172 49 170 45 C 169 42 168 42 145 42 C 124 42 122 42 121 46 C 120 49 122 52 128 54 C 135 56 136 60 130 75 C 129 78 127 85 124 91 C 118 108 115 115 112 124 C 110 129 108 133 108 134 C 108 135 103 146 102 147 C 100 149 95 139 83 108 C 81 102 77 92 73 81 C 64 60 64 57 70 54 C 75 51 77 50 77 47 C 77 45 75 43 72 42 C 69 41 30 41 27 42 z" fill="black"/><!-- width=184 height=205 -->
<path id="gl3" d="M 38 8 C 34 9 30 12 28 15 C 25 19 25 27 27 31 C 37 49 61 37 55 18 C 53 12 46 7 38 8 M 45 61 C 39 63 28 66 25 66 C 18 67 15 69 14 74 C 13 78 15 80 24 82 C 30 84 30 82 30 116 C 30 150 30 150 25 153 C 24 153 22 153 21 154 C 19 154 15 156 13 157 C 12 160 12 162 15 165 C 16 166 17 167 18 168 C 20 168 22 168 24 168 C 31 167 50 167 57 168 C 63 168 65 168 68 165 C 73 160 67 153 58 153 C 57 153 54 151 53 148 C 52 146 52 91 53 75 C 54 69 53 67 53 66 C 52 63 48 60 45 61 z" fill="black"/><!-- width=81 height=202 -->
<path id="gl262" d="M 78 24 C 76 25 74 27 70 30 C 63 38 60 39 59 33 C 58 24 56 23 43 26 C 39 27 34 28 32 28 C 28 29 27 29 25 31 C 20 36 23 43 30 44 C 33 44 37 46 37 48 C 39 50 38 109 37 111 C 36 113 33 115 30 115 C 27 116 22 118 22 120 C 22 121 22 122 22 123 C 22 124 22 125 24 127 C 25 128 26 129 27 130 C 28 130 30 130 31 130 C 34 130 39 129 42 129 C 48 128 50 128 59 129 C 74 131 76 130 78 126 C 82 121 76 115 67 115 C 64 115 60 112 60 110 C 60 109 59 97 59 83 C 59 75 59 67 59 58 C 60 57 60 56 61 55 C 66 47 72 45 78 48 C 86 52 89 53 94 49 C 100 45 102 34 97 28 C 92 23 84 21 78 24 z" fill="black"/><!-- width=110 height=142 -->
<path id="gl34326" d="M 19 19 C 4 33 4 48 14 67 C 24 81 24 81 14 86 C 4 91 4 91 14 100 C 24 105 24 110 14 115 C 9 124 4 129 9 139 C 9 144 9 148 9 153 C 24 153 38 153 52 153 C 81 153 91 153 91 148 C 100 96 96 86 57 91 C 33 91 28 81 52 76 C 72 72 91 52 86 38 C 86 33 86 28 91 24 C 105 14 100 9 62 9 C 33 9 28 9 19 19 M 57 24 C 67 33 67 57 57 62 C 43 72 33 57 33 38 C 33 28 38 19 48 19 C 48 19 52 19 57 24 M 72 110 C 81 115 81 139 72 144 C 57 148 38 148 33 139 C 19 124 33 105 57 110 C 62 110 72 110 72 110 z" fill="black"/><!-- width=110 height=163 -->
<path id="gl771" d="M 57 13 C 37 16 19 33 15 53 C 13 62 13 77 15 84 C 22 107 43 123 67 121 C 89 120 108 103 113 81 C 114 74 114 59 113 52 C 108 27 82 9 57 13 M 71 29 C 84 35 90 49 90 70 C 90 94 81 108 66 108 C 51 108 40 93 37 69 C 34 40 52 19 71 29 z" fill="black"/><!-- width=128 height=134 -->
<path id="gl1029" d="M 51 11 C 28 16 15 33 16 55 C 16 74 26 84 53 97 C 66 103 73 108 76 112 C 85 125 81 145 67 151 C 51 158 34 150 26 130 C 22 120 20 118 16 118 C 11 118 8 123 9 129 C 10 135 15 153 15 155 C 19 166 54 172 73 165 C 93 157 105 139 103 118 C 103 99 93 87 68 76 C 49 67 43 63 39 56 C 33 44 40 29 52 26 C 66 22 79 30 82 45 C 84 51 89 55 93 54 C 97 51 99 46 97 40 C 97 39 96 34 96 30 C 93 16 92 15 80 12 C 73 10 56 10 51 11 z" fill="black"/><!-- width=117 height=181 -->
<path id="gl773" d="M 37 12 C 24 15 22 16 22 21 C 22 23 24 25 28 27 C 35 31 34 24 35 97 C 35 118 35 139 35 160 C 36 161 36 162 36 163 C 41 172 68 177 86 172 C 128 162 145 108 115 79 C 102 67 88 63 70 68 C 58 72 58 73 58 40 C 58 6 58 6 37 12 M 80 85 C 87 87 95 93 99 100 C 103 107 103 111 103 122 C 103 136 100 145 94 151 C 84 163 62 161 60 147 C 58 142 58 92 60 90 C 62 84 69 83 80 85 z" fill="black"/><!-- width=142 height=202 -->
<path id="gl34327" d="M 4 9 C 4 14 4 19 9 19 C 24 28 48 81 48 100 C 48 124 19 158 9 153 C 4 148 0 153 4 153 C 9 163 67 163 72 153 C 76 153 72 148 62 153 C 57 153 48 153 48 153 C 43 148 96 28 105 24 C 120 14 115 4 91 4 C 72 4 62 14 76 19 C 81 24 76 33 67 57 C 67 62 67 67 62 72 C 62 67 57 62 57 62 C 48 43 43 24 52 19 C 52 19 52 14 52 9 C 48 4 9 4 4 9 z" fill="black"/><!-- width=120 height=168 -->
<path id="gl2311" d="M 27 30 C 24 30 22 31 21 33 C 19 37 21 39 27 42 C 36 46 36 45 58 116 C 59 120 61 124 61 127 C 62 129 65 139 68 148 C 78 179 79 180 84 180 C 90 180 90 180 104 138 C 120 90 120 90 122 87 C 123 87 124 85 124 85 C 126 85 128 91 131 99 C 132 102 134 108 136 111 C 137 115 139 121 141 124 C 142 127 144 134 145 138 C 147 142 149 148 150 150 C 159 176 161 180 166 180 C 171 180 173 177 178 162 C 183 144 186 136 188 127 C 189 123 192 115 193 111 C 195 105 197 99 198 96 C 199 93 201 86 203 81 C 213 48 214 45 224 42 C 228 40 230 36 228 32 C 226 29 226 29 208 30 C 189 30 186 30 184 32 C 180 36 182 39 189 42 C 194 44 195 46 194 51 C 193 60 179 113 173 128 C 172 129 171 129 169 128 C 168 127 163 117 157 98 C 156 94 153 88 152 84 C 150 79 148 73 147 70 C 146 68 144 62 142 58 C 141 54 139 48 138 45 C 134 35 131 32 126 34 C 123 35 121 39 105 91 C 96 117 92 129 91 129 C 88 129 87 125 78 97 C 76 92 73 83 71 77 C 66 61 63 50 63 48 C 63 45 65 43 69 42 C 76 39 78 33 72 30 C 70 30 30 29 27 30 z" fill="black"/><!-- width=243 height=195 -->
<path id="gl4111" d="M 25 19 C 20 20 18 20 16 21 C 11 25 14 30 22 32 C 29 34 33 39 34 46 C 36 52 36 109 35 126 C 34 151 33 156 24 158 C 18 160 15 164 18 168 C 19 169 19 169 20 170 C 23 170 27 170 30 171 C 55 172 67 171 70 168 C 73 165 71 160 63 158 C 51 154 50 152 50 100 C 50 69 50 67 53 67 C 55 66 57 67 97 117 C 137 166 138 168 141 169 C 145 172 149 171 151 167 C 152 165 152 161 153 106 C 153 33 152 36 164 31 C 171 28 172 24 166 21 C 164 19 134 19 125 19 C 114 21 113 28 124 32 C 136 36 137 37 137 84 C 137 118 137 120 134 120 C 132 120 127 114 98 79 C 48 19 51 23 48 21 C 44 19 38 19 25 19 z" fill="black"/><!-- width=184 height=186 -->
<path id="gl773" d="M 37 12 C 24 15 22 16 22 21 C 22 23 24 25 28 27 C 35 31 34 24 35 97 C 35 118 35 139 35 160 C 36 161 36 162 36 163 C 41 172 68 177 86 172 C 128 162 145 108 115 79 C 102 67 88 63 70 68 C 58 72 58 73 58 40 C 58 6 58 6 37 12 M 80 85 C 87 87 95 93 99 100 C 103 107 103 111 103 122 C 103 136 100 145 94 151 C 84 163 62 161 60 147 C 58 142 58 92 60 90 C 62 84 69 83 80 85 z" fill="black"/><!-- width=142 height=202 -->
<path id="gl4885" d="M 31 12 C 27 13 25 15 25 18 C 25 21 26 21 32 24 C 42 29 42 27 42 88 C 42 104 42 120 42 136 C 41 138 40 139 40 141 C 39 146 36 148 31 150 C 22 153 20 158 27 161 C 30 163 123 163 126 161 C 130 159 131 157 134 145 C 138 130 137 124 132 123 C 129 123 127 124 123 132 C 116 146 112 148 90 148 C 67 148 66 147 66 114 C 66 92 66 92 78 91 C 85 91 94 92 97 94 C 100 95 100 96 103 99 C 106 106 108 108 112 106 C 116 105 116 103 116 84 C 115 65 115 63 112 61 C 108 60 106 61 103 69 C 99 75 97 76 84 76 C 66 76 66 77 66 51 C 66 25 65 26 85 26 C 105 26 108 28 114 40 C 116 46 118 48 121 48 C 126 48 127 45 126 31 C 125 18 124 15 120 13 C 118 12 36 11 31 12 z" fill="black"/><!-- width=150 height=177 -->
<path id="gl1541" d="M 45 9 C 33 11 25 16 15 29 C 10 36 9 37 9 41 C 9 45 11 48 15 48 C 19 49 21 48 25 41 C 34 31 38 28 47 28 C 62 28 70 37 70 54 C 70 65 64 78 53 93 C 42 107 22 132 16 137 C 7 145 6 149 7 153 C 9 156 12 157 20 157 C 30 156 52 155 71 156 C 94 157 94 157 98 144 C 103 128 103 127 101 124 C 97 118 91 120 85 129 C 82 133 79 134 58 135 C 35 135 35 135 55 114 C 78 91 89 75 92 60 C 97 36 85 16 64 10 C 60 9 49 8 45 9 z" fill="black"/><!-- width=117 height=178 -->
<path id="gl2" d="M 79 10 C 75 12 69 14 63 18 C 55 23 54 23 52 19 C 50 12 48 11 37 13 C 33 15 27 16 25 16 C 18 17 15 20 15 24 C 15 28 19 31 24 31 C 26 31 30 35 30 37 C 30 52 30 96 30 97 C 28 100 27 102 21 103 C 18 103 16 104 16 104 C 15 104 13 108 13 111 C 13 115 18 118 23 117 C 33 116 42 116 50 117 C 60 117 62 117 64 115 C 69 111 66 106 58 103 C 54 101 53 100 52 98 C 52 95 52 40 52 39 C 54 36 57 34 62 33 C 72 28 80 28 85 33 C 91 37 92 39 92 68 C 92 100 92 100 84 103 C 78 105 75 108 76 111 C 76 114 76 114 79 116 C 82 117 83 117 94 117 C 103 116 109 117 114 117 C 117 117 119 117 121 118 C 123 117 124 117 125 116 C 126 115 127 115 128 114 C 128 113 128 112 128 111 C 129 106 127 105 121 103 C 114 100 114 103 114 67 C 114 56 114 46 114 36 C 114 34 113 33 113 32 C 109 20 102 14 92 12 C 87 10 83 10 79 10 z" fill="black"/><!-- width=141 height=130 -->
<path id="gl259" d="M 82 13 C 71 16 69 16 67 19 C 65 22 67 25 73 28 C 81 30 81 31 81 50 C 81 55 81 59 81 63 C 80 64 79 64 79 65 C 78 67 77 67 70 67 C 44 69 25 81 15 101 C 1 130 15 164 45 173 C 53 176 59 175 70 169 C 77 166 78 166 82 170 C 85 174 87 174 99 171 C 117 166 118 166 118 161 C 118 158 117 156 112 155 C 108 154 106 153 105 150 C 105 149 104 123 104 83 C 104 46 103 16 103 15 C 102 9 98 9 82 13 M 72 84 C 76 85 79 88 80 91 C 81 94 81 144 80 147 C 79 152 67 157 58 154 C 48 153 39 142 36 129 C 34 119 36 105 40 97 C 45 85 60 79 72 84 z" fill="black"/><!-- width=138 height=214 -->
<path id="gl3091" d="M 18 20 C 12 23 13 29 21 31 C 30 34 33 38 34 47 C 35 52 34 139 34 144 C 33 151 31 153 25 157 C 17 160 15 163 18 166 C 19 169 23 170 45 169 C 69 169 69 169 70 165 C 71 162 69 159 63 157 C 51 154 51 152 49 118 C 49 87 49 69 52 67 C 54 65 59 71 83 100 C 87 105 92 111 94 114 C 96 116 102 124 108 130 C 129 156 138 167 140 168 C 145 171 150 169 151 164 C 151 162 152 145 152 110 C 152 37 152 36 162 32 C 172 28 172 22 163 19 C 157 18 121 19 119 21 C 113 24 115 29 124 31 C 136 35 136 37 136 84 C 136 125 136 125 122 108 C 118 104 114 99 112 97 C 110 94 106 88 102 84 C 51 23 50 22 45 20 C 40 19 21 19 18 20 z" fill="black"/><!-- width=183 height=184 -->
<path id="gl773" d="M 37 12 C 24 15 22 16 22 21 C 22 23 24 25 28 27 C 35 31 34 24 35 97 C 35 118 35 139 35 160 C 36 161 36 162 36 163 C 41 172 68 177 86 172 C 128 162 145 108 115 79 C 102 67 88 63 70 68 C 58 72 58 73 58 40 C 58 6 58 6 37 12 M 80 85 C 87 87 95 93 99 100 C 103 107 103 111 103 122 C 103 136 100 145 94 151 C 84 163 62 161 60 147 C 58 142 58 92 60 90 C 62 84 69 83 80 85 z" fill="black"/><!-- width=142 height=202 -->
<path id="gl3086" d="M 34 11 C 24 12 22 19 33 24 C 37 25 40 28 42 31 C 43 36 43 137 42 141 C 40 145 37 148 32 149 C 25 151 23 153 24 157 C 25 160 26 161 30 162 C 33 162 124 162 127 161 C 131 159 133 156 136 142 C 139 127 139 124 135 123 C 133 122 132 121 132 121 C 130 121 127 126 124 132 C 118 145 114 147 95 147 C 69 148 67 147 67 113 C 67 91 67 91 78 91 C 85 90 96 91 99 93 C 102 94 102 95 105 100 C 108 108 113 109 116 103 C 117 100 118 69 116 64 C 114 57 108 58 104 67 C 101 73 100 74 91 75 C 84 76 74 75 71 74 C 67 73 67 72 67 50 C 67 24 66 25 87 25 C 106 25 111 28 115 41 C 117 47 121 49 124 48 C 127 45 128 43 127 32 C 126 16 125 14 121 12 C 118 11 45 10 34 11 z" fill="black"/><!-- width=152 height=177 -->
<path id="gl1029" d="M 51 11 C 28 16 15 33 16 55 C 16 74 26 84 53 97 C 66 103 73 108 76 112 C 85 125 81 145 67 151 C 51 158 34 150 26 130 C 22 120 20 118 16 118 C 11 118 8 123 9 129 C 10 135 15 153 15 155 C 19 166 54 172 73 165 C 93 157 105 139 103 118 C 103 99 93 87 68 76 C 49 67 43 63 39 56 C 33 44 40 29 52 26 C 66 22 79 30 82 45 C 84 51 89 55 93 54 C 97 51 99 46 97 40 C 97 39 96 34 96 30 C 93 16 92 15 80 12 C 73 10 56 10 51 11 z" fill="black"/><!-- width=117 height=181 -->
<path id="gl260" d="M 72 10 C 34 17 13 61 33 93 C 46 116 74 123 94 110 C 110 99 117 90 111 85 C 107 81 102 82 96 88 C 79 104 54 93 49 68 C 45 46 55 27 72 26 C 79 25 83 27 91 33 C 97 38 103 37 107 31 C 110 27 111 21 108 17 C 103 10 87 7 72 10 z" fill="black"/><!-- width=124 height=133 -->
<path id="gl4" d="M 54 12 C 36 15 19 31 14 51 C 7 76 15 98 34 112 C 47 121 65 124 80 118 C 93 113 103 103 109 88 C 112 81 112 78 112 66 C 113 54 112 51 109 43 C 100 23 82 12 61 12 C 58 12 55 12 54 12 M 69 28 C 76 32 84 42 87 53 C 88 58 88 80 87 85 C 82 109 58 114 44 94 C 36 82 34 60 38 46 C 41 39 42 37 45 34 C 52 27 61 24 69 28 z" fill="black"/><!-- width=125 height=134 -->
<path id="gl262" d="M 78 24 C 76 25 74 27 70 30 C 63 38 60 39 59 33 C 58 24 56 23 43 26 C 39 27 34 28 32 28 C 28 29 27 29 25 31 C 20 36 23 43 30 44 C 33 44 37 46 37 48 C 39 50 38 109 37 111 C 36 113 33 115 30 115 C 27 116 22 118 22 120 C 22 121 22 122 22 123 C 22 124 22 125 24 127 C 25 128 26 129 27 130 C 28 130 30 130 31 130 C 34 130 39 129 42 129 C 48 128 50 128 59 129 C 74 131 76 130 78 126 C 82 121 76 115 67 115 C 64 115 60 112 60 110 C 60 109 59 97 59 83 C 59 75 59 67 59 58 C 60 57 60 56 61 55 C 66 47 72 45 78 48 C 86 52 89 53 94 49 C 100 45 102 34 97 28 C 92 23 84 21 78 24 z" fill="black"/><!-- width=110 height=142 -->
<path id="gl772" d="M 50 36 C 49 36 45 37 40 39 C 27 43 25 44 25 48 C 25 51 27 53 31 55 C 35 57 37 59 37 62 C 38 63 38 88 39 118 C 39 136 39 154 39 172 C 38 174 37 174 37 175 C 36 177 34 178 31 180 C 25 183 24 186 27 190 C 27 191 28 192 28 192 C 36 192 43 192 49 192 C 61 192 72 192 73 192 C 76 192 79 189 79 187 C 79 183 78 182 72 180 C 69 179 66 178 66 178 C 63 175 61 168 62 155 C 63 145 63 144 72 144 C 96 142 121 124 129 102 C 139 74 127 46 103 38 C 94 35 88 36 75 41 C 66 45 64 45 61 40 C 59 37 58 36 54 36 C 52 36 51 36 50 36 M 85 57 C 99 59 108 72 107 92 C 107 114 94 128 76 126 C 69 125 64 122 63 117 C 62 114 62 69 63 66 C 65 59 75 54 85 57 z" fill="black"/><!-- width=146 height=207 -->
<path id="gl5123" d="M 36 7 C 21 13 22 36 39 38 C 52 40 60 24 52 13 C 48 9 41 6 36 7 M 44 60 C 43 60 40 61 37 62 C 34 63 30 64 26 65 C 18 66 16 67 16 72 C 16 77 18 79 21 80 C 30 82 30 80 30 116 C 30 143 30 146 28 148 C 28 150 25 151 23 152 C 21 152 18 153 17 154 C 15 157 16 163 18 165 C 18 166 19 166 19 167 C 21 167 23 166 25 166 C 39 165 45 165 51 166 C 61 168 62 167 66 165 C 72 160 70 154 60 152 C 51 151 51 151 51 131 C 51 122 51 103 52 90 C 52 75 52 65 51 64 C 51 63 48 60 46 60 C 46 60 45 60 44 60 z" fill="black"/><!-- width=80 height=201 -->
<path id="gl4" d="M 54 12 C 36 15 19 31 14 51 C 7 76 15 98 34 112 C 47 121 65 124 80 118 C 93 113 103 103 109 88 C 112 81 112 78 112 66 C 113 54 112 51 109 43 C 100 23 82 12 61 12 C 58 12 55 12 54 12 M 69 28 C 76 32 84 42 87 53 C 88 58 88 80 87 85 C 82 109 58 114 44 94 C 36 82 34 60 38 46 C 41 39 42 37 45 34 C 52 27 61 24 69 28 z" fill="black"/><!-- width=125 height=134 -->
<path id="gl1282" d="M 24 9 C 17 9 15 10 13 12 C 11 15 13 19 19 21 C 29 24 31 27 31 40 C 31 60 27 119 25 131 C 24 142 22 144 15 147 C 10 150 9 151 9 154 C 9 160 12 160 38 160 C 56 160 57 160 59 159 C 64 155 62 149 55 148 C 46 145 43 142 42 130 C 42 127 42 123 42 121 C 42 121 43 111 43 102 C 44 71 45 61 47 61 C 48 61 52 67 53 71 C 54 73 55 75 55 75 C 56 76 57 78 58 80 C 58 82 61 87 63 91 C 65 96 69 105 72 112 C 76 123 78 127 84 141 C 89 151 90 151 92 154 C 94 156 95 156 97 156 C 101 155 103 153 108 142 C 114 130 119 118 124 105 C 129 96 135 83 140 72 C 141 69 142 67 142 67 C 142 66 148 58 148 58 C 150 58 151 69 151 102 C 152 144 152 144 141 148 C 133 151 133 159 142 160 C 148 160 181 160 187 160 C 197 159 198 150 189 148 C 176 144 177 148 175 67 C 174 25 174 24 184 21 C 191 19 193 16 191 12 C 190 9 188 9 172 9 C 151 9 154 6 139 39 C 137 44 132 56 127 64 C 124 73 118 85 115 91 C 107 109 105 112 103 112 C 100 112 100 114 79 69 C 51 9 53 12 48 10 C 46 9 37 8 24 9 z" fill="black"/><!-- width=208 height=177 -->
<path id="gl4" d="M 54 12 C 36 15 19 31 14 51 C 7 76 15 98 34 112 C 47 121 65 124 80 118 C 93 113 103 103 109 88 C 112 81 112 78 112 66 C 113 54 112 51 109 43 C 100 23 82 12 61 12 C 58 12 55 12 54 12 M 69 28 C 76 32 84 42 87 53 C 88 58 88 80 87 85 C 82 109 58 114 44 94 C 36 82 34 60 38 46 C 41 39 42 37 45 34 C 52 27 61 24 69 28 z" fill="black"/><!-- width=125 height=134 -->
<path id="gl4" d="M 54 12 C 36 15 19 31 14 51 C 7 76 15 98 34 112 C 47 121 65 124 80 118 C 93 113 103 103 109 88 C 112 81 112 78 112 66 C 113 54 112 51 109 43 C 100 23 82 12 61 12 C 58 12 55 12 54 12 M 69 28 C 76 32 84 42 87 53 C 88 58 88 80 87 85 C 82 109 58 114 44 94 C 36 82 34 60 38 46 C 41 39 42 37 45 34 C 52 27 61 24 69 28 z" fill="black"/><!-- width=125 height=134 -->
<path id="gl2" d="M 79 10 C 75 12 69 14 63 18 C 55 23 54 23 52 19 C 50 12 48 11 37 13 C 33 15 27 16 25 16 C 18 17 15 20 15 24 C 15 28 19 31 24 31 C 26 31 30 35 30 37 C 30 52 30 96 30 97 C 28 100 27 102 21 103 C 18 103 16 104 16 104 C 15 104 13 108 13 111 C 13 115 18 118 23 117 C 33 116 42 116 50 117 C 60 117 62 117 64 115 C 69 111 66 106 58 103 C 54 101 53 100 52 98 C 52 95 52 40 52 39 C 54 36 57 34 62 33 C 72 28 80 28 85 33 C 91 37 92 39 92 68 C 92 100 92 100 84 103 C 78 105 75 108 76 111 C 76 114 76 114 79 116 C 82 117 83 117 94 117 C 103 116 109 117 114 117 C 117 117 119 117 121 118 C 123 117 124 117 125 116 C 126 115 127 115 128 114 C 128 113 128 112 128 111 C 129 106 127 105 121 103 C 114 100 114 103 114 67 C 114 56 114 46 114 36 C 114 34 113 33 113 32 C 109 20 102 14 92 12 C 87 10 83 10 79 10 z" fill="black"/><!-- width=141 height=130 -->
<path id="gl3086" d="M 34 11 C 24 12 22 19 33 24 C 37 25 40 28 42 31 C 43 36 43 137 42 141 C 40 145 37 148 32 149 C 25 151 23 153 24 157 C 25 160 26 161 30 162 C 33 162 124 162 127 161 C 131 159 133 156 136 142 C 139 127 139 124 135 123 C 133 122 132 121 132 121 C 130 121 127 126 124 132 C 118 145 114 147 95 147 C 69 148 67 147 67 113 C 67 91 67 91 78 91 C 85 90 96 91 99 93 C 102 94 102 95 105 100 C 108 108 113 109 116 103 C 117 100 118 69 116 64 C 114 57 108 58 104 67 C 101 73 100 74 91 75 C 84 76 74 75 71 74 C 67 73 67 72 67 50 C 67 24 66 25 87 25 C 106 25 111 28 115 41 C 117 47 121 49 124 48 C 127 45 128 43 127 32 C 126 16 125 14 121 12 C 118 11 45 10 34 11 z" fill="black"/><!-- width=152 height=177 -->
<path id="gl1029" d="M 51 11 C 28 16 15 33 16 55 C 16 74 26 84 53 97 C 66 103 73 108 76 112 C 85 125 81 145 67 151 C 51 158 34 150 26 130 C 22 120 20 118 16 118 C 11 118 8 123 9 129 C 10 135 15 153 15 155 C 19 166 54 172 73 165 C 93 157 105 139 103 118 C 103 99 93 87 68 76 C 49 67 43 63 39 56 C 33 44 40 29 52 26 C 66 22 79 30 82 45 C 84 51 89 55 93 54 C 97 51 99 46 97 40 C 97 39 96 34 96 30 C 93 16 92 15 80 12 C 73 10 56 10 51 11 z" fill="black"/><!-- width=117 height=181 -->
<path id="gl4885" d="M 31 12 C 27 13 25 15 25 18 C 25 21 26 21 32 24 C 42 29 42 27 42 88 C 42 104 42 120 42 136 C 41 138 40 139 40 141 C 39 146 36 148 31 150 C 22 153 20 158 27 161 C 30 163 123 163 126 161 C 130 159 131 157 134 145 C 138 130 137 124 132 123 C 129 123 127 124 123 132 C 116 146 112 148 90 148 C 67 148 66 147 66 114 C 66 92 66 92 78 91 C 85 91 94 92 97 94 C 100 95 100 96 103 99 C 106 106 108 108 112 106 C 116 105 116 103 116 84 C 115 65 115 63 112 61 C 108 60 106 61 103 69 C 99 75 97 76 84 76 C 66 76 66 77 66 51 C 66 25 65 26 85 26 C 105 26 108 28 114 40 C 116 46 118 48 121 48 C 126 48 127 45 126 31 C 125 18 124 15 120 13 C 118 12 36 11 31 12 z" fill="black"/><!-- width=150 height=177 -->
<path id="gl3344" d="M 43 10 C 40 12 34 13 29 15 C 16 17 14 18 14 24 C 14 30 18 31 27 31 C 31 30 33 31 35 34 C 36 36 36 135 34 138 C 33 141 31 142 25 142 C 16 142 14 144 14 149 C 14 153 15 154 19 156 C 22 157 22 157 27 157 C 44 154 45 154 68 157 C 76 157 81 153 79 147 C 78 144 75 142 69 142 C 62 141 60 141 58 138 C 57 136 57 132 57 80 C 58 49 58 24 58 24 C 58 24 58 21 58 18 C 58 8 55 6 43 10 z" fill="black"/><!-- width=91 height=175 -->
<path id="gl1541" d="M 45 9 C 33 11 25 16 15 29 C 10 36 9 37 9 41 C 9 45 11 48 15 48 C 19 49 21 48 25 41 C 34 31 38 28 47 28 C 62 28 70 37 70 54 C 70 65 64 78 53 93 C 42 107 22 132 16 137 C 7 145 6 149 7 153 C 9 156 12 157 20 157 C 30 156 52 155 71 156 C 94 157 94 157 98 144 C 103 128 103 127 101 124 C 97 118 91 120 85 129 C 82 133 79 134 58 135 C 35 135 35 135 55 114 C 78 91 89 75 92 60 C 97 36 85 16 64 10 C 60 9 49 8 45 9 z" fill="black"/><!-- width=117 height=178 -->
<path id="gl0" d="M 44 10 C 42 12 37 17 34 22 C 31 25 31 25 31 30 C 30 35 29 37 25 37 C 19 38 15 41 14 45 C 13 50 16 52 24 52 C 27 52 29 52 30 53 C 31 54 31 52 31 90 C 30 115 30 119 31 123 C 36 139 48 147 64 141 C 79 135 82 133 83 129 C 84 125 82 122 79 121 C 77 120 77 120 71 121 C 62 125 58 124 55 119 C 53 115 52 112 52 96 C 52 88 52 76 52 69 C 52 62 52 56 52 55 C 52 51 57 51 66 52 C 76 54 82 50 81 43 C 80 37 76 35 64 37 C 53 39 51 37 53 26 C 55 16 54 13 52 10 C 51 9 46 9 44 10 z" fill="black"/><!-- width=93 height=156 -->
<path id="gl5" d="M 43 12 C 31 14 30 15 28 17 C 24 21 26 24 33 27 C 40 30 40 24 40 91 C 40 130 40 150 39 152 C 39 156 37 157 33 160 C 26 163 25 169 31 172 C 34 172 70 172 73 171 C 79 169 78 163 70 159 C 64 156 63 154 64 120 C 64 112 64 105 64 97 C 64 96 65 95 66 94 C 72 85 88 84 96 91 C 101 96 102 101 102 129 C 102 156 102 156 94 160 C 90 162 89 163 89 166 C 88 172 91 172 114 172 C 136 172 138 172 138 166 C 138 163 137 162 133 159 C 131 158 129 156 128 156 C 127 155 127 154 126 154 C 126 144 126 135 126 125 C 126 109 125 95 125 93 C 119 69 97 60 72 72 C 69 73 66 73 64 72 C 64 71 64 64 63 43 C 63 5 64 6 43 12 z" fill="black"/><!-- width=152 height=210 -->
<path id="gl5141" d="M 30 42 C 29 42 28 43 27 43 C 25 43 23 46 23 48 C 23 51 25 52 29 55 C 38 58 39 60 54 99 C 56 105 59 112 60 114 C 61 119 66 130 72 146 C 77 160 80 168 85 180 C 90 192 94 195 99 192 C 102 190 104 186 117 152 C 118 149 120 142 122 138 C 124 133 128 123 131 116 C 153 61 154 58 165 54 C 171 52 172 46 167 43 C 164 42 128 42 124 43 C 121 45 121 48 122 50 C 123 52 124 52 130 55 C 137 58 136 60 120 103 C 111 129 109 134 105 142 C 103 146 102 148 100 146 C 98 145 93 132 84 109 C 63 55 64 58 72 54 C 79 51 79 45 72 43 C 69 42 31 42 30 42 z" fill="black"/><!-- width=185 height=207 -->
<path id="gl3" d="M 38 8 C 34 9 30 12 28 15 C 25 19 25 27 27 31 C 37 49 61 37 55 18 C 53 12 46 7 38 8 M 45 61 C 39 63 28 66 25 66 C 18 67 15 69 14 74 C 13 78 15 80 24 82 C 30 84 30 82 30 116 C 30 150 30 150 25 153 C 24 153 22 153 21 154 C 19 154 15 156 13 157 C 12 160 12 162 15 165 C 16 166 17 167 18 168 C 20 168 22 168 24 168 C 31 167 50 167 57 168 C 63 168 65 168 68 165 C 73 160 67 153 58 153 C 57 153 54 151 53 148 C 52 146 52 91 53 75 C 54 69 53 67 53 66 C 52 63 48 60 45 61 z" fill="black"/><!-- width=81 height=202 -->
<path id="gl512" d="M 79 23 C 76 24 73 26 69 31 C 61 39 59 40 58 33 C 58 24 57 22 46 25 C 45 26 39 27 36 28 C 27 29 25 30 22 33 C 19 37 23 42 30 43 C 34 43 36 45 37 46 C 38 49 38 109 37 111 C 36 114 32 115 28 116 C 21 117 18 124 24 128 C 25 130 26 130 31 129 C 43 129 55 128 61 129 C 72 130 76 129 78 126 C 80 120 77 117 70 115 C 63 115 60 114 59 109 C 59 109 59 97 58 83 C 58 75 58 67 58 58 C 59 58 60 57 60 55 C 64 49 69 46 73 46 C 75 46 77 46 80 48 C 88 52 94 51 97 44 C 103 32 92 19 79 23 z" fill="black"/><!-- width=109 height=142 -->
<path id="gl515" d="M 54 16 C 23 23 10 55 29 77 C 34 84 34 84 33 86 C 33 87 31 89 28 90 C 20 96 20 103 28 112 C 34 118 34 118 25 127 C 9 143 18 166 42 174 C 48 175 66 175 72 174 C 93 168 110 151 113 135 C 116 115 107 102 87 100 C 84 99 76 99 69 99 C 55 99 52 99 51 96 C 49 93 52 91 61 90 C 74 88 82 85 89 78 C 98 70 102 58 100 46 C 99 40 100 39 105 35 C 112 30 115 24 111 20 C 109 18 108 18 94 19 C 91 19 88 19 84 20 C 81 19 78 18 76 18 C 66 15 60 15 54 16 M 67 32 C 81 42 79 73 64 75 C 57 76 49 70 46 61 C 45 57 45 45 46 42 C 49 31 60 27 67 32 M 78 122 C 90 124 96 133 92 144 C 86 159 57 163 45 149 C 36 139 42 125 55 122 C 60 121 72 121 78 122 z" fill="black"/><!-- width=126 height=189 -->
<path id="gl4" d="M 54 12 C 36 15 19 31 14 51 C 7 76 15 98 34 112 C 47 121 65 124 80 118 C 93 113 103 103 109 88 C 112 81 112 78 112 66 C 113 54 112 51 109 43 C 100 23 82 12 61 12 C 58 12 55 12 54 12 M 69 28 C 76 32 84 42 87 53 C 88 58 88 80 87 85 C 82 109 58 114 44 94 C 36 82 34 60 38 46 C 41 39 42 37 45 34 C 52 27 61 24 69 28 z" fill="black"/><!-- width=125 height=134 -->
<path id="gl1029" d="M 51 11 C 28 16 15 33 16 55 C 16 74 26 84 53 97 C 66 103 73 108 76 112 C 85 125 81 145 67 151 C 51 158 34 150 26 130 C 22 120 20 118 16 118 C 11 118 8 123 9 129 C 10 135 15 153 15 155 C 19 166 54 172 73 165 C 93 157 105 139 103 118 C 103 99 93 87 68 76 C 49 67 43 63 39 56 C 33 44 40 29 52 26 C 66 22 79 30 82 45 C 84 51 89 55 93 54 C 97 51 99 46 97 40 C 97 39 96 34 96 30 C 93 16 92 15 80 12 C 73 10 56 10 51 11 z" fill="black"/><!-- width=117 height=181 -->
<path id="gl773" d="M 37 12 C 24 15 22 16 22 21 C 22 23 24 25 28 27 C 35 31 34 24 35 97 C 35 118 35 139 35 160 C 36 161 36 162 36 163 C 41 172 68 177 86 172 C 128 162 145 108 115 79 C 102 67 88 63 70 68 C 58 72 58 73 58 40 C 58 6 58 6 37 12 M 80 85 C 87 87 95 93 99 100 C 103 107 103 111 103 122 C 103 136 100 145 94 151 C 84 163 62 161 60 147 C 58 142 58 92 60 90 C 62 84 69 83 80 85 z" fill="black"/><!-- width=142 height=202 -->
<path id="gl769" d="M 37 58 C 26 58 25 59 24 63 C 22 66 24 69 29 70 C 36 73 38 76 43 90 C 44 93 46 98 47 101 C 49 105 51 111 52 115 C 59 133 64 149 64 153 C 65 163 57 179 46 190 C 40 196 38 199 39 203 C 40 212 51 217 57 212 C 59 210 61 207 64 199 C 65 195 67 189 69 185 C 72 176 90 134 94 124 C 96 121 97 117 98 115 C 105 100 114 81 117 77 C 118 75 121 73 123 72 C 129 68 131 65 129 61 C 126 58 124 58 113 58 C 94 57 90 58 88 63 C 88 66 89 68 93 70 C 98 73 98 75 93 89 C 85 110 81 118 79 115 C 76 114 73 105 66 84 C 63 75 63 75 67 69 C 69 67 71 66 71 65 C 71 63 69 60 67 59 C 64 58 51 58 37 58 z" fill="black"/><!-- width=143 height=229 -->
<path id="gl2311" d="M 27 30 C 24 30 22 31 21 33 C 19 37 21 39 27 42 C 36 46 36 45 58 116 C 59 120 61 124 61 127 C 62 129 65 139 68 148 C 78 179 79 180 84 180 C 90 180 90 180 104 138 C 120 90 120 90 122 87 C 123 87 124 85 124 85 C 126 85 128 91 131 99 C 132 102 134 108 136 111 C 137 115 139 121 141 124 C 142 127 144 134 145 138 C 147 142 149 148 150 150 C 159 176 161 180 166 180 C 171 180 173 177 178 162 C 183 144 186 136 188 127 C 189 123 192 115 193 111 C 195 105 197 99 198 96 C 199 93 201 86 203 81 C 213 48 214 45 224 42 C 228 40 230 36 228 32 C 226 29 226 29 208 30 C 189 30 186 30 184 32 C 180 36 182 39 189 42 C 194 44 195 46 194 51 C 193 60 179 113 173 128 C 172 129 171 129 169 128 C 168 127 163 117 157 98 C 156 94 153 88 152 84 C 150 79 148 73 147 70 C 146 68 144 62 142 58 C 141 54 139 48 138 45 C 134 35 131 32 126 34 C 123 35 121 39 105 91 C 96 117 92 129 91 129 C 88 129 87 125 78 97 C 76 92 73 83 71 77 C 66 61 63 50 63 48 C 63 45 65 43 69 42 C 76 39 78 33 72 30 C 70 30 30 29 27 30 z" fill="black"/><!-- width=243 height=195 -->
<path id="gl1282" d="M 24 9 C 17 9 15 10 13 12 C 11 15 13 19 19 21 C 29 24 31 27 31 40 C 31 60 27 119 25 131 C 24 142 22 144 15 147 C 10 150 9 151 9 154 C 9 160 12 160 38 160 C 56 160 57 160 59 159 C 64 155 62 149 55 148 C 46 145 43 142 42 130 C 42 127 42 123 42 121 C 42 121 43 111 43 102 C 44 71 45 61 47 61 C 48 61 52 67 53 71 C 54 73 55 75 55 75 C 56 76 57 78 58 80 C 58 82 61 87 63 91 C 65 96 69 105 72 112 C 76 123 78 127 84 141 C 89 151 90 151 92 154 C 94 156 95 156 97 156 C 101 155 103 153 108 142 C 114 130 119 118 124 105 C 129 96 135 83 140 72 C 141 69 142 67 142 67 C 142 66 148 58 148 58 C 150 58 151 69 151 102 C 152 144 152 144 141 148 C 133 151 133 159 142 160 C 148 160 181 160 187 160 C 197 159 198 150 189 148 C 176 144 177 148 175 67 C 174 25 174 24 184 21 C 191 19 193 16 191 12 C 190 9 188 9 172 9 C 151 9 154 6 139 39 C 137 44 132 56 127 64 C 124 73 118 85 115 91 C 107 109 105 112 103 112 C 100 112 100 114 79 69 C 51 9 53 12 48 10 C 46 9 37 8 24 9 z" fill="black"/><!-- width=208 height=177 -->
<path id="gl256" d="M 51 10 C 37 15 19 25 17 31 C 15 37 17 43 22 46 C 30 49 35 46 39 36 C 43 24 55 20 64 28 C 69 33 70 46 66 49 C 66 50 61 52 57 54 C 42 58 27 65 23 69 C 8 82 15 109 36 115 C 45 118 51 116 61 107 C 64 105 64 105 67 105 C 68 105 69 105 70 105 C 71 106 72 108 73 109 C 78 116 82 117 91 113 C 93 112 97 111 100 109 C 105 108 107 106 107 102 C 108 96 105 94 98 95 C 88 96 88 97 89 58 C 89 26 89 26 85 21 C 79 10 65 6 51 10 M 67 63 C 68 64 69 64 69 64 C 69 69 69 72 69 76 C 69 91 69 92 60 96 C 52 99 47 99 42 94 C 39 92 38 90 39 85 C 39 78 41 74 49 69 C 64 61 65 61 67 63 z" fill="black"/><!-- width=118 height=135 -->
<path id="gl768" d="M 81 24 C 78 24 75 27 69 33 C 68 34 66 36 64 37 C 64 37 63 37 63 37 C 61 36 61 36 61 34 C 61 30 59 27 57 25 C 55 24 54 24 48 25 C 45 27 40 28 37 28 C 28 29 26 30 24 34 C 24 35 23 36 22 37 C 23 37 24 38 24 39 C 25 42 28 43 32 43 C 40 45 39 43 39 80 C 39 117 40 114 30 115 C 22 117 20 123 25 128 C 27 129 30 130 44 129 C 52 128 54 128 61 129 C 74 130 79 130 80 126 C 82 120 79 116 70 115 C 64 114 64 114 62 111 C 61 109 61 108 61 93 C 61 85 61 74 61 69 C 60 58 61 55 66 51 C 71 45 76 45 82 49 C 94 58 107 40 97 28 C 94 24 87 22 81 24 z" fill="black"/><!-- width=113 height=142 -->
<path id="gl6" d="M 46 10 C 20 13 7 43 24 60 C 30 65 31 66 44 72 C 58 79 61 82 61 91 C 61 102 51 108 40 103 C 35 101 32 97 28 91 C 24 81 24 81 21 79 C 19 78 18 78 17 78 C 11 81 11 85 15 104 C 16 110 21 114 33 117 C 62 124 89 101 81 76 C 77 66 71 60 55 54 C 43 48 39 45 37 40 C 33 32 40 22 50 24 C 55 24 60 28 64 34 C 66 40 70 43 73 43 C 79 42 81 37 77 25 C 73 14 72 12 61 10 C 55 9 52 9 46 10 z" fill="black"/><!-- width=96 height=132 -->
<path id="gl34560" d="M 5126 9 C 5126 9 4804 14 4416 14 C 4022 14 3662 19 3619 19 C 3576 19 2745 24 1776 24 C 811 24 14 28 14 28 C 4 33 9 1680 14 1689 C 19 1689 2692 1694 2841 1689 C 2880 1689 3235 1684 3633 1684 C 4032 1684 4363 1680 4377 1680 C 4396 1680 4536 1680 4689 1675 C 4848 1675 5030 1675 5097 1675 C 5136 1675 5174 1670 5212 1670 C 5212 1396 5212 1123 5212 844 C 5212 388 5208 14 5208 14 C 5208 9 5131 4 5126 9 M 5184 81 C 5184 110 5184 187 5184 254 C 5184 326 5184 384 5184 384 C 5174 388 4838 388 4411 393 C 4267 393 4128 393 3988 393 C 3988 336 3988 278 3988 220 C 3988 163 3988 105 3984 43 C 4012 43 4036 43 4060 43 C 4104 43 4272 43 4430 43 C 4593 38 4828 38 4953 38 C 5030 38 5107 38 5179 33 C 5184 52 5184 67 5184 81 M 3960 220 C 3960 278 3960 336 3964 393 C 3907 398 3849 398 3796 398 C 3705 398 3489 398 3321 398 C 3220 398 3120 403 3014 403 C 3014 345 3014 283 3014 225 C 3014 168 3014 110 3014 52 C 3048 48 3081 48 3115 48 C 3168 48 3379 48 3585 48 C 3710 48 3835 48 3960 48 C 3960 105 3960 163 3960 220 M 1800 52 C 1809 57 1809 91 1809 230 C 1809 288 1809 345 1809 403 C 1660 403 1507 403 1358 403 C 1204 403 1056 403 907 408 C 907 345 907 288 907 230 C 907 172 907 115 907 57 C 1051 52 1200 52 1348 52 C 1588 52 1790 52 1790 52 C 1795 52 1800 52 1800 52 M 2990 225 C 2990 283 2990 340 2995 398 C 2952 403 2908 403 2870 403 C 2803 403 2539 403 2294 403 C 2140 403 1992 403 1838 403 C 1838 345 1838 288 1838 230 C 1838 172 1838 115 1833 57 C 1896 52 1953 52 2016 52 C 2112 52 2371 52 2592 52 C 2726 52 2856 52 2990 52 C 2990 110 2990 168 2990 225 M 878 96 C 878 115 878 196 878 268 C 878 312 878 360 878 403 C 739 403 600 403 456 403 C 62 403 38 403 33 398 C 33 393 33 312 33 220 C 33 168 28 110 28 57 C 172 57 312 57 451 57 C 595 57 734 57 873 57 C 878 67 878 81 878 96 M 5179 417 C 5184 417 5184 456 5184 542 C 5184 585 5184 624 5184 667 C 5169 667 5155 667 5136 667 C 5112 667 5073 667 5054 667 C 5035 667 4790 672 4507 672 C 4334 672 4161 672 3993 676 C 3993 662 3988 643 3988 628 C 3984 580 3988 427 3988 422 C 3993 422 4243 417 4545 417 C 4848 417 5097 412 5097 412 C 5102 412 5174 412 5179 417 M 3964 547 C 3964 590 3964 628 3964 672 C 3873 672 3787 676 3700 676 C 3556 676 3340 676 3230 676 C 3158 676 3086 676 3019 676 C 3019 633 3019 595 3019 552 C 3019 513 3019 470 3014 432 C 3024 432 3028 427 3033 427 C 3043 427 3216 427 3417 427 C 3619 422 3787 422 3787 422 C 3787 422 3825 422 3873 422 C 3902 422 3931 422 3964 422 C 3964 460 3964 504 3964 547 M 873 436 C 878 436 878 451 878 561 C 878 604 878 643 878 681 C 739 681 600 681 460 681 C 316 681 177 681 38 681 C 33 652 33 619 33 585 C 33 465 33 436 43 432 C 48 427 864 432 873 436 M 1804 436 C 1814 441 1814 676 1809 681 C 1800 686 916 686 907 681 C 902 676 902 436 907 432 C 912 427 1800 427 1804 436 M 2995 552 C 2995 595 2995 638 2995 676 C 2966 681 2937 681 2913 681 C 2870 681 2702 681 2544 681 C 2448 681 2347 681 2251 686 C 2256 681 2256 676 2256 672 C 2265 648 2304 552 2313 542 C 2323 528 2323 528 2304 528 C 2289 528 2284 528 2289 537 C 2294 552 2280 585 2275 580 C 2265 571 2260 547 2260 537 C 2265 528 2260 528 2241 528 C 2222 528 2212 532 2227 537 C 2232 542 2260 604 2260 624 C 2260 628 2251 643 2246 652 C 2241 662 2236 672 2236 676 C 2236 681 2208 681 2040 681 C 1972 681 1905 681 1838 681 C 1838 643 1838 600 1838 561 C 1838 494 1838 436 1838 436 C 1838 432 1958 432 2414 432 C 2606 432 2798 427 2995 427 C 2995 470 2995 513 2995 552 M 5184 816 C 5184 854 5184 897 5184 936 C 5164 936 5145 940 5121 940 C 5088 940 4958 940 4833 940 C 4708 940 4468 945 4300 945 C 4195 945 4094 950 3988 950 C 3993 907 3993 868 3993 825 C 3993 782 3993 744 3993 700 C 4094 700 4200 700 4300 700 C 4468 700 4612 696 4617 696 C 4622 696 4752 696 4905 696 C 5001 696 5092 691 5184 691 C 5184 734 5184 772 5184 816 M 3960 705 C 3964 705 3964 940 3964 945 C 3960 945 3024 955 3019 950 C 3019 936 3019 715 3019 710 C 3024 705 3124 705 3460 705 C 3696 700 3892 700 3892 700 C 3897 700 3960 700 3960 705 M 830 710 C 844 710 864 710 878 710 C 878 753 878 796 878 835 C 878 878 878 916 878 955 C 739 955 600 955 460 955 C 316 955 177 955 38 955 C 38 916 38 878 38 835 C 38 796 38 753 38 715 C 48 710 57 710 72 710 C 100 710 681 710 830 710 M 1795 710 C 1800 710 1804 710 1814 710 C 1814 753 1814 796 1814 835 C 1814 878 1814 916 1814 960 C 1660 955 1512 955 1358 955 C 1209 955 1056 955 907 955 C 907 916 907 873 907 835 C 907 792 907 753 902 715 C 912 715 916 710 921 710 C 936 710 1761 710 1795 710 M 2995 830 C 2995 868 2995 912 2995 950 C 2971 955 2947 955 2928 955 C 2889 955 2836 955 2808 955 C 2726 960 1848 960 1838 955 C 1833 950 1833 720 1843 715 C 1843 710 2030 710 2419 710 C 2611 710 2803 705 2995 705 C 2995 748 2995 787 2995 830 M 5184 1094 C 5184 1137 5184 1180 5184 1224 C 5155 1228 5126 1228 5097 1228 C 4766 1233 4478 1233 4478 1224 C 4478 1214 4526 1104 4540 1094 C 4550 1080 4545 1075 4526 1080 C 4507 1080 4502 1084 4512 1094 C 4516 1094 4507 1132 4497 1137 C 4492 1142 4483 1118 4483 1099 C 4483 1080 4483 1080 4464 1080 C 4440 1080 4440 1084 4449 1094 C 4454 1094 4464 1118 4468 1137 C 4488 1176 4483 1195 4464 1209 C 4459 1214 4459 1219 4459 1224 C 4459 1228 4454 1233 4454 1233 C 4454 1233 4348 1233 4224 1233 C 4147 1233 4070 1238 3988 1238 C 3988 1195 3988 1152 3988 1108 C 3988 1065 3988 1022 3988 979 C 3998 979 4008 974 4017 974 C 4032 974 4166 974 4310 974 C 4454 974 4574 969 4574 969 C 4574 969 4713 969 4881 969 C 4982 969 5083 964 5184 964 C 5184 1008 5184 1051 5184 1094 M 3964 1104 C 3964 1171 3964 1228 3964 1233 C 3960 1233 3748 1238 3489 1238 C 3336 1238 3177 1238 3019 1243 C 3019 1224 3019 1204 3019 1190 C 3019 1156 3019 1118 3019 1094 C 3019 1070 3019 1036 3019 1017 C 3019 1008 3019 993 3019 984 C 3033 979 3043 979 3052 979 C 3067 979 3278 979 3523 979 C 3672 979 3816 979 3964 979 C 3964 1022 3964 1060 3964 1104 M 873 984 C 878 984 878 1017 878 1118 C 878 1156 878 1204 878 1248 C 739 1248 600 1248 460 1248 C 316 1248 177 1248 38 1248 C 38 1204 38 1161 38 1118 C 38 1046 38 988 38 984 C 38 984 844 984 873 984 M 1804 984 C 1809 984 1814 993 1809 1113 C 1809 1156 1809 1200 1809 1243 C 1660 1243 1512 1243 1363 1243 C 1094 1243 912 1243 912 1243 C 907 1238 907 1180 907 1113 C 907 1070 907 1032 907 988 C 912 988 916 988 916 988 C 926 984 1776 984 1804 984 M 2995 1027 C 2995 1051 2995 1108 2995 1152 C 2995 1180 2995 1209 2995 1238 C 2956 1238 2923 1238 2884 1243 C 2822 1243 2673 1243 2544 1243 C 2323 1243 2318 1243 2318 1233 C 2323 1219 2361 1123 2371 1108 C 2385 1094 2380 1094 2361 1094 C 2342 1094 2342 1094 2352 1104 C 2356 1108 2342 1147 2337 1147 C 2328 1152 2318 1118 2323 1104 C 2323 1094 2318 1094 2308 1094 C 2284 1089 2270 1094 2284 1104 C 2294 1113 2318 1176 2318 1190 C 2318 1195 2313 1209 2308 1214 C 2304 1224 2299 1233 2294 1238 C 2294 1243 2275 1248 2068 1248 C 1992 1248 1915 1248 1843 1248 C 1843 1238 1838 1233 1838 1228 C 1833 1190 1833 993 1838 988 C 1843 984 1944 984 2419 984 C 2611 984 2803 979 2995 979 C 2995 993 2995 1012 2995 1027 M 5188 1324 C 5188 1363 5188 1449 5188 1521 C 5188 1564 5188 1608 5188 1646 C 5136 1651 5078 1651 5020 1651 C 4929 1651 4824 1651 4790 1651 C 4732 1651 4012 1656 3998 1656 C 3993 1656 3988 1612 3988 1459 C 3988 1396 3988 1329 3988 1267 C 4003 1267 4012 1262 4027 1262 C 4046 1262 4300 1257 4593 1257 C 4886 1257 5126 1252 5126 1252 C 5131 1252 5140 1252 5155 1252 C 5164 1252 5174 1252 5184 1252 C 5184 1276 5184 1300 5188 1324 M 3964 1262 C 3964 1262 3969 1353 3969 1464 C 3969 1526 3969 1593 3969 1660 C 3868 1660 3768 1660 3667 1660 C 3504 1660 3292 1660 3196 1660 C 3139 1660 3081 1665 3019 1665 C 3019 1598 3019 1531 3019 1468 C 3019 1401 3019 1334 3019 1272 C 3028 1272 3033 1267 3038 1267 C 3048 1267 3240 1267 3460 1267 C 3681 1262 3864 1262 3864 1262 C 3864 1262 3950 1262 3964 1262 M 878 1276 C 883 1276 883 1368 883 1473 C 883 1536 883 1603 883 1665 C 744 1665 604 1665 465 1665 C 129 1665 43 1665 38 1660 C 38 1660 38 1569 38 1464 C 38 1401 38 1339 38 1276 C 38 1276 43 1272 48 1272 C 76 1272 878 1272 878 1276 M 1809 1276 C 1809 1276 1814 1363 1814 1473 C 1814 1536 1814 1603 1814 1665 C 1665 1665 1512 1665 1363 1665 C 1209 1665 1060 1665 912 1670 C 912 1608 907 1545 907 1483 C 907 1272 907 1276 921 1272 C 940 1272 1804 1272 1809 1276 M 2995 1468 C 2995 1531 2995 1598 3000 1660 C 2928 1660 2860 1665 2793 1665 C 2683 1665 2424 1665 2217 1665 C 2092 1665 1968 1665 1843 1665 C 1843 1603 1843 1536 1843 1473 C 1843 1334 1843 1276 1848 1272 C 1848 1272 2107 1272 2424 1272 C 2616 1272 2803 1272 2995 1272 C 2995 1339 2995 1401 2995 1468 z" fill="black"/><!-- width=5227 height=1708 -->
<path id="gl34561" d="M 9 9 C 0 19 0 24 9 33 C 19 43 43 43 48 38 C 57 19 24 0 9 9 z" fill="black"/><!-- width=57 height=48 -->
</defs>
<use xlink:href="#gl16393" x="4100" y="158"/>
<use xlink:href="#gl34085" x="4274" y="157"/>
<use xlink:href="#gl2576" x="4318" y="201"/>
<use xlink:href="#gl12292" x="4420" y="211"/>
<use xlink:href="#gl12803" x="4512" y="214"/>
<use xlink:href="#gl11034" x="4613" y="195"/>
<use xlink:href="#gl12804" x="4687" y="155"/>
<use xlink:href="#gl11032" x="4756" y="205"/>
<use xlink:href="#gl23053" x="4872" y="209"/>
<use xlink:href="#gl12297" x="3206" y="166"/>
<use xlink:href="#gl9747" x="3389" y="213"/>
<use xlink:href="#gl4101" x="3511" y="219"/>
<use xlink:href="#gl12298" x="3634" y="217"/>
<use xlink:href="#gl21255" x="3713" y="217"/>
<use xlink:href="#gl11036" x="129" y="149"/>
<use xlink:href="#gl11015" x="262" y="163"/>
<use xlink:href="#gl20760" x="328" y="230"/>
<use xlink:href="#gl3862" x="429" y="226"/>
<use xlink:href="#gl11016" x="552" y="223"/>
<use xlink:href="#gl11034" x="648" y="210"/>
<use xlink:href="#gl16393" x="1937" y="168"/>
<use xlink:href="#gl12804" x="2109" y="170"/>
<use xlink:href="#gl2576" x="2156" y="213"/>
<use xlink:href="#gl12292" x="2258" y="224"/>
<use xlink:href="#gl12803" x="2350" y="227"/>
<use xlink:href="#gl11034" x="2451" y="207"/>
<use xlink:href="#gl12804" x="2525" y="169"/>
<use xlink:href="#gl10257" x="2591" y="218"/>
<use xlink:href="#gl3862" x="2709" y="223"/>
<use xlink:href="#gl12806" x="1043" y="173"/>
<use xlink:href="#gl12804" x="1147" y="171"/>
<use xlink:href="#gl33551" x="1208" y="220"/>
<use xlink:href="#gl3862" x="1319" y="225"/>
<use xlink:href="#gl3086" x="4097" y="456"/>
<use xlink:href="#gl1537" x="4227" y="455"/>
<use xlink:href="#gl1029" x="4375" y="452"/>
<use xlink:href="#gl1281" x="4474" y="419"/>
<use xlink:href="#gl1284" x="3223" y="468"/>
<use xlink:href="#gl516" x="3314" y="507"/>
<use xlink:href="#gl0" x="3386" y="482"/>
<use xlink:href="#gl3095" x="131" y="437"/>
<use xlink:href="#gl1" x="260" y="508"/>
<use xlink:href="#gl2" x="354" y="513"/>
<use xlink:href="#gl257" x="477" y="517"/>
<use xlink:href="#gl6" x="595" y="514"/>
<use xlink:href="#gl5141" x="1029" y="436"/>
<use xlink:href="#gl3" x="1184" y="462"/>
<use xlink:href="#gl262" x="1234" y="500"/>
<use xlink:href="#gl34324" x="1335" y="519"/>
<use xlink:href="#gl4" x="1426" y="511"/>
<use xlink:href="#gl34325" x="1215" y="621"/>
<use xlink:href="#gl1029" x="1949" y="465"/>
<use xlink:href="#gl773" x="2087" y="457"/>
<use xlink:href="#gl3335" x="2346" y="447"/>
<use xlink:href="#gl4885" x="4100" y="740"/>
<use xlink:href="#gl1537" x="4229" y="738"/>
<use xlink:href="#gl1029" x="4376" y="735"/>
<use xlink:href="#gl1281" x="4475" y="703"/>
<use xlink:href="#gl1284" x="3224" y="752"/>
<use xlink:href="#gl6" x="3315" y="791"/>
<use xlink:href="#gl0" x="3387" y="766"/>
<use xlink:href="#gl3095" x="132" y="721"/>
<use xlink:href="#gl1" x="262" y="792"/>
<use xlink:href="#gl2" x="355" y="798"/>
<use xlink:href="#gl257" x="479" y="802"/>
<use xlink:href="#gl6" x="596" y="798"/>
<use xlink:href="#gl14592" x="1030" y="721"/>
<use xlink:href="#gl3" x="1185" y="748"/>
<use xlink:href="#gl262" x="1235" y="785"/>
<use xlink:href="#gl34326" x="1335" y="802"/>
<use xlink:href="#gl771" x="1425" y="795"/>
<use xlink:href="#gl1029" x="1950" y="748"/>
<use xlink:href="#gl773" x="2088" y="741"/>
<use xlink:href="#gl34327" x="2213" y="802"/>
<use xlink:href="#gl2311" x="2349" y="732"/>
<use xlink:href="#gl4111" x="4107" y="1014"/>
<use xlink:href="#gl773" x="4310" y="1011"/>
<use xlink:href="#gl4885" x="4575" y="1019"/>
<use xlink:href="#gl1541" x="3216" y="1034"/>
<use xlink:href="#gl2" x="3313" y="1073"/>
<use xlink:href="#gl259" x="3440" y="1016"/>
<use xlink:href="#gl3091" x="1945" y="1025"/>
<use xlink:href="#gl773" x="2148" y="1024"/>
<use xlink:href="#gl3086" x="2411" y="1032"/>
<use xlink:href="#gl1029" x="1051" y="1032"/>
<use xlink:href="#gl260" x="1139" y="1082"/>
<use xlink:href="#gl4" x="1243" y="1078"/>
<use xlink:href="#gl262" x="1344" y="1066"/>
<use xlink:href="#gl772" x="1422" y="1055"/>
<use xlink:href="#gl5123" x="1551" y="1030"/>
<use xlink:href="#gl4" x="1613" y="1078"/>
<use xlink:href="#gl1282" x="149" y="1037"/>
<use xlink:href="#gl4" x="339" y="1079"/>
<use xlink:href="#gl4" x="452" y="1079"/>
<use xlink:href="#gl2" x="561" y="1080"/>
<use xlink:href="#gl3086" x="4100" y="1305"/>
<use xlink:href="#gl1029" x="4237" y="1302"/>
<use xlink:href="#gl4885" x="4329" y="1303"/>
<use xlink:href="#gl3344" x="3227" y="1317"/>
<use xlink:href="#gl1541" x="3322" y="1316"/>
<use xlink:href="#gl0" x="3417" y="1332"/>
<use xlink:href="#gl5" x="3474" y="1299"/>
<use xlink:href="#gl5141" x="1033" y="1286"/>
<use xlink:href="#gl3" x="1187" y="1312"/>
<use xlink:href="#gl512" x="1239" y="1350"/>
<use xlink:href="#gl515" x="1323" y="1357"/>
<use xlink:href="#gl4" x="1430" y="1361"/>
<use xlink:href="#gl1029" x="1952" y="1314"/>
<use xlink:href="#gl773" x="2090" y="1306"/>
<use xlink:href="#gl769" x="2198" y="1319"/>
<use xlink:href="#gl2311" x="2351" y="1297"/>
<use xlink:href="#gl1282" x="150" y="1320"/>
<use xlink:href="#gl256" x="337" y="1366"/>
<use xlink:href="#gl768" x="424" y="1352"/>
<use xlink:href="#gl6" x="515" y="1364"/>
<use xlink:href="#gl34560" x="0" y="0"/>
<use xlink:href="#gl34561" x="4877" y="855"/>
</svg>
