<?xml version='1.0' encoding='utf-8'?>
<svg xmlns="http://www.w3.org/2000/svg" xmlns:xlink="http://www.w3.org/1999/xlink" width="297px" height="56px" viewBox="0 0 2974 566" version="1.1">
<defs>
<path id="gl41216" d="M 4 14 C 0 24 4 28 24 33 C 48 38 43 28 139 345 C 148 384 153 384 163 384 C 182 384 177 388 235 225 C 249 172 264 134 268 134 C 268 139 283 168 336 326 C 345 345 350 364 360 384 C 364 384 369 384 374 384 C 388 384 388 384 393 364 C 408 321 484 81 494 62 C 499 48 508 38 518 33 C 528 28 528 24 528 19 C 528 9 528 4 470 4 C 451 4 432 4 408 4 C 408 9 408 14 408 19 C 408 28 412 28 427 28 C 456 28 456 38 427 158 C 408 216 393 268 393 268 C 388 273 379 249 350 172 C 297 14 297 14 283 14 C 268 14 268 14 244 96 C 187 278 187 278 182 268 C 182 264 172 230 163 196 C 153 163 139 115 134 96 C 120 48 120 38 134 33 C 158 28 163 28 158 19 C 158 4 9 4 4 14 z" fill="black"/><!-- width=537 height=393 -->
<path id="gl41217" d="M 57 9 C 28 19 28 57 52 76 C 96 100 134 48 96 14 C 81 0 72 0 57 9 M 52 148 C 19 158 9 163 9 168 C 9 172 14 177 24 177 C 43 182 43 192 43 278 C 48 360 43 369 24 374 C 9 374 9 379 9 384 C 9 393 9 393 76 393 C 144 393 144 393 144 388 C 144 379 144 374 134 374 C 124 374 115 369 115 369 C 110 369 105 340 105 259 C 105 158 105 134 100 139 C 96 139 76 144 52 148 z" fill="black"/><!-- width=153 height=408 -->
<path id="gl9226" d="M 107 9 C 105 9 97 11 89 13 C 76 16 51 21 30 25 C 18 27 17 28 17 37 C 17 46 18 46 31 49 C 46 51 50 53 53 63 C 54 66 54 363 53 372 C 52 385 47 390 33 393 C 30 393 25 394 24 394 C 19 395 17 397 16 402 C 16 408 17 413 20 415 C 22 417 148 417 151 415 C 154 414 156 411 156 405 C 156 396 154 394 144 393 C 124 390 119 386 118 373 C 118 370 117 289 117 192 C 117 61 117 15 116 13 C 115 11 112 8 111 9 C 110 9 109 9 107 9 z" fill="black"/><!-- width=169 height=444 -->
<path id="gl9226" d="M 107 9 C 105 9 97 11 89 13 C 76 16 51 21 30 25 C 18 27 17 28 17 37 C 17 46 18 46 31 49 C 46 51 50 53 53 63 C 54 66 54 363 53 372 C 52 385 47 390 33 393 C 30 393 25 394 24 394 C 19 395 17 397 16 402 C 16 408 17 413 20 415 C 22 417 148 417 151 415 C 154 414 156 411 156 405 C 156 396 154 394 144 393 C 124 390 119 386 118 373 C 118 370 117 289 117 192 C 117 61 117 15 116 13 C 115 11 112 8 111 9 C 110 9 109 9 107 9 z" fill="black"/><!-- width=169 height=444 -->
<path id="gl9228" d="M 76 10 C 55 15 43 37 48 58 C 52 75 69 88 87 87 C 113 85 130 60 121 34 C 115 16 94 5 76 10 M 93 147 C 78 151 54 156 36 160 C 22 163 20 164 20 172 C 20 180 21 181 34 183 C 50 186 53 189 54 202 C 55 210 55 353 54 359 C 52 372 48 375 31 378 C 19 381 18 381 18 391 C 18 398 19 400 23 401 C 27 402 150 401 153 400 C 156 398 157 396 157 390 C 157 381 156 380 144 378 C 126 375 121 371 120 359 C 119 356 118 321 118 256 C 118 147 118 147 116 145 C 114 142 111 142 93 147 z" fill="black"/><!-- width=171 height=471 -->
<path id="gl41218" d="M 100 14 C 24 43 -5 91 33 105 C 52 110 57 105 67 81 C 86 28 129 33 139 81 C 139 91 144 96 144 100 C 134 105 124 110 120 115 C 105 120 86 129 72 134 C 19 153 0 187 14 230 C 28 273 67 288 110 259 C 120 254 129 249 139 244 C 144 244 144 249 148 254 C 163 273 177 278 206 264 C 244 244 254 225 220 230 C 201 235 196 225 196 139 C 196 76 196 57 192 48 C 172 14 139 0 100 14 M 139 172 C 139 187 139 201 139 216 C 134 216 129 220 124 225 C 105 235 100 235 86 220 C 62 196 72 168 110 144 C 144 129 139 124 139 172 z" fill="black"/><!-- width=254 height=283 -->
<path id="gl41219" d="M 52 19 C 14 28 9 28 9 38 C 9 43 14 48 24 48 C 43 52 43 62 43 148 C 48 225 43 240 24 244 C 9 244 9 249 9 259 C 9 264 9 264 72 264 C 134 264 139 264 134 254 C 134 249 129 244 120 240 C 120 240 115 240 110 240 C 110 211 110 187 110 158 C 105 62 110 62 148 57 C 192 52 201 72 196 172 C 196 230 196 244 182 244 C 168 244 158 254 163 259 C 163 264 192 264 230 264 C 292 264 292 264 288 254 C 288 249 283 244 278 244 C 264 240 264 240 259 158 C 259 72 259 72 278 62 C 321 43 345 57 350 100 C 350 115 350 148 350 172 C 355 225 350 240 331 240 C 321 244 321 244 321 254 C 321 259 321 264 321 264 C 340 264 364 264 384 264 C 446 264 451 264 446 254 C 446 249 441 244 432 240 C 427 240 422 240 412 235 C 412 225 412 211 412 196 C 412 67 412 57 403 43 C 379 0 331 0 283 28 C 273 33 264 38 254 48 C 249 38 244 33 235 28 C 206 0 177 0 134 28 C 110 43 105 43 105 33 C 105 19 100 4 100 9 C 96 9 76 14 52 19 z" fill="black"/><!-- width=460 height=273 -->
<path id="gl41220" d="M 4 4 C 4 9 129 9 129 4 C 134 4 105 4 67 4 C 28 4 0 4 4 4 z" fill="black"/><!-- width=139 height=19 -->
<path id="gl41221" d="M 13 6 C 10 7 11 12 13 13 C 14 13 42 13 76 13 C 96 13 117 13 137 13 C 138 12 138 12 138 11 C 139 10 139 9 138 7 C 138 7 138 6 137 6 C 117 6 96 6 76 6 C 42 6 14 6 13 6 z" fill="black"/><!-- width=146 height=19 -->
<path id="gl41221" d="M 13 6 C 10 7 11 12 13 13 C 14 13 42 13 76 13 C 96 13 117 13 137 13 C 138 12 138 12 138 11 C 139 10 139 9 138 7 C 138 7 138 6 137 6 C 117 6 96 6 76 6 C 42 6 14 6 13 6 z" fill="black"/><!-- width=146 height=19 -->
<path id="gl29967" d="M 12 10 C 7 10 6 13 9 15 C 12 17 36 17 38 15 C 39 13 39 13 38 11 C 37 10 36 10 25 10 C 19 10 13 10 12 10 z" fill="black"/><!-- width=48 height=27 -->
<path id="gl29967" d="M 12 10 C 7 10 6 13 9 15 C 12 17 36 17 38 15 C 39 13 39 13 38 11 C 37 10 36 10 25 10 C 19 10 13 10 12 10 z" fill="black"/><!-- width=48 height=27 -->
<path id="gl29955" d="M 128 7 C 88 7 90 7 88 11 C 84 19 87 28 94 28 C 100 28 119 33 124 36 C 126 38 130 44 132 48 C 135 60 135 68 136 113 C 136 250 136 316 134 327 C 131 350 124 356 98 359 C 85 360 83 363 85 374 C 85 381 85 381 95 382 C 114 382 346 381 349 380 C 352 379 353 376 354 371 C 354 369 355 366 355 365 C 356 364 357 358 358 354 C 359 349 360 345 361 343 C 361 342 362 337 363 331 C 364 326 365 321 365 321 C 366 320 368 306 369 303 C 369 300 369 297 370 297 C 371 293 372 288 371 285 C 370 282 367 281 361 280 C 351 279 349 280 347 288 C 346 291 345 294 345 295 C 344 296 343 298 343 299 C 343 301 342 303 341 305 C 340 307 339 309 338 311 C 337 313 336 315 336 316 C 335 317 334 320 333 322 C 328 330 327 331 322 337 C 313 345 309 347 290 351 C 277 353 241 353 231 351 C 218 348 214 345 210 337 C 204 326 204 322 203 195 C 203 47 203 49 212 39 C 216 34 228 29 237 29 C 241 29 250 27 251 25 C 252 24 252 12 252 10 C 250 7 250 7 219 7 C 203 7 188 7 186 7 C 184 7 178 7 173 7 C 169 7 148 7 128 7 z" fill="black"/><!-- width=384 height=438 -->
<path id="gl9228" d="M 76 10 C 55 15 43 37 48 58 C 52 75 69 88 87 87 C 113 85 130 60 121 34 C 115 16 94 5 76 10 M 93 147 C 78 151 54 156 36 160 C 22 163 20 164 20 172 C 20 180 21 181 34 183 C 50 186 53 189 54 202 C 55 210 55 353 54 359 C 52 372 48 375 31 378 C 19 381 18 381 18 391 C 18 398 19 400 23 401 C 27 402 150 401 153 400 C 156 398 157 396 157 390 C 157 381 156 380 144 378 C 126 375 121 371 120 359 C 119 356 118 321 118 256 C 118 147 118 147 116 145 C 114 142 111 142 93 147 z" fill="black"/><!-- width=171 height=471 -->
<path id="gl9226" d="M 107 9 C 105 9 97 11 89 13 C 76 16 51 21 30 25 C 18 27 17 28 17 37 C 17 46 18 46 31 49 C 46 51 50 53 53 63 C 54 66 54 363 53 372 C 52 385 47 390 33 393 C 30 393 25 394 24 394 C 19 395 17 397 16 402 C 16 408 17 413 20 415 C 22 417 148 417 151 415 C 154 414 156 411 156 405 C 156 396 154 394 144 393 C 124 390 119 386 118 373 C 118 370 117 289 117 192 C 117 61 117 15 116 13 C 115 11 112 8 111 9 C 110 9 109 9 107 9 z" fill="black"/><!-- width=169 height=444 -->
<path id="gl9226" d="M 107 9 C 105 9 97 11 89 13 C 76 16 51 21 30 25 C 18 27 17 28 17 37 C 17 46 18 46 31 49 C 46 51 50 53 53 63 C 54 66 54 363 53 372 C 52 385 47 390 33 393 C 30 393 25 394 24 394 C 19 395 17 397 16 402 C 16 408 17 413 20 415 C 22 417 148 417 151 415 C 154 414 156 411 156 405 C 156 396 154 394 144 393 C 124 390 119 386 118 373 C 118 370 117 289 117 192 C 117 61 117 15 116 13 C 115 11 112 8 111 9 C 110 9 109 9 107 9 z" fill="black"/><!-- width=169 height=444 -->
<path id="gl7697" d="M 232 126 C 214 127 213 127 213 135 C 211 144 215 148 222 150 C 245 153 246 154 240 171 C 239 175 236 182 234 187 C 233 192 230 198 229 202 C 228 206 225 212 224 215 C 222 219 220 225 219 229 C 213 244 212 247 210 253 C 208 257 206 262 205 265 C 199 280 196 286 193 286 C 193 285 184 266 182 259 C 181 256 180 253 180 252 C 178 249 176 243 172 234 C 172 231 169 226 168 221 C 166 217 163 209 162 204 C 156 188 154 182 152 178 C 150 172 147 162 147 160 C 147 154 150 153 162 150 C 171 149 172 147 172 138 C 172 133 172 130 170 128 C 168 126 48 126 45 128 C 41 130 40 132 40 138 C 40 147 42 149 55 151 C 71 154 76 159 85 181 C 85 183 87 187 88 189 C 89 191 91 196 93 201 C 96 209 100 219 106 237 C 108 241 111 248 112 251 C 114 255 117 262 118 267 C 123 277 127 288 132 301 C 133 306 136 312 137 315 C 138 318 141 325 143 331 C 145 336 148 344 150 348 C 151 352 153 358 154 361 C 158 372 159 376 156 384 C 155 388 151 399 150 400 C 150 401 148 403 147 406 C 138 429 121 450 102 463 C 93 470 89 477 89 486 C 89 494 91 498 99 506 C 115 523 135 520 142 500 C 144 495 151 473 156 460 C 158 454 161 445 163 441 C 165 436 168 427 170 423 C 172 418 175 411 177 406 C 178 402 181 395 183 391 C 184 388 187 380 190 374 C 192 368 197 357 200 351 C 210 326 212 320 216 312 C 218 307 220 302 220 300 C 222 297 226 286 234 270 C 235 267 238 261 239 256 C 243 247 250 231 257 216 C 259 211 262 204 264 201 C 273 181 282 165 288 159 C 291 155 298 152 307 150 C 318 148 320 146 320 138 C 320 131 319 129 316 127 C 315 127 314 126 313 126 C 302 126 291 126 280 126 C 262 126 240 126 232 126 z" fill="black"/><!-- width=333 height=529 -->
<path id="gl41222" d="z" fill="black"/><!-- width=33 height=14 -->
</defs>
<use xlink:href="#gl41216" x="0" y="45"/>
<use xlink:href="#gl41217" x="523" y="31"/>
<use xlink:href="#gl9226" x="657" y="10"/>
<use xlink:href="#gl9226" x="805" y="10"/>
<use xlink:href="#gl9228" x="956" y="24"/>
<use xlink:href="#gl41218" x="1123" y="155"/>
<use xlink:href="#gl41219" x="1368" y="155"/>
<use xlink:href="#gl41220" x="1373" y="419"/>
<use xlink:href="#gl41221" x="1522" y="415"/>
<use xlink:href="#gl41221" x="1673" y="415"/>
<use xlink:href="#gl29967" x="143" y="420"/>
<use xlink:href="#gl29967" x="350" y="420"/>
<use xlink:href="#gl29955" x="1872" y="38"/>
<use xlink:href="#gl9228" x="2236" y="17"/>
<use xlink:href="#gl9226" x="2381" y="1"/>
<use xlink:href="#gl9226" x="2529" y="0"/>
<use xlink:href="#gl7697" x="2641" y="37"/>
<use xlink:href="#gl41222" x="1186" y="429"/>
</svg>
