<?xml version='1.0' encoding='utf-8'?>
<svg xmlns="http://www.w3.org/2000/svg" xmlns:xlink="http://www.w3.org/1999/xlink" width="417px" height="247px" viewBox="0 0 4173 2474" version="1.1">
<defs>
<path id="gl1804" d="M 22 20 C 17 21 15 23 15 27 C 15 30 17 31 22 34 C 30 37 31 39 33 45 C 36 55 36 133 33 143 C 31 147 30 148 24 151 C 18 154 16 157 18 160 C 20 165 21 165 45 165 C 64 165 66 165 68 163 C 75 160 72 153 64 151 C 52 148 52 145 52 105 C 52 64 51 64 74 93 C 80 100 89 111 94 117 C 99 123 106 132 109 136 C 114 141 119 147 121 150 C 133 165 138 168 144 164 C 148 162 148 165 148 106 C 148 37 148 39 159 33 C 163 31 165 30 165 27 C 165 24 165 23 162 21 C 160 20 159 20 141 20 C 118 19 115 20 113 23 C 109 27 112 31 120 33 C 130 37 131 40 132 70 C 132 97 132 108 128 108 C 127 108 111 90 87 61 C 84 58 79 52 75 47 C 70 42 65 36 61 31 C 56 25 53 22 49 21 C 48 20 25 19 22 20 z" fill="black"/><!-- width=180 height=180 -->
<path id="gl3" d="M 38 8 C 34 9 30 12 28 15 C 25 19 25 27 27 31 C 37 49 61 37 55 18 C 53 12 46 7 38 8 M 45 61 C 39 63 28 66 25 66 C 18 67 15 69 14 74 C 13 78 15 80 24 82 C 30 84 30 82 30 116 C 30 150 30 150 25 153 C 24 153 22 153 21 154 C 19 154 15 156 13 157 C 12 160 12 162 15 165 C 16 166 17 167 18 168 C 20 168 22 168 24 168 C 31 167 50 167 57 168 C 63 168 65 168 68 165 C 73 160 67 153 58 153 C 57 153 54 151 53 148 C 52 146 52 91 53 75 C 54 69 53 67 53 66 C 52 63 48 60 45 61 z" fill="black"/><!-- width=81 height=202 -->
<path id="gl515" d="M 54 16 C 23 23 10 55 29 77 C 34 84 34 84 33 86 C 33 87 31 89 28 90 C 20 96 20 103 28 112 C 34 118 34 118 25 127 C 9 143 18 166 42 174 C 48 175 66 175 72 174 C 93 168 110 151 113 135 C 116 115 107 102 87 100 C 84 99 76 99 69 99 C 55 99 52 99 51 96 C 49 93 52 91 61 90 C 74 88 82 85 89 78 C 98 70 102 58 100 46 C 99 40 100 39 105 35 C 112 30 115 24 111 20 C 109 18 108 18 94 19 C 91 19 88 19 84 20 C 81 19 78 18 76 18 C 66 15 60 15 54 16 M 67 32 C 81 42 79 73 64 75 C 57 76 49 70 46 61 C 45 57 45 45 46 42 C 49 31 60 27 67 32 M 78 122 C 90 124 96 133 92 144 C 86 159 57 163 45 149 C 36 139 42 125 55 122 C 60 121 72 121 78 122 z" fill="black"/><!-- width=126 height=189 -->
<path id="gl5" d="M 43 12 C 31 14 30 15 28 17 C 24 21 26 24 33 27 C 40 30 40 24 40 91 C 40 130 40 150 39 152 C 39 156 37 157 33 160 C 26 163 25 169 31 172 C 34 172 70 172 73 171 C 79 169 78 163 70 159 C 64 156 63 154 64 120 C 64 112 64 105 64 97 C 64 96 65 95 66 94 C 72 85 88 84 96 91 C 101 96 102 101 102 129 C 102 156 102 156 94 160 C 90 162 89 163 89 166 C 88 172 91 172 114 172 C 136 172 138 172 138 166 C 138 163 137 162 133 159 C 131 158 129 156 128 156 C 127 155 127 154 126 154 C 126 144 126 135 126 125 C 126 109 125 95 125 93 C 119 69 97 60 72 72 C 69 73 66 73 64 72 C 64 71 64 64 63 43 C 63 5 64 6 43 12 z" fill="black"/><!-- width=152 height=210 -->
<path id="gl0" d="M 44 10 C 42 12 37 17 34 22 C 31 25 31 25 31 30 C 30 35 29 37 25 37 C 19 38 15 41 14 45 C 13 50 16 52 24 52 C 27 52 29 52 30 53 C 31 54 31 52 31 90 C 30 115 30 119 31 123 C 36 139 48 147 64 141 C 79 135 82 133 83 129 C 84 125 82 122 79 121 C 77 120 77 120 71 121 C 62 125 58 124 55 119 C 53 115 52 112 52 96 C 52 88 52 76 52 69 C 52 62 52 56 52 55 C 52 51 57 51 66 52 C 76 54 82 50 81 43 C 80 37 76 35 64 37 C 53 39 51 37 53 26 C 55 16 54 13 52 10 C 51 9 46 9 44 10 z" fill="black"/><!-- width=93 height=156 -->
<path id="gl5130" d="M 18 15 C 14 15 12 19 13 22 C 14 24 19 27 22 28 C 26 29 28 32 30 36 C 31 42 31 135 30 140 C 28 144 26 147 21 148 C 13 151 12 157 18 160 C 22 162 70 162 75 160 C 81 157 79 151 70 148 C 62 145 61 142 61 115 C 61 97 61 94 65 93 C 68 91 114 91 116 93 C 120 95 120 96 120 118 C 120 144 120 147 109 149 C 104 150 102 153 103 157 C 105 161 105 161 134 161 C 163 162 165 161 167 158 C 169 156 169 156 167 153 C 166 151 165 150 158 147 C 151 144 151 145 151 86 C 151 28 150 32 160 27 C 166 24 168 23 168 21 C 167 14 168 14 136 14 C 107 14 106 14 105 17 C 103 21 105 24 112 27 C 120 31 120 33 120 54 C 120 77 123 75 90 75 C 58 75 61 77 61 54 C 61 41 62 34 64 31 C 64 30 70 27 72 27 C 72 27 73 26 75 25 C 78 22 78 17 73 15 C 70 14 22 13 18 15 z" fill="black"/><!-- width=182 height=175 -->
<path id="gl10506" d="M 55 12 C 37 15 19 31 15 49 C 12 61 13 79 16 88 C 33 128 90 130 109 91 C 116 76 117 58 110 41 C 105 28 90 16 75 13 C 70 12 60 12 55 12 M 67 27 C 79 31 85 45 85 67 C 85 88 82 98 73 103 C 62 110 48 100 44 82 C 42 71 42 54 43 45 C 48 31 57 24 67 27 z" fill="black"/><!-- width=128 height=132 -->
<path id="gl257" d="M 31 9 C 28 10 24 10 21 10 C 14 10 10 12 10 16 C 9 21 12 24 18 25 C 22 26 23 27 24 30 C 25 31 25 44 25 60 C 24 93 25 96 31 105 C 40 117 62 118 75 108 C 78 106 82 103 84 103 C 85 103 87 105 87 108 C 89 114 91 115 101 112 C 103 112 109 111 113 110 C 123 109 126 106 126 102 C 127 98 124 96 117 95 C 110 94 109 93 108 88 C 108 79 109 19 110 19 C 111 18 109 12 108 10 C 106 9 103 8 97 9 C 94 9 88 10 82 10 C 73 10 71 11 69 14 C 66 19 70 24 78 25 C 87 26 87 25 87 60 C 87 67 87 76 87 84 C 87 85 86 86 85 87 C 84 89 83 90 79 92 C 63 100 51 97 48 85 C 46 81 46 38 48 24 C 48 9 46 7 31 9 z" fill="black"/><!-- width=136 height=128 -->
<path id="gl516" d="M 45 10 C 29 15 20 24 17 37 C 14 52 21 62 43 72 C 55 78 58 81 60 86 C 64 96 58 105 47 105 C 39 105 33 100 28 91 C 27 88 26 84 25 84 C 21 75 12 78 12 87 C 12 91 14 103 15 106 C 17 112 25 117 38 118 C 67 124 92 96 79 72 C 76 66 70 61 58 55 C 45 49 43 48 40 44 C 30 34 39 21 53 25 C 57 26 61 30 64 35 C 69 45 76 46 79 39 C 81 33 75 16 70 13 C 65 10 51 9 45 10 z" fill="black"/><!-- width=97 height=133 -->
<path id="gl513" d="M 58 16 C 43 20 28 36 24 52 C 19 69 19 75 22 86 C 30 118 62 133 88 117 C 102 108 108 100 103 94 C 99 91 95 91 90 96 C 78 106 62 105 51 94 C 44 85 39 70 42 66 C 44 63 44 63 56 63 C 66 64 70 64 93 62 C 102 61 105 57 105 48 C 103 26 80 10 58 16 M 72 31 C 78 34 82 42 80 46 C 78 49 76 50 66 51 C 61 51 56 51 54 51 C 44 52 41 48 46 40 C 53 31 63 27 72 31 z" fill="black"/><!-- width=118 height=138 -->
<path id="gl516" d="M 45 10 C 29 15 20 24 17 37 C 14 52 21 62 43 72 C 55 78 58 81 60 86 C 64 96 58 105 47 105 C 39 105 33 100 28 91 C 27 88 26 84 25 84 C 21 75 12 78 12 87 C 12 91 14 103 15 106 C 17 112 25 117 38 118 C 67 124 92 96 79 72 C 76 66 70 61 58 55 C 45 49 43 48 40 44 C 30 34 39 21 53 25 C 57 26 61 30 64 35 C 69 45 76 46 79 39 C 81 33 75 16 70 13 C 65 10 51 9 45 10 z" fill="black"/><!-- width=97 height=133 -->
<path id="gl2052" d="M 22 18 C 20 19 18 21 18 24 C 18 26 21 28 25 30 C 33 34 34 35 34 51 C 35 67 34 133 34 138 C 33 144 30 146 24 148 C 19 150 17 151 18 155 C 18 161 20 162 57 161 C 84 161 88 160 102 157 C 138 148 159 125 161 91 C 165 48 141 22 95 18 C 83 16 25 16 22 18 M 84 32 C 109 34 124 48 128 74 C 129 84 130 89 129 96 C 126 127 109 145 82 145 C 70 145 66 144 64 135 C 63 129 63 39 65 36 C 66 33 68 32 72 32 C 76 31 77 31 84 32 z" fill="black"/><!-- width=176 height=175 -->
<path id="gl30735" d="M 54 6 C 48 7 37 10 33 13 C 32 14 30 15 28 16 C 22 18 14 26 13 31 C 10 39 25 47 33 42 C 36 40 37 39 39 33 C 41 24 48 18 57 21 C 63 22 67 26 67 34 C 67 41 66 43 58 46 C 56 46 54 47 52 48 C 51 48 48 49 46 49 C 45 50 42 51 40 52 C 37 54 34 55 33 55 C 28 57 20 62 18 64 C 14 69 12 81 14 88 C 16 99 28 109 39 109 C 44 110 46 109 56 103 C 60 102 64 100 65 100 C 68 99 68 100 75 107 C 78 111 84 111 91 107 C 93 106 96 105 98 105 C 101 103 102 103 103 99 C 103 93 101 87 98 88 C 92 89 90 85 91 75 C 91 70 91 67 91 60 C 90 53 90 49 90 46 C 91 40 91 27 90 21 C 90 19 88 18 86 15 C 79 6 69 4 54 6 M 65 57 C 67 58 67 61 67 71 C 68 85 67 88 58 90 C 48 93 40 87 40 77 C 40 70 45 62 51 60 C 52 60 55 58 57 58 C 62 56 64 56 65 57 M 100 7 C 97 9 97 15 99 18 C 100 19 101 19 102 17 C 105 12 103 6 100 7 z" fill="black"/><!-- width=115 height=121 -->
<path id="gl2305" d="M 31 57 C 25 57 23 60 25 64 C 25 66 26 66 33 69 C 38 72 39 74 49 99 C 50 103 52 107 53 110 C 60 127 66 148 66 153 C 66 162 57 178 46 187 C 44 190 42 193 41 194 C 36 204 49 216 58 208 C 60 207 61 205 64 195 C 67 187 70 180 75 168 C 80 156 87 139 91 131 C 93 126 96 120 97 117 C 98 115 100 110 102 106 C 103 103 105 99 105 97 C 108 90 116 76 118 73 C 120 72 123 69 124 69 C 132 64 132 57 123 56 C 117 55 94 56 92 57 C 88 60 90 65 96 69 C 98 70 99 72 99 75 C 98 78 90 99 87 106 C 83 114 83 114 81 114 C 78 115 79 116 72 97 C 70 93 68 86 67 81 C 64 72 64 71 68 67 C 73 63 72 58 66 56 C 63 55 36 55 31 57 M 24 144 C 24 147 24 151 25 151 C 27 151 29 149 29 147 C 30 144 25 141 24 144 z" fill="black"/><!-- width=144 height=225 -->
<path id="gl2308" d="M 19 15 C 10 16 10 24 21 27 C 24 28 26 29 28 31 C 31 34 31 34 31 91 C 31 108 31 126 31 143 C 30 144 30 145 29 147 C 27 150 27 151 21 153 C 12 156 11 163 20 165 C 24 166 65 166 68 165 C 76 163 75 156 66 153 C 62 151 58 148 58 145 C 55 138 55 102 57 98 C 59 94 58 94 91 94 C 124 94 123 94 125 99 C 126 101 127 130 126 138 C 125 147 123 150 116 153 C 107 156 105 160 111 164 C 113 166 160 166 165 165 C 172 162 171 156 162 153 C 155 150 153 148 152 141 C 151 135 151 44 152 39 C 153 32 154 30 161 27 C 171 24 171 17 162 15 C 156 13 115 15 112 16 C 106 19 108 24 116 27 C 125 30 126 33 126 55 C 126 73 126 75 122 77 C 120 78 64 78 60 77 C 56 75 56 74 56 57 C 56 33 57 30 66 27 C 73 24 75 19 69 16 C 67 15 27 14 19 15 z" fill="black"/><!-- width=184 height=180 -->
<path id="gl3860" d="M 56 13 C 37 18 22 33 16 52 C 13 60 14 78 16 86 C 29 123 76 133 102 105 C 122 85 123 49 103 28 C 97 22 87 16 79 14 C 75 13 61 12 56 13 M 73 30 C 78 33 82 39 85 49 C 87 57 87 81 85 88 C 82 100 76 106 67 106 C 53 106 42 85 44 58 C 45 34 58 22 73 30 z" fill="black"/><!-- width=132 height=135 -->
<path id="gl257" d="M 31 9 C 28 10 24 10 21 10 C 14 10 10 12 10 16 C 9 21 12 24 18 25 C 22 26 23 27 24 30 C 25 31 25 44 25 60 C 24 93 25 96 31 105 C 40 117 62 118 75 108 C 78 106 82 103 84 103 C 85 103 87 105 87 108 C 89 114 91 115 101 112 C 103 112 109 111 113 110 C 123 109 126 106 126 102 C 127 98 124 96 117 95 C 110 94 109 93 108 88 C 108 79 109 19 110 19 C 111 18 109 12 108 10 C 106 9 103 8 97 9 C 94 9 88 10 82 10 C 73 10 71 11 69 14 C 66 19 70 24 78 25 C 87 26 87 25 87 60 C 87 67 87 76 87 84 C 87 85 86 86 85 87 C 84 89 83 90 79 92 C 63 100 51 97 48 85 C 46 81 46 38 48 24 C 48 9 46 7 31 9 z" fill="black"/><!-- width=136 height=128 -->
<path id="gl516" d="M 45 10 C 29 15 20 24 17 37 C 14 52 21 62 43 72 C 55 78 58 81 60 86 C 64 96 58 105 47 105 C 39 105 33 100 28 91 C 27 88 26 84 25 84 C 21 75 12 78 12 87 C 12 91 14 103 15 106 C 17 112 25 117 38 118 C 67 124 92 96 79 72 C 76 66 70 61 58 55 C 45 49 43 48 40 44 C 30 34 39 21 53 25 C 57 26 61 30 64 35 C 69 45 76 46 79 39 C 81 33 75 16 70 13 C 65 10 51 9 45 10 z" fill="black"/><!-- width=97 height=133 -->
<path id="gl3865" d="M 59 15 C 37 21 22 42 19 67 C 17 82 23 99 33 109 C 45 121 64 126 78 121 C 92 116 107 104 107 97 C 107 90 100 88 93 93 C 91 94 88 96 87 97 C 82 99 74 100 67 99 C 57 96 49 89 45 76 C 42 66 45 63 57 64 C 61 64 67 64 76 64 C 83 64 91 63 94 63 C 103 64 106 61 106 51 C 106 43 106 40 102 35 C 97 27 91 21 82 17 C 76 14 66 13 59 15 M 69 30 C 73 31 79 39 79 44 C 79 51 78 52 64 52 C 51 53 49 52 48 51 C 46 48 46 43 51 37 C 56 31 62 28 69 30 z" fill="black"/><!-- width=119 height=137 -->
<path id="gl10498" d="M 48 12 C 33 14 21 22 17 34 C 15 40 15 50 17 56 C 20 65 28 72 44 79 C 56 84 60 88 61 95 C 61 98 61 99 60 102 C 52 114 34 110 28 94 C 25 85 21 82 17 84 C 13 87 12 90 14 102 C 16 117 18 119 36 122 C 63 127 85 112 85 89 C 85 73 78 64 57 55 C 48 51 46 50 43 47 C 37 42 37 33 43 28 C 47 25 56 26 60 28 C 63 31 66 34 67 39 C 70 46 76 49 80 45 C 82 42 82 41 81 31 C 80 16 78 15 63 12 C 56 12 52 11 48 12 z" fill="black"/><!-- width=99 height=137 -->
<path id="gl30736" d="M 98 21 C 97 21 95 22 93 23 C 90 25 74 39 70 45 C 66 49 61 57 58 63 C 57 64 55 67 54 69 C 48 79 42 102 40 118 C 38 130 38 156 40 164 C 44 186 48 196 57 205 C 63 211 64 213 66 214 C 67 214 68 214 70 214 C 73 211 73 208 69 202 C 66 196 63 191 62 184 C 61 181 60 177 59 174 C 55 160 55 127 60 109 C 60 106 61 101 62 98 C 63 93 64 90 66 85 C 68 81 70 78 70 78 C 70 77 70 75 71 73 C 72 72 73 69 74 66 C 75 64 77 61 79 58 C 80 56 82 52 84 51 C 87 46 93 39 99 33 C 108 27 109 23 105 20 C 102 19 101 19 98 21 z" fill="black"/><!-- width=120 height=228 -->
<path id="gl30737" d="M 109 8 C 78 15 53 31 37 55 C 32 63 31 65 27 75 C 19 93 19 118 27 133 C 30 140 38 148 45 151 C 58 158 75 156 88 147 C 110 133 119 110 113 88 C 107 67 92 58 69 61 C 61 61 61 61 63 56 C 70 42 88 28 111 21 C 123 16 125 15 125 12 C 125 7 120 6 109 8 M 73 78 C 79 79 82 82 85 87 C 90 93 90 94 90 106 C 90 110 90 114 90 117 C 89 120 88 121 87 123 C 84 133 81 137 74 141 C 64 145 55 142 50 133 C 45 123 44 99 49 88 C 52 80 63 76 73 78 z" fill="black"/><!-- width=137 height=175 -->
<path id="gl514" d="M 17 19 C 12 22 10 27 10 31 C 11 36 13 37 18 39 C 24 41 26 43 28 46 C 31 54 27 64 16 69 C 10 72 9 76 11 80 C 15 85 19 85 28 77 C 42 67 48 57 47 44 C 46 27 29 13 17 19 z" fill="black"/><!-- width=60 height=94 -->
<path id="gl30738" d="M 46 22 C 43 24 42 27 35 49 C 34 51 33 55 32 58 C 23 85 24 91 37 88 C 42 87 53 86 58 87 C 74 90 81 109 75 131 C 70 144 60 151 46 151 C 39 151 35 150 29 146 C 19 140 16 139 12 142 C 4 147 6 156 15 162 C 40 179 89 156 99 122 C 105 100 98 81 81 72 C 73 69 66 67 56 68 C 51 68 47 68 47 68 C 45 66 45 60 49 50 C 53 41 52 41 78 40 C 100 40 100 40 103 37 C 109 31 109 24 104 22 C 101 20 49 20 46 22 z" fill="black"/><!-- width=127 height=181 -->
<path id="gl2315" d="M 21 17 C 14 18 11 22 12 28 C 12 33 13 35 19 36 C 27 39 30 43 29 49 C 28 56 25 60 16 65 C 12 67 9 72 11 74 C 13 76 22 76 27 74 C 33 71 44 58 46 52 C 46 48 46 39 46 36 C 45 31 39 24 36 21 C 30 16 29 16 21 17 z" fill="black"/><!-- width=61 height=87 -->
<path id="gl30739" d="M 92 8 C 90 9 83 14 80 18 C 76 22 68 31 64 37 C 60 41 48 55 40 64 C 37 67 33 73 30 76 C 10 99 8 103 9 107 C 10 113 11 113 34 114 C 55 114 57 114 60 117 C 61 119 61 121 60 129 C 57 136 55 139 48 140 C 39 142 36 148 42 152 C 43 153 82 154 87 153 C 96 152 96 142 88 140 C 82 139 82 136 83 126 C 84 115 85 114 96 113 C 103 112 106 110 106 104 C 106 100 103 97 98 97 C 88 96 88 93 91 79 C 92 76 94 68 95 61 C 96 54 98 43 99 36 C 103 16 103 10 99 9 C 97 8 94 7 92 8 M 72 52 C 73 55 72 65 70 73 C 69 78 68 83 67 86 C 66 96 64 97 49 96 C 37 96 37 96 37 93 C 37 92 38 90 39 88 C 40 87 42 84 43 82 C 51 71 69 51 72 51 C 72 51 72 52 72 52 z" fill="black"/><!-- width=135 height=175 -->
<path id="gl514" d="M 17 19 C 12 22 10 27 10 31 C 11 36 13 37 18 39 C 24 41 26 43 28 46 C 31 54 27 64 16 69 C 10 72 9 76 11 80 C 15 85 19 85 28 77 C 42 67 48 57 47 44 C 46 27 29 13 17 19 z" fill="black"/><!-- width=60 height=94 -->
<path id="gl30740" d="M 64 15 C 53 16 43 22 36 31 C 30 37 30 40 33 43 C 35 45 37 45 43 40 C 51 34 55 32 61 33 C 72 33 77 39 76 48 C 75 57 70 61 51 72 C 39 77 38 78 37 80 C 34 85 37 87 45 87 C 61 86 65 87 69 92 C 73 97 75 101 75 109 C 75 125 67 139 55 144 C 51 147 51 147 43 147 C 35 147 34 146 25 141 C 16 136 10 136 7 143 C 4 150 8 157 19 161 C 28 165 37 165 49 161 C 75 152 94 132 99 110 C 101 96 99 87 88 76 C 85 73 82 70 82 70 C 82 69 85 67 89 63 C 99 53 102 44 99 34 C 94 21 80 12 64 15 z" fill="black"/><!-- width=133 height=177 -->
<path id="gl514" d="M 17 19 C 12 22 10 27 10 31 C 11 36 13 37 18 39 C 24 41 26 43 28 46 C 31 54 27 64 16 69 C 10 72 9 76 11 80 C 15 85 19 85 28 77 C 42 67 48 57 47 44 C 46 27 29 13 17 19 z" fill="black"/><!-- width=60 height=94 -->
<path id="gl30741" d="M 68 8 C 67 8 63 9 61 10 C 58 11 55 12 54 12 C 51 13 42 20 40 23 C 39 24 37 27 35 29 C 30 36 28 40 32 43 C 34 45 37 44 40 40 C 51 28 63 25 74 30 C 85 35 88 54 80 67 C 79 67 79 70 78 72 C 77 73 75 76 73 78 C 72 80 69 82 69 84 C 63 91 45 110 35 118 C 31 121 27 126 24 129 C 21 132 17 135 15 136 C 4 145 3 154 11 156 C 13 157 77 157 80 156 C 87 155 91 151 96 142 C 99 134 100 131 97 127 C 96 126 96 126 95 126 C 94 126 93 126 93 126 C 92 126 90 127 87 130 C 81 135 81 135 64 135 C 48 135 47 135 45 131 C 45 130 45 130 44 129 C 48 126 51 123 54 120 C 59 115 67 108 70 104 C 87 89 100 75 103 67 C 108 57 109 55 108 43 C 108 33 106 27 101 21 C 94 12 78 6 68 8 z" fill="black"/><!-- width=133 height=178 -->
<path id="gl514" d="M 17 19 C 12 22 10 27 10 31 C 11 36 13 37 18 39 C 24 41 26 43 28 46 C 31 54 27 64 16 69 C 10 72 9 76 11 80 C 15 85 19 85 28 77 C 42 67 48 57 47 44 C 46 27 29 13 17 19 z" fill="black"/><!-- width=60 height=94 -->
<path id="gl30742" d="M 61 9 C 55 11 45 13 39 14 C 31 15 27 17 27 22 C 27 27 30 28 39 28 C 50 28 51 31 46 48 C 45 52 43 60 43 66 C 42 71 40 82 38 90 C 36 98 35 107 34 110 C 30 139 30 139 13 141 C 8 141 4 147 7 151 C 9 155 12 156 30 154 C 42 153 49 153 57 155 C 61 156 64 155 67 153 C 70 152 71 151 71 147 C 71 143 67 141 61 140 C 51 140 49 137 52 124 C 55 109 58 96 61 79 C 67 46 71 28 74 17 C 75 13 75 11 72 9 C 70 6 69 6 61 9 z" fill="black"/><!-- width=97 height=169 -->
<path id="gl30743" d="M 38 4 C 38 9 38 24 48 33 C 67 76 48 148 14 182 C 0 196 0 206 9 206 C 24 206 52 168 62 139 C 72 115 72 67 67 43 C 62 24 43 0 38 4 z" fill="black"/><!-- width=81 height=216 -->
<path id="gl30744" d="M 102 17 C 90 22 70 42 62 55 C 61 57 60 59 58 61 C 52 71 43 96 42 111 C 37 138 39 156 45 177 C 51 196 64 213 72 211 C 76 211 76 206 72 198 C 61 181 56 148 60 120 C 64 82 81 46 103 29 C 109 25 110 23 109 19 C 108 16 105 15 102 17 z" fill="black"/><!-- width=123 height=225 -->
<path id="gl30742" d="M 61 9 C 55 11 45 13 39 14 C 31 15 27 17 27 22 C 27 27 30 28 39 28 C 50 28 51 31 46 48 C 45 52 43 60 43 66 C 42 71 40 82 38 90 C 36 98 35 107 34 110 C 30 139 30 139 13 141 C 8 141 4 147 7 151 C 9 155 12 156 30 154 C 42 153 49 153 57 155 C 61 156 64 155 67 153 C 70 152 71 151 71 147 C 71 143 67 141 61 140 C 51 140 49 137 52 124 C 55 109 58 96 61 79 C 67 46 71 28 74 17 C 75 13 75 11 72 9 C 70 6 69 6 61 9 z" fill="black"/><!-- width=97 height=169 -->
<path id="gl30745" d="M 69 10 C 56 12 48 18 39 30 C 33 38 32 39 33 42 C 34 45 34 45 37 45 C 40 45 40 44 49 37 C 55 31 58 30 64 29 C 87 25 96 47 81 71 C 73 85 59 100 34 122 C 9 145 6 149 9 153 C 11 156 13 157 50 157 C 87 157 88 157 92 153 C 94 151 102 137 103 133 C 105 125 98 123 91 129 C 85 135 80 136 63 135 C 49 135 48 135 48 132 C 47 130 47 130 58 119 C 65 113 72 106 75 104 C 90 91 105 73 109 64 C 114 53 114 39 109 28 C 103 14 85 7 69 10 z" fill="black"/><!-- width=139 height=180 -->
<path id="gl514" d="M 17 19 C 12 22 10 27 10 31 C 11 36 13 37 18 39 C 24 41 26 43 28 46 C 31 54 27 64 16 69 C 10 72 9 76 11 80 C 15 85 19 85 28 77 C 42 67 48 57 47 44 C 46 27 29 13 17 19 z" fill="black"/><!-- width=60 height=94 -->
<path id="gl30742" d="M 61 9 C 55 11 45 13 39 14 C 31 15 27 17 27 22 C 27 27 30 28 39 28 C 50 28 51 31 46 48 C 45 52 43 60 43 66 C 42 71 40 82 38 90 C 36 98 35 107 34 110 C 30 139 30 139 13 141 C 8 141 4 147 7 151 C 9 155 12 156 30 154 C 42 153 49 153 57 155 C 61 156 64 155 67 153 C 70 152 71 151 71 147 C 71 143 67 141 61 140 C 51 140 49 137 52 124 C 55 109 58 96 61 79 C 67 46 71 28 74 17 C 75 13 75 11 72 9 C 70 6 69 6 61 9 z" fill="black"/><!-- width=97 height=169 -->
<path id="gl30742" d="M 61 9 C 55 11 45 13 39 14 C 31 15 27 17 27 22 C 27 27 30 28 39 28 C 50 28 51 31 46 48 C 45 52 43 60 43 66 C 42 71 40 82 38 90 C 36 98 35 107 34 110 C 30 139 30 139 13 141 C 8 141 4 147 7 151 C 9 155 12 156 30 154 C 42 153 49 153 57 155 C 61 156 64 155 67 153 C 70 152 71 151 71 147 C 71 143 67 141 61 140 C 51 140 49 137 52 124 C 55 109 58 96 61 79 C 67 46 71 28 74 17 C 75 13 75 11 72 9 C 70 6 69 6 61 9 z" fill="black"/><!-- width=97 height=169 -->
<path id="gl514" d="M 17 19 C 12 22 10 27 10 31 C 11 36 13 37 18 39 C 24 41 26 43 28 46 C 31 54 27 64 16 69 C 10 72 9 76 11 80 C 15 85 19 85 28 77 C 42 67 48 57 47 44 C 46 27 29 13 17 19 z" fill="black"/><!-- width=60 height=94 -->
<path id="gl30742" d="M 61 9 C 55 11 45 13 39 14 C 31 15 27 17 27 22 C 27 27 30 28 39 28 C 50 28 51 31 46 48 C 45 52 43 60 43 66 C 42 71 40 82 38 90 C 36 98 35 107 34 110 C 30 139 30 139 13 141 C 8 141 4 147 7 151 C 9 155 12 156 30 154 C 42 153 49 153 57 155 C 61 156 64 155 67 153 C 70 152 71 151 71 147 C 71 143 67 141 61 140 C 51 140 49 137 52 124 C 55 109 58 96 61 79 C 67 46 71 28 74 17 C 75 13 75 11 72 9 C 70 6 69 6 61 9 z" fill="black"/><!-- width=97 height=169 -->
<path id="gl29721" d="M 69 10 C 67 10 64 11 62 12 C 57 12 54 13 50 16 C 49 18 47 19 46 19 C 44 19 42 22 39 25 C 39 27 36 29 35 31 C 31 35 29 38 25 46 C 20 57 19 59 18 60 C 16 64 16 65 15 70 C 15 72 14 77 13 80 C 11 91 10 94 10 109 C 10 115 10 120 10 125 C 12 127 12 130 13 133 C 18 146 22 153 26 154 C 27 154 29 156 30 156 C 37 161 57 162 64 157 C 82 145 91 136 98 115 C 99 113 100 110 101 109 C 102 108 103 104 103 102 C 104 99 105 95 106 93 C 108 85 109 50 107 39 C 105 28 98 19 88 13 C 85 11 73 9 69 10 M 78 25 C 81 27 83 30 85 36 C 88 46 87 70 84 81 C 84 82 83 85 82 89 C 82 94 82 96 81 99 C 79 102 78 105 78 106 C 78 109 76 113 75 116 C 65 142 52 152 39 144 C 35 141 31 129 31 118 C 31 108 35 85 38 75 C 39 71 40 67 41 65 C 41 63 43 58 45 54 C 46 49 48 46 48 46 C 48 45 48 45 49 44 C 49 43 51 42 51 40 C 58 27 69 21 78 25 z" fill="black"/><!-- width=120 height=171 -->
<path id="gl514" d="M 17 19 C 12 22 10 27 10 31 C 11 36 13 37 18 39 C 24 41 26 43 28 46 C 31 54 27 64 16 69 C 10 72 9 76 11 80 C 15 85 19 85 28 77 C 42 67 48 57 47 44 C 46 27 29 13 17 19 z" fill="black"/><!-- width=60 height=94 -->
<path id="gl30746" d="M 60 25 C 48 28 43 31 34 40 C 23 51 19 61 18 76 C 18 92 24 105 36 112 C 44 116 57 118 66 115 C 69 114 72 115 72 116 C 72 117 69 123 67 125 C 66 126 65 127 64 129 C 61 133 49 145 43 148 C 37 153 26 158 19 160 C 9 164 6 168 9 171 C 13 176 22 175 42 168 C 53 164 56 162 70 152 C 90 137 105 112 109 88 C 111 81 111 63 109 56 C 108 48 102 38 96 33 C 88 25 73 23 60 25 M 72 39 C 75 39 81 44 82 48 C 87 57 87 83 83 91 C 80 96 63 100 56 97 C 48 92 43 86 43 75 C 43 66 43 62 46 54 C 51 42 62 36 72 39 z" fill="black"/><!-- width=128 height=187 -->
<path id="gl514" d="M 17 19 C 12 22 10 27 10 31 C 11 36 13 37 18 39 C 24 41 26 43 28 46 C 31 54 27 64 16 69 C 10 72 9 76 11 80 C 15 85 19 85 28 77 C 42 67 48 57 47 44 C 46 27 29 13 17 19 z" fill="black"/><!-- width=60 height=94 -->
<path id="gl30976" d="M 60 10 C 57 10 54 12 50 14 C 47 16 44 18 44 18 C 43 18 33 27 32 30 C 31 31 30 34 29 36 C 27 39 27 40 27 46 C 26 60 27 64 36 72 C 44 80 43 82 32 87 C 9 99 1 121 12 144 C 14 147 15 148 21 153 C 27 158 37 162 46 161 C 55 161 67 159 70 156 C 72 155 73 154 76 153 C 78 152 79 150 80 149 C 81 148 83 145 85 144 C 91 138 96 130 99 119 C 100 114 99 105 96 99 C 95 96 90 88 89 88 C 88 88 78 78 78 77 C 78 76 81 73 88 70 C 100 63 105 55 105 41 C 105 32 104 28 99 22 C 97 20 95 18 94 17 C 91 12 72 7 60 10 M 76 25 C 78 26 79 28 81 30 C 82 31 83 33 84 34 C 84 36 84 38 84 40 C 84 50 82 54 76 61 C 69 71 65 72 55 63 C 48 56 46 48 48 39 C 50 31 57 25 62 24 C 66 23 73 24 76 25 M 58 89 C 60 90 69 99 72 103 C 76 110 77 117 75 123 C 71 139 60 148 46 146 C 38 145 36 144 31 135 C 30 133 30 132 28 130 C 28 128 29 126 29 124 C 30 113 34 103 44 94 C 50 88 54 87 58 89 z" fill="black"/><!-- width=118 height=172 -->
<path id="gl514" d="M 17 19 C 12 22 10 27 10 31 C 11 36 13 37 18 39 C 24 41 26 43 28 46 C 31 54 27 64 16 69 C 10 72 9 76 11 80 C 15 85 19 85 28 77 C 42 67 48 57 47 44 C 46 27 29 13 17 19 z" fill="black"/><!-- width=60 height=94 -->
<path id="gl30977" d="M 19 24 C 9 43 19 48 28 38 C 38 28 81 19 81 28 C 81 33 9 134 4 139 C 0 144 4 153 14 148 C 24 148 33 144 48 120 C 120 0 120 4 62 4 C 48 4 33 4 24 4 C 19 14 19 19 19 24 z" fill="black"/><!-- width=115 height=163 -->
<path id="gl30978" d="M 33 9 C 33 14 38 24 48 33 C 67 72 52 139 19 177 C 0 206 0 216 28 192 C 72 158 86 67 62 28 C 52 9 33 0 33 9 z" fill="black"/><!-- width=86 height=216 -->
<path id="gl4111" d="M 25 19 C 20 20 18 20 16 21 C 11 25 14 30 22 32 C 29 34 33 39 34 46 C 36 52 36 109 35 126 C 34 151 33 156 24 158 C 18 160 15 164 18 168 C 19 169 19 169 20 170 C 23 170 27 170 30 171 C 55 172 67 171 70 168 C 73 165 71 160 63 158 C 51 154 50 152 50 100 C 50 69 50 67 53 67 C 55 66 57 67 97 117 C 137 166 138 168 141 169 C 145 172 149 171 151 167 C 152 165 152 161 153 106 C 153 33 152 36 164 31 C 171 28 172 24 166 21 C 164 19 134 19 125 19 C 114 21 113 28 124 32 C 136 36 137 37 137 84 C 137 118 137 120 134 120 C 132 120 127 114 98 79 C 48 19 51 23 48 21 C 44 19 38 19 25 19 z" fill="black"/><!-- width=184 height=186 -->
<path id="gl3" d="M 38 8 C 34 9 30 12 28 15 C 25 19 25 27 27 31 C 37 49 61 37 55 18 C 53 12 46 7 38 8 M 45 61 C 39 63 28 66 25 66 C 18 67 15 69 14 74 C 13 78 15 80 24 82 C 30 84 30 82 30 116 C 30 150 30 150 25 153 C 24 153 22 153 21 154 C 19 154 15 156 13 157 C 12 160 12 162 15 165 C 16 166 17 167 18 168 C 20 168 22 168 24 168 C 31 167 50 167 57 168 C 63 168 65 168 68 165 C 73 160 67 153 58 153 C 57 153 54 151 53 148 C 52 146 52 91 53 75 C 54 69 53 67 53 66 C 52 63 48 60 45 61 z" fill="black"/><!-- width=81 height=202 -->
<path id="gl515" d="M 54 16 C 23 23 10 55 29 77 C 34 84 34 84 33 86 C 33 87 31 89 28 90 C 20 96 20 103 28 112 C 34 118 34 118 25 127 C 9 143 18 166 42 174 C 48 175 66 175 72 174 C 93 168 110 151 113 135 C 116 115 107 102 87 100 C 84 99 76 99 69 99 C 55 99 52 99 51 96 C 49 93 52 91 61 90 C 74 88 82 85 89 78 C 98 70 102 58 100 46 C 99 40 100 39 105 35 C 112 30 115 24 111 20 C 109 18 108 18 94 19 C 91 19 88 19 84 20 C 81 19 78 18 76 18 C 66 15 60 15 54 16 M 67 32 C 81 42 79 73 64 75 C 57 76 49 70 46 61 C 45 57 45 45 46 42 C 49 31 60 27 67 32 M 78 122 C 90 124 96 133 92 144 C 86 159 57 163 45 149 C 36 139 42 125 55 122 C 60 121 72 121 78 122 z" fill="black"/><!-- width=126 height=189 -->
<path id="gl5" d="M 43 12 C 31 14 30 15 28 17 C 24 21 26 24 33 27 C 40 30 40 24 40 91 C 40 130 40 150 39 152 C 39 156 37 157 33 160 C 26 163 25 169 31 172 C 34 172 70 172 73 171 C 79 169 78 163 70 159 C 64 156 63 154 64 120 C 64 112 64 105 64 97 C 64 96 65 95 66 94 C 72 85 88 84 96 91 C 101 96 102 101 102 129 C 102 156 102 156 94 160 C 90 162 89 163 89 166 C 88 172 91 172 114 172 C 136 172 138 172 138 166 C 138 163 137 162 133 159 C 131 158 129 156 128 156 C 127 155 127 154 126 154 C 126 144 126 135 126 125 C 126 109 125 95 125 93 C 119 69 97 60 72 72 C 69 73 66 73 64 72 C 64 71 64 64 63 43 C 63 5 64 6 43 12 z" fill="black"/><!-- width=152 height=210 -->
<path id="gl0" d="M 44 10 C 42 12 37 17 34 22 C 31 25 31 25 31 30 C 30 35 29 37 25 37 C 19 38 15 41 14 45 C 13 50 16 52 24 52 C 27 52 29 52 30 53 C 31 54 31 52 31 90 C 30 115 30 119 31 123 C 36 139 48 147 64 141 C 79 135 82 133 83 129 C 84 125 82 122 79 121 C 77 120 77 120 71 121 C 62 125 58 124 55 119 C 53 115 52 112 52 96 C 52 88 52 76 52 69 C 52 62 52 56 52 55 C 52 51 57 51 66 52 C 76 54 82 50 81 43 C 80 37 76 35 64 37 C 53 39 51 37 53 26 C 55 16 54 13 52 10 C 51 9 46 9 44 10 z" fill="black"/><!-- width=93 height=156 -->
<path id="gl3087" d="M 26 15 C 16 16 16 23 25 27 C 30 28 33 31 34 36 C 35 39 36 129 35 139 C 34 148 32 151 24 153 C 19 154 17 156 17 159 C 17 165 21 166 57 165 C 87 165 97 164 112 159 C 147 146 165 120 164 82 C 163 45 141 21 100 15 C 94 15 32 14 26 15 M 97 29 C 118 34 131 46 135 69 C 137 76 137 99 135 106 C 129 134 110 150 81 151 C 69 151 64 150 62 145 C 60 141 59 129 60 79 C 60 27 59 31 64 28 C 67 27 88 27 97 29 z" fill="black"/><!-- width=178 height=178 -->
<path id="gl256" d="M 51 10 C 37 15 19 25 17 31 C 15 37 17 43 22 46 C 30 49 35 46 39 36 C 43 24 55 20 64 28 C 69 33 70 46 66 49 C 66 50 61 52 57 54 C 42 58 27 65 23 69 C 8 82 15 109 36 115 C 45 118 51 116 61 107 C 64 105 64 105 67 105 C 68 105 69 105 70 105 C 71 106 72 108 73 109 C 78 116 82 117 91 113 C 93 112 97 111 100 109 C 105 108 107 106 107 102 C 108 96 105 94 98 95 C 88 96 88 97 89 58 C 89 26 89 26 85 21 C 79 10 65 6 51 10 M 67 63 C 68 64 69 64 69 64 C 69 69 69 72 69 76 C 69 91 69 92 60 96 C 52 99 47 99 42 94 C 39 92 38 90 39 85 C 39 78 41 74 49 69 C 64 61 65 61 67 63 z" fill="black"/><!-- width=118 height=135 -->
<path id="gl769" d="M 37 58 C 26 58 25 59 24 63 C 22 66 24 69 29 70 C 36 73 38 76 43 90 C 44 93 46 98 47 101 C 49 105 51 111 52 115 C 59 133 64 149 64 153 C 65 163 57 179 46 190 C 40 196 38 199 39 203 C 40 212 51 217 57 212 C 59 210 61 207 64 199 C 65 195 67 189 69 185 C 72 176 90 134 94 124 C 96 121 97 117 98 115 C 105 100 114 81 117 77 C 118 75 121 73 123 72 C 129 68 131 65 129 61 C 126 58 124 58 113 58 C 94 57 90 58 88 63 C 88 66 89 68 93 70 C 98 73 98 75 93 89 C 85 110 81 118 79 115 C 76 114 73 105 66 84 C 63 75 63 75 67 69 C 69 67 71 66 71 65 C 71 63 69 60 67 59 C 64 58 51 58 37 58 z" fill="black"/><!-- width=143 height=229 -->
<path id="gl1029" d="M 51 11 C 28 16 15 33 16 55 C 16 74 26 84 53 97 C 66 103 73 108 76 112 C 85 125 81 145 67 151 C 51 158 34 150 26 130 C 22 120 20 118 16 118 C 11 118 8 123 9 129 C 10 135 15 153 15 155 C 19 166 54 172 73 165 C 93 157 105 139 103 118 C 103 99 93 87 68 76 C 49 67 43 63 39 56 C 33 44 40 29 52 26 C 66 22 79 30 82 45 C 84 51 89 55 93 54 C 97 51 99 46 97 40 C 97 39 96 34 96 30 C 93 16 92 15 80 12 C 73 10 56 10 51 11 z" fill="black"/><!-- width=117 height=181 -->
<path id="gl1" d="M 60 16 C 32 23 14 55 20 86 C 25 114 57 132 81 120 C 94 114 104 105 103 99 C 102 91 96 90 87 97 C 76 106 61 105 49 94 C 44 88 39 76 40 69 C 40 64 42 63 55 64 C 63 65 67 64 76 64 C 82 63 88 63 90 63 C 104 63 108 52 100 37 C 92 21 75 12 60 16 M 71 32 C 78 36 82 45 78 49 C 76 51 72 52 65 51 C 63 51 57 51 53 52 C 51 52 49 52 46 52 C 46 52 45 51 45 51 C 41 47 45 39 53 34 C 58 30 66 29 71 32 z" fill="black"/><!-- width=116 height=138 -->
<path id="gl258" d="M 39 9 C 36 10 30 11 27 12 C 20 12 16 13 15 16 C 13 21 16 26 21 27 C 27 27 28 28 30 30 C 31 33 31 148 30 152 C 30 156 27 157 22 158 C 15 159 11 167 16 171 C 19 173 20 173 33 172 C 42 171 45 171 53 172 C 63 173 66 173 69 170 C 74 165 69 158 60 158 C 57 158 54 156 54 153 C 53 151 53 130 53 81 C 54 6 54 10 51 8 C 48 7 47 7 39 9 z" fill="black"/><!-- width=83 height=189 -->
<path id="gl770" d="M 84 13 C 63 19 47 39 44 61 C 43 70 42 72 36 75 C 27 79 27 87 37 88 C 43 90 43 90 43 125 C 43 162 43 161 36 164 C 29 167 28 174 36 176 C 38 177 78 177 79 175 C 86 173 85 166 78 165 C 76 164 75 163 73 163 C 70 162 67 159 67 156 C 66 152 66 94 67 92 C 68 89 70 88 79 88 C 89 88 93 86 93 81 C 93 76 89 74 79 73 C 66 73 66 72 67 55 C 69 31 76 25 93 35 C 99 39 102 39 106 36 C 118 25 101 9 84 13 z" fill="black"/><!-- width=124 height=190 -->
<path id="gl4887" d="M 80 13 C 61 16 49 22 37 34 C 12 60 6 99 22 133 C 42 171 97 183 133 155 C 171 127 175 64 140 32 C 124 17 101 10 80 13 M 96 28 C 121 33 137 60 136 99 C 136 128 123 151 101 155 C 75 160 53 145 44 114 C 41 105 41 101 41 88 C 40 55 52 34 75 28 C 79 27 90 27 96 28 z" fill="black"/><!-- width=178 height=184 -->
<path id="gl0" d="M 44 10 C 42 12 37 17 34 22 C 31 25 31 25 31 30 C 30 35 29 37 25 37 C 19 38 15 41 14 45 C 13 50 16 52 24 52 C 27 52 29 52 30 53 C 31 54 31 52 31 90 C 30 115 30 119 31 123 C 36 139 48 147 64 141 C 79 135 82 133 83 129 C 84 125 82 122 79 121 C 77 120 77 120 71 121 C 62 125 58 124 55 119 C 53 115 52 112 52 96 C 52 88 52 76 52 69 C 52 62 52 56 52 55 C 52 51 57 51 66 52 C 76 54 82 50 81 43 C 80 37 76 35 64 37 C 53 39 51 37 53 26 C 55 16 54 13 52 10 C 51 9 46 9 44 10 z" fill="black"/><!-- width=93 height=156 -->
<path id="gl5" d="M 43 12 C 31 14 30 15 28 17 C 24 21 26 24 33 27 C 40 30 40 24 40 91 C 40 130 40 150 39 152 C 39 156 37 157 33 160 C 26 163 25 169 31 172 C 34 172 70 172 73 171 C 79 169 78 163 70 159 C 64 156 63 154 64 120 C 64 112 64 105 64 97 C 64 96 65 95 66 94 C 72 85 88 84 96 91 C 101 96 102 101 102 129 C 102 156 102 156 94 160 C 90 162 89 163 89 166 C 88 172 91 172 114 172 C 136 172 138 172 138 166 C 138 163 137 162 133 159 C 131 158 129 156 128 156 C 127 155 127 154 126 154 C 126 144 126 135 126 125 C 126 109 125 95 125 93 C 119 69 97 60 72 72 C 69 73 66 73 64 72 C 64 71 64 64 63 43 C 63 5 64 6 43 12 z" fill="black"/><!-- width=152 height=210 -->
<path id="gl1" d="M 60 16 C 32 23 14 55 20 86 C 25 114 57 132 81 120 C 94 114 104 105 103 99 C 102 91 96 90 87 97 C 76 106 61 105 49 94 C 44 88 39 76 40 69 C 40 64 42 63 55 64 C 63 65 67 64 76 64 C 82 63 88 63 90 63 C 104 63 108 52 100 37 C 92 21 75 12 60 16 M 71 32 C 78 36 82 45 78 49 C 76 51 72 52 65 51 C 63 51 57 51 53 52 C 51 52 49 52 46 52 C 46 52 45 51 45 51 C 41 47 45 39 53 34 C 58 30 66 29 71 32 z" fill="black"/><!-- width=116 height=138 -->
<path id="gl512" d="M 79 23 C 76 24 73 26 69 31 C 61 39 59 40 58 33 C 58 24 57 22 46 25 C 45 26 39 27 36 28 C 27 29 25 30 22 33 C 19 37 23 42 30 43 C 34 43 36 45 37 46 C 38 49 38 109 37 111 C 36 114 32 115 28 116 C 21 117 18 124 24 128 C 25 130 26 130 31 129 C 43 129 55 128 61 129 C 72 130 76 129 78 126 C 80 120 77 117 70 115 C 63 115 60 114 59 109 C 59 109 59 97 58 83 C 58 75 58 67 58 58 C 59 58 60 57 60 55 C 64 49 69 46 73 46 C 75 46 77 46 80 48 C 88 52 94 51 97 44 C 103 32 92 19 79 23 z" fill="black"/><!-- width=109 height=142 -->
<path id="gl516" d="M 45 10 C 29 15 20 24 17 37 C 14 52 21 62 43 72 C 55 78 58 81 60 86 C 64 96 58 105 47 105 C 39 105 33 100 28 91 C 27 88 26 84 25 84 C 21 75 12 78 12 87 C 12 91 14 103 15 106 C 17 112 25 117 38 118 C 67 124 92 96 79 72 C 76 66 70 61 58 55 C 45 49 43 48 40 44 C 30 34 39 21 53 25 C 57 26 61 30 64 35 C 69 45 76 46 79 39 C 81 33 75 16 70 13 C 65 10 51 9 45 10 z" fill="black"/><!-- width=97 height=133 -->
<path id="gl3337" d="M 37 34 C 33 34 29 34 28 34 C 27 36 25 39 25 40 C 25 42 28 45 31 46 C 37 48 40 51 40 58 C 42 64 42 154 40 160 C 40 167 37 169 30 172 C 22 174 22 180 28 183 C 31 184 79 184 83 183 C 86 182 87 180 86 177 C 85 174 83 173 78 172 C 68 169 67 167 67 148 C 66 123 66 124 81 124 C 99 124 110 120 121 110 C 132 100 135 90 135 75 C 134 52 121 38 96 34 C 89 33 53 33 37 34 M 91 49 C 102 53 107 61 108 76 C 109 97 97 110 77 109 C 72 109 70 108 68 105 C 67 103 67 102 67 78 C 67 49 67 50 71 48 C 74 47 86 48 91 49 z" fill="black"/><!-- width=149 height=199 -->
<path id="gl768" d="M 81 24 C 78 24 75 27 69 33 C 68 34 66 36 64 37 C 64 37 63 37 63 37 C 61 36 61 36 61 34 C 61 30 59 27 57 25 C 55 24 54 24 48 25 C 45 27 40 28 37 28 C 28 29 26 30 24 34 C 24 35 23 36 22 37 C 23 37 24 38 24 39 C 25 42 28 43 32 43 C 40 45 39 43 39 80 C 39 117 40 114 30 115 C 22 117 20 123 25 128 C 27 129 30 130 44 129 C 52 128 54 128 61 129 C 74 130 79 130 80 126 C 82 120 79 116 70 115 C 64 114 64 114 62 111 C 61 109 61 108 61 93 C 61 85 61 74 61 69 C 60 58 61 55 66 51 C 71 45 76 45 82 49 C 94 58 107 40 97 28 C 94 24 87 22 81 24 z" fill="black"/><!-- width=113 height=142 -->
<path id="gl3" d="M 38 8 C 34 9 30 12 28 15 C 25 19 25 27 27 31 C 37 49 61 37 55 18 C 53 12 46 7 38 8 M 45 61 C 39 63 28 66 25 66 C 18 67 15 69 14 74 C 13 78 15 80 24 82 C 30 84 30 82 30 116 C 30 150 30 150 25 153 C 24 153 22 153 21 154 C 19 154 15 156 13 157 C 12 160 12 162 15 165 C 16 166 17 167 18 168 C 20 168 22 168 24 168 C 31 167 50 167 57 168 C 63 168 65 168 68 165 C 73 160 67 153 58 153 C 57 153 54 151 53 148 C 52 146 52 91 53 75 C 54 69 53 67 53 66 C 52 63 48 60 45 61 z" fill="black"/><!-- width=81 height=202 -->
<path id="gl2060" d="M 20 36 C 18 38 18 42 19 46 C 19 49 21 50 24 51 C 30 52 31 53 43 82 C 43 85 45 90 46 93 C 48 96 49 100 50 102 C 54 109 57 117 58 125 C 63 139 64 142 70 142 C 75 142 76 139 81 126 C 82 120 84 115 85 113 C 85 111 87 108 87 106 C 88 105 89 103 89 102 C 90 102 96 87 101 75 C 110 55 111 53 116 51 C 123 49 124 48 125 47 C 126 44 126 40 124 39 C 122 36 119 35 109 36 C 104 36 98 36 94 36 C 86 35 82 37 82 42 C 82 45 83 47 87 49 C 93 52 93 53 88 66 C 86 72 82 85 80 93 C 79 96 76 102 74 102 C 72 102 69 96 67 88 C 66 84 63 75 58 61 C 55 52 55 51 60 48 C 66 45 67 42 63 38 C 62 37 61 36 60 36 C 57 36 54 36 51 36 C 45 36 38 36 34 36 C 31 36 27 35 25 35 C 21 34 21 34 20 36 M 19 122 C 17 124 17 130 19 132 C 21 135 22 134 24 132 C 27 126 24 118 19 122 z" fill="black"/><!-- width=137 height=154 -->
<path id="gl256" d="M 51 10 C 37 15 19 25 17 31 C 15 37 17 43 22 46 C 30 49 35 46 39 36 C 43 24 55 20 64 28 C 69 33 70 46 66 49 C 66 50 61 52 57 54 C 42 58 27 65 23 69 C 8 82 15 109 36 115 C 45 118 51 116 61 107 C 64 105 64 105 67 105 C 68 105 69 105 70 105 C 71 106 72 108 73 109 C 78 116 82 117 91 113 C 93 112 97 111 100 109 C 105 108 107 106 107 102 C 108 96 105 94 98 95 C 88 96 88 97 89 58 C 89 26 89 26 85 21 C 79 10 65 6 51 10 M 67 63 C 68 64 69 64 69 64 C 69 69 69 72 69 76 C 69 91 69 92 60 96 C 52 99 47 99 42 94 C 39 92 38 90 39 85 C 39 78 41 74 49 69 C 64 61 65 61 67 63 z" fill="black"/><!-- width=118 height=135 -->
<path id="gl0" d="M 44 10 C 42 12 37 17 34 22 C 31 25 31 25 31 30 C 30 35 29 37 25 37 C 19 38 15 41 14 45 C 13 50 16 52 24 52 C 27 52 29 52 30 53 C 31 54 31 52 31 90 C 30 115 30 119 31 123 C 36 139 48 147 64 141 C 79 135 82 133 83 129 C 84 125 82 122 79 121 C 77 120 77 120 71 121 C 62 125 58 124 55 119 C 53 115 52 112 52 96 C 52 88 52 76 52 69 C 52 62 52 56 52 55 C 52 51 57 51 66 52 C 76 54 82 50 81 43 C 80 37 76 35 64 37 C 53 39 51 37 53 26 C 55 16 54 13 52 10 C 51 9 46 9 44 10 z" fill="black"/><!-- width=93 height=156 -->
<path id="gl1" d="M 60 16 C 32 23 14 55 20 86 C 25 114 57 132 81 120 C 94 114 104 105 103 99 C 102 91 96 90 87 97 C 76 106 61 105 49 94 C 44 88 39 76 40 69 C 40 64 42 63 55 64 C 63 65 67 64 76 64 C 82 63 88 63 90 63 C 104 63 108 52 100 37 C 92 21 75 12 60 16 M 71 32 C 78 36 82 45 78 49 C 76 51 72 52 65 51 C 63 51 57 51 53 52 C 51 52 49 52 46 52 C 46 52 45 51 45 51 C 41 47 45 39 53 34 C 58 30 66 29 71 32 z" fill="black"/><!-- width=116 height=138 -->
<path id="gl2068" d="M 31 33 C 27 33 25 36 25 39 C 26 41 27 42 32 44 C 36 46 39 48 40 52 C 42 56 42 153 40 159 C 39 166 37 168 31 170 C 24 173 22 178 28 181 C 31 183 78 183 82 181 C 89 179 87 172 80 171 C 67 167 67 166 67 143 C 66 123 67 121 75 123 C 101 126 126 111 133 90 C 135 82 136 72 134 64 C 130 47 119 37 99 33 C 94 32 35 31 31 33 M 88 46 C 102 49 108 58 108 75 C 108 95 97 108 79 108 C 76 108 73 107 72 106 C 67 104 67 104 66 84 C 66 52 66 48 71 46 C 73 45 82 45 88 46 z" fill="black"/><!-- width=149 height=196 -->
<path id="gl257" d="M 31 9 C 28 10 24 10 21 10 C 14 10 10 12 10 16 C 9 21 12 24 18 25 C 22 26 23 27 24 30 C 25 31 25 44 25 60 C 24 93 25 96 31 105 C 40 117 62 118 75 108 C 78 106 82 103 84 103 C 85 103 87 105 87 108 C 89 114 91 115 101 112 C 103 112 109 111 113 110 C 123 109 126 106 126 102 C 127 98 124 96 117 95 C 110 94 109 93 108 88 C 108 79 109 19 110 19 C 111 18 109 12 108 10 C 106 9 103 8 97 9 C 94 9 88 10 82 10 C 73 10 71 11 69 14 C 66 19 70 24 78 25 C 87 26 87 25 87 60 C 87 67 87 76 87 84 C 87 85 86 86 85 87 C 84 89 83 90 79 92 C 63 100 51 97 48 85 C 46 81 46 38 48 24 C 48 9 46 7 31 9 z" fill="black"/><!-- width=136 height=128 -->
<path id="gl773" d="M 37 12 C 24 15 22 16 22 21 C 22 23 24 25 28 27 C 35 31 34 24 35 97 C 35 118 35 139 35 160 C 36 161 36 162 36 163 C 41 172 68 177 86 172 C 128 162 145 108 115 79 C 102 67 88 63 70 68 C 58 72 58 73 58 40 C 58 6 58 6 37 12 M 80 85 C 87 87 95 93 99 100 C 103 107 103 111 103 122 C 103 136 100 145 94 151 C 84 163 62 161 60 147 C 58 142 58 92 60 90 C 62 84 69 83 80 85 z" fill="black"/><!-- width=142 height=202 -->
<path id="gl2066" d="M 38 9 C 36 10 30 12 26 12 C 18 13 15 15 13 18 C 11 22 14 26 21 28 C 26 28 27 29 28 32 C 30 36 30 151 28 154 C 27 157 24 159 20 159 C 15 160 13 162 13 167 C 13 169 13 170 15 171 C 18 174 19 174 26 174 C 35 172 48 172 55 174 C 61 175 63 174 66 172 C 69 169 69 169 69 166 C 69 162 67 160 60 159 C 55 158 54 157 52 154 C 51 152 51 38 52 24 C 53 9 50 6 38 9 z" fill="black"/><!-- width=80 height=192 -->
<path id="gl3" d="M 38 8 C 34 9 30 12 28 15 C 25 19 25 27 27 31 C 37 49 61 37 55 18 C 53 12 46 7 38 8 M 45 61 C 39 63 28 66 25 66 C 18 67 15 69 14 74 C 13 78 15 80 24 82 C 30 84 30 82 30 116 C 30 150 30 150 25 153 C 24 153 22 153 21 154 C 19 154 15 156 13 157 C 12 160 12 162 15 165 C 16 166 17 167 18 168 C 20 168 22 168 24 168 C 31 167 50 167 57 168 C 63 168 65 168 68 165 C 73 160 67 153 58 153 C 57 153 54 151 53 148 C 52 146 52 91 53 75 C 54 69 53 67 53 66 C 52 63 48 60 45 61 z" fill="black"/><!-- width=81 height=202 -->
<path id="gl260" d="M 72 10 C 34 17 13 61 33 93 C 46 116 74 123 94 110 C 110 99 117 90 111 85 C 107 81 102 82 96 88 C 79 104 54 93 49 68 C 45 46 55 27 72 26 C 79 25 83 27 91 33 C 97 38 103 37 107 31 C 110 27 111 21 108 17 C 103 10 87 7 72 10 z" fill="black"/><!-- width=124 height=133 -->
<path id="gl1029" d="M 51 11 C 28 16 15 33 16 55 C 16 74 26 84 53 97 C 66 103 73 108 76 112 C 85 125 81 145 67 151 C 51 158 34 150 26 130 C 22 120 20 118 16 118 C 11 118 8 123 9 129 C 10 135 15 153 15 155 C 19 166 54 172 73 165 C 93 157 105 139 103 118 C 103 99 93 87 68 76 C 49 67 43 63 39 56 C 33 44 40 29 52 26 C 66 22 79 30 82 45 C 84 51 89 55 93 54 C 97 51 99 46 97 40 C 97 39 96 34 96 30 C 93 16 92 15 80 12 C 73 10 56 10 51 11 z" fill="black"/><!-- width=117 height=181 -->
<path id="gl257" d="M 31 9 C 28 10 24 10 21 10 C 14 10 10 12 10 16 C 9 21 12 24 18 25 C 22 26 23 27 24 30 C 25 31 25 44 25 60 C 24 93 25 96 31 105 C 40 117 62 118 75 108 C 78 106 82 103 84 103 C 85 103 87 105 87 108 C 89 114 91 115 101 112 C 103 112 109 111 113 110 C 123 109 126 106 126 102 C 127 98 124 96 117 95 C 110 94 109 93 108 88 C 108 79 109 19 110 19 C 111 18 109 12 108 10 C 106 9 103 8 97 9 C 94 9 88 10 82 10 C 73 10 71 11 69 14 C 66 19 70 24 78 25 C 87 26 87 25 87 60 C 87 67 87 76 87 84 C 87 85 86 86 85 87 C 84 89 83 90 79 92 C 63 100 51 97 48 85 C 46 81 46 38 48 24 C 48 9 46 7 31 9 z" fill="black"/><!-- width=136 height=128 -->
<path id="gl773" d="M 37 12 C 24 15 22 16 22 21 C 22 23 24 25 28 27 C 35 31 34 24 35 97 C 35 118 35 139 35 160 C 36 161 36 162 36 163 C 41 172 68 177 86 172 C 128 162 145 108 115 79 C 102 67 88 63 70 68 C 58 72 58 73 58 40 C 58 6 58 6 37 12 M 80 85 C 87 87 95 93 99 100 C 103 107 103 111 103 122 C 103 136 100 145 94 151 C 84 163 62 161 60 147 C 58 142 58 92 60 90 C 62 84 69 83 80 85 z" fill="black"/><!-- width=142 height=202 -->
<path id="gl2073" d="M 40 9 C 28 11 24 28 34 36 C 42 43 55 39 58 29 C 62 17 52 6 40 9 M 45 61 C 39 64 33 66 28 66 C 13 68 11 78 25 82 C 33 84 33 82 33 120 C 32 179 30 191 15 198 C 8 202 6 204 6 210 C 6 220 15 224 23 217 C 31 209 43 192 49 177 C 55 162 56 157 56 121 C 56 105 56 87 57 79 C 57 68 57 67 56 65 C 54 61 50 60 45 61 z" fill="black"/><!-- width=81 height=232 -->
<path id="gl1" d="M 60 16 C 32 23 14 55 20 86 C 25 114 57 132 81 120 C 94 114 104 105 103 99 C 102 91 96 90 87 97 C 76 106 61 105 49 94 C 44 88 39 76 40 69 C 40 64 42 63 55 64 C 63 65 67 64 76 64 C 82 63 88 63 90 63 C 104 63 108 52 100 37 C 92 21 75 12 60 16 M 71 32 C 78 36 82 45 78 49 C 76 51 72 52 65 51 C 63 51 57 51 53 52 C 51 52 49 52 46 52 C 46 52 45 51 45 51 C 41 47 45 39 53 34 C 58 30 66 29 71 32 z" fill="black"/><!-- width=116 height=138 -->
<path id="gl260" d="M 72 10 C 34 17 13 61 33 93 C 46 116 74 123 94 110 C 110 99 117 90 111 85 C 107 81 102 82 96 88 C 79 104 54 93 49 68 C 45 46 55 27 72 26 C 79 25 83 27 91 33 C 97 38 103 37 107 31 C 110 27 111 21 108 17 C 103 10 87 7 72 10 z" fill="black"/><!-- width=124 height=133 -->
<path id="gl0" d="M 44 10 C 42 12 37 17 34 22 C 31 25 31 25 31 30 C 30 35 29 37 25 37 C 19 38 15 41 14 45 C 13 50 16 52 24 52 C 27 52 29 52 30 53 C 31 54 31 52 31 90 C 30 115 30 119 31 123 C 36 139 48 147 64 141 C 79 135 82 133 83 129 C 84 125 82 122 79 121 C 77 120 77 120 71 121 C 62 125 58 124 55 119 C 53 115 52 112 52 96 C 52 88 52 76 52 69 C 52 62 52 56 52 55 C 52 51 57 51 66 52 C 76 54 82 50 81 43 C 80 37 76 35 64 37 C 53 39 51 37 53 26 C 55 16 54 13 52 10 C 51 9 46 9 44 10 z" fill="black"/><!-- width=93 height=156 -->
<path id="gl3" d="M 38 8 C 34 9 30 12 28 15 C 25 19 25 27 27 31 C 37 49 61 37 55 18 C 53 12 46 7 38 8 M 45 61 C 39 63 28 66 25 66 C 18 67 15 69 14 74 C 13 78 15 80 24 82 C 30 84 30 82 30 116 C 30 150 30 150 25 153 C 24 153 22 153 21 154 C 19 154 15 156 13 157 C 12 160 12 162 15 165 C 16 166 17 167 18 168 C 20 168 22 168 24 168 C 31 167 50 167 57 168 C 63 168 65 168 68 165 C 73 160 67 153 58 153 C 57 153 54 151 53 148 C 52 146 52 91 53 75 C 54 69 53 67 53 66 C 52 63 48 60 45 61 z" fill="black"/><!-- width=81 height=202 -->
<path id="gl1027" d="M 93 38 C 88 39 85 40 84 42 C 84 45 84 46 88 51 C 90 52 91 53 93 54 C 92 55 92 56 92 57 C 91 62 82 87 79 93 C 75 102 74 100 65 76 C 57 55 57 55 61 51 C 64 46 65 46 64 43 C 63 39 62 39 42 39 C 22 38 20 39 18 42 C 16 46 18 48 24 52 C 31 55 28 49 54 114 C 64 140 66 141 70 141 C 76 141 76 140 87 112 C 93 96 103 72 108 62 C 111 55 113 54 118 51 C 123 49 124 46 123 42 C 121 39 120 38 108 38 C 102 38 95 38 93 38 z" fill="black"/><!-- width=138 height=156 -->
<path id="gl518" d="M 57 15 C 39 21 24 41 20 65 C 17 87 29 110 48 118 C 64 126 80 123 96 109 C 105 103 106 99 103 94 C 100 90 97 90 90 95 C 80 102 73 104 64 101 C 54 97 47 90 43 78 C 38 64 40 61 56 62 C 67 63 91 61 97 60 C 111 58 105 31 87 19 C 80 15 67 13 57 15 M 71 30 C 78 33 83 42 79 46 C 78 49 76 49 61 50 C 46 50 46 50 45 49 C 42 45 48 36 56 31 C 61 28 66 28 71 30 z" fill="black"/><!-- width=118 height=136 -->
<path id="gl3340" d="M 82 13 C 81 13 79 14 76 15 C 46 19 22 43 15 75 C 13 84 13 102 15 111 C 21 138 39 158 64 166 C 78 171 100 171 115 165 C 145 154 163 128 163 93 C 164 64 154 42 134 27 C 120 17 99 11 82 13 M 91 28 C 115 30 131 50 135 79 C 141 124 124 156 92 156 C 64 156 43 130 41 94 C 38 54 55 28 85 27 C 85 27 88 27 91 28 z" fill="black"/><!-- width=178 height=184 -->
<path id="gl773" d="M 37 12 C 24 15 22 16 22 21 C 22 23 24 25 28 27 C 35 31 34 24 35 97 C 35 118 35 139 35 160 C 36 161 36 162 36 163 C 41 172 68 177 86 172 C 128 162 145 108 115 79 C 102 67 88 63 70 68 C 58 72 58 73 58 40 C 58 6 58 6 37 12 M 80 85 C 87 87 95 93 99 100 C 103 107 103 111 103 122 C 103 136 100 145 94 151 C 84 163 62 161 60 147 C 58 142 58 92 60 90 C 62 84 69 83 80 85 z" fill="black"/><!-- width=142 height=202 -->
<path id="gl2073" d="M 40 9 C 28 11 24 28 34 36 C 42 43 55 39 58 29 C 62 17 52 6 40 9 M 45 61 C 39 64 33 66 28 66 C 13 68 11 78 25 82 C 33 84 33 82 33 120 C 32 179 30 191 15 198 C 8 202 6 204 6 210 C 6 220 15 224 23 217 C 31 209 43 192 49 177 C 55 162 56 157 56 121 C 56 105 56 87 57 79 C 57 68 57 67 56 65 C 54 61 50 60 45 61 z" fill="black"/><!-- width=81 height=232 -->
<path id="gl518" d="M 57 15 C 39 21 24 41 20 65 C 17 87 29 110 48 118 C 64 126 80 123 96 109 C 105 103 106 99 103 94 C 100 90 97 90 90 95 C 80 102 73 104 64 101 C 54 97 47 90 43 78 C 38 64 40 61 56 62 C 67 63 91 61 97 60 C 111 58 105 31 87 19 C 80 15 67 13 57 15 M 71 30 C 78 33 83 42 79 46 C 78 49 76 49 61 50 C 46 50 46 50 45 49 C 42 45 48 36 56 31 C 61 28 66 28 71 30 z" fill="black"/><!-- width=118 height=136 -->
<path id="gl260" d="M 72 10 C 34 17 13 61 33 93 C 46 116 74 123 94 110 C 110 99 117 90 111 85 C 107 81 102 82 96 88 C 79 104 54 93 49 68 C 45 46 55 27 72 26 C 79 25 83 27 91 33 C 97 38 103 37 107 31 C 110 27 111 21 108 17 C 103 10 87 7 72 10 z" fill="black"/><!-- width=124 height=133 -->
<path id="gl0" d="M 44 10 C 42 12 37 17 34 22 C 31 25 31 25 31 30 C 30 35 29 37 25 37 C 19 38 15 41 14 45 C 13 50 16 52 24 52 C 27 52 29 52 30 53 C 31 54 31 52 31 90 C 30 115 30 119 31 123 C 36 139 48 147 64 141 C 79 135 82 133 83 129 C 84 125 82 122 79 121 C 77 120 77 120 71 121 C 62 125 58 124 55 119 C 53 115 52 112 52 96 C 52 88 52 76 52 69 C 52 62 52 56 52 55 C 52 51 57 51 66 52 C 76 54 82 50 81 43 C 80 37 76 35 64 37 C 53 39 51 37 53 26 C 55 16 54 13 52 10 C 51 9 46 9 44 10 z" fill="black"/><!-- width=93 height=156 -->
<path id="gl3" d="M 38 8 C 34 9 30 12 28 15 C 25 19 25 27 27 31 C 37 49 61 37 55 18 C 53 12 46 7 38 8 M 45 61 C 39 63 28 66 25 66 C 18 67 15 69 14 74 C 13 78 15 80 24 82 C 30 84 30 82 30 116 C 30 150 30 150 25 153 C 24 153 22 153 21 154 C 19 154 15 156 13 157 C 12 160 12 162 15 165 C 16 166 17 167 18 168 C 20 168 22 168 24 168 C 31 167 50 167 57 168 C 63 168 65 168 68 165 C 73 160 67 153 58 153 C 57 153 54 151 53 148 C 52 146 52 91 53 75 C 54 69 53 67 53 66 C 52 63 48 60 45 61 z" fill="black"/><!-- width=81 height=202 -->
<path id="gl2060" d="M 20 36 C 18 38 18 42 19 46 C 19 49 21 50 24 51 C 30 52 31 53 43 82 C 43 85 45 90 46 93 C 48 96 49 100 50 102 C 54 109 57 117 58 125 C 63 139 64 142 70 142 C 75 142 76 139 81 126 C 82 120 84 115 85 113 C 85 111 87 108 87 106 C 88 105 89 103 89 102 C 90 102 96 87 101 75 C 110 55 111 53 116 51 C 123 49 124 48 125 47 C 126 44 126 40 124 39 C 122 36 119 35 109 36 C 104 36 98 36 94 36 C 86 35 82 37 82 42 C 82 45 83 47 87 49 C 93 52 93 53 88 66 C 86 72 82 85 80 93 C 79 96 76 102 74 102 C 72 102 69 96 67 88 C 66 84 63 75 58 61 C 55 52 55 51 60 48 C 66 45 67 42 63 38 C 62 37 61 36 60 36 C 57 36 54 36 51 36 C 45 36 38 36 34 36 C 31 36 27 35 25 35 C 21 34 21 34 20 36 M 19 122 C 17 124 17 130 19 132 C 21 135 22 134 24 132 C 27 126 24 118 19 122 z" fill="black"/><!-- width=137 height=154 -->
<path id="gl513" d="M 58 16 C 43 20 28 36 24 52 C 19 69 19 75 22 86 C 30 118 62 133 88 117 C 102 108 108 100 103 94 C 99 91 95 91 90 96 C 78 106 62 105 51 94 C 44 85 39 70 42 66 C 44 63 44 63 56 63 C 66 64 70 64 93 62 C 102 61 105 57 105 48 C 103 26 80 10 58 16 M 72 31 C 78 34 82 42 80 46 C 78 49 76 50 66 51 C 61 51 56 51 54 51 C 44 52 41 48 46 40 C 53 31 63 27 72 31 z" fill="black"/><!-- width=118 height=138 -->
<path id="gl1285" d="M 14 13 C 9 19 12 24 22 25 C 28 26 29 27 31 31 C 31 32 32 33 33 34 C 33 52 33 70 33 88 C 33 106 33 124 33 142 C 32 142 31 144 31 144 C 30 148 27 149 22 150 C 15 150 12 153 12 157 C 11 162 15 165 21 165 C 24 165 27 164 27 164 C 27 164 31 163 36 163 C 43 162 46 163 64 164 C 75 165 79 160 76 154 C 74 151 73 151 66 150 C 55 148 55 150 55 79 C 55 33 55 33 57 31 C 59 27 62 25 67 25 C 71 25 75 23 76 21 C 77 18 77 17 74 13 C 73 13 72 12 71 10 C 69 10 67 11 66 11 C 62 11 58 12 55 12 C 49 13 39 13 30 12 C 18 10 17 10 14 13 z" fill="black"/><!-- width=88 height=178 -->
<path id="gl2" d="M 79 10 C 75 12 69 14 63 18 C 55 23 54 23 52 19 C 50 12 48 11 37 13 C 33 15 27 16 25 16 C 18 17 15 20 15 24 C 15 28 19 31 24 31 C 26 31 30 35 30 37 C 30 52 30 96 30 97 C 28 100 27 102 21 103 C 18 103 16 104 16 104 C 15 104 13 108 13 111 C 13 115 18 118 23 117 C 33 116 42 116 50 117 C 60 117 62 117 64 115 C 69 111 66 106 58 103 C 54 101 53 100 52 98 C 52 95 52 40 52 39 C 54 36 57 34 62 33 C 72 28 80 28 85 33 C 91 37 92 39 92 68 C 92 100 92 100 84 103 C 78 105 75 108 76 111 C 76 114 76 114 79 116 C 82 117 83 117 94 117 C 103 116 109 117 114 117 C 117 117 119 117 121 118 C 123 117 124 117 125 116 C 126 115 127 115 128 114 C 128 113 128 112 128 111 C 129 106 127 105 121 103 C 114 100 114 103 114 67 C 114 56 114 46 114 36 C 114 34 113 33 113 32 C 109 20 102 14 92 12 C 87 10 83 10 79 10 z" fill="black"/><!-- width=141 height=130 -->
<path id="gl259" d="M 82 13 C 71 16 69 16 67 19 C 65 22 67 25 73 28 C 81 30 81 31 81 50 C 81 55 81 59 81 63 C 80 64 79 64 79 65 C 78 67 77 67 70 67 C 44 69 25 81 15 101 C 1 130 15 164 45 173 C 53 176 59 175 70 169 C 77 166 78 166 82 170 C 85 174 87 174 99 171 C 117 166 118 166 118 161 C 118 158 117 156 112 155 C 108 154 106 153 105 150 C 105 149 104 123 104 83 C 104 46 103 16 103 15 C 102 9 98 9 82 13 M 72 84 C 76 85 79 88 80 91 C 81 94 81 144 80 147 C 79 152 67 157 58 154 C 48 153 39 142 36 129 C 34 119 36 105 40 97 C 45 85 60 79 72 84 z" fill="black"/><!-- width=138 height=214 -->
<path id="gl3" d="M 38 8 C 34 9 30 12 28 15 C 25 19 25 27 27 31 C 37 49 61 37 55 18 C 53 12 46 7 38 8 M 45 61 C 39 63 28 66 25 66 C 18 67 15 69 14 74 C 13 78 15 80 24 82 C 30 84 30 82 30 116 C 30 150 30 150 25 153 C 24 153 22 153 21 154 C 19 154 15 156 13 157 C 12 160 12 162 15 165 C 16 166 17 167 18 168 C 20 168 22 168 24 168 C 31 167 50 167 57 168 C 63 168 65 168 68 165 C 73 160 67 153 58 153 C 57 153 54 151 53 148 C 52 146 52 91 53 75 C 54 69 53 67 53 66 C 52 63 48 60 45 61 z" fill="black"/><!-- width=81 height=202 -->
<path id="gl1027" d="M 93 38 C 88 39 85 40 84 42 C 84 45 84 46 88 51 C 90 52 91 53 93 54 C 92 55 92 56 92 57 C 91 62 82 87 79 93 C 75 102 74 100 65 76 C 57 55 57 55 61 51 C 64 46 65 46 64 43 C 63 39 62 39 42 39 C 22 38 20 39 18 42 C 16 46 18 48 24 52 C 31 55 28 49 54 114 C 64 140 66 141 70 141 C 76 141 76 140 87 112 C 93 96 103 72 108 62 C 111 55 113 54 118 51 C 123 49 124 46 123 42 C 121 39 120 38 108 38 C 102 38 95 38 93 38 z" fill="black"/><!-- width=138 height=156 -->
<path id="gl2575" d="M 33 7 C 24 12 22 25 30 32 C 34 37 42 38 48 34 C 55 29 57 18 52 12 C 48 6 39 4 33 7 M 40 59 C 35 61 28 62 24 63 C 16 64 15 66 15 71 C 15 75 16 76 21 78 C 29 81 28 78 29 112 C 29 148 29 145 27 147 C 26 148 24 149 21 150 C 16 151 14 153 14 157 C 14 163 18 165 28 164 C 36 163 46 163 55 165 C 62 165 68 162 68 158 C 68 153 66 151 60 150 C 50 148 51 150 51 113 C 51 97 51 79 52 74 C 52 63 52 60 48 59 C 46 58 45 58 40 59 z" fill="black"/><!-- width=79 height=196 -->
<path id="gl259" d="M 82 13 C 71 16 69 16 67 19 C 65 22 67 25 73 28 C 81 30 81 31 81 50 C 81 55 81 59 81 63 C 80 64 79 64 79 65 C 78 67 77 67 70 67 C 44 69 25 81 15 101 C 1 130 15 164 45 173 C 53 176 59 175 70 169 C 77 166 78 166 82 170 C 85 174 87 174 99 171 C 117 166 118 166 118 161 C 118 158 117 156 112 155 C 108 154 106 153 105 150 C 105 149 104 123 104 83 C 104 46 103 16 103 15 C 102 9 98 9 82 13 M 72 84 C 76 85 79 88 80 91 C 81 94 81 144 80 147 C 79 152 67 157 58 154 C 48 153 39 142 36 129 C 34 119 36 105 40 97 C 45 85 60 79 72 84 z" fill="black"/><!-- width=138 height=214 -->
<path id="gl257" d="M 31 9 C 28 10 24 10 21 10 C 14 10 10 12 10 16 C 9 21 12 24 18 25 C 22 26 23 27 24 30 C 25 31 25 44 25 60 C 24 93 25 96 31 105 C 40 117 62 118 75 108 C 78 106 82 103 84 103 C 85 103 87 105 87 108 C 89 114 91 115 101 112 C 103 112 109 111 113 110 C 123 109 126 106 126 102 C 127 98 124 96 117 95 C 110 94 109 93 108 88 C 108 79 109 19 110 19 C 111 18 109 12 108 10 C 106 9 103 8 97 9 C 94 9 88 10 82 10 C 73 10 71 11 69 14 C 66 19 70 24 78 25 C 87 26 87 25 87 60 C 87 67 87 76 87 84 C 87 85 86 86 85 87 C 84 89 83 90 79 92 C 63 100 51 97 48 85 C 46 81 46 38 48 24 C 48 9 46 7 31 9 z" fill="black"/><!-- width=136 height=128 -->
<path id="gl261" d="M 54 8 C 42 10 22 22 19 29 C 15 37 21 46 30 45 C 35 44 37 42 40 34 C 43 25 50 21 59 23 C 66 24 70 31 70 40 C 70 46 69 48 57 51 C 46 55 30 62 25 66 C 10 78 15 103 35 112 C 44 115 50 114 61 106 C 65 104 67 103 69 103 C 69 103 70 102 71 102 C 72 104 73 105 74 106 C 80 114 83 115 93 111 C 96 109 100 108 102 106 C 109 104 110 103 110 100 C 111 94 107 92 100 93 C 90 94 90 93 91 43 C 91 30 91 28 88 21 C 85 10 70 4 54 8 M 69 61 C 71 62 72 63 71 75 C 70 88 70 88 65 91 C 53 99 41 96 40 85 C 39 76 42 72 57 64 C 65 60 66 60 69 61 z" fill="black"/><!-- width=121 height=130 -->
<path id="gl258" d="M 39 9 C 36 10 30 11 27 12 C 20 12 16 13 15 16 C 13 21 16 26 21 27 C 27 27 28 28 30 30 C 31 33 31 148 30 152 C 30 156 27 157 22 158 C 15 159 11 167 16 171 C 19 173 20 173 33 172 C 42 171 45 171 53 172 C 63 173 66 173 69 170 C 74 165 69 158 60 158 C 57 158 54 156 54 153 C 53 151 53 130 53 81 C 54 6 54 10 51 8 C 48 7 47 7 39 9 z" fill="black"/><!-- width=83 height=189 -->
<path id="gl3072" d="M 96 10 C 49 14 19 48 21 93 C 22 136 56 166 103 166 C 120 166 147 161 151 156 C 154 153 154 153 154 132 C 154 109 154 109 160 105 C 166 101 166 96 161 93 C 158 92 120 91 113 92 C 103 94 104 103 115 105 C 127 108 129 109 129 128 C 129 147 127 150 115 151 C 93 155 72 147 61 130 C 46 108 44 69 57 47 C 67 30 84 22 105 24 C 123 25 132 30 139 45 C 143 52 145 55 148 54 C 153 52 153 49 151 32 C 150 19 149 17 144 15 C 136 11 112 8 96 10 z" fill="black"/><!-- width=178 height=186 -->
<path id="gl262" d="M 78 24 C 76 25 74 27 70 30 C 63 38 60 39 59 33 C 58 24 56 23 43 26 C 39 27 34 28 32 28 C 28 29 27 29 25 31 C 20 36 23 43 30 44 C 33 44 37 46 37 48 C 39 50 38 109 37 111 C 36 113 33 115 30 115 C 27 116 22 118 22 120 C 22 121 22 122 22 123 C 22 124 22 125 24 127 C 25 128 26 129 27 130 C 28 130 30 130 31 130 C 34 130 39 129 42 129 C 48 128 50 128 59 129 C 74 131 76 130 78 126 C 82 121 76 115 67 115 C 64 115 60 112 60 110 C 60 109 59 97 59 83 C 59 75 59 67 59 58 C 60 57 60 56 61 55 C 66 47 72 45 78 48 C 86 52 89 53 94 49 C 100 45 102 34 97 28 C 92 23 84 21 78 24 z" fill="black"/><!-- width=110 height=142 -->
<path id="gl4" d="M 54 12 C 36 15 19 31 14 51 C 7 76 15 98 34 112 C 47 121 65 124 80 118 C 93 113 103 103 109 88 C 112 81 112 78 112 66 C 113 54 112 51 109 43 C 100 23 82 12 61 12 C 58 12 55 12 54 12 M 69 28 C 76 32 84 42 87 53 C 88 58 88 80 87 85 C 82 109 58 114 44 94 C 36 82 34 60 38 46 C 41 39 42 37 45 34 C 52 27 61 24 69 28 z" fill="black"/><!-- width=125 height=134 -->
<path id="gl257" d="M 31 9 C 28 10 24 10 21 10 C 14 10 10 12 10 16 C 9 21 12 24 18 25 C 22 26 23 27 24 30 C 25 31 25 44 25 60 C 24 93 25 96 31 105 C 40 117 62 118 75 108 C 78 106 82 103 84 103 C 85 103 87 105 87 108 C 89 114 91 115 101 112 C 103 112 109 111 113 110 C 123 109 126 106 126 102 C 127 98 124 96 117 95 C 110 94 109 93 108 88 C 108 79 109 19 110 19 C 111 18 109 12 108 10 C 106 9 103 8 97 9 C 94 9 88 10 82 10 C 73 10 71 11 69 14 C 66 19 70 24 78 25 C 87 26 87 25 87 60 C 87 67 87 76 87 84 C 87 85 86 86 85 87 C 84 89 83 90 79 92 C 63 100 51 97 48 85 C 46 81 46 38 48 24 C 48 9 46 7 31 9 z" fill="black"/><!-- width=136 height=128 -->
<path id="gl772" d="M 50 36 C 49 36 45 37 40 39 C 27 43 25 44 25 48 C 25 51 27 53 31 55 C 35 57 37 59 37 62 C 38 63 38 88 39 118 C 39 136 39 154 39 172 C 38 174 37 174 37 175 C 36 177 34 178 31 180 C 25 183 24 186 27 190 C 27 191 28 192 28 192 C 36 192 43 192 49 192 C 61 192 72 192 73 192 C 76 192 79 189 79 187 C 79 183 78 182 72 180 C 69 179 66 178 66 178 C 63 175 61 168 62 155 C 63 145 63 144 72 144 C 96 142 121 124 129 102 C 139 74 127 46 103 38 C 94 35 88 36 75 41 C 66 45 64 45 61 40 C 59 37 58 36 54 36 C 52 36 51 36 50 36 M 85 57 C 99 59 108 72 107 92 C 107 114 94 128 76 126 C 69 125 64 122 63 117 C 62 114 62 69 63 66 C 65 59 75 54 85 57 z" fill="black"/><!-- width=146 height=207 -->
<path id="gl771" d="M 57 13 C 37 16 19 33 15 53 C 13 62 13 77 15 84 C 22 107 43 123 67 121 C 89 120 108 103 113 81 C 114 74 114 59 113 52 C 108 27 82 9 57 13 M 71 29 C 84 35 90 49 90 70 C 90 94 81 108 66 108 C 51 108 40 93 37 69 C 34 40 52 19 71 29 z" fill="black"/><!-- width=128 height=134 -->
<path id="gl262" d="M 78 24 C 76 25 74 27 70 30 C 63 38 60 39 59 33 C 58 24 56 23 43 26 C 39 27 34 28 32 28 C 28 29 27 29 25 31 C 20 36 23 43 30 44 C 33 44 37 46 37 48 C 39 50 38 109 37 111 C 36 113 33 115 30 115 C 27 116 22 118 22 120 C 22 121 22 122 22 123 C 22 124 22 125 24 127 C 25 128 26 129 27 130 C 28 130 30 130 31 130 C 34 130 39 129 42 129 C 48 128 50 128 59 129 C 74 131 76 130 78 126 C 82 121 76 115 67 115 C 64 115 60 112 60 110 C 60 109 59 97 59 83 C 59 75 59 67 59 58 C 60 57 60 56 61 55 C 66 47 72 45 78 48 C 86 52 89 53 94 49 C 100 45 102 34 97 28 C 92 23 84 21 78 24 z" fill="black"/><!-- width=110 height=142 -->
<path id="gl3" d="M 38 8 C 34 9 30 12 28 15 C 25 19 25 27 27 31 C 37 49 61 37 55 18 C 53 12 46 7 38 8 M 45 61 C 39 63 28 66 25 66 C 18 67 15 69 14 74 C 13 78 15 80 24 82 C 30 84 30 82 30 116 C 30 150 30 150 25 153 C 24 153 22 153 21 154 C 19 154 15 156 13 157 C 12 160 12 162 15 165 C 16 166 17 167 18 168 C 20 168 22 168 24 168 C 31 167 50 167 57 168 C 63 168 65 168 68 165 C 73 160 67 153 58 153 C 57 153 54 151 53 148 C 52 146 52 91 53 75 C 54 69 53 67 53 66 C 52 63 48 60 45 61 z" fill="black"/><!-- width=81 height=202 -->
<path id="gl1026" d="M 58 15 C 33 21 16 49 19 79 C 19 87 20 89 23 96 C 30 109 39 117 53 121 C 67 125 78 123 93 111 C 102 104 104 100 102 95 C 99 90 93 90 86 96 C 78 104 68 105 56 99 C 45 93 34 69 40 63 C 41 63 46 63 57 63 C 96 63 102 61 103 52 C 105 39 93 21 78 16 C 73 15 63 14 58 15 M 68 30 C 76 31 81 43 77 48 C 76 49 76 49 75 50 C 70 50 65 50 60 51 C 43 51 43 51 42 48 C 41 42 50 31 58 29 C 60 28 65 28 68 30 z" fill="black"/><!-- width=114 height=136 -->
<path id="gl2" d="M 79 10 C 75 12 69 14 63 18 C 55 23 54 23 52 19 C 50 12 48 11 37 13 C 33 15 27 16 25 16 C 18 17 15 20 15 24 C 15 28 19 31 24 31 C 26 31 30 35 30 37 C 30 52 30 96 30 97 C 28 100 27 102 21 103 C 18 103 16 104 16 104 C 15 104 13 108 13 111 C 13 115 18 118 23 117 C 33 116 42 116 50 117 C 60 117 62 117 64 115 C 69 111 66 106 58 103 C 54 101 53 100 52 98 C 52 95 52 40 52 39 C 54 36 57 34 62 33 C 72 28 80 28 85 33 C 91 37 92 39 92 68 C 92 100 92 100 84 103 C 78 105 75 108 76 111 C 76 114 76 114 79 116 C 82 117 83 117 94 117 C 103 116 109 117 114 117 C 117 117 119 117 121 118 C 123 117 124 117 125 116 C 126 115 127 115 128 114 C 128 113 128 112 128 111 C 129 106 127 105 121 103 C 114 100 114 103 114 67 C 114 56 114 46 114 36 C 114 34 113 33 113 32 C 109 20 102 14 92 12 C 87 10 83 10 79 10 z" fill="black"/><!-- width=141 height=130 -->
<path id="gl0" d="M 44 10 C 42 12 37 17 34 22 C 31 25 31 25 31 30 C 30 35 29 37 25 37 C 19 38 15 41 14 45 C 13 50 16 52 24 52 C 27 52 29 52 30 53 C 31 54 31 52 31 90 C 30 115 30 119 31 123 C 36 139 48 147 64 141 C 79 135 82 133 83 129 C 84 125 82 122 79 121 C 77 120 77 120 71 121 C 62 125 58 124 55 119 C 53 115 52 112 52 96 C 52 88 52 76 52 69 C 52 62 52 56 52 55 C 52 51 57 51 66 52 C 76 54 82 50 81 43 C 80 37 76 35 64 37 C 53 39 51 37 53 26 C 55 16 54 13 52 10 C 51 9 46 9 44 10 z" fill="black"/><!-- width=93 height=156 -->
<path id="gl1" d="M 60 16 C 32 23 14 55 20 86 C 25 114 57 132 81 120 C 94 114 104 105 103 99 C 102 91 96 90 87 97 C 76 106 61 105 49 94 C 44 88 39 76 40 69 C 40 64 42 63 55 64 C 63 65 67 64 76 64 C 82 63 88 63 90 63 C 104 63 108 52 100 37 C 92 21 75 12 60 16 M 71 32 C 78 36 82 45 78 49 C 76 51 72 52 65 51 C 63 51 57 51 53 52 C 51 52 49 52 46 52 C 46 52 45 51 45 51 C 41 47 45 39 53 34 C 58 30 66 29 71 32 z" fill="black"/><!-- width=116 height=138 -->
<path id="gl259" d="M 82 13 C 71 16 69 16 67 19 C 65 22 67 25 73 28 C 81 30 81 31 81 50 C 81 55 81 59 81 63 C 80 64 79 64 79 65 C 78 67 77 67 70 67 C 44 69 25 81 15 101 C 1 130 15 164 45 173 C 53 176 59 175 70 169 C 77 166 78 166 82 170 C 85 174 87 174 99 171 C 117 166 118 166 118 161 C 118 158 117 156 112 155 C 108 154 106 153 105 150 C 105 149 104 123 104 83 C 104 46 103 16 103 15 C 102 9 98 9 82 13 M 72 84 C 76 85 79 88 80 91 C 81 94 81 144 80 147 C 79 152 67 157 58 154 C 48 153 39 142 36 129 C 34 119 36 105 40 97 C 45 85 60 79 72 84 z" fill="black"/><!-- width=138 height=214 -->
<path id="gl8732" d="M 49 9 C 45 10 43 12 43 15 C 43 18 45 19 51 21 C 55 23 58 26 60 30 C 60 31 60 42 60 84 C 60 102 60 119 60 136 C 60 138 59 138 59 139 C 57 144 55 145 50 147 C 40 150 39 157 48 159 C 52 160 137 160 141 159 C 145 158 147 155 150 145 C 150 141 151 135 153 133 C 154 125 153 121 148 120 C 145 119 143 121 139 129 C 133 142 129 145 109 145 C 91 145 88 143 87 130 C 86 115 87 33 88 28 C 90 25 93 22 97 21 C 106 19 108 13 100 10 C 98 9 54 9 49 9 z" fill="black"/><!-- width=168 height=190 -->
<path id="gl4" d="M 54 12 C 36 15 19 31 14 51 C 7 76 15 98 34 112 C 47 121 65 124 80 118 C 93 113 103 103 109 88 C 112 81 112 78 112 66 C 113 54 112 51 109 43 C 100 23 82 12 61 12 C 58 12 55 12 54 12 M 69 28 C 76 32 84 42 87 53 C 88 58 88 80 87 85 C 82 109 58 114 44 94 C 36 82 34 60 38 46 C 41 39 42 37 45 34 C 52 27 61 24 69 28 z" fill="black"/><!-- width=125 height=134 -->
<path id="gl260" d="M 72 10 C 34 17 13 61 33 93 C 46 116 74 123 94 110 C 110 99 117 90 111 85 C 107 81 102 82 96 88 C 79 104 54 93 49 68 C 45 46 55 27 72 26 C 79 25 83 27 91 33 C 97 38 103 37 107 31 C 110 27 111 21 108 17 C 103 10 87 7 72 10 z" fill="black"/><!-- width=124 height=133 -->
<path id="gl256" d="M 51 10 C 37 15 19 25 17 31 C 15 37 17 43 22 46 C 30 49 35 46 39 36 C 43 24 55 20 64 28 C 69 33 70 46 66 49 C 66 50 61 52 57 54 C 42 58 27 65 23 69 C 8 82 15 109 36 115 C 45 118 51 116 61 107 C 64 105 64 105 67 105 C 68 105 69 105 70 105 C 71 106 72 108 73 109 C 78 116 82 117 91 113 C 93 112 97 111 100 109 C 105 108 107 106 107 102 C 108 96 105 94 98 95 C 88 96 88 97 89 58 C 89 26 89 26 85 21 C 79 10 65 6 51 10 M 67 63 C 68 64 69 64 69 64 C 69 69 69 72 69 76 C 69 91 69 92 60 96 C 52 99 47 99 42 94 C 39 92 38 90 39 85 C 39 78 41 74 49 69 C 64 61 65 61 67 63 z" fill="black"/><!-- width=118 height=135 -->
<path id="gl258" d="M 39 9 C 36 10 30 11 27 12 C 20 12 16 13 15 16 C 13 21 16 26 21 27 C 27 27 28 28 30 30 C 31 33 31 148 30 152 C 30 156 27 157 22 158 C 15 159 11 167 16 171 C 19 173 20 173 33 172 C 42 171 45 171 53 172 C 63 173 66 173 69 170 C 74 165 69 158 60 158 C 57 158 54 156 54 153 C 53 151 53 130 53 81 C 54 6 54 10 51 8 C 48 7 47 7 39 9 z" fill="black"/><!-- width=83 height=189 -->
<path id="gl1" d="M 60 16 C 32 23 14 55 20 86 C 25 114 57 132 81 120 C 94 114 104 105 103 99 C 102 91 96 90 87 97 C 76 106 61 105 49 94 C 44 88 39 76 40 69 C 40 64 42 63 55 64 C 63 65 67 64 76 64 C 82 63 88 63 90 63 C 104 63 108 52 100 37 C 92 21 75 12 60 16 M 71 32 C 78 36 82 45 78 49 C 76 51 72 52 65 51 C 63 51 57 51 53 52 C 51 52 49 52 46 52 C 46 52 45 51 45 51 C 41 47 45 39 53 34 C 58 30 66 29 71 32 z" fill="black"/><!-- width=116 height=138 -->
<path id="gl2" d="M 79 10 C 75 12 69 14 63 18 C 55 23 54 23 52 19 C 50 12 48 11 37 13 C 33 15 27 16 25 16 C 18 17 15 20 15 24 C 15 28 19 31 24 31 C 26 31 30 35 30 37 C 30 52 30 96 30 97 C 28 100 27 102 21 103 C 18 103 16 104 16 104 C 15 104 13 108 13 111 C 13 115 18 118 23 117 C 33 116 42 116 50 117 C 60 117 62 117 64 115 C 69 111 66 106 58 103 C 54 101 53 100 52 98 C 52 95 52 40 52 39 C 54 36 57 34 62 33 C 72 28 80 28 85 33 C 91 37 92 39 92 68 C 92 100 92 100 84 103 C 78 105 75 108 76 111 C 76 114 76 114 79 116 C 82 117 83 117 94 117 C 103 116 109 117 114 117 C 117 117 119 117 121 118 C 123 117 124 117 125 116 C 126 115 127 115 128 114 C 128 113 128 112 128 111 C 129 106 127 105 121 103 C 114 100 114 103 114 67 C 114 56 114 46 114 36 C 114 34 113 33 113 32 C 109 20 102 14 92 12 C 87 10 83 10 79 10 z" fill="black"/><!-- width=141 height=130 -->
<path id="gl2060" d="M 20 36 C 18 38 18 42 19 46 C 19 49 21 50 24 51 C 30 52 31 53 43 82 C 43 85 45 90 46 93 C 48 96 49 100 50 102 C 54 109 57 117 58 125 C 63 139 64 142 70 142 C 75 142 76 139 81 126 C 82 120 84 115 85 113 C 85 111 87 108 87 106 C 88 105 89 103 89 102 C 90 102 96 87 101 75 C 110 55 111 53 116 51 C 123 49 124 48 125 47 C 126 44 126 40 124 39 C 122 36 119 35 109 36 C 104 36 98 36 94 36 C 86 35 82 37 82 42 C 82 45 83 47 87 49 C 93 52 93 53 88 66 C 86 72 82 85 80 93 C 79 96 76 102 74 102 C 72 102 69 96 67 88 C 66 84 63 75 58 61 C 55 52 55 51 60 48 C 66 45 67 42 63 38 C 62 37 61 36 60 36 C 57 36 54 36 51 36 C 45 36 38 36 34 36 C 31 36 27 35 25 35 C 21 34 21 34 20 36 M 19 122 C 17 124 17 130 19 132 C 21 135 22 134 24 132 C 27 126 24 118 19 122 z" fill="black"/><!-- width=137 height=154 -->
<path id="gl3" d="M 38 8 C 34 9 30 12 28 15 C 25 19 25 27 27 31 C 37 49 61 37 55 18 C 53 12 46 7 38 8 M 45 61 C 39 63 28 66 25 66 C 18 67 15 69 14 74 C 13 78 15 80 24 82 C 30 84 30 82 30 116 C 30 150 30 150 25 153 C 24 153 22 153 21 154 C 19 154 15 156 13 157 C 12 160 12 162 15 165 C 16 166 17 167 18 168 C 20 168 22 168 24 168 C 31 167 50 167 57 168 C 63 168 65 168 68 165 C 73 160 67 153 58 153 C 57 153 54 151 53 148 C 52 146 52 91 53 75 C 54 69 53 67 53 66 C 52 63 48 60 45 61 z" fill="black"/><!-- width=81 height=202 -->
<path id="gl768" d="M 81 24 C 78 24 75 27 69 33 C 68 34 66 36 64 37 C 64 37 63 37 63 37 C 61 36 61 36 61 34 C 61 30 59 27 57 25 C 55 24 54 24 48 25 C 45 27 40 28 37 28 C 28 29 26 30 24 34 C 24 35 23 36 22 37 C 23 37 24 38 24 39 C 25 42 28 43 32 43 C 40 45 39 43 39 80 C 39 117 40 114 30 115 C 22 117 20 123 25 128 C 27 129 30 130 44 129 C 52 128 54 128 61 129 C 74 130 79 130 80 126 C 82 120 79 116 70 115 C 64 114 64 114 62 111 C 61 109 61 108 61 93 C 61 85 61 74 61 69 C 60 58 61 55 66 51 C 71 45 76 45 82 49 C 94 58 107 40 97 28 C 94 24 87 22 81 24 z" fill="black"/><!-- width=113 height=142 -->
<path id="gl4" d="M 54 12 C 36 15 19 31 14 51 C 7 76 15 98 34 112 C 47 121 65 124 80 118 C 93 113 103 103 109 88 C 112 81 112 78 112 66 C 113 54 112 51 109 43 C 100 23 82 12 61 12 C 58 12 55 12 54 12 M 69 28 C 76 32 84 42 87 53 C 88 58 88 80 87 85 C 82 109 58 114 44 94 C 36 82 34 60 38 46 C 41 39 42 37 45 34 C 52 27 61 24 69 28 z" fill="black"/><!-- width=125 height=134 -->
<path id="gl2" d="M 79 10 C 75 12 69 14 63 18 C 55 23 54 23 52 19 C 50 12 48 11 37 13 C 33 15 27 16 25 16 C 18 17 15 20 15 24 C 15 28 19 31 24 31 C 26 31 30 35 30 37 C 30 52 30 96 30 97 C 28 100 27 102 21 103 C 18 103 16 104 16 104 C 15 104 13 108 13 111 C 13 115 18 118 23 117 C 33 116 42 116 50 117 C 60 117 62 117 64 115 C 69 111 66 106 58 103 C 54 101 53 100 52 98 C 52 95 52 40 52 39 C 54 36 57 34 62 33 C 72 28 80 28 85 33 C 91 37 92 39 92 68 C 92 100 92 100 84 103 C 78 105 75 108 76 111 C 76 114 76 114 79 116 C 82 117 83 117 94 117 C 103 116 109 117 114 117 C 117 117 119 117 121 118 C 123 117 124 117 125 116 C 126 115 127 115 128 114 C 128 113 128 112 128 111 C 129 106 127 105 121 103 C 114 100 114 103 114 67 C 114 56 114 46 114 36 C 114 34 113 33 113 32 C 109 20 102 14 92 12 C 87 10 83 10 79 10 z" fill="black"/><!-- width=141 height=130 -->
<path id="gl517" d="M 77 14 C 75 15 67 18 62 20 C 57 23 55 23 51 19 C 46 15 45 14 34 18 C 22 21 20 21 18 24 C 15 27 16 31 22 34 C 28 37 28 36 28 69 C 28 103 28 102 21 106 C 12 111 12 117 21 119 C 25 120 57 120 60 118 C 66 115 65 111 58 106 C 52 101 52 103 52 72 C 52 46 52 46 54 43 C 57 38 63 34 71 34 C 88 33 91 41 90 81 C 90 101 90 102 84 106 C 78 109 76 111 78 115 C 79 119 80 119 96 120 C 118 120 123 119 125 115 C 126 112 126 110 120 106 C 114 101 114 103 114 72 C 114 63 114 54 114 45 C 115 44 115 43 116 42 C 121 33 139 31 146 39 C 151 43 152 51 151 79 C 151 102 151 102 145 106 C 139 109 138 112 139 115 C 142 120 148 120 170 120 C 181 119 182 119 184 118 C 189 114 188 110 182 106 C 176 102 177 102 176 78 C 176 57 175 42 174 37 C 171 22 160 13 145 13 C 137 13 132 16 118 23 C 111 27 111 27 103 21 C 96 15 85 12 77 14 z" fill="black"/><!-- width=201 height=133 -->
<path id="gl1" d="M 60 16 C 32 23 14 55 20 86 C 25 114 57 132 81 120 C 94 114 104 105 103 99 C 102 91 96 90 87 97 C 76 106 61 105 49 94 C 44 88 39 76 40 69 C 40 64 42 63 55 64 C 63 65 67 64 76 64 C 82 63 88 63 90 63 C 104 63 108 52 100 37 C 92 21 75 12 60 16 M 71 32 C 78 36 82 45 78 49 C 76 51 72 52 65 51 C 63 51 57 51 53 52 C 51 52 49 52 46 52 C 46 52 45 51 45 51 C 41 47 45 39 53 34 C 58 30 66 29 71 32 z" fill="black"/><!-- width=116 height=138 -->
<path id="gl2" d="M 79 10 C 75 12 69 14 63 18 C 55 23 54 23 52 19 C 50 12 48 11 37 13 C 33 15 27 16 25 16 C 18 17 15 20 15 24 C 15 28 19 31 24 31 C 26 31 30 35 30 37 C 30 52 30 96 30 97 C 28 100 27 102 21 103 C 18 103 16 104 16 104 C 15 104 13 108 13 111 C 13 115 18 118 23 117 C 33 116 42 116 50 117 C 60 117 62 117 64 115 C 69 111 66 106 58 103 C 54 101 53 100 52 98 C 52 95 52 40 52 39 C 54 36 57 34 62 33 C 72 28 80 28 85 33 C 91 37 92 39 92 68 C 92 100 92 100 84 103 C 78 105 75 108 76 111 C 76 114 76 114 79 116 C 82 117 83 117 94 117 C 103 116 109 117 114 117 C 117 117 119 117 121 118 C 123 117 124 117 125 116 C 126 115 127 115 128 114 C 128 113 128 112 128 111 C 129 106 127 105 121 103 C 114 100 114 103 114 67 C 114 56 114 46 114 36 C 114 34 113 33 113 32 C 109 20 102 14 92 12 C 87 10 83 10 79 10 z" fill="black"/><!-- width=141 height=130 -->
<path id="gl0" d="M 44 10 C 42 12 37 17 34 22 C 31 25 31 25 31 30 C 30 35 29 37 25 37 C 19 38 15 41 14 45 C 13 50 16 52 24 52 C 27 52 29 52 30 53 C 31 54 31 52 31 90 C 30 115 30 119 31 123 C 36 139 48 147 64 141 C 79 135 82 133 83 129 C 84 125 82 122 79 121 C 77 120 77 120 71 121 C 62 125 58 124 55 119 C 53 115 52 112 52 96 C 52 88 52 76 52 69 C 52 62 52 56 52 55 C 52 51 57 51 66 52 C 76 54 82 50 81 43 C 80 37 76 35 64 37 C 53 39 51 37 53 26 C 55 16 54 13 52 10 C 51 9 46 9 44 10 z" fill="black"/><!-- width=93 height=156 -->
<path id="gl2311" d="M 27 30 C 24 30 22 31 21 33 C 19 37 21 39 27 42 C 36 46 36 45 58 116 C 59 120 61 124 61 127 C 62 129 65 139 68 148 C 78 179 79 180 84 180 C 90 180 90 180 104 138 C 120 90 120 90 122 87 C 123 87 124 85 124 85 C 126 85 128 91 131 99 C 132 102 134 108 136 111 C 137 115 139 121 141 124 C 142 127 144 134 145 138 C 147 142 149 148 150 150 C 159 176 161 180 166 180 C 171 180 173 177 178 162 C 183 144 186 136 188 127 C 189 123 192 115 193 111 C 195 105 197 99 198 96 C 199 93 201 86 203 81 C 213 48 214 45 224 42 C 228 40 230 36 228 32 C 226 29 226 29 208 30 C 189 30 186 30 184 32 C 180 36 182 39 189 42 C 194 44 195 46 194 51 C 193 60 179 113 173 128 C 172 129 171 129 169 128 C 168 127 163 117 157 98 C 156 94 153 88 152 84 C 150 79 148 73 147 70 C 146 68 144 62 142 58 C 141 54 139 48 138 45 C 134 35 131 32 126 34 C 123 35 121 39 105 91 C 96 117 92 129 91 129 C 88 129 87 125 78 97 C 76 92 73 83 71 77 C 66 61 63 50 63 48 C 63 45 65 43 69 42 C 76 39 78 33 72 30 C 70 30 30 29 27 30 z" fill="black"/><!-- width=243 height=195 -->
<path id="gl4" d="M 54 12 C 36 15 19 31 14 51 C 7 76 15 98 34 112 C 47 121 65 124 80 118 C 93 113 103 103 109 88 C 112 81 112 78 112 66 C 113 54 112 51 109 43 C 100 23 82 12 61 12 C 58 12 55 12 54 12 M 69 28 C 76 32 84 42 87 53 C 88 58 88 80 87 85 C 82 109 58 114 44 94 C 36 82 34 60 38 46 C 41 39 42 37 45 34 C 52 27 61 24 69 28 z" fill="black"/><!-- width=125 height=134 -->
<path id="gl262" d="M 78 24 C 76 25 74 27 70 30 C 63 38 60 39 59 33 C 58 24 56 23 43 26 C 39 27 34 28 32 28 C 28 29 27 29 25 31 C 20 36 23 43 30 44 C 33 44 37 46 37 48 C 39 50 38 109 37 111 C 36 113 33 115 30 115 C 27 116 22 118 22 120 C 22 121 22 122 22 123 C 22 124 22 125 24 127 C 25 128 26 129 27 130 C 28 130 30 130 31 130 C 34 130 39 129 42 129 C 48 128 50 128 59 129 C 74 131 76 130 78 126 C 82 121 76 115 67 115 C 64 115 60 112 60 110 C 60 109 59 97 59 83 C 59 75 59 67 59 58 C 60 57 60 56 61 55 C 66 47 72 45 78 48 C 86 52 89 53 94 49 C 100 45 102 34 97 28 C 92 23 84 21 78 24 z" fill="black"/><!-- width=110 height=142 -->
<path id="gl258" d="M 39 9 C 36 10 30 11 27 12 C 20 12 16 13 15 16 C 13 21 16 26 21 27 C 27 27 28 28 30 30 C 31 33 31 148 30 152 C 30 156 27 157 22 158 C 15 159 11 167 16 171 C 19 173 20 173 33 172 C 42 171 45 171 53 172 C 63 173 66 173 69 170 C 74 165 69 158 60 158 C 57 158 54 156 54 153 C 53 151 53 130 53 81 C 54 6 54 10 51 8 C 48 7 47 7 39 9 z" fill="black"/><!-- width=83 height=189 -->
<path id="gl259" d="M 82 13 C 71 16 69 16 67 19 C 65 22 67 25 73 28 C 81 30 81 31 81 50 C 81 55 81 59 81 63 C 80 64 79 64 79 65 C 78 67 77 67 70 67 C 44 69 25 81 15 101 C 1 130 15 164 45 173 C 53 176 59 175 70 169 C 77 166 78 166 82 170 C 85 174 87 174 99 171 C 117 166 118 166 118 161 C 118 158 117 156 112 155 C 108 154 106 153 105 150 C 105 149 104 123 104 83 C 104 46 103 16 103 15 C 102 9 98 9 82 13 M 72 84 C 76 85 79 88 80 91 C 81 94 81 144 80 147 C 79 152 67 157 58 154 C 48 153 39 142 36 129 C 34 119 36 105 40 97 C 45 85 60 79 72 84 z" fill="black"/><!-- width=138 height=214 -->
<path id="gl261" d="M 54 8 C 42 10 22 22 19 29 C 15 37 21 46 30 45 C 35 44 37 42 40 34 C 43 25 50 21 59 23 C 66 24 70 31 70 40 C 70 46 69 48 57 51 C 46 55 30 62 25 66 C 10 78 15 103 35 112 C 44 115 50 114 61 106 C 65 104 67 103 69 103 C 69 103 70 102 71 102 C 72 104 73 105 74 106 C 80 114 83 115 93 111 C 96 109 100 108 102 106 C 109 104 110 103 110 100 C 111 94 107 92 100 93 C 90 94 90 93 91 43 C 91 30 91 28 88 21 C 85 10 70 4 54 8 M 69 61 C 71 62 72 63 71 75 C 70 88 70 88 65 91 C 53 99 41 96 40 85 C 39 76 42 72 57 64 C 65 60 66 60 69 61 z" fill="black"/><!-- width=121 height=130 -->
<path id="gl0" d="M 44 10 C 42 12 37 17 34 22 C 31 25 31 25 31 30 C 30 35 29 37 25 37 C 19 38 15 41 14 45 C 13 50 16 52 24 52 C 27 52 29 52 30 53 C 31 54 31 52 31 90 C 30 115 30 119 31 123 C 36 139 48 147 64 141 C 79 135 82 133 83 129 C 84 125 82 122 79 121 C 77 120 77 120 71 121 C 62 125 58 124 55 119 C 53 115 52 112 52 96 C 52 88 52 76 52 69 C 52 62 52 56 52 55 C 52 51 57 51 66 52 C 76 54 82 50 81 43 C 80 37 76 35 64 37 C 53 39 51 37 53 26 C 55 16 54 13 52 10 C 51 9 46 9 44 10 z" fill="black"/><!-- width=93 height=156 -->
<path id="gl258" d="M 39 9 C 36 10 30 11 27 12 C 20 12 16 13 15 16 C 13 21 16 26 21 27 C 27 27 28 28 30 30 C 31 33 31 148 30 152 C 30 156 27 157 22 158 C 15 159 11 167 16 171 C 19 173 20 173 33 172 C 42 171 45 171 53 172 C 63 173 66 173 69 170 C 74 165 69 158 60 158 C 57 158 54 156 54 153 C 53 151 53 130 53 81 C 54 6 54 10 51 8 C 48 7 47 7 39 9 z" fill="black"/><!-- width=83 height=189 -->
<path id="gl256" d="M 51 10 C 37 15 19 25 17 31 C 15 37 17 43 22 46 C 30 49 35 46 39 36 C 43 24 55 20 64 28 C 69 33 70 46 66 49 C 66 50 61 52 57 54 C 42 58 27 65 23 69 C 8 82 15 109 36 115 C 45 118 51 116 61 107 C 64 105 64 105 67 105 C 68 105 69 105 70 105 C 71 106 72 108 73 109 C 78 116 82 117 91 113 C 93 112 97 111 100 109 C 105 108 107 106 107 102 C 108 96 105 94 98 95 C 88 96 88 97 89 58 C 89 26 89 26 85 21 C 79 10 65 6 51 10 M 67 63 C 68 64 69 64 69 64 C 69 69 69 72 69 76 C 69 91 69 92 60 96 C 52 99 47 99 42 94 C 39 92 38 90 39 85 C 39 78 41 74 49 69 C 64 61 65 61 67 63 z" fill="black"/><!-- width=118 height=135 -->
<path id="gl262" d="M 78 24 C 76 25 74 27 70 30 C 63 38 60 39 59 33 C 58 24 56 23 43 26 C 39 27 34 28 32 28 C 28 29 27 29 25 31 C 20 36 23 43 30 44 C 33 44 37 46 37 48 C 39 50 38 109 37 111 C 36 113 33 115 30 115 C 27 116 22 118 22 120 C 22 121 22 122 22 123 C 22 124 22 125 24 127 C 25 128 26 129 27 130 C 28 130 30 130 31 130 C 34 130 39 129 42 129 C 48 128 50 128 59 129 C 74 131 76 130 78 126 C 82 121 76 115 67 115 C 64 115 60 112 60 110 C 60 109 59 97 59 83 C 59 75 59 67 59 58 C 60 57 60 56 61 55 C 66 47 72 45 78 48 C 86 52 89 53 94 49 C 100 45 102 34 97 28 C 92 23 84 21 78 24 z" fill="black"/><!-- width=110 height=142 -->
<path id="gl515" d="M 54 16 C 23 23 10 55 29 77 C 34 84 34 84 33 86 C 33 87 31 89 28 90 C 20 96 20 103 28 112 C 34 118 34 118 25 127 C 9 143 18 166 42 174 C 48 175 66 175 72 174 C 93 168 110 151 113 135 C 116 115 107 102 87 100 C 84 99 76 99 69 99 C 55 99 52 99 51 96 C 49 93 52 91 61 90 C 74 88 82 85 89 78 C 98 70 102 58 100 46 C 99 40 100 39 105 35 C 112 30 115 24 111 20 C 109 18 108 18 94 19 C 91 19 88 19 84 20 C 81 19 78 18 76 18 C 66 15 60 15 54 16 M 67 32 C 81 42 79 73 64 75 C 57 76 49 70 46 61 C 45 57 45 45 46 42 C 49 31 60 27 67 32 M 78 122 C 90 124 96 133 92 144 C 86 159 57 163 45 149 C 36 139 42 125 55 122 C 60 121 72 121 78 122 z" fill="black"/><!-- width=126 height=189 -->
<path id="gl1" d="M 60 16 C 32 23 14 55 20 86 C 25 114 57 132 81 120 C 94 114 104 105 103 99 C 102 91 96 90 87 97 C 76 106 61 105 49 94 C 44 88 39 76 40 69 C 40 64 42 63 55 64 C 63 65 67 64 76 64 C 82 63 88 63 90 63 C 104 63 108 52 100 37 C 92 21 75 12 60 16 M 71 32 C 78 36 82 45 78 49 C 76 51 72 52 65 51 C 63 51 57 51 53 52 C 51 52 49 52 46 52 C 46 52 45 51 45 51 C 41 47 45 39 53 34 C 58 30 66 29 71 32 z" fill="black"/><!-- width=116 height=138 -->
<path id="gl1282" d="M 24 9 C 17 9 15 10 13 12 C 11 15 13 19 19 21 C 29 24 31 27 31 40 C 31 60 27 119 25 131 C 24 142 22 144 15 147 C 10 150 9 151 9 154 C 9 160 12 160 38 160 C 56 160 57 160 59 159 C 64 155 62 149 55 148 C 46 145 43 142 42 130 C 42 127 42 123 42 121 C 42 121 43 111 43 102 C 44 71 45 61 47 61 C 48 61 52 67 53 71 C 54 73 55 75 55 75 C 56 76 57 78 58 80 C 58 82 61 87 63 91 C 65 96 69 105 72 112 C 76 123 78 127 84 141 C 89 151 90 151 92 154 C 94 156 95 156 97 156 C 101 155 103 153 108 142 C 114 130 119 118 124 105 C 129 96 135 83 140 72 C 141 69 142 67 142 67 C 142 66 148 58 148 58 C 150 58 151 69 151 102 C 152 144 152 144 141 148 C 133 151 133 159 142 160 C 148 160 181 160 187 160 C 197 159 198 150 189 148 C 176 144 177 148 175 67 C 174 25 174 24 184 21 C 191 19 193 16 191 12 C 190 9 188 9 172 9 C 151 9 154 6 139 39 C 137 44 132 56 127 64 C 124 73 118 85 115 91 C 107 109 105 112 103 112 C 100 112 100 114 79 69 C 51 9 53 12 48 10 C 46 9 37 8 24 9 z" fill="black"/><!-- width=208 height=177 -->
<path id="gl3" d="M 38 8 C 34 9 30 12 28 15 C 25 19 25 27 27 31 C 37 49 61 37 55 18 C 53 12 46 7 38 8 M 45 61 C 39 63 28 66 25 66 C 18 67 15 69 14 74 C 13 78 15 80 24 82 C 30 84 30 82 30 116 C 30 150 30 150 25 153 C 24 153 22 153 21 154 C 19 154 15 156 13 157 C 12 160 12 162 15 165 C 16 166 17 167 18 168 C 20 168 22 168 24 168 C 31 167 50 167 57 168 C 63 168 65 168 68 165 C 73 160 67 153 58 153 C 57 153 54 151 53 148 C 52 146 52 91 53 75 C 54 69 53 67 53 66 C 52 63 48 60 45 61 z" fill="black"/><!-- width=81 height=202 -->
<path id="gl2" d="M 79 10 C 75 12 69 14 63 18 C 55 23 54 23 52 19 C 50 12 48 11 37 13 C 33 15 27 16 25 16 C 18 17 15 20 15 24 C 15 28 19 31 24 31 C 26 31 30 35 30 37 C 30 52 30 96 30 97 C 28 100 27 102 21 103 C 18 103 16 104 16 104 C 15 104 13 108 13 111 C 13 115 18 118 23 117 C 33 116 42 116 50 117 C 60 117 62 117 64 115 C 69 111 66 106 58 103 C 54 101 53 100 52 98 C 52 95 52 40 52 39 C 54 36 57 34 62 33 C 72 28 80 28 85 33 C 91 37 92 39 92 68 C 92 100 92 100 84 103 C 78 105 75 108 76 111 C 76 114 76 114 79 116 C 82 117 83 117 94 117 C 103 116 109 117 114 117 C 117 117 119 117 121 118 C 123 117 124 117 125 116 C 126 115 127 115 128 114 C 128 113 128 112 128 111 C 129 106 127 105 121 103 C 114 100 114 103 114 67 C 114 56 114 46 114 36 C 114 34 113 33 113 32 C 109 20 102 14 92 12 C 87 10 83 10 79 10 z" fill="black"/><!-- width=141 height=130 -->
<path id="gl1" d="M 60 16 C 32 23 14 55 20 86 C 25 114 57 132 81 120 C 94 114 104 105 103 99 C 102 91 96 90 87 97 C 76 106 61 105 49 94 C 44 88 39 76 40 69 C 40 64 42 63 55 64 C 63 65 67 64 76 64 C 82 63 88 63 90 63 C 104 63 108 52 100 37 C 92 21 75 12 60 16 M 71 32 C 78 36 82 45 78 49 C 76 51 72 52 65 51 C 63 51 57 51 53 52 C 51 52 49 52 46 52 C 46 52 45 51 45 51 C 41 47 45 39 53 34 C 58 30 66 29 71 32 z" fill="black"/><!-- width=116 height=138 -->
<path id="gl5391" d="M 31 35 C 24 36 22 36 21 37 C 16 40 18 44 25 48 C 31 51 31 51 35 57 C 39 62 42 67 61 102 C 72 123 72 119 72 142 C 72 160 72 163 70 165 C 69 169 66 172 62 173 C 54 175 51 178 52 181 C 54 186 55 186 85 186 C 115 186 115 186 117 181 C 118 178 116 175 108 173 C 103 172 100 170 98 166 C 96 160 95 125 97 118 C 99 113 112 89 120 76 C 132 55 136 50 143 48 C 151 45 154 39 147 36 C 144 34 108 34 104 36 C 99 40 100 45 108 47 C 115 49 115 52 106 69 C 94 96 90 101 87 97 C 82 93 62 55 62 52 C 62 50 64 48 67 47 C 72 45 73 43 73 41 C 73 39 71 37 69 36 C 66 35 44 35 31 35 z" fill="black"/><!-- width=165 height=200 -->
<path id="gl4" d="M 54 12 C 36 15 19 31 14 51 C 7 76 15 98 34 112 C 47 121 65 124 80 118 C 93 113 103 103 109 88 C 112 81 112 78 112 66 C 113 54 112 51 109 43 C 100 23 82 12 61 12 C 58 12 55 12 54 12 M 69 28 C 76 32 84 42 87 53 C 88 58 88 80 87 85 C 82 109 58 114 44 94 C 36 82 34 60 38 46 C 41 39 42 37 45 34 C 52 27 61 24 69 28 z" fill="black"/><!-- width=125 height=134 -->
<path id="gl257" d="M 31 9 C 28 10 24 10 21 10 C 14 10 10 12 10 16 C 9 21 12 24 18 25 C 22 26 23 27 24 30 C 25 31 25 44 25 60 C 24 93 25 96 31 105 C 40 117 62 118 75 108 C 78 106 82 103 84 103 C 85 103 87 105 87 108 C 89 114 91 115 101 112 C 103 112 109 111 113 110 C 123 109 126 106 126 102 C 127 98 124 96 117 95 C 110 94 109 93 108 88 C 108 79 109 19 110 19 C 111 18 109 12 108 10 C 106 9 103 8 97 9 C 94 9 88 10 82 10 C 73 10 71 11 69 14 C 66 19 70 24 78 25 C 87 26 87 25 87 60 C 87 67 87 76 87 84 C 87 85 86 86 85 87 C 84 89 83 90 79 92 C 63 100 51 97 48 85 C 46 81 46 38 48 24 C 48 9 46 7 31 9 z" fill="black"/><!-- width=136 height=128 -->
<path id="gl512" d="M 79 23 C 76 24 73 26 69 31 C 61 39 59 40 58 33 C 58 24 57 22 46 25 C 45 26 39 27 36 28 C 27 29 25 30 22 33 C 19 37 23 42 30 43 C 34 43 36 45 37 46 C 38 49 38 109 37 111 C 36 114 32 115 28 116 C 21 117 18 124 24 128 C 25 130 26 130 31 129 C 43 129 55 128 61 129 C 72 130 76 129 78 126 C 80 120 77 117 70 115 C 63 115 60 114 59 109 C 59 109 59 97 58 83 C 58 75 58 67 58 58 C 59 58 60 57 60 55 C 64 49 69 46 73 46 C 75 46 77 46 80 48 C 88 52 94 51 97 44 C 103 32 92 19 79 23 z" fill="black"/><!-- width=109 height=142 -->
<path id="gl6" d="M 46 10 C 20 13 7 43 24 60 C 30 65 31 66 44 72 C 58 79 61 82 61 91 C 61 102 51 108 40 103 C 35 101 32 97 28 91 C 24 81 24 81 21 79 C 19 78 18 78 17 78 C 11 81 11 85 15 104 C 16 110 21 114 33 117 C 62 124 89 101 81 76 C 77 66 71 60 55 54 C 43 48 39 45 37 40 C 33 32 40 22 50 24 C 55 24 60 28 64 34 C 66 40 70 43 73 43 C 79 42 81 37 77 25 C 73 14 72 12 61 10 C 55 9 52 9 46 10 z" fill="black"/><!-- width=96 height=132 -->
</defs>
<use xlink:href="#gl1804" x="20" y="4"/>
<use xlink:href="#gl3" x="177" y="6"/>
<use xlink:href="#gl515" x="235" y="51"/>
<use xlink:href="#gl5" x="328" y="0"/>
<use xlink:href="#gl0" x="458" y="33"/>
<use xlink:href="#gl5130" x="584" y="10"/>
<use xlink:href="#gl10506" x="749" y="56"/>
<use xlink:href="#gl257" x="864" y="61"/>
<use xlink:href="#gl516" x="985" y="57"/>
<use xlink:href="#gl513" x="1060" y="53"/>
<use xlink:href="#gl516" x="1160" y="57"/>
<use xlink:href="#gl2052" x="2547" y="10"/>
<use xlink:href="#gl30735" x="2711" y="66"/>
<use xlink:href="#gl2305" x="2791" y="15"/>
<use xlink:href="#gl2308" x="2962" y="9"/>
<use xlink:href="#gl3860" x="3124" y="56"/>
<use xlink:href="#gl257" x="3242" y="61"/>
<use xlink:href="#gl516" x="3362" y="57"/>
<use xlink:href="#gl3865" x="3436" y="53"/>
<use xlink:href="#gl10498" x="3535" y="55"/>
<use xlink:href="#gl30736" x="10" y="274"/>
<use xlink:href="#gl30737" x="97" y="301"/>
<use xlink:href="#gl514" x="204" y="400"/>
<use xlink:href="#gl30738" x="314" y="290"/>
<use xlink:href="#gl2315" x="411" y="404"/>
<use xlink:href="#gl30739" x="521" y="302"/>
<use xlink:href="#gl514" x="619" y="400"/>
<use xlink:href="#gl30740" x="730" y="294"/>
<use xlink:href="#gl514" x="827" y="401"/>
<use xlink:href="#gl30741" x="933" y="301"/>
<use xlink:href="#gl514" x="1034" y="401"/>
<use xlink:href="#gl30742" x="1156" y="303"/>
<use xlink:href="#gl30743" x="1250" y="287"/>
<use xlink:href="#gl30744" x="2535" y="279"/>
<use xlink:href="#gl30742" x="2646" y="303"/>
<use xlink:href="#gl30745" x="2732" y="300"/>
<use xlink:href="#gl514" x="2835" y="402"/>
<use xlink:href="#gl30742" x="2957" y="303"/>
<use xlink:href="#gl30742" x="3061" y="303"/>
<use xlink:href="#gl514" x="3147" y="401"/>
<use xlink:href="#gl30742" x="3269" y="303"/>
<use xlink:href="#gl29721" x="3362" y="297"/>
<use xlink:href="#gl514" x="3458" y="401"/>
<use xlink:href="#gl30746" x="3568" y="284"/>
<use xlink:href="#gl514" x="3664" y="400"/>
<use xlink:href="#gl30976" x="3777" y="296"/>
<use xlink:href="#gl514" x="3872" y="398"/>
<use xlink:href="#gl30977" x="3991" y="301"/>
<use xlink:href="#gl30978" x="4087" y="282"/>
<use xlink:href="#gl4111" x="20" y="567"/>
<use xlink:href="#gl3" x="179" y="572"/>
<use xlink:href="#gl515" x="235" y="617"/>
<use xlink:href="#gl5" x="327" y="567"/>
<use xlink:href="#gl0" x="455" y="598"/>
<use xlink:href="#gl3087" x="2546" y="575"/>
<use xlink:href="#gl256" x="2708" y="626"/>
<use xlink:href="#gl769" x="2785" y="580"/>
<use xlink:href="#gl1029" x="28" y="856"/>
<use xlink:href="#gl1" x="123" y="900"/>
<use xlink:href="#gl258" x="215" y="849"/>
<use xlink:href="#gl770" x="261" y="844"/>
<use xlink:href="#gl4887" x="2552" y="856"/>
<use xlink:href="#gl0" x="2710" y="883"/>
<use xlink:href="#gl5" x="2768" y="851"/>
<use xlink:href="#gl1" x="2896" y="902"/>
<use xlink:href="#gl512" x="2984" y="895"/>
<use xlink:href="#gl516" x="3074" y="907"/>
<use xlink:href="#gl3337" x="15" y="1121"/>
<use xlink:href="#gl768" x="133" y="1176"/>
<use xlink:href="#gl3" x="225" y="1139"/>
<use xlink:href="#gl2060" x="273" y="1166"/>
<use xlink:href="#gl256" x="382" y="1193"/>
<use xlink:href="#gl0" x="475" y="1166"/>
<use xlink:href="#gl1" x="541" y="1185"/>
<use xlink:href="#gl2068" x="2541" y="1125"/>
<use xlink:href="#gl257" x="2672" y="1196"/>
<use xlink:href="#gl773" x="2776" y="1136"/>
<use xlink:href="#gl2066" x="2898" y="1136"/>
<use xlink:href="#gl3" x="2956" y="1142"/>
<use xlink:href="#gl260" x="3006" y="1193"/>
<use xlink:href="#gl1029" x="30" y="1426"/>
<use xlink:href="#gl257" x="130" y="1477"/>
<use xlink:href="#gl773" x="233" y="1419"/>
<use xlink:href="#gl2073" x="356" y="1423"/>
<use xlink:href="#gl1" x="411" y="1469"/>
<use xlink:href="#gl260" x="498" y="1476"/>
<use xlink:href="#gl0" x="597" y="1449"/>
<use xlink:href="#gl3" x="669" y="1424"/>
<use xlink:href="#gl1027" x="717" y="1450"/>
<use xlink:href="#gl518" x="819" y="1471"/>
<use xlink:href="#gl3340" x="2554" y="1424"/>
<use xlink:href="#gl773" x="2705" y="1419"/>
<use xlink:href="#gl2073" x="2829" y="1425"/>
<use xlink:href="#gl518" x="2883" y="1472"/>
<use xlink:href="#gl260" x="2972" y="1477"/>
<use xlink:href="#gl0" x="3071" y="1451"/>
<use xlink:href="#gl3" x="3144" y="1425"/>
<use xlink:href="#gl2060" x="3191" y="1452"/>
<use xlink:href="#gl513" x="3292" y="1471"/>
<use xlink:href="#gl1285" x="28" y="1709"/>
<use xlink:href="#gl2" x="96" y="1756"/>
<use xlink:href="#gl259" x="222" y="1700"/>
<use xlink:href="#gl3" x="333" y="1707"/>
<use xlink:href="#gl1027" x="380" y="1733"/>
<use xlink:href="#gl2575" x="494" y="1710"/>
<use xlink:href="#gl259" x="558" y="1700"/>
<use xlink:href="#gl257" x="671" y="1761"/>
<use xlink:href="#gl261" x="786" y="1762"/>
<use xlink:href="#gl258" x="879" y="1702"/>
<use xlink:href="#gl3072" x="2547" y="1711"/>
<use xlink:href="#gl262" x="2697" y="1746"/>
<use xlink:href="#gl4" x="2787" y="1756"/>
<use xlink:href="#gl257" x="2901" y="1762"/>
<use xlink:href="#gl772" x="3004" y="1734"/>
<use xlink:href="#gl771" x="3187" y="1756"/>
<use xlink:href="#gl262" x="3289" y="1745"/>
<use xlink:href="#gl3" x="3380" y="1708"/>
<use xlink:href="#gl1026" x="3436" y="1753"/>
<use xlink:href="#gl2" x="3531" y="1757"/>
<use xlink:href="#gl0" x="3647" y="1732"/>
<use xlink:href="#gl1" x="3713" y="1752"/>
<use xlink:href="#gl259" x="3816" y="1699"/>
<use xlink:href="#gl8732" x="0" y="1997"/>
<use xlink:href="#gl4" x="146" y="2037"/>
<use xlink:href="#gl260" x="246" y="2041"/>
<use xlink:href="#gl256" x="348" y="2042"/>
<use xlink:href="#gl258" x="439" y="1984"/>
<use xlink:href="#gl1" x="546" y="2035"/>
<use xlink:href="#gl2" x="642" y="2039"/>
<use xlink:href="#gl2060" x="749" y="2017"/>
<use xlink:href="#gl3" x="861" y="1992"/>
<use xlink:href="#gl768" x="910" y="2028"/>
<use xlink:href="#gl4" x="1003" y="2039"/>
<use xlink:href="#gl2" x="1112" y="2040"/>
<use xlink:href="#gl517" x="1232" y="2038"/>
<use xlink:href="#gl1" x="1409" y="2036"/>
<use xlink:href="#gl2" x="1504" y="2041"/>
<use xlink:href="#gl0" x="1622" y="2017"/>
<use xlink:href="#gl2311" x="2541" y="1977"/>
<use xlink:href="#gl4" x="2743" y="2039"/>
<use xlink:href="#gl262" x="2845" y="2028"/>
<use xlink:href="#gl258" x="2930" y="1985"/>
<use xlink:href="#gl259" x="2995" y="1985"/>
<use xlink:href="#gl261" x="3155" y="2045"/>
<use xlink:href="#gl0" x="3250" y="2017"/>
<use xlink:href="#gl258" x="3369" y="1986"/>
<use xlink:href="#gl256" x="3428" y="2043"/>
<use xlink:href="#gl262" x="3516" y="2027"/>
<use xlink:href="#gl515" x="3601" y="2035"/>
<use xlink:href="#gl1" x="3701" y="2035"/>
<use xlink:href="#gl1282" x="32" y="2277"/>
<use xlink:href="#gl3" x="221" y="2272"/>
<use xlink:href="#gl2" x="279" y="2321"/>
<use xlink:href="#gl1" x="396" y="2317"/>
<use xlink:href="#gl5391" x="2543" y="2254"/>
<use xlink:href="#gl4" x="2662" y="2321"/>
<use xlink:href="#gl257" x="2776" y="2327"/>
<use xlink:href="#gl512" x="2884" y="2312"/>
<use xlink:href="#gl6" x="2974" y="2323"/>
</svg>
