<?xml version='1.0' encoding='utf-8'?>
<svg xmlns="http://www.w3.org/2000/svg" xmlns:xlink="http://www.w3.org/1999/xlink" width="302px" height="338px" viewBox="0 0 3028 3384" version="1.1">
<defs>
<path id="gl11012" d="M 16 43 C 15 45 14 48 13 58 C 13 61 12 66 12 69 C 10 82 19 86 24 73 C 27 64 30 63 45 63 C 67 63 71 64 72 70 C 73 76 73 182 72 186 C 71 190 68 193 62 193 C 55 195 54 196 54 201 C 54 203 55 205 59 206 C 60 206 75 206 93 206 C 127 206 126 206 128 202 C 130 198 127 195 118 193 C 112 192 109 189 108 182 C 107 176 107 70 108 67 C 110 64 111 63 127 63 C 145 63 150 64 152 72 C 154 79 155 80 157 81 C 162 82 165 79 166 71 C 166 68 166 62 167 57 C 168 47 168 45 165 43 C 163 41 162 41 157 43 C 156 44 154 45 153 45 C 133 45 113 45 93 45 C 28 46 30 46 25 42 C 22 41 18 41 16 43 z" fill="black"/><!-- width=181 height=220 -->
<path id="gl20760" d="M 58 9 C 52 10 25 24 21 28 C 15 34 12 44 15 48 C 18 54 28 54 34 48 C 37 46 39 43 40 38 C 42 30 46 27 56 28 C 66 28 72 34 72 46 C 72 54 70 55 60 57 C 42 63 24 70 19 76 C 15 81 13 84 13 93 C 13 103 15 106 18 111 C 28 122 46 122 60 111 C 69 104 71 104 75 111 C 79 117 83 119 90 119 C 96 119 97 119 100 117 C 112 112 117 103 112 99 C 111 97 110 97 105 97 C 102 97 100 96 99 93 C 97 91 97 87 97 61 C 98 29 97 28 94 21 C 89 11 73 6 58 9 M 70 69 C 72 72 72 85 70 89 C 65 100 46 103 42 94 C 37 87 42 78 52 72 C 64 67 68 66 70 69 z" fill="black"/><!-- width=126 height=137 -->
<path id="gl11014" d="M 57 7 C 57 7 52 10 47 12 C 42 14 36 16 33 18 C 24 22 22 28 30 33 C 34 35 36 37 37 40 C 37 42 37 70 37 109 C 37 187 37 178 39 180 C 41 183 43 183 48 180 C 53 178 53 178 60 180 C 71 184 83 185 92 184 C 127 178 148 146 141 109 C 134 79 106 64 78 76 C 75 78 73 79 72 78 C 67 78 67 78 67 44 C 67 12 67 12 64 9 C 63 7 59 7 57 7 M 90 96 C 97 99 105 108 108 120 C 109 126 109 145 108 151 C 103 169 86 175 73 163 C 67 157 67 154 67 123 C 68 103 68 102 69 100 C 73 94 82 93 90 96 z" fill="black"/><!-- width=156 height=216 -->
<path id="gl11015" d="M 47 8 C 45 9 42 10 40 11 C 36 13 29 15 22 17 C 11 20 10 29 21 33 C 23 34 25 35 26 36 C 27 37 27 37 27 38 C 27 58 27 79 27 100 C 27 137 27 162 27 164 C 26 166 25 168 20 169 C 13 170 11 176 15 181 C 18 183 19 183 30 182 C 37 181 51 181 58 183 C 63 183 64 183 66 183 C 74 179 73 170 64 168 C 59 168 57 166 57 163 C 55 159 55 40 57 24 C 57 12 57 10 54 9 C 52 7 50 7 47 8 z" fill="black"/><!-- width=82 height=198 -->
<path id="gl23052" d="M 59 13 C 51 15 48 16 43 21 C 36 26 30 32 27 39 C 27 42 25 45 24 46 C 21 53 19 69 21 75 C 21 76 21 81 22 84 C 23 91 27 100 29 102 C 30 103 31 105 33 107 C 37 114 45 119 51 121 C 69 125 81 123 95 112 C 106 104 111 96 110 90 C 108 85 100 85 96 90 C 91 96 85 98 76 98 C 68 98 64 97 60 94 C 51 88 46 77 45 66 C 44 58 46 57 57 58 C 62 58 74 59 84 59 C 90 59 97 59 103 59 C 103 58 104 58 105 58 C 109 54 109 42 103 31 C 96 16 76 8 59 13 M 72 26 C 78 28 82 38 80 43 C 79 46 76 47 61 48 C 48 48 47 48 47 43 C 47 37 55 28 61 26 C 64 25 69 25 72 26 z" fill="black"/><!-- width=121 height=137 -->
<path id="gl11017" d="M 61 7 C 60 7 57 9 55 11 C 51 14 42 21 37 24 C 35 24 31 26 30 27 C 28 28 24 31 21 31 C 10 37 5 42 8 48 C 11 54 16 54 27 46 C 37 39 42 39 42 48 C 42 50 41 73 41 100 C 40 154 41 151 36 153 C 34 154 32 154 25 154 C 23 154 21 154 18 154 C 17 155 16 156 16 157 C 13 160 13 162 15 165 C 18 169 21 170 31 169 C 46 166 60 166 78 169 C 90 170 91 170 94 168 C 98 165 99 162 97 158 C 96 154 94 154 87 154 C 77 155 73 153 72 147 C 70 144 71 31 72 24 C 74 9 70 3 61 7 z" fill="black"/><!-- width=108 height=185 -->
<path id="gl34305" d="M 14 9 C 4 14 4 48 9 48 C 14 48 19 43 19 38 C 24 33 81 33 81 38 C 81 43 67 67 48 100 C 19 158 19 168 33 163 C 43 158 115 14 105 9 C 96 0 19 0 14 9 z" fill="black"/><!-- width=124 height=177 -->
<path id="gl11018" d="M 27 16 C 13 21 9 38 19 49 C 28 59 46 56 51 43 C 57 27 42 10 27 16 M 28 84 C 14 89 9 107 19 118 C 27 126 40 126 47 118 C 52 112 54 102 50 95 C 46 87 36 82 28 84 z" fill="black"/><!-- width=66 height=139 -->
<path id="gl16393" d="M 43 16 C 31 17 21 17 21 18 C 15 21 16 27 25 30 C 30 31 33 34 34 38 C 35 42 35 154 33 157 C 32 161 30 163 25 165 C 16 168 13 174 21 177 C 25 179 98 178 108 177 C 152 169 180 137 180 94 C 180 57 156 28 119 19 C 106 16 91 16 43 16 M 102 33 C 128 40 141 60 142 93 C 144 135 123 162 88 162 C 78 162 73 160 70 154 C 69 150 68 135 69 84 C 69 33 69 35 72 33 C 76 30 91 31 102 33 z" fill="black"/><!-- width=193 height=194 -->
<path id="gl12804" d="M 38 9 C 30 12 25 22 28 31 C 34 45 56 44 60 30 C 64 16 52 4 38 9 M 51 67 C 49 67 46 69 42 70 C 39 72 34 74 29 75 C 18 78 16 79 16 84 C 16 88 18 91 22 91 C 30 94 30 92 30 127 C 30 162 30 159 24 161 C 19 163 18 163 16 166 C 15 169 16 172 18 174 C 21 177 23 177 31 175 C 40 174 51 174 59 175 C 67 177 69 177 72 174 C 77 169 74 162 67 161 C 58 160 58 162 58 126 C 58 110 59 91 60 84 C 60 73 60 72 59 70 C 57 67 54 66 51 67 z" fill="black"/><!-- width=88 height=215 -->
<path id="gl20992" d="M 88 26 C 84 27 82 28 78 33 C 73 37 70 37 69 32 C 66 26 63 25 55 28 C 49 31 44 33 37 34 C 28 35 26 37 25 42 C 25 46 28 49 35 51 C 41 52 40 51 40 86 C 41 121 41 120 33 121 C 27 122 24 126 25 132 C 26 136 30 137 43 135 C 52 134 70 135 77 136 C 85 138 91 135 91 129 C 91 124 87 121 79 121 C 75 122 71 121 70 118 C 69 115 68 61 69 57 C 72 49 79 47 87 53 C 93 58 97 59 102 57 C 108 54 111 48 111 40 C 111 28 100 21 88 26 z" fill="black"/><!-- width=124 height=151 -->
<path id="gl12292" d="M 62 12 C 31 18 12 52 22 88 C 31 122 66 134 94 113 C 99 109 107 101 108 99 C 109 96 109 90 108 88 C 105 85 100 86 95 91 C 76 107 53 99 45 73 C 41 59 43 57 57 58 C 61 58 73 59 84 59 C 90 59 96 59 102 59 C 102 59 103 58 104 58 C 108 55 108 51 106 42 C 103 27 93 16 80 13 C 76 12 66 11 62 12 M 70 26 C 78 28 83 41 78 46 C 75 48 50 49 48 47 C 42 42 52 28 63 26 C 66 25 67 25 70 26 z" fill="black"/><!-- width=120 height=138 -->
<path id="gl34306" d="M 24 19 C -15 62 24 139 76 110 C 96 100 105 86 100 81 C 96 81 86 81 81 86 C 57 100 33 86 33 48 C 33 24 62 9 67 28 C 72 38 86 43 96 33 C 105 24 105 9 100 14 C 96 14 91 14 91 14 C 86 0 38 4 24 19 z" fill="black"/><!-- width=110 height=129 -->
<path id="gl11034" d="M 52 7 C 51 9 48 11 45 16 C 40 24 33 30 24 34 C 15 39 15 49 25 49 C 28 49 31 51 31 52 C 31 52 31 68 31 87 C 31 125 31 124 35 130 C 42 140 60 142 73 134 C 87 126 91 119 87 114 C 84 111 81 112 76 114 C 68 117 63 117 60 111 C 58 109 58 108 59 93 C 59 84 59 72 58 64 C 58 47 58 46 72 49 C 85 51 88 49 88 41 C 88 30 85 29 70 31 C 60 33 58 30 60 19 C 62 10 58 5 52 7 z" fill="black"/><!-- width=101 height=153 -->
<path id="gl12804" d="M 38 9 C 30 12 25 22 28 31 C 34 45 56 44 60 30 C 64 16 52 4 38 9 M 51 67 C 49 67 46 69 42 70 C 39 72 34 74 29 75 C 18 78 16 79 16 84 C 16 88 18 91 22 91 C 30 94 30 92 30 127 C 30 162 30 159 24 161 C 19 163 18 163 16 166 C 15 169 16 172 18 174 C 21 177 23 177 31 175 C 40 174 51 174 59 175 C 67 177 69 177 72 174 C 77 169 74 162 67 161 C 58 160 58 162 58 126 C 58 110 59 91 60 84 C 60 73 60 72 59 70 C 57 67 54 66 51 67 z" fill="black"/><!-- width=88 height=215 -->
<path id="gl9747" d="M 64 12 C 41 15 21 34 16 57 C 9 90 25 118 55 127 C 64 130 78 130 87 127 C 103 121 115 109 121 95 C 127 79 127 61 121 46 C 112 24 88 10 64 12 M 75 29 C 85 33 92 46 93 63 C 96 96 87 115 71 114 C 55 113 45 91 46 63 C 48 37 60 23 75 29 z" fill="black"/><!-- width=141 height=143 -->
<path id="gl23053" d="M 84 12 C 79 13 73 15 67 19 C 59 25 58 24 56 18 C 55 15 54 15 53 13 C 50 12 49 12 42 16 C 37 18 34 19 21 22 C 12 24 12 34 20 37 C 29 39 28 36 28 72 C 28 107 28 105 21 106 C 13 109 12 116 18 120 C 21 121 21 121 28 120 C 39 118 44 118 55 119 C 64 120 65 120 67 118 C 74 115 72 109 63 107 C 55 105 56 107 55 70 C 55 36 55 38 66 34 C 77 31 85 33 89 40 C 90 41 90 42 90 43 C 90 52 90 62 90 71 C 90 105 91 105 83 107 C 76 109 74 114 78 118 C 80 120 79 120 95 118 C 106 118 108 118 117 119 C 128 121 129 120 131 117 C 135 112 132 106 124 106 C 122 106 120 105 119 102 C 118 101 118 96 118 67 C 118 39 118 33 117 31 C 114 20 106 14 95 12 C 89 11 90 11 84 12 z" fill="black"/><!-- width=144 height=133 -->
<path id="gl34307" d="M 19 9 C 9 14 9 19 9 24 C 14 28 14 52 14 100 C 14 120 14 144 14 168 C 24 168 28 172 38 172 C 81 177 110 158 115 124 C 120 91 91 57 62 72 C 43 76 38 76 38 38 C 38 0 38 0 19 9 M 81 96 C 91 110 91 148 81 158 C 62 177 43 158 43 115 C 38 81 62 72 81 96 z" fill="black"/><!-- width=124 height=182 -->
<path id="gl34308" d="M 4 4 C 4 9 4 9 4 9 C 9 9 19 33 28 57 C 48 105 48 129 28 129 C 19 129 14 144 19 153 C 28 163 43 144 72 76 C 81 43 96 14 100 14 C 110 9 100 4 86 4 C 76 4 72 4 72 4 C 72 9 72 9 72 9 C 76 9 76 14 76 19 C 76 28 62 62 62 62 C 52 62 38 14 43 14 C 57 9 48 4 28 4 C 14 4 4 4 4 4 z" fill="black"/><!-- width=110 height=163 -->
<path id="gl12297" d="M 42 13 C 16 13 16 13 14 15 C 9 18 12 24 20 25 C 24 27 28 30 29 34 C 30 38 30 148 28 153 C 27 157 25 159 19 160 C 12 163 10 167 13 171 C 16 173 18 173 48 173 C 81 173 81 173 83 168 C 84 164 82 162 75 160 C 69 159 66 156 64 151 C 63 148 63 105 64 103 C 66 99 67 99 100 99 C 135 99 135 99 136 103 C 138 106 138 151 136 154 C 135 157 132 159 126 160 C 119 162 117 165 118 169 C 120 173 120 173 154 173 C 189 172 188 173 190 168 C 191 164 189 162 182 160 C 177 158 175 157 174 154 C 172 151 171 52 172 38 C 172 29 174 27 183 25 C 187 23 189 21 189 19 C 189 16 189 15 186 13 C 182 12 123 12 120 14 C 116 17 118 23 124 24 C 125 25 127 25 129 26 C 132 27 135 30 136 32 C 138 35 138 72 137 75 C 135 79 136 79 104 80 C 69 80 66 80 64 75 C 63 72 63 35 64 32 C 66 28 69 27 75 25 C 81 24 82 22 82 19 C 82 15 79 12 72 13 C 70 13 57 13 42 13 z" fill="black"/><!-- width=203 height=186 -->
<path id="gl9747" d="M 64 12 C 41 15 21 34 16 57 C 9 90 25 118 55 127 C 64 130 78 130 87 127 C 103 121 115 109 121 95 C 127 79 127 61 121 46 C 112 24 88 10 64 12 M 75 29 C 85 33 92 46 93 63 C 96 96 87 115 71 114 C 55 113 45 91 46 63 C 48 37 60 23 75 29 z" fill="black"/><!-- width=141 height=143 -->
<path id="gl10262" d="M 41 10 C 37 11 28 12 19 12 C 15 12 13 15 13 19 C 13 23 15 25 19 27 C 28 28 28 27 28 64 C 27 102 28 103 34 112 C 40 120 48 123 58 124 C 67 124 74 122 82 116 C 91 110 93 110 94 117 C 96 124 98 124 109 121 C 115 120 121 119 125 119 C 138 118 138 118 140 115 C 141 114 141 114 141 111 C 141 105 139 103 132 103 C 121 103 122 105 122 68 C 122 51 123 33 123 26 C 124 9 123 8 109 10 C 107 11 99 12 93 12 C 81 12 79 13 77 15 C 74 21 77 25 86 27 C 94 28 94 28 94 64 C 94 90 94 92 93 94 C 91 99 81 102 72 102 C 64 103 59 99 57 91 C 55 87 55 40 57 24 C 57 10 55 8 41 10 z" fill="black"/><!-- width=153 height=138 -->
<path id="gl10498" d="M 48 12 C 33 14 21 22 17 34 C 15 40 15 50 17 56 C 20 65 28 72 44 79 C 56 84 60 88 61 95 C 61 98 61 99 60 102 C 52 114 34 110 28 94 C 25 85 21 82 17 84 C 13 87 12 90 14 102 C 16 117 18 119 36 122 C 63 127 85 112 85 89 C 85 73 78 64 57 55 C 48 51 46 50 43 47 C 37 42 37 33 43 28 C 47 25 56 26 60 28 C 63 31 66 34 67 39 C 70 46 76 49 80 45 C 82 42 82 41 81 31 C 80 16 78 15 63 12 C 56 12 52 11 48 12 z" fill="black"/><!-- width=99 height=137 -->
<path id="gl12292" d="M 62 12 C 31 18 12 52 22 88 C 31 122 66 134 94 113 C 99 109 107 101 108 99 C 109 96 109 90 108 88 C 105 85 100 86 95 91 C 76 107 53 99 45 73 C 41 59 43 57 57 58 C 61 58 73 59 84 59 C 90 59 96 59 102 59 C 102 59 103 58 104 58 C 108 55 108 51 106 42 C 103 27 93 16 80 13 C 76 12 66 11 62 12 M 70 26 C 78 28 83 41 78 46 C 75 48 50 49 48 47 C 42 42 52 28 63 26 C 66 25 67 25 70 26 z" fill="black"/><!-- width=120 height=138 -->
<path id="gl1284" d="M 51 8 C 49 8 46 9 43 10 C 41 11 35 13 30 13 C 19 16 18 16 15 19 C 13 21 13 25 15 27 C 16 29 19 30 26 30 C 33 30 36 31 36 34 C 36 34 36 58 36 85 C 36 134 36 136 35 137 C 33 140 30 141 25 141 C 18 141 14 143 13 148 C 13 150 13 151 16 153 C 19 156 21 157 30 156 C 39 154 53 154 64 156 C 67 156 70 156 72 157 C 73 156 74 156 75 156 C 79 154 80 151 80 148 C 80 144 76 141 70 141 C 63 141 59 139 58 134 C 58 132 58 31 59 15 C 59 10 56 7 51 8 z" fill="black"/><!-- width=92 height=174 -->
<path id="gl6" d="M 46 10 C 20 13 7 43 24 60 C 30 65 31 66 44 72 C 58 79 61 82 61 91 C 61 102 51 108 40 103 C 35 101 32 97 28 91 C 24 81 24 81 21 79 C 19 78 18 78 17 78 C 11 81 11 85 15 104 C 16 110 21 114 33 117 C 62 124 89 101 81 76 C 77 66 71 60 55 54 C 43 48 39 45 37 40 C 33 32 40 22 50 24 C 55 24 60 28 64 34 C 66 40 70 43 73 43 C 79 42 81 37 77 25 C 73 14 72 12 61 10 C 55 9 52 9 46 10 z" fill="black"/><!-- width=96 height=132 -->
<path id="gl0" d="M 44 10 C 42 12 37 17 34 22 C 31 25 31 25 31 30 C 30 35 29 37 25 37 C 19 38 15 41 14 45 C 13 50 16 52 24 52 C 27 52 29 52 30 53 C 31 54 31 52 31 90 C 30 115 30 119 31 123 C 36 139 48 147 64 141 C 79 135 82 133 83 129 C 84 125 82 122 79 121 C 77 120 77 120 71 121 C 62 125 58 124 55 119 C 53 115 52 112 52 96 C 52 88 52 76 52 69 C 52 62 52 56 52 55 C 52 51 57 51 66 52 C 76 54 82 50 81 43 C 80 37 76 35 64 37 C 53 39 51 37 53 26 C 55 16 54 13 52 10 C 51 9 46 9 44 10 z" fill="black"/><!-- width=93 height=156 -->
<path id="gl2067" d="M 24 13 C 10 19 10 41 25 45 C 39 49 50 35 44 21 C 41 15 31 11 24 13 M 26 85 C 13 88 10 106 19 115 C 28 122 42 118 45 108 C 49 94 39 82 26 85 z" fill="black"/><!-- width=60 height=132 -->
<path id="gl4885" d="M 31 12 C 27 13 25 15 25 18 C 25 21 26 21 32 24 C 42 29 42 27 42 88 C 42 104 42 120 42 136 C 41 138 40 139 40 141 C 39 146 36 148 31 150 C 22 153 20 158 27 161 C 30 163 123 163 126 161 C 130 159 131 157 134 145 C 138 130 137 124 132 123 C 129 123 127 124 123 132 C 116 146 112 148 90 148 C 67 148 66 147 66 114 C 66 92 66 92 78 91 C 85 91 94 92 97 94 C 100 95 100 96 103 99 C 106 106 108 108 112 106 C 116 105 116 103 116 84 C 115 65 115 63 112 61 C 108 60 106 61 103 69 C 99 75 97 76 84 76 C 66 76 66 77 66 51 C 66 25 65 26 85 26 C 105 26 108 28 114 40 C 116 46 118 48 121 48 C 126 48 127 45 126 31 C 125 18 124 15 120 13 C 118 12 36 11 31 12 z" fill="black"/><!-- width=150 height=177 -->
<path id="gl1537" d="M 79 11 C 76 12 75 15 65 40 C 57 63 35 118 32 127 C 26 142 23 146 16 150 C 10 152 9 154 9 157 C 9 162 10 162 33 162 C 56 162 57 162 57 156 C 57 153 56 152 49 149 C 44 147 43 144 46 134 C 52 116 55 110 58 109 C 61 108 88 108 92 108 C 97 109 99 113 105 133 C 110 145 109 147 103 150 C 97 153 96 156 99 160 C 102 162 104 163 129 162 C 150 162 151 162 153 159 C 155 154 153 151 145 149 C 138 147 135 142 128 123 C 126 117 123 111 123 109 C 122 106 120 101 118 96 C 117 91 114 85 114 83 C 112 81 110 73 108 67 C 106 61 102 50 98 42 C 95 34 92 25 91 22 C 87 12 84 9 79 11 M 78 58 C 79 60 82 68 86 79 C 90 91 89 91 75 91 C 62 91 61 91 66 78 C 72 58 75 55 78 58 z" fill="black"/><!-- width=168 height=204 -->
<path id="gl1029" d="M 51 11 C 28 16 15 33 16 55 C 16 74 26 84 53 97 C 66 103 73 108 76 112 C 85 125 81 145 67 151 C 51 158 34 150 26 130 C 22 120 20 118 16 118 C 11 118 8 123 9 129 C 10 135 15 153 15 155 C 19 166 54 172 73 165 C 93 157 105 139 103 118 C 103 99 93 87 68 76 C 49 67 43 63 39 56 C 33 44 40 29 52 26 C 66 22 79 30 82 45 C 84 51 89 55 93 54 C 97 51 99 46 97 40 C 97 39 96 34 96 30 C 93 16 92 15 80 12 C 73 10 56 10 51 11 z" fill="black"/><!-- width=117 height=181 -->
<path id="gl1281" d="M 19 42 C 16 44 15 45 15 57 C 13 78 14 82 19 82 C 22 82 24 81 27 73 C 33 62 37 60 52 60 C 60 60 61 60 62 61 C 66 63 66 63 65 119 C 65 137 65 154 65 172 C 64 173 64 174 64 175 C 62 180 60 181 55 183 C 49 184 47 186 46 187 C 43 192 46 195 52 196 C 60 197 106 196 108 195 C 111 193 112 190 110 187 C 109 186 107 184 102 183 C 96 181 93 179 91 174 C 90 171 89 69 90 64 C 92 60 93 60 103 60 C 119 60 125 63 129 73 C 131 82 136 85 139 81 C 142 79 142 76 141 61 C 140 46 140 45 137 43 C 135 41 133 41 128 43 C 126 43 125 44 123 45 C 108 45 93 45 77 45 C 61 45 46 45 31 45 C 30 44 28 43 27 43 C 21 41 21 41 19 42 z" fill="black"/><!-- width=156 height=210 -->
<path id="gl3088" d="M 24 57 C 19 59 18 61 16 76 C 15 87 16 91 21 91 C 24 91 25 90 28 85 C 32 79 34 79 56 79 C 79 79 82 79 82 84 C 81 90 66 122 38 174 C 33 183 28 193 27 195 C 25 202 32 205 43 202 C 48 201 51 195 73 142 C 76 136 91 102 97 90 C 107 66 108 64 106 61 C 104 57 105 57 64 57 C 33 57 26 57 24 57 z" fill="black"/><!-- width=121 height=217 -->
<path id="gl0" d="M 44 10 C 42 12 37 17 34 22 C 31 25 31 25 31 30 C 30 35 29 37 25 37 C 19 38 15 41 14 45 C 13 50 16 52 24 52 C 27 52 29 52 30 53 C 31 54 31 52 31 90 C 30 115 30 119 31 123 C 36 139 48 147 64 141 C 79 135 82 133 83 129 C 84 125 82 122 79 121 C 77 120 77 120 71 121 C 62 125 58 124 55 119 C 53 115 52 112 52 96 C 52 88 52 76 52 69 C 52 62 52 56 52 55 C 52 51 57 51 66 52 C 76 54 82 50 81 43 C 80 37 76 35 64 37 C 53 39 51 37 53 26 C 55 16 54 13 52 10 C 51 9 46 9 44 10 z" fill="black"/><!-- width=93 height=156 -->
<path id="gl5" d="M 43 12 C 31 14 30 15 28 17 C 24 21 26 24 33 27 C 40 30 40 24 40 91 C 40 130 40 150 39 152 C 39 156 37 157 33 160 C 26 163 25 169 31 172 C 34 172 70 172 73 171 C 79 169 78 163 70 159 C 64 156 63 154 64 120 C 64 112 64 105 64 97 C 64 96 65 95 66 94 C 72 85 88 84 96 91 C 101 96 102 101 102 129 C 102 156 102 156 94 160 C 90 162 89 163 89 166 C 88 172 91 172 114 172 C 136 172 138 172 138 166 C 138 163 137 162 133 159 C 131 158 129 156 128 156 C 127 155 127 154 126 154 C 126 144 126 135 126 125 C 126 109 125 95 125 93 C 119 69 97 60 72 72 C 69 73 66 73 64 72 C 64 71 64 64 63 43 C 63 5 64 6 43 12 z" fill="black"/><!-- width=152 height=210 -->
<path id="gl2067" d="M 24 13 C 10 19 10 41 25 45 C 39 49 50 35 44 21 C 41 15 31 11 24 13 M 26 85 C 13 88 10 106 19 115 C 28 122 42 118 45 108 C 49 94 39 82 26 85 z" fill="black"/><!-- width=60 height=132 -->
<path id="gl3335" d="M 26 31 C 23 31 21 34 21 37 C 22 40 22 40 27 42 C 36 46 37 50 43 70 C 63 130 76 172 78 175 C 82 182 88 182 92 175 C 93 174 99 155 106 134 C 120 93 122 87 124 87 C 127 87 127 86 149 146 C 156 163 160 174 161 176 C 164 181 171 181 174 177 C 175 174 178 163 187 136 C 206 73 210 60 214 53 C 216 47 217 46 224 43 C 229 40 231 38 230 35 C 229 31 228 30 210 30 C 187 30 183 30 183 36 C 183 39 184 40 189 42 C 196 46 196 47 192 67 C 183 102 175 127 172 129 C 169 130 168 126 157 96 C 136 38 136 38 133 36 C 130 33 125 34 123 39 C 121 41 117 54 110 76 C 93 130 92 133 88 126 C 85 120 64 55 64 50 C 64 46 66 44 70 42 C 78 40 78 33 71 31 C 68 30 28 30 26 31 z" fill="black"/><!-- width=245 height=195 -->
<path id="gl3086" d="M 34 11 C 24 12 22 19 33 24 C 37 25 40 28 42 31 C 43 36 43 137 42 141 C 40 145 37 148 32 149 C 25 151 23 153 24 157 C 25 160 26 161 30 162 C 33 162 124 162 127 161 C 131 159 133 156 136 142 C 139 127 139 124 135 123 C 133 122 132 121 132 121 C 130 121 127 126 124 132 C 118 145 114 147 95 147 C 69 148 67 147 67 113 C 67 91 67 91 78 91 C 85 90 96 91 99 93 C 102 94 102 95 105 100 C 108 108 113 109 116 103 C 117 100 118 69 116 64 C 114 57 108 58 104 67 C 101 73 100 74 91 75 C 84 76 74 75 71 74 C 67 73 67 72 67 50 C 67 24 66 25 87 25 C 106 25 111 28 115 41 C 117 47 121 49 124 48 C 127 45 128 43 127 32 C 126 16 125 14 121 12 C 118 11 45 10 34 11 z" fill="black"/><!-- width=152 height=177 -->
<path id="gl1029" d="M 51 11 C 28 16 15 33 16 55 C 16 74 26 84 53 97 C 66 103 73 108 76 112 C 85 125 81 145 67 151 C 51 158 34 150 26 130 C 22 120 20 118 16 118 C 11 118 8 123 9 129 C 10 135 15 153 15 155 C 19 166 54 172 73 165 C 93 157 105 139 103 118 C 103 99 93 87 68 76 C 49 67 43 63 39 56 C 33 44 40 29 52 26 C 66 22 79 30 82 45 C 84 51 89 55 93 54 C 97 51 99 46 97 40 C 97 39 96 34 96 30 C 93 16 92 15 80 12 C 73 10 56 10 51 11 z" fill="black"/><!-- width=117 height=181 -->
<path id="gl1281" d="M 19 42 C 16 44 15 45 15 57 C 13 78 14 82 19 82 C 22 82 24 81 27 73 C 33 62 37 60 52 60 C 60 60 61 60 62 61 C 66 63 66 63 65 119 C 65 137 65 154 65 172 C 64 173 64 174 64 175 C 62 180 60 181 55 183 C 49 184 47 186 46 187 C 43 192 46 195 52 196 C 60 197 106 196 108 195 C 111 193 112 190 110 187 C 109 186 107 184 102 183 C 96 181 93 179 91 174 C 90 171 89 69 90 64 C 92 60 93 60 103 60 C 119 60 125 63 129 73 C 131 82 136 85 139 81 C 142 79 142 76 141 61 C 140 46 140 45 137 43 C 135 41 133 41 128 43 C 126 43 125 44 123 45 C 108 45 93 45 77 45 C 61 45 46 45 31 45 C 30 44 28 43 27 43 C 21 41 21 41 19 42 z" fill="black"/><!-- width=156 height=210 -->
<path id="gl1541" d="M 45 9 C 33 11 25 16 15 29 C 10 36 9 37 9 41 C 9 45 11 48 15 48 C 19 49 21 48 25 41 C 34 31 38 28 47 28 C 62 28 70 37 70 54 C 70 65 64 78 53 93 C 42 107 22 132 16 137 C 7 145 6 149 7 153 C 9 156 12 157 20 157 C 30 156 52 155 71 156 C 94 157 94 157 98 144 C 103 128 103 127 101 124 C 97 118 91 120 85 129 C 82 133 79 134 58 135 C 35 135 35 135 55 114 C 78 91 89 75 92 60 C 97 36 85 16 64 10 C 60 9 49 8 45 9 z" fill="black"/><!-- width=117 height=178 -->
<path id="gl2" d="M 79 10 C 75 12 69 14 63 18 C 55 23 54 23 52 19 C 50 12 48 11 37 13 C 33 15 27 16 25 16 C 18 17 15 20 15 24 C 15 28 19 31 24 31 C 26 31 30 35 30 37 C 30 52 30 96 30 97 C 28 100 27 102 21 103 C 18 103 16 104 16 104 C 15 104 13 108 13 111 C 13 115 18 118 23 117 C 33 116 42 116 50 117 C 60 117 62 117 64 115 C 69 111 66 106 58 103 C 54 101 53 100 52 98 C 52 95 52 40 52 39 C 54 36 57 34 62 33 C 72 28 80 28 85 33 C 91 37 92 39 92 68 C 92 100 92 100 84 103 C 78 105 75 108 76 111 C 76 114 76 114 79 116 C 82 117 83 117 94 117 C 103 116 109 117 114 117 C 117 117 119 117 121 118 C 123 117 124 117 125 116 C 126 115 127 115 128 114 C 128 113 128 112 128 111 C 129 106 127 105 121 103 C 114 100 114 103 114 67 C 114 56 114 46 114 36 C 114 34 113 33 113 32 C 109 20 102 14 92 12 C 87 10 83 10 79 10 z" fill="black"/><!-- width=141 height=130 -->
<path id="gl259" d="M 82 13 C 71 16 69 16 67 19 C 65 22 67 25 73 28 C 81 30 81 31 81 50 C 81 55 81 59 81 63 C 80 64 79 64 79 65 C 78 67 77 67 70 67 C 44 69 25 81 15 101 C 1 130 15 164 45 173 C 53 176 59 175 70 169 C 77 166 78 166 82 170 C 85 174 87 174 99 171 C 117 166 118 166 118 161 C 118 158 117 156 112 155 C 108 154 106 153 105 150 C 105 149 104 123 104 83 C 104 46 103 16 103 15 C 102 9 98 9 82 13 M 72 84 C 76 85 79 88 80 91 C 81 94 81 144 80 147 C 79 152 67 157 58 154 C 48 153 39 142 36 129 C 34 119 36 105 40 97 C 45 85 60 79 72 84 z" fill="black"/><!-- width=138 height=214 -->
<path id="gl2067" d="M 24 13 C 10 19 10 41 25 45 C 39 49 50 35 44 21 C 41 15 31 11 24 13 M 26 85 C 13 88 10 106 19 115 C 28 122 42 118 45 108 C 49 94 39 82 26 85 z" fill="black"/><!-- width=60 height=132 -->
<path id="gl3086" d="M 34 11 C 24 12 22 19 33 24 C 37 25 40 28 42 31 C 43 36 43 137 42 141 C 40 145 37 148 32 149 C 25 151 23 153 24 157 C 25 160 26 161 30 162 C 33 162 124 162 127 161 C 131 159 133 156 136 142 C 139 127 139 124 135 123 C 133 122 132 121 132 121 C 130 121 127 126 124 132 C 118 145 114 147 95 147 C 69 148 67 147 67 113 C 67 91 67 91 78 91 C 85 90 96 91 99 93 C 102 94 102 95 105 100 C 108 108 113 109 116 103 C 117 100 118 69 116 64 C 114 57 108 58 104 67 C 101 73 100 74 91 75 C 84 76 74 75 71 74 C 67 73 67 72 67 50 C 67 24 66 25 87 25 C 106 25 111 28 115 41 C 117 47 121 49 124 48 C 127 45 128 43 127 32 C 126 16 125 14 121 12 C 118 11 45 10 34 11 z" fill="black"/><!-- width=152 height=177 -->
<path id="gl3091" d="M 18 20 C 12 23 13 29 21 31 C 30 34 33 38 34 47 C 35 52 34 139 34 144 C 33 151 31 153 25 157 C 17 160 15 163 18 166 C 19 169 23 170 45 169 C 69 169 69 169 70 165 C 71 162 69 159 63 157 C 51 154 51 152 49 118 C 49 87 49 69 52 67 C 54 65 59 71 83 100 C 87 105 92 111 94 114 C 96 116 102 124 108 130 C 129 156 138 167 140 168 C 145 171 150 169 151 164 C 151 162 152 145 152 110 C 152 37 152 36 162 32 C 172 28 172 22 163 19 C 157 18 121 19 119 21 C 113 24 115 29 124 31 C 136 35 136 37 136 84 C 136 125 136 125 122 108 C 118 104 114 99 112 97 C 110 94 106 88 102 84 C 51 23 50 22 45 20 C 40 19 21 19 18 20 z" fill="black"/><!-- width=183 height=184 -->
<path id="gl4885" d="M 31 12 C 27 13 25 15 25 18 C 25 21 26 21 32 24 C 42 29 42 27 42 88 C 42 104 42 120 42 136 C 41 138 40 139 40 141 C 39 146 36 148 31 150 C 22 153 20 158 27 161 C 30 163 123 163 126 161 C 130 159 131 157 134 145 C 138 130 137 124 132 123 C 129 123 127 124 123 132 C 116 146 112 148 90 148 C 67 148 66 147 66 114 C 66 92 66 92 78 91 C 85 91 94 92 97 94 C 100 95 100 96 103 99 C 106 106 108 108 112 106 C 116 105 116 103 116 84 C 115 65 115 63 112 61 C 108 60 106 61 103 69 C 99 75 97 76 84 76 C 66 76 66 77 66 51 C 66 25 65 26 85 26 C 105 26 108 28 114 40 C 116 46 118 48 121 48 C 126 48 127 45 126 31 C 125 18 124 15 120 13 C 118 12 36 11 31 12 z" fill="black"/><!-- width=150 height=177 -->
<path id="gl3342" d="M 53 12 C 33 17 19 32 19 51 C 19 62 24 70 33 78 C 42 84 42 87 33 91 C 20 99 15 108 15 122 C 15 131 15 135 18 141 C 28 162 60 170 81 157 C 97 148 104 136 104 119 C 104 103 100 96 85 86 C 76 79 76 78 85 72 C 94 64 97 60 99 51 C 102 34 90 18 72 13 C 68 12 55 11 53 12 M 65 27 C 69 29 73 33 76 38 C 81 51 73 73 64 72 C 58 71 46 62 43 55 C 40 51 40 42 42 37 C 46 28 56 24 65 27 M 61 94 C 69 100 76 107 80 114 C 83 120 83 130 80 136 C 74 148 62 152 49 145 C 36 139 33 116 43 100 C 49 92 54 90 61 94 z" fill="black"/><!-- width=118 height=177 -->
<path id="gl0" d="M 44 10 C 42 12 37 17 34 22 C 31 25 31 25 31 30 C 30 35 29 37 25 37 C 19 38 15 41 14 45 C 13 50 16 52 24 52 C 27 52 29 52 30 53 C 31 54 31 52 31 90 C 30 115 30 119 31 123 C 36 139 48 147 64 141 C 79 135 82 133 83 129 C 84 125 82 122 79 121 C 77 120 77 120 71 121 C 62 125 58 124 55 119 C 53 115 52 112 52 96 C 52 88 52 76 52 69 C 52 62 52 56 52 55 C 52 51 57 51 66 52 C 76 54 82 50 81 43 C 80 37 76 35 64 37 C 53 39 51 37 53 26 C 55 16 54 13 52 10 C 51 9 46 9 44 10 z" fill="black"/><!-- width=93 height=156 -->
<path id="gl5" d="M 43 12 C 31 14 30 15 28 17 C 24 21 26 24 33 27 C 40 30 40 24 40 91 C 40 130 40 150 39 152 C 39 156 37 157 33 160 C 26 163 25 169 31 172 C 34 172 70 172 73 171 C 79 169 78 163 70 159 C 64 156 63 154 64 120 C 64 112 64 105 64 97 C 64 96 65 95 66 94 C 72 85 88 84 96 91 C 101 96 102 101 102 129 C 102 156 102 156 94 160 C 90 162 89 163 89 166 C 88 172 91 172 114 172 C 136 172 138 172 138 166 C 138 163 137 162 133 159 C 131 158 129 156 128 156 C 127 155 127 154 126 154 C 126 144 126 135 126 125 C 126 109 125 95 125 93 C 119 69 97 60 72 72 C 69 73 66 73 64 72 C 64 71 64 64 63 43 C 63 5 64 6 43 12 z" fill="black"/><!-- width=152 height=210 -->
<path id="gl2067" d="M 24 13 C 10 19 10 41 25 45 C 39 49 50 35 44 21 C 41 15 31 11 24 13 M 26 85 C 13 88 10 106 19 115 C 28 122 42 118 45 108 C 49 94 39 82 26 85 z" fill="black"/><!-- width=60 height=132 -->
<path id="gl2311" d="M 27 30 C 24 30 22 31 21 33 C 19 37 21 39 27 42 C 36 46 36 45 58 116 C 59 120 61 124 61 127 C 62 129 65 139 68 148 C 78 179 79 180 84 180 C 90 180 90 180 104 138 C 120 90 120 90 122 87 C 123 87 124 85 124 85 C 126 85 128 91 131 99 C 132 102 134 108 136 111 C 137 115 139 121 141 124 C 142 127 144 134 145 138 C 147 142 149 148 150 150 C 159 176 161 180 166 180 C 171 180 173 177 178 162 C 183 144 186 136 188 127 C 189 123 192 115 193 111 C 195 105 197 99 198 96 C 199 93 201 86 203 81 C 213 48 214 45 224 42 C 228 40 230 36 228 32 C 226 29 226 29 208 30 C 189 30 186 30 184 32 C 180 36 182 39 189 42 C 194 44 195 46 194 51 C 193 60 179 113 173 128 C 172 129 171 129 169 128 C 168 127 163 117 157 98 C 156 94 153 88 152 84 C 150 79 148 73 147 70 C 146 68 144 62 142 58 C 141 54 139 48 138 45 C 134 35 131 32 126 34 C 123 35 121 39 105 91 C 96 117 92 129 91 129 C 88 129 87 125 78 97 C 76 92 73 83 71 77 C 66 61 63 50 63 48 C 63 45 65 43 69 42 C 76 39 78 33 72 30 C 70 30 30 29 27 30 z" fill="black"/><!-- width=243 height=195 -->
<path id="gl1029" d="M 51 11 C 28 16 15 33 16 55 C 16 74 26 84 53 97 C 66 103 73 108 76 112 C 85 125 81 145 67 151 C 51 158 34 150 26 130 C 22 120 20 118 16 118 C 11 118 8 123 9 129 C 10 135 15 153 15 155 C 19 166 54 172 73 165 C 93 157 105 139 103 118 C 103 99 93 87 68 76 C 49 67 43 63 39 56 C 33 44 40 29 52 26 C 66 22 79 30 82 45 C 84 51 89 55 93 54 C 97 51 99 46 97 40 C 97 39 96 34 96 30 C 93 16 92 15 80 12 C 73 10 56 10 51 11 z" fill="black"/><!-- width=117 height=181 -->
<path id="gl3335" d="M 26 31 C 23 31 21 34 21 37 C 22 40 22 40 27 42 C 36 46 37 50 43 70 C 63 130 76 172 78 175 C 82 182 88 182 92 175 C 93 174 99 155 106 134 C 120 93 122 87 124 87 C 127 87 127 86 149 146 C 156 163 160 174 161 176 C 164 181 171 181 174 177 C 175 174 178 163 187 136 C 206 73 210 60 214 53 C 216 47 217 46 224 43 C 229 40 231 38 230 35 C 229 31 228 30 210 30 C 187 30 183 30 183 36 C 183 39 184 40 189 42 C 196 46 196 47 192 67 C 183 102 175 127 172 129 C 169 130 168 126 157 96 C 136 38 136 38 133 36 C 130 33 125 34 123 39 C 121 41 117 54 110 76 C 93 130 92 133 88 126 C 85 120 64 55 64 50 C 64 46 66 44 70 42 C 78 40 78 33 71 31 C 68 30 28 30 26 31 z" fill="black"/><!-- width=245 height=195 -->
<path id="gl3078" d="M 48 17 C 35 18 24 25 18 36 C 15 41 14 45 16 47 C 18 51 21 50 28 44 C 35 37 42 34 49 35 C 63 38 67 53 57 63 C 53 67 48 70 39 75 C 29 80 27 82 28 86 C 28 90 30 90 40 90 C 62 88 72 96 72 116 C 72 144 51 156 28 142 C 20 138 15 138 11 144 C 4 154 16 167 34 167 C 58 167 86 147 93 124 C 100 105 96 88 79 76 C 73 72 73 71 79 65 C 87 56 88 48 85 38 C 81 24 66 15 48 17 z" fill="black"/><!-- width=119 height=181 -->
<path id="gl512" d="M 79 23 C 76 24 73 26 69 31 C 61 39 59 40 58 33 C 58 24 57 22 46 25 C 45 26 39 27 36 28 C 27 29 25 30 22 33 C 19 37 23 42 30 43 C 34 43 36 45 37 46 C 38 49 38 109 37 111 C 36 114 32 115 28 116 C 21 117 18 124 24 128 C 25 130 26 130 31 129 C 43 129 55 128 61 129 C 72 130 76 129 78 126 C 80 120 77 117 70 115 C 63 115 60 114 59 109 C 59 109 59 97 58 83 C 58 75 58 67 58 58 C 59 58 60 57 60 55 C 64 49 69 46 73 46 C 75 46 77 46 80 48 C 88 52 94 51 97 44 C 103 32 92 19 79 23 z" fill="black"/><!-- width=109 height=142 -->
<path id="gl259" d="M 82 13 C 71 16 69 16 67 19 C 65 22 67 25 73 28 C 81 30 81 31 81 50 C 81 55 81 59 81 63 C 80 64 79 64 79 65 C 78 67 77 67 70 67 C 44 69 25 81 15 101 C 1 130 15 164 45 173 C 53 176 59 175 70 169 C 77 166 78 166 82 170 C 85 174 87 174 99 171 C 117 166 118 166 118 161 C 118 158 117 156 112 155 C 108 154 106 153 105 150 C 105 149 104 123 104 83 C 104 46 103 16 103 15 C 102 9 98 9 82 13 M 72 84 C 76 85 79 88 80 91 C 81 94 81 144 80 147 C 79 152 67 157 58 154 C 48 153 39 142 36 129 C 34 119 36 105 40 97 C 45 85 60 79 72 84 z" fill="black"/><!-- width=138 height=214 -->
<path id="gl2067" d="M 24 13 C 10 19 10 41 25 45 C 39 49 50 35 44 21 C 41 15 31 11 24 13 M 26 85 C 13 88 10 106 19 115 C 28 122 42 118 45 108 C 49 94 39 82 26 85 z" fill="black"/><!-- width=60 height=132 -->
<path id="gl4111" d="M 25 19 C 20 20 18 20 16 21 C 11 25 14 30 22 32 C 29 34 33 39 34 46 C 36 52 36 109 35 126 C 34 151 33 156 24 158 C 18 160 15 164 18 168 C 19 169 19 169 20 170 C 23 170 27 170 30 171 C 55 172 67 171 70 168 C 73 165 71 160 63 158 C 51 154 50 152 50 100 C 50 69 50 67 53 67 C 55 66 57 67 97 117 C 137 166 138 168 141 169 C 145 172 149 171 151 167 C 152 165 152 161 153 106 C 153 33 152 36 164 31 C 171 28 172 24 166 21 C 164 19 134 19 125 19 C 114 21 113 28 124 32 C 136 36 137 37 137 84 C 137 118 137 120 134 120 C 132 120 127 114 98 79 C 48 19 51 23 48 21 C 44 19 38 19 25 19 z" fill="black"/><!-- width=184 height=186 -->
<path id="gl3091" d="M 18 20 C 12 23 13 29 21 31 C 30 34 33 38 34 47 C 35 52 34 139 34 144 C 33 151 31 153 25 157 C 17 160 15 163 18 166 C 19 169 23 170 45 169 C 69 169 69 169 70 165 C 71 162 69 159 63 157 C 51 154 51 152 49 118 C 49 87 49 69 52 67 C 54 65 59 71 83 100 C 87 105 92 111 94 114 C 96 116 102 124 108 130 C 129 156 138 167 140 168 C 145 171 150 169 151 164 C 151 162 152 145 152 110 C 152 37 152 36 162 32 C 172 28 172 22 163 19 C 157 18 121 19 119 21 C 113 24 115 29 124 31 C 136 35 136 37 136 84 C 136 125 136 125 122 108 C 118 104 114 99 112 97 C 110 94 106 88 102 84 C 51 23 50 22 45 20 C 40 19 21 19 18 20 z" fill="black"/><!-- width=183 height=184 -->
<path id="gl4885" d="M 31 12 C 27 13 25 15 25 18 C 25 21 26 21 32 24 C 42 29 42 27 42 88 C 42 104 42 120 42 136 C 41 138 40 139 40 141 C 39 146 36 148 31 150 C 22 153 20 158 27 161 C 30 163 123 163 126 161 C 130 159 131 157 134 145 C 138 130 137 124 132 123 C 129 123 127 124 123 132 C 116 146 112 148 90 148 C 67 148 66 147 66 114 C 66 92 66 92 78 91 C 85 91 94 92 97 94 C 100 95 100 96 103 99 C 106 106 108 108 112 106 C 116 105 116 103 116 84 C 115 65 115 63 112 61 C 108 60 106 61 103 69 C 99 75 97 76 84 76 C 66 76 66 77 66 51 C 66 25 65 26 85 26 C 105 26 108 28 114 40 C 116 46 118 48 121 48 C 126 48 127 45 126 31 C 125 18 124 15 120 13 C 118 12 36 11 31 12 z" fill="black"/><!-- width=150 height=177 -->
<path id="gl3082" d="M 48 27 C 30 30 15 44 10 63 C 9 69 9 83 10 88 C 17 112 39 124 63 117 C 71 115 72 117 68 126 C 60 143 48 154 27 162 C 19 166 17 167 16 170 C 14 181 42 176 63 162 C 94 142 109 100 100 64 C 93 37 72 22 48 27 M 60 41 C 70 44 78 65 77 85 C 76 95 73 98 61 100 C 43 102 30 82 34 60 C 37 44 46 37 60 41 z" fill="black"/><!-- width=117 height=189 -->
<path id="gl0" d="M 44 10 C 42 12 37 17 34 22 C 31 25 31 25 31 30 C 30 35 29 37 25 37 C 19 38 15 41 14 45 C 13 50 16 52 24 52 C 27 52 29 52 30 53 C 31 54 31 52 31 90 C 30 115 30 119 31 123 C 36 139 48 147 64 141 C 79 135 82 133 83 129 C 84 125 82 122 79 121 C 77 120 77 120 71 121 C 62 125 58 124 55 119 C 53 115 52 112 52 96 C 52 88 52 76 52 69 C 52 62 52 56 52 55 C 52 51 57 51 66 52 C 76 54 82 50 81 43 C 80 37 76 35 64 37 C 53 39 51 37 53 26 C 55 16 54 13 52 10 C 51 9 46 9 44 10 z" fill="black"/><!-- width=93 height=156 -->
<path id="gl5" d="M 43 12 C 31 14 30 15 28 17 C 24 21 26 24 33 27 C 40 30 40 24 40 91 C 40 130 40 150 39 152 C 39 156 37 157 33 160 C 26 163 25 169 31 172 C 34 172 70 172 73 171 C 79 169 78 163 70 159 C 64 156 63 154 64 120 C 64 112 64 105 64 97 C 64 96 65 95 66 94 C 72 85 88 84 96 91 C 101 96 102 101 102 129 C 102 156 102 156 94 160 C 90 162 89 163 89 166 C 88 172 91 172 114 172 C 136 172 138 172 138 166 C 138 163 137 162 133 159 C 131 158 129 156 128 156 C 127 155 127 154 126 154 C 126 144 126 135 126 125 C 126 109 125 95 125 93 C 119 69 97 60 72 72 C 69 73 66 73 64 72 C 64 71 64 64 63 43 C 63 5 64 6 43 12 z" fill="black"/><!-- width=152 height=210 -->
<path id="gl2067" d="M 24 13 C 10 19 10 41 25 45 C 39 49 50 35 44 21 C 41 15 31 11 24 13 M 26 85 C 13 88 10 106 19 115 C 28 122 42 118 45 108 C 49 94 39 82 26 85 z" fill="black"/><!-- width=60 height=132 -->
<path id="gl1029" d="M 51 11 C 28 16 15 33 16 55 C 16 74 26 84 53 97 C 66 103 73 108 76 112 C 85 125 81 145 67 151 C 51 158 34 150 26 130 C 22 120 20 118 16 118 C 11 118 8 123 9 129 C 10 135 15 153 15 155 C 19 166 54 172 73 165 C 93 157 105 139 103 118 C 103 99 93 87 68 76 C 49 67 43 63 39 56 C 33 44 40 29 52 26 C 66 22 79 30 82 45 C 84 51 89 55 93 54 C 97 51 99 46 97 40 C 97 39 96 34 96 30 C 93 16 92 15 80 12 C 73 10 56 10 51 11 z" fill="black"/><!-- width=117 height=181 -->
<path id="gl1029" d="M 51 11 C 28 16 15 33 16 55 C 16 74 26 84 53 97 C 66 103 73 108 76 112 C 85 125 81 145 67 151 C 51 158 34 150 26 130 C 22 120 20 118 16 118 C 11 118 8 123 9 129 C 10 135 15 153 15 155 C 19 166 54 172 73 165 C 93 157 105 139 103 118 C 103 99 93 87 68 76 C 49 67 43 63 39 56 C 33 44 40 29 52 26 C 66 22 79 30 82 45 C 84 51 89 55 93 54 C 97 51 99 46 97 40 C 97 39 96 34 96 30 C 93 16 92 15 80 12 C 73 10 56 10 51 11 z" fill="black"/><!-- width=117 height=181 -->
<path id="gl3335" d="M 26 31 C 23 31 21 34 21 37 C 22 40 22 40 27 42 C 36 46 37 50 43 70 C 63 130 76 172 78 175 C 82 182 88 182 92 175 C 93 174 99 155 106 134 C 120 93 122 87 124 87 C 127 87 127 86 149 146 C 156 163 160 174 161 176 C 164 181 171 181 174 177 C 175 174 178 163 187 136 C 206 73 210 60 214 53 C 216 47 217 46 224 43 C 229 40 231 38 230 35 C 229 31 228 30 210 30 C 187 30 183 30 183 36 C 183 39 184 40 189 42 C 196 46 196 47 192 67 C 183 102 175 127 172 129 C 169 130 168 126 157 96 C 136 38 136 38 133 36 C 130 33 125 34 123 39 C 121 41 117 54 110 76 C 93 130 92 133 88 126 C 85 120 64 55 64 50 C 64 46 66 44 70 42 C 78 40 78 33 71 31 C 68 30 28 30 26 31 z" fill="black"/><!-- width=245 height=195 -->
<path id="gl4370" d="M 76 7 C 71 9 69 12 34 63 C 28 72 22 81 22 82 C 9 100 7 105 10 109 C 12 113 13 113 37 113 C 64 114 64 114 63 125 C 63 135 63 137 54 139 C 46 142 44 145 48 150 C 49 150 49 151 50 151 C 58 151 66 151 74 151 C 97 152 98 151 100 151 C 106 147 104 142 95 139 C 89 138 87 135 87 124 C 87 115 88 114 97 113 C 105 112 109 109 108 103 C 107 99 105 97 97 96 C 94 95 91 94 90 94 C 87 93 87 93 87 52 C 87 8 87 10 82 7 C 79 6 79 6 76 7 M 61 52 C 63 53 64 56 64 73 C 64 96 64 95 49 95 C 34 95 33 94 37 87 C 43 75 58 51 60 51 C 60 51 61 51 61 52 z" fill="black"/><!-- width=130 height=175 -->
<path id="gl0" d="M 44 10 C 42 12 37 17 34 22 C 31 25 31 25 31 30 C 30 35 29 37 25 37 C 19 38 15 41 14 45 C 13 50 16 52 24 52 C 27 52 29 52 30 53 C 31 54 31 52 31 90 C 30 115 30 119 31 123 C 36 139 48 147 64 141 C 79 135 82 133 83 129 C 84 125 82 122 79 121 C 77 120 77 120 71 121 C 62 125 58 124 55 119 C 53 115 52 112 52 96 C 52 88 52 76 52 69 C 52 62 52 56 52 55 C 52 51 57 51 66 52 C 76 54 82 50 81 43 C 80 37 76 35 64 37 C 53 39 51 37 53 26 C 55 16 54 13 52 10 C 51 9 46 9 44 10 z" fill="black"/><!-- width=93 height=156 -->
<path id="gl5" d="M 43 12 C 31 14 30 15 28 17 C 24 21 26 24 33 27 C 40 30 40 24 40 91 C 40 130 40 150 39 152 C 39 156 37 157 33 160 C 26 163 25 169 31 172 C 34 172 70 172 73 171 C 79 169 78 163 70 159 C 64 156 63 154 64 120 C 64 112 64 105 64 97 C 64 96 65 95 66 94 C 72 85 88 84 96 91 C 101 96 102 101 102 129 C 102 156 102 156 94 160 C 90 162 89 163 89 166 C 88 172 91 172 114 172 C 136 172 138 172 138 166 C 138 163 137 162 133 159 C 131 158 129 156 128 156 C 127 155 127 154 126 154 C 126 144 126 135 126 125 C 126 109 125 95 125 93 C 119 69 97 60 72 72 C 69 73 66 73 64 72 C 64 71 64 64 63 43 C 63 5 64 6 43 12 z" fill="black"/><!-- width=152 height=210 -->
<path id="gl2067" d="M 24 13 C 10 19 10 41 25 45 C 39 49 50 35 44 21 C 41 15 31 11 24 13 M 26 85 C 13 88 10 106 19 115 C 28 122 42 118 45 108 C 49 94 39 82 26 85 z" fill="black"/><!-- width=60 height=132 -->
<path id="gl3091" d="M 18 20 C 12 23 13 29 21 31 C 30 34 33 38 34 47 C 35 52 34 139 34 144 C 33 151 31 153 25 157 C 17 160 15 163 18 166 C 19 169 23 170 45 169 C 69 169 69 169 70 165 C 71 162 69 159 63 157 C 51 154 51 152 49 118 C 49 87 49 69 52 67 C 54 65 59 71 83 100 C 87 105 92 111 94 114 C 96 116 102 124 108 130 C 129 156 138 167 140 168 C 145 171 150 169 151 164 C 151 162 152 145 152 110 C 152 37 152 36 162 32 C 172 28 172 22 163 19 C 157 18 121 19 119 21 C 113 24 115 29 124 31 C 136 35 136 37 136 84 C 136 125 136 125 122 108 C 118 104 114 99 112 97 C 110 94 106 88 102 84 C 51 23 50 22 45 20 C 40 19 21 19 18 20 z" fill="black"/><!-- width=183 height=184 -->
<path id="gl3340" d="M 82 13 C 81 13 79 14 76 15 C 46 19 22 43 15 75 C 13 84 13 102 15 111 C 21 138 39 158 64 166 C 78 171 100 171 115 165 C 145 154 163 128 163 93 C 164 64 154 42 134 27 C 120 17 99 11 82 13 M 91 28 C 115 30 131 50 135 79 C 141 124 124 156 92 156 C 64 156 43 130 41 94 C 38 54 55 28 85 27 C 85 27 88 27 91 28 z" fill="black"/><!-- width=178 height=184 -->
<path id="gl3850" d="M 45 12 C 33 12 32 12 30 15 C 28 18 30 21 37 24 C 42 26 43 28 45 32 C 46 35 46 99 46 123 C 46 129 46 135 46 140 C 45 141 45 142 44 144 C 42 147 40 148 36 150 C 28 152 26 158 32 161 C 35 162 80 163 84 162 C 91 159 88 152 81 150 C 72 147 70 142 71 117 C 71 112 71 108 71 103 C 72 102 72 102 73 101 C 75 100 75 100 78 100 C 85 100 90 103 96 114 C 117 151 125 159 144 163 C 156 165 161 163 160 157 C 160 155 160 154 155 151 C 146 145 129 123 118 102 C 112 93 112 92 120 85 C 132 76 138 65 138 51 C 138 26 121 13 91 12 C 74 12 56 12 45 12 M 91 26 C 106 30 115 44 111 61 C 108 77 98 85 81 85 C 70 85 70 87 70 55 C 70 27 70 27 77 25 C 80 24 87 25 91 26 z" fill="black"/><!-- width=175 height=177 -->
<path id="gl32267" d="M 19 40 C 16 43 15 45 15 61 C 15 78 15 79 19 79 C 22 79 24 78 28 70 C 33 60 36 58 48 56 C 56 55 61 56 63 58 C 64 59 64 60 65 60 C 65 63 66 67 66 70 C 66 82 66 155 66 163 C 65 175 63 178 54 180 C 46 182 44 186 48 190 C 50 192 52 192 79 192 C 105 193 108 192 110 189 C 112 185 110 182 102 180 C 95 178 93 175 91 168 C 90 164 90 63 91 60 C 93 57 99 55 109 56 C 122 58 125 60 129 71 C 133 80 138 82 141 76 C 142 72 141 45 139 42 C 137 38 135 37 129 40 C 127 40 126 41 124 42 C 109 42 93 42 78 42 C 62 42 46 42 31 42 C 30 41 28 40 27 40 C 22 38 21 38 19 40 M 16 183 C 15 185 15 190 16 191 C 17 193 17 193 19 192 C 22 190 22 187 19 184 C 18 182 17 182 16 183 z" fill="black"/><!-- width=155 height=206 -->
<path id="gl2308" d="M 19 15 C 10 16 10 24 21 27 C 24 28 26 29 28 31 C 31 34 31 34 31 91 C 31 108 31 126 31 143 C 30 144 30 145 29 147 C 27 150 27 151 21 153 C 12 156 11 163 20 165 C 24 166 65 166 68 165 C 76 163 75 156 66 153 C 62 151 58 148 58 145 C 55 138 55 102 57 98 C 59 94 58 94 91 94 C 124 94 123 94 125 99 C 126 101 127 130 126 138 C 125 147 123 150 116 153 C 107 156 105 160 111 164 C 113 166 160 166 165 165 C 172 162 171 156 162 153 C 155 150 153 148 152 141 C 151 135 151 44 152 39 C 153 32 154 30 161 27 C 171 24 171 17 162 15 C 156 13 115 15 112 16 C 106 19 108 24 116 27 C 125 30 126 33 126 55 C 126 73 126 75 122 77 C 120 78 64 78 60 77 C 56 75 56 74 56 57 C 56 33 57 30 66 27 C 73 24 75 19 69 16 C 67 15 27 14 19 15 z" fill="black"/><!-- width=184 height=180 -->
<path id="gl1284" d="M 51 8 C 49 8 46 9 43 10 C 41 11 35 13 30 13 C 19 16 18 16 15 19 C 13 21 13 25 15 27 C 16 29 19 30 26 30 C 33 30 36 31 36 34 C 36 34 36 58 36 85 C 36 134 36 136 35 137 C 33 140 30 141 25 141 C 18 141 14 143 13 148 C 13 150 13 151 16 153 C 19 156 21 157 30 156 C 39 154 53 154 64 156 C 67 156 70 156 72 157 C 73 156 74 156 75 156 C 79 154 80 151 80 148 C 80 144 76 141 70 141 C 63 141 59 139 58 134 C 58 132 58 31 59 15 C 59 10 56 7 51 8 z" fill="black"/><!-- width=92 height=174 -->
<path id="gl3345" d="M 52 14 C 28 19 13 48 13 88 C 13 112 18 130 28 144 C 45 169 78 169 95 144 C 112 119 115 70 100 40 C 90 19 72 10 52 14 M 67 28 C 77 33 82 51 84 81 C 85 120 78 145 64 148 C 53 151 45 140 42 119 C 37 91 39 54 46 39 C 52 29 60 25 67 28 z" fill="black"/><!-- width=123 height=177 -->
<path id="gl0" d="M 44 10 C 42 12 37 17 34 22 C 31 25 31 25 31 30 C 30 35 29 37 25 37 C 19 38 15 41 14 45 C 13 50 16 52 24 52 C 27 52 29 52 30 53 C 31 54 31 52 31 90 C 30 115 30 119 31 123 C 36 139 48 147 64 141 C 79 135 82 133 83 129 C 84 125 82 122 79 121 C 77 120 77 120 71 121 C 62 125 58 124 55 119 C 53 115 52 112 52 96 C 52 88 52 76 52 69 C 52 62 52 56 52 55 C 52 51 57 51 66 52 C 76 54 82 50 81 43 C 80 37 76 35 64 37 C 53 39 51 37 53 26 C 55 16 54 13 52 10 C 51 9 46 9 44 10 z" fill="black"/><!-- width=93 height=156 -->
<path id="gl5" d="M 43 12 C 31 14 30 15 28 17 C 24 21 26 24 33 27 C 40 30 40 24 40 91 C 40 130 40 150 39 152 C 39 156 37 157 33 160 C 26 163 25 169 31 172 C 34 172 70 172 73 171 C 79 169 78 163 70 159 C 64 156 63 154 64 120 C 64 112 64 105 64 97 C 64 96 65 95 66 94 C 72 85 88 84 96 91 C 101 96 102 101 102 129 C 102 156 102 156 94 160 C 90 162 89 163 89 166 C 88 172 91 172 114 172 C 136 172 138 172 138 166 C 138 163 137 162 133 159 C 131 158 129 156 128 156 C 127 155 127 154 126 154 C 126 144 126 135 126 125 C 126 109 125 95 125 93 C 119 69 97 60 72 72 C 69 73 66 73 64 72 C 64 71 64 64 63 43 C 63 5 64 6 43 12 z" fill="black"/><!-- width=152 height=210 -->
<path id="gl2067" d="M 24 13 C 10 19 10 41 25 45 C 39 49 50 35 44 21 C 41 15 31 11 24 13 M 26 85 C 13 88 10 106 19 115 C 28 122 42 118 45 108 C 49 94 39 82 26 85 z" fill="black"/><!-- width=60 height=132 -->
<path id="gl1029" d="M 51 11 C 28 16 15 33 16 55 C 16 74 26 84 53 97 C 66 103 73 108 76 112 C 85 125 81 145 67 151 C 51 158 34 150 26 130 C 22 120 20 118 16 118 C 11 118 8 123 9 129 C 10 135 15 153 15 155 C 19 166 54 172 73 165 C 93 157 105 139 103 118 C 103 99 93 87 68 76 C 49 67 43 63 39 56 C 33 44 40 29 52 26 C 66 22 79 30 82 45 C 84 51 89 55 93 54 C 97 51 99 46 97 40 C 97 39 96 34 96 30 C 93 16 92 15 80 12 C 73 10 56 10 51 11 z" fill="black"/><!-- width=117 height=181 -->
<path id="gl3340" d="M 82 13 C 81 13 79 14 76 15 C 46 19 22 43 15 75 C 13 84 13 102 15 111 C 21 138 39 158 64 166 C 78 171 100 171 115 165 C 145 154 163 128 163 93 C 164 64 154 42 134 27 C 120 17 99 11 82 13 M 91 28 C 115 30 131 50 135 79 C 141 124 124 156 92 156 C 64 156 43 130 41 94 C 38 54 55 28 85 27 C 85 27 88 27 91 28 z" fill="black"/><!-- width=178 height=184 -->
<path id="gl3346" d="M 36 22 C 25 24 25 31 36 35 C 42 37 43 39 45 44 C 45 46 46 63 46 86 C 46 128 47 130 49 140 C 56 164 75 177 102 177 C 136 177 157 156 162 120 C 162 117 163 101 163 84 C 164 40 164 39 174 35 C 183 32 184 27 178 24 C 175 22 174 22 155 22 C 133 22 132 22 129 25 C 125 28 127 33 135 35 C 147 39 147 41 148 77 C 148 112 147 129 139 142 C 128 163 93 165 79 144 C 75 137 72 128 71 113 C 70 100 71 48 72 43 C 73 39 76 37 81 35 C 89 33 91 26 84 24 C 82 22 44 22 36 22 z" fill="black"/><!-- width=195 height=191 -->
<path id="gl1281" d="M 19 42 C 16 44 15 45 15 57 C 13 78 14 82 19 82 C 22 82 24 81 27 73 C 33 62 37 60 52 60 C 60 60 61 60 62 61 C 66 63 66 63 65 119 C 65 137 65 154 65 172 C 64 173 64 174 64 175 C 62 180 60 181 55 183 C 49 184 47 186 46 187 C 43 192 46 195 52 196 C 60 197 106 196 108 195 C 111 193 112 190 110 187 C 109 186 107 184 102 183 C 96 181 93 179 91 174 C 90 171 89 69 90 64 C 92 60 93 60 103 60 C 119 60 125 63 129 73 C 131 82 136 85 139 81 C 142 79 142 76 141 61 C 140 46 140 45 137 43 C 135 41 133 41 128 43 C 126 43 125 44 123 45 C 108 45 93 45 77 45 C 61 45 46 45 31 45 C 30 44 28 43 27 43 C 21 41 21 41 19 42 z" fill="black"/><!-- width=156 height=210 -->
<path id="gl2308" d="M 19 15 C 10 16 10 24 21 27 C 24 28 26 29 28 31 C 31 34 31 34 31 91 C 31 108 31 126 31 143 C 30 144 30 145 29 147 C 27 150 27 151 21 153 C 12 156 11 163 20 165 C 24 166 65 166 68 165 C 76 163 75 156 66 153 C 62 151 58 148 58 145 C 55 138 55 102 57 98 C 59 94 58 94 91 94 C 124 94 123 94 125 99 C 126 101 127 130 126 138 C 125 147 123 150 116 153 C 107 156 105 160 111 164 C 113 166 160 166 165 165 C 172 162 171 156 162 153 C 155 150 153 148 152 141 C 151 135 151 44 152 39 C 153 32 154 30 161 27 C 171 24 171 17 162 15 C 156 13 115 15 112 16 C 106 19 108 24 116 27 C 125 30 126 33 126 55 C 126 73 126 75 122 77 C 120 78 64 78 60 77 C 56 75 56 74 56 57 C 56 33 57 30 66 27 C 73 24 75 19 69 16 C 67 15 27 14 19 15 z" fill="black"/><!-- width=184 height=180 -->
<path id="gl3081" d="M 76 21 C 70 22 48 22 37 22 C 24 22 22 23 21 35 C 21 38 21 43 20 46 C 19 49 19 56 18 61 C 18 67 17 75 16 79 C 15 88 15 90 18 92 C 20 94 22 94 29 92 C 55 84 75 96 75 120 C 74 148 50 161 30 145 C 21 139 16 139 12 144 C 5 151 9 162 19 168 C 41 177 74 165 90 141 C 99 127 100 108 94 94 C 85 76 65 67 43 72 C 31 75 30 73 33 57 C 35 45 36 44 49 44 C 54 44 64 45 71 45 C 87 46 89 45 91 37 C 94 25 90 20 76 21 z" fill="black"/><!-- width=112 height=184 -->
<path id="gl0" d="M 44 10 C 42 12 37 17 34 22 C 31 25 31 25 31 30 C 30 35 29 37 25 37 C 19 38 15 41 14 45 C 13 50 16 52 24 52 C 27 52 29 52 30 53 C 31 54 31 52 31 90 C 30 115 30 119 31 123 C 36 139 48 147 64 141 C 79 135 82 133 83 129 C 84 125 82 122 79 121 C 77 120 77 120 71 121 C 62 125 58 124 55 119 C 53 115 52 112 52 96 C 52 88 52 76 52 69 C 52 62 52 56 52 55 C 52 51 57 51 66 52 C 76 54 82 50 81 43 C 80 37 76 35 64 37 C 53 39 51 37 53 26 C 55 16 54 13 52 10 C 51 9 46 9 44 10 z" fill="black"/><!-- width=93 height=156 -->
<path id="gl5" d="M 43 12 C 31 14 30 15 28 17 C 24 21 26 24 33 27 C 40 30 40 24 40 91 C 40 130 40 150 39 152 C 39 156 37 157 33 160 C 26 163 25 169 31 172 C 34 172 70 172 73 171 C 79 169 78 163 70 159 C 64 156 63 154 64 120 C 64 112 64 105 64 97 C 64 96 65 95 66 94 C 72 85 88 84 96 91 C 101 96 102 101 102 129 C 102 156 102 156 94 160 C 90 162 89 163 89 166 C 88 172 91 172 114 172 C 136 172 138 172 138 166 C 138 163 137 162 133 159 C 131 158 129 156 128 156 C 127 155 127 154 126 154 C 126 144 126 135 126 125 C 126 109 125 95 125 93 C 119 69 97 60 72 72 C 69 73 66 73 64 72 C 64 71 64 64 63 43 C 63 5 64 6 43 12 z" fill="black"/><!-- width=152 height=210 -->
<path id="gl2067" d="M 24 13 C 10 19 10 41 25 45 C 39 49 50 35 44 21 C 41 15 31 11 24 13 M 26 85 C 13 88 10 106 19 115 C 28 122 42 118 45 108 C 49 94 39 82 26 85 z" fill="black"/><!-- width=60 height=132 -->
<path id="gl3091" d="M 18 20 C 12 23 13 29 21 31 C 30 34 33 38 34 47 C 35 52 34 139 34 144 C 33 151 31 153 25 157 C 17 160 15 163 18 166 C 19 169 23 170 45 169 C 69 169 69 169 70 165 C 71 162 69 159 63 157 C 51 154 51 152 49 118 C 49 87 49 69 52 67 C 54 65 59 71 83 100 C 87 105 92 111 94 114 C 96 116 102 124 108 130 C 129 156 138 167 140 168 C 145 171 150 169 151 164 C 151 162 152 145 152 110 C 152 37 152 36 162 32 C 172 28 172 22 163 19 C 157 18 121 19 119 21 C 113 24 115 29 124 31 C 136 35 136 37 136 84 C 136 125 136 125 122 108 C 118 104 114 99 112 97 C 110 94 106 88 102 84 C 51 23 50 22 45 20 C 40 19 21 19 18 20 z" fill="black"/><!-- width=183 height=184 -->
<path id="gl3091" d="M 18 20 C 12 23 13 29 21 31 C 30 34 33 38 34 47 C 35 52 34 139 34 144 C 33 151 31 153 25 157 C 17 160 15 163 18 166 C 19 169 23 170 45 169 C 69 169 69 169 70 165 C 71 162 69 159 63 157 C 51 154 51 152 49 118 C 49 87 49 69 52 67 C 54 65 59 71 83 100 C 87 105 92 111 94 114 C 96 116 102 124 108 130 C 129 156 138 167 140 168 C 145 171 150 169 151 164 C 151 162 152 145 152 110 C 152 37 152 36 162 32 C 172 28 172 22 163 19 C 157 18 121 19 119 21 C 113 24 115 29 124 31 C 136 35 136 37 136 84 C 136 125 136 125 122 108 C 118 104 114 99 112 97 C 110 94 106 88 102 84 C 51 23 50 22 45 20 C 40 19 21 19 18 20 z" fill="black"/><!-- width=183 height=184 -->
<path id="gl2311" d="M 27 30 C 24 30 22 31 21 33 C 19 37 21 39 27 42 C 36 46 36 45 58 116 C 59 120 61 124 61 127 C 62 129 65 139 68 148 C 78 179 79 180 84 180 C 90 180 90 180 104 138 C 120 90 120 90 122 87 C 123 87 124 85 124 85 C 126 85 128 91 131 99 C 132 102 134 108 136 111 C 137 115 139 121 141 124 C 142 127 144 134 145 138 C 147 142 149 148 150 150 C 159 176 161 180 166 180 C 171 180 173 177 178 162 C 183 144 186 136 188 127 C 189 123 192 115 193 111 C 195 105 197 99 198 96 C 199 93 201 86 203 81 C 213 48 214 45 224 42 C 228 40 230 36 228 32 C 226 29 226 29 208 30 C 189 30 186 30 184 32 C 180 36 182 39 189 42 C 194 44 195 46 194 51 C 193 60 179 113 173 128 C 172 129 171 129 169 128 C 168 127 163 117 157 98 C 156 94 153 88 152 84 C 150 79 148 73 147 70 C 146 68 144 62 142 58 C 141 54 139 48 138 45 C 134 35 131 32 126 34 C 123 35 121 39 105 91 C 96 117 92 129 91 129 C 88 129 87 125 78 97 C 76 92 73 83 71 77 C 66 61 63 50 63 48 C 63 45 65 43 69 42 C 76 39 78 33 72 30 C 70 30 30 29 27 30 z" fill="black"/><!-- width=243 height=195 -->
<path id="gl1284" d="M 51 8 C 49 8 46 9 43 10 C 41 11 35 13 30 13 C 19 16 18 16 15 19 C 13 21 13 25 15 27 C 16 29 19 30 26 30 C 33 30 36 31 36 34 C 36 34 36 58 36 85 C 36 134 36 136 35 137 C 33 140 30 141 25 141 C 18 141 14 143 13 148 C 13 150 13 151 16 153 C 19 156 21 157 30 156 C 39 154 53 154 64 156 C 67 156 70 156 72 157 C 73 156 74 156 75 156 C 79 154 80 151 80 148 C 80 144 76 141 70 141 C 63 141 59 139 58 134 C 58 132 58 31 59 15 C 59 10 56 7 51 8 z" fill="black"/><!-- width=92 height=174 -->
<path id="gl1284" d="M 51 8 C 49 8 46 9 43 10 C 41 11 35 13 30 13 C 19 16 18 16 15 19 C 13 21 13 25 15 27 C 16 29 19 30 26 30 C 33 30 36 31 36 34 C 36 34 36 58 36 85 C 36 134 36 136 35 137 C 33 140 30 141 25 141 C 18 141 14 143 13 148 C 13 150 13 151 16 153 C 19 156 21 157 30 156 C 39 154 53 154 64 156 C 67 156 70 156 72 157 C 73 156 74 156 75 156 C 79 154 80 151 80 148 C 80 144 76 141 70 141 C 63 141 59 139 58 134 C 58 132 58 31 59 15 C 59 10 56 7 51 8 z" fill="black"/><!-- width=92 height=174 -->
<path id="gl0" d="M 44 10 C 42 12 37 17 34 22 C 31 25 31 25 31 30 C 30 35 29 37 25 37 C 19 38 15 41 14 45 C 13 50 16 52 24 52 C 27 52 29 52 30 53 C 31 54 31 52 31 90 C 30 115 30 119 31 123 C 36 139 48 147 64 141 C 79 135 82 133 83 129 C 84 125 82 122 79 121 C 77 120 77 120 71 121 C 62 125 58 124 55 119 C 53 115 52 112 52 96 C 52 88 52 76 52 69 C 52 62 52 56 52 55 C 52 51 57 51 66 52 C 76 54 82 50 81 43 C 80 37 76 35 64 37 C 53 39 51 37 53 26 C 55 16 54 13 52 10 C 51 9 46 9 44 10 z" fill="black"/><!-- width=93 height=156 -->
<path id="gl5" d="M 43 12 C 31 14 30 15 28 17 C 24 21 26 24 33 27 C 40 30 40 24 40 91 C 40 130 40 150 39 152 C 39 156 37 157 33 160 C 26 163 25 169 31 172 C 34 172 70 172 73 171 C 79 169 78 163 70 159 C 64 156 63 154 64 120 C 64 112 64 105 64 97 C 64 96 65 95 66 94 C 72 85 88 84 96 91 C 101 96 102 101 102 129 C 102 156 102 156 94 160 C 90 162 89 163 89 166 C 88 172 91 172 114 172 C 136 172 138 172 138 166 C 138 163 137 162 133 159 C 131 158 129 156 128 156 C 127 155 127 154 126 154 C 126 144 126 135 126 125 C 126 109 125 95 125 93 C 119 69 97 60 72 72 C 69 73 66 73 64 72 C 64 71 64 64 63 43 C 63 5 64 6 43 12 z" fill="black"/><!-- width=152 height=210 -->
<path id="gl2067" d="M 24 13 C 10 19 10 41 25 45 C 39 49 50 35 44 21 C 41 15 31 11 24 13 M 26 85 C 13 88 10 106 19 115 C 28 122 42 118 45 108 C 49 94 39 82 26 85 z" fill="black"/><!-- width=60 height=132 -->
<path id="gl1029" d="M 51 11 C 28 16 15 33 16 55 C 16 74 26 84 53 97 C 66 103 73 108 76 112 C 85 125 81 145 67 151 C 51 158 34 150 26 130 C 22 120 20 118 16 118 C 11 118 8 123 9 129 C 10 135 15 153 15 155 C 19 166 54 172 73 165 C 93 157 105 139 103 118 C 103 99 93 87 68 76 C 49 67 43 63 39 56 C 33 44 40 29 52 26 C 66 22 79 30 82 45 C 84 51 89 55 93 54 C 97 51 99 46 97 40 C 97 39 96 34 96 30 C 93 16 92 15 80 12 C 73 10 56 10 51 11 z" fill="black"/><!-- width=117 height=181 -->
<path id="gl1029" d="M 51 11 C 28 16 15 33 16 55 C 16 74 26 84 53 97 C 66 103 73 108 76 112 C 85 125 81 145 67 151 C 51 158 34 150 26 130 C 22 120 20 118 16 118 C 11 118 8 123 9 129 C 10 135 15 153 15 155 C 19 166 54 172 73 165 C 93 157 105 139 103 118 C 103 99 93 87 68 76 C 49 67 43 63 39 56 C 33 44 40 29 52 26 C 66 22 79 30 82 45 C 84 51 89 55 93 54 C 97 51 99 46 97 40 C 97 39 96 34 96 30 C 93 16 92 15 80 12 C 73 10 56 10 51 11 z" fill="black"/><!-- width=117 height=181 -->
<path id="gl3086" d="M 34 11 C 24 12 22 19 33 24 C 37 25 40 28 42 31 C 43 36 43 137 42 141 C 40 145 37 148 32 149 C 25 151 23 153 24 157 C 25 160 26 161 30 162 C 33 162 124 162 127 161 C 131 159 133 156 136 142 C 139 127 139 124 135 123 C 133 122 132 121 132 121 C 130 121 127 126 124 132 C 118 145 114 147 95 147 C 69 148 67 147 67 113 C 67 91 67 91 78 91 C 85 90 96 91 99 93 C 102 94 102 95 105 100 C 108 108 113 109 116 103 C 117 100 118 69 116 64 C 114 57 108 58 104 67 C 101 73 100 74 91 75 C 84 76 74 75 71 74 C 67 73 67 72 67 50 C 67 24 66 25 87 25 C 106 25 111 28 115 41 C 117 47 121 49 124 48 C 127 45 128 43 127 32 C 126 16 125 14 121 12 C 118 11 45 10 34 11 z" fill="black"/><!-- width=152 height=177 -->
<path id="gl3341" d="M 91 11 C 46 21 18 55 18 101 C 18 122 24 137 36 148 C 49 160 70 163 87 154 C 115 141 123 97 101 76 C 90 65 75 61 61 65 C 52 67 51 66 52 60 C 58 43 74 30 97 23 C 104 20 106 18 106 15 C 106 10 102 9 91 11 M 70 84 C 81 87 88 99 88 116 C 88 136 82 145 69 145 C 54 145 45 131 44 105 C 43 90 45 87 52 84 C 58 82 64 82 70 84 z" fill="black"/><!-- width=127 height=184 -->
<path id="gl0" d="M 44 10 C 42 12 37 17 34 22 C 31 25 31 25 31 30 C 30 35 29 37 25 37 C 19 38 15 41 14 45 C 13 50 16 52 24 52 C 27 52 29 52 30 53 C 31 54 31 52 31 90 C 30 115 30 119 31 123 C 36 139 48 147 64 141 C 79 135 82 133 83 129 C 84 125 82 122 79 121 C 77 120 77 120 71 121 C 62 125 58 124 55 119 C 53 115 52 112 52 96 C 52 88 52 76 52 69 C 52 62 52 56 52 55 C 52 51 57 51 66 52 C 76 54 82 50 81 43 C 80 37 76 35 64 37 C 53 39 51 37 53 26 C 55 16 54 13 52 10 C 51 9 46 9 44 10 z" fill="black"/><!-- width=93 height=156 -->
<path id="gl5" d="M 43 12 C 31 14 30 15 28 17 C 24 21 26 24 33 27 C 40 30 40 24 40 91 C 40 130 40 150 39 152 C 39 156 37 157 33 160 C 26 163 25 169 31 172 C 34 172 70 172 73 171 C 79 169 78 163 70 159 C 64 156 63 154 64 120 C 64 112 64 105 64 97 C 64 96 65 95 66 94 C 72 85 88 84 96 91 C 101 96 102 101 102 129 C 102 156 102 156 94 160 C 90 162 89 163 89 166 C 88 172 91 172 114 172 C 136 172 138 172 138 166 C 138 163 137 162 133 159 C 131 158 129 156 128 156 C 127 155 127 154 126 154 C 126 144 126 135 126 125 C 126 109 125 95 125 93 C 119 69 97 60 72 72 C 69 73 66 73 64 72 C 64 71 64 64 63 43 C 63 5 64 6 43 12 z" fill="black"/><!-- width=152 height=210 -->
<path id="gl2067" d="M 24 13 C 10 19 10 41 25 45 C 39 49 50 35 44 21 C 41 15 31 11 24 13 M 26 85 C 13 88 10 106 19 115 C 28 122 42 118 45 108 C 49 94 39 82 26 85 z" fill="black"/><!-- width=60 height=132 -->
<path id="gl2311" d="M 27 30 C 24 30 22 31 21 33 C 19 37 21 39 27 42 C 36 46 36 45 58 116 C 59 120 61 124 61 127 C 62 129 65 139 68 148 C 78 179 79 180 84 180 C 90 180 90 180 104 138 C 120 90 120 90 122 87 C 123 87 124 85 124 85 C 126 85 128 91 131 99 C 132 102 134 108 136 111 C 137 115 139 121 141 124 C 142 127 144 134 145 138 C 147 142 149 148 150 150 C 159 176 161 180 166 180 C 171 180 173 177 178 162 C 183 144 186 136 188 127 C 189 123 192 115 193 111 C 195 105 197 99 198 96 C 199 93 201 86 203 81 C 213 48 214 45 224 42 C 228 40 230 36 228 32 C 226 29 226 29 208 30 C 189 30 186 30 184 32 C 180 36 182 39 189 42 C 194 44 195 46 194 51 C 193 60 179 113 173 128 C 172 129 171 129 169 128 C 168 127 163 117 157 98 C 156 94 153 88 152 84 C 150 79 148 73 147 70 C 146 68 144 62 142 58 C 141 54 139 48 138 45 C 134 35 131 32 126 34 C 123 35 121 39 105 91 C 96 117 92 129 91 129 C 88 129 87 125 78 97 C 76 92 73 83 71 77 C 66 61 63 50 63 48 C 63 45 65 43 69 42 C 76 39 78 33 72 30 C 70 30 30 29 27 30 z" fill="black"/><!-- width=243 height=195 -->
<path id="gl3091" d="M 18 20 C 12 23 13 29 21 31 C 30 34 33 38 34 47 C 35 52 34 139 34 144 C 33 151 31 153 25 157 C 17 160 15 163 18 166 C 19 169 23 170 45 169 C 69 169 69 169 70 165 C 71 162 69 159 63 157 C 51 154 51 152 49 118 C 49 87 49 69 52 67 C 54 65 59 71 83 100 C 87 105 92 111 94 114 C 96 116 102 124 108 130 C 129 156 138 167 140 168 C 145 171 150 169 151 164 C 151 162 152 145 152 110 C 152 37 152 36 162 32 C 172 28 172 22 163 19 C 157 18 121 19 119 21 C 113 24 115 29 124 31 C 136 35 136 37 136 84 C 136 125 136 125 122 108 C 118 104 114 99 112 97 C 110 94 106 88 102 84 C 51 23 50 22 45 20 C 40 19 21 19 18 20 z" fill="black"/><!-- width=183 height=184 -->
<path id="gl2311" d="M 27 30 C 24 30 22 31 21 33 C 19 37 21 39 27 42 C 36 46 36 45 58 116 C 59 120 61 124 61 127 C 62 129 65 139 68 148 C 78 179 79 180 84 180 C 90 180 90 180 104 138 C 120 90 120 90 122 87 C 123 87 124 85 124 85 C 126 85 128 91 131 99 C 132 102 134 108 136 111 C 137 115 139 121 141 124 C 142 127 144 134 145 138 C 147 142 149 148 150 150 C 159 176 161 180 166 180 C 171 180 173 177 178 162 C 183 144 186 136 188 127 C 189 123 192 115 193 111 C 195 105 197 99 198 96 C 199 93 201 86 203 81 C 213 48 214 45 224 42 C 228 40 230 36 228 32 C 226 29 226 29 208 30 C 189 30 186 30 184 32 C 180 36 182 39 189 42 C 194 44 195 46 194 51 C 193 60 179 113 173 128 C 172 129 171 129 169 128 C 168 127 163 117 157 98 C 156 94 153 88 152 84 C 150 79 148 73 147 70 C 146 68 144 62 142 58 C 141 54 139 48 138 45 C 134 35 131 32 126 34 C 123 35 121 39 105 91 C 96 117 92 129 91 129 C 88 129 87 125 78 97 C 76 92 73 83 71 77 C 66 61 63 50 63 48 C 63 45 65 43 69 42 C 76 39 78 33 72 30 C 70 30 30 29 27 30 z" fill="black"/><!-- width=243 height=195 -->
<path id="gl1284" d="M 51 8 C 49 8 46 9 43 10 C 41 11 35 13 30 13 C 19 16 18 16 15 19 C 13 21 13 25 15 27 C 16 29 19 30 26 30 C 33 30 36 31 36 34 C 36 34 36 58 36 85 C 36 134 36 136 35 137 C 33 140 30 141 25 141 C 18 141 14 143 13 148 C 13 150 13 151 16 153 C 19 156 21 157 30 156 C 39 154 53 154 64 156 C 67 156 70 156 72 157 C 73 156 74 156 75 156 C 79 154 80 151 80 148 C 80 144 76 141 70 141 C 63 141 59 139 58 134 C 58 132 58 31 59 15 C 59 10 56 7 51 8 z" fill="black"/><!-- width=92 height=174 -->
<path id="gl1541" d="M 45 9 C 33 11 25 16 15 29 C 10 36 9 37 9 41 C 9 45 11 48 15 48 C 19 49 21 48 25 41 C 34 31 38 28 47 28 C 62 28 70 37 70 54 C 70 65 64 78 53 93 C 42 107 22 132 16 137 C 7 145 6 149 7 153 C 9 156 12 157 20 157 C 30 156 52 155 71 156 C 94 157 94 157 98 144 C 103 128 103 127 101 124 C 97 118 91 120 85 129 C 82 133 79 134 58 135 C 35 135 35 135 55 114 C 78 91 89 75 92 60 C 97 36 85 16 64 10 C 60 9 49 8 45 9 z" fill="black"/><!-- width=117 height=178 -->
<path id="gl0" d="M 44 10 C 42 12 37 17 34 22 C 31 25 31 25 31 30 C 30 35 29 37 25 37 C 19 38 15 41 14 45 C 13 50 16 52 24 52 C 27 52 29 52 30 53 C 31 54 31 52 31 90 C 30 115 30 119 31 123 C 36 139 48 147 64 141 C 79 135 82 133 83 129 C 84 125 82 122 79 121 C 77 120 77 120 71 121 C 62 125 58 124 55 119 C 53 115 52 112 52 96 C 52 88 52 76 52 69 C 52 62 52 56 52 55 C 52 51 57 51 66 52 C 76 54 82 50 81 43 C 80 37 76 35 64 37 C 53 39 51 37 53 26 C 55 16 54 13 52 10 C 51 9 46 9 44 10 z" fill="black"/><!-- width=93 height=156 -->
<path id="gl5" d="M 43 12 C 31 14 30 15 28 17 C 24 21 26 24 33 27 C 40 30 40 24 40 91 C 40 130 40 150 39 152 C 39 156 37 157 33 160 C 26 163 25 169 31 172 C 34 172 70 172 73 171 C 79 169 78 163 70 159 C 64 156 63 154 64 120 C 64 112 64 105 64 97 C 64 96 65 95 66 94 C 72 85 88 84 96 91 C 101 96 102 101 102 129 C 102 156 102 156 94 160 C 90 162 89 163 89 166 C 88 172 91 172 114 172 C 136 172 138 172 138 166 C 138 163 137 162 133 159 C 131 158 129 156 128 156 C 127 155 127 154 126 154 C 126 144 126 135 126 125 C 126 109 125 95 125 93 C 119 69 97 60 72 72 C 69 73 66 73 64 72 C 64 71 64 64 63 43 C 63 5 64 6 43 12 z" fill="black"/><!-- width=152 height=210 -->
<path id="gl2067" d="M 24 13 C 10 19 10 41 25 45 C 39 49 50 35 44 21 C 41 15 31 11 24 13 M 26 85 C 13 88 10 106 19 115 C 28 122 42 118 45 108 C 49 94 39 82 26 85 z" fill="black"/><!-- width=60 height=132 -->
<path id="gl3086" d="M 34 11 C 24 12 22 19 33 24 C 37 25 40 28 42 31 C 43 36 43 137 42 141 C 40 145 37 148 32 149 C 25 151 23 153 24 157 C 25 160 26 161 30 162 C 33 162 124 162 127 161 C 131 159 133 156 136 142 C 139 127 139 124 135 123 C 133 122 132 121 132 121 C 130 121 127 126 124 132 C 118 145 114 147 95 147 C 69 148 67 147 67 113 C 67 91 67 91 78 91 C 85 90 96 91 99 93 C 102 94 102 95 105 100 C 108 108 113 109 116 103 C 117 100 118 69 116 64 C 114 57 108 58 104 67 C 101 73 100 74 91 75 C 84 76 74 75 71 74 C 67 73 67 72 67 50 C 67 24 66 25 87 25 C 106 25 111 28 115 41 C 117 47 121 49 124 48 C 127 45 128 43 127 32 C 126 16 125 14 121 12 C 118 11 45 10 34 11 z" fill="black"/><!-- width=152 height=177 -->
<path id="gl1029" d="M 51 11 C 28 16 15 33 16 55 C 16 74 26 84 53 97 C 66 103 73 108 76 112 C 85 125 81 145 67 151 C 51 158 34 150 26 130 C 22 120 20 118 16 118 C 11 118 8 123 9 129 C 10 135 15 153 15 155 C 19 166 54 172 73 165 C 93 157 105 139 103 118 C 103 99 93 87 68 76 C 49 67 43 63 39 56 C 33 44 40 29 52 26 C 66 22 79 30 82 45 C 84 51 89 55 93 54 C 97 51 99 46 97 40 C 97 39 96 34 96 30 C 93 16 92 15 80 12 C 73 10 56 10 51 11 z" fill="black"/><!-- width=117 height=181 -->
<path id="gl4885" d="M 31 12 C 27 13 25 15 25 18 C 25 21 26 21 32 24 C 42 29 42 27 42 88 C 42 104 42 120 42 136 C 41 138 40 139 40 141 C 39 146 36 148 31 150 C 22 153 20 158 27 161 C 30 163 123 163 126 161 C 130 159 131 157 134 145 C 138 130 137 124 132 123 C 129 123 127 124 123 132 C 116 146 112 148 90 148 C 67 148 66 147 66 114 C 66 92 66 92 78 91 C 85 91 94 92 97 94 C 100 95 100 96 103 99 C 106 106 108 108 112 106 C 116 105 116 103 116 84 C 115 65 115 63 112 61 C 108 60 106 61 103 69 C 99 75 97 76 84 76 C 66 76 66 77 66 51 C 66 25 65 26 85 26 C 105 26 108 28 114 40 C 116 46 118 48 121 48 C 126 48 127 45 126 31 C 125 18 124 15 120 13 C 118 12 36 11 31 12 z" fill="black"/><!-- width=150 height=177 -->
<path id="gl3091" d="M 18 20 C 12 23 13 29 21 31 C 30 34 33 38 34 47 C 35 52 34 139 34 144 C 33 151 31 153 25 157 C 17 160 15 163 18 166 C 19 169 23 170 45 169 C 69 169 69 169 70 165 C 71 162 69 159 63 157 C 51 154 51 152 49 118 C 49 87 49 69 52 67 C 54 65 59 71 83 100 C 87 105 92 111 94 114 C 96 116 102 124 108 130 C 129 156 138 167 140 168 C 145 171 150 169 151 164 C 151 162 152 145 152 110 C 152 37 152 36 162 32 C 172 28 172 22 163 19 C 157 18 121 19 119 21 C 113 24 115 29 124 31 C 136 35 136 37 136 84 C 136 125 136 125 122 108 C 118 104 114 99 112 97 C 110 94 106 88 102 84 C 51 23 50 22 45 20 C 40 19 21 19 18 20 z" fill="black"/><!-- width=183 height=184 -->
<path id="gl771" d="M 57 13 C 37 16 19 33 15 53 C 13 62 13 77 15 84 C 22 107 43 123 67 121 C 89 120 108 103 113 81 C 114 74 114 59 113 52 C 108 27 82 9 57 13 M 71 29 C 84 35 90 49 90 70 C 90 94 81 108 66 108 C 51 108 40 93 37 69 C 34 40 52 19 71 29 z" fill="black"/><!-- width=128 height=134 -->
<path id="gl0" d="M 44 10 C 42 12 37 17 34 22 C 31 25 31 25 31 30 C 30 35 29 37 25 37 C 19 38 15 41 14 45 C 13 50 16 52 24 52 C 27 52 29 52 30 53 C 31 54 31 52 31 90 C 30 115 30 119 31 123 C 36 139 48 147 64 141 C 79 135 82 133 83 129 C 84 125 82 122 79 121 C 77 120 77 120 71 121 C 62 125 58 124 55 119 C 53 115 52 112 52 96 C 52 88 52 76 52 69 C 52 62 52 56 52 55 C 52 51 57 51 66 52 C 76 54 82 50 81 43 C 80 37 76 35 64 37 C 53 39 51 37 53 26 C 55 16 54 13 52 10 C 51 9 46 9 44 10 z" fill="black"/><!-- width=93 height=156 -->
<path id="gl518" d="M 57 15 C 39 21 24 41 20 65 C 17 87 29 110 48 118 C 64 126 80 123 96 109 C 105 103 106 99 103 94 C 100 90 97 90 90 95 C 80 102 73 104 64 101 C 54 97 47 90 43 78 C 38 64 40 61 56 62 C 67 63 91 61 97 60 C 111 58 105 31 87 19 C 80 15 67 13 57 15 M 71 30 C 78 33 83 42 79 46 C 78 49 76 49 61 50 C 46 50 46 50 45 49 C 42 45 48 36 56 31 C 61 28 66 28 71 30 z" fill="black"/><!-- width=118 height=136 -->
<path id="gl0" d="M 44 10 C 42 12 37 17 34 22 C 31 25 31 25 31 30 C 30 35 29 37 25 37 C 19 38 15 41 14 45 C 13 50 16 52 24 52 C 27 52 29 52 30 53 C 31 54 31 52 31 90 C 30 115 30 119 31 123 C 36 139 48 147 64 141 C 79 135 82 133 83 129 C 84 125 82 122 79 121 C 77 120 77 120 71 121 C 62 125 58 124 55 119 C 53 115 52 112 52 96 C 52 88 52 76 52 69 C 52 62 52 56 52 55 C 52 51 57 51 66 52 C 76 54 82 50 81 43 C 80 37 76 35 64 37 C 53 39 51 37 53 26 C 55 16 54 13 52 10 C 51 9 46 9 44 10 z" fill="black"/><!-- width=93 height=156 -->
<path id="gl5" d="M 43 12 C 31 14 30 15 28 17 C 24 21 26 24 33 27 C 40 30 40 24 40 91 C 40 130 40 150 39 152 C 39 156 37 157 33 160 C 26 163 25 169 31 172 C 34 172 70 172 73 171 C 79 169 78 163 70 159 C 64 156 63 154 64 120 C 64 112 64 105 64 97 C 64 96 65 95 66 94 C 72 85 88 84 96 91 C 101 96 102 101 102 129 C 102 156 102 156 94 160 C 90 162 89 163 89 166 C 88 172 91 172 114 172 C 136 172 138 172 138 166 C 138 163 137 162 133 159 C 131 158 129 156 128 156 C 127 155 127 154 126 154 C 126 144 126 135 126 125 C 126 109 125 95 125 93 C 119 69 97 60 72 72 C 69 73 66 73 64 72 C 64 71 64 64 63 43 C 63 5 64 6 43 12 z" fill="black"/><!-- width=152 height=210 -->
<path id="gl256" d="M 51 10 C 37 15 19 25 17 31 C 15 37 17 43 22 46 C 30 49 35 46 39 36 C 43 24 55 20 64 28 C 69 33 70 46 66 49 C 66 50 61 52 57 54 C 42 58 27 65 23 69 C 8 82 15 109 36 115 C 45 118 51 116 61 107 C 64 105 64 105 67 105 C 68 105 69 105 70 105 C 71 106 72 108 73 109 C 78 116 82 117 91 113 C 93 112 97 111 100 109 C 105 108 107 106 107 102 C 108 96 105 94 98 95 C 88 96 88 97 89 58 C 89 26 89 26 85 21 C 79 10 65 6 51 10 M 67 63 C 68 64 69 64 69 64 C 69 69 69 72 69 76 C 69 91 69 92 60 96 C 52 99 47 99 42 94 C 39 92 38 90 39 85 C 39 78 41 74 49 69 C 64 61 65 61 67 63 z" fill="black"/><!-- width=118 height=135 -->
<path id="gl0" d="M 44 10 C 42 12 37 17 34 22 C 31 25 31 25 31 30 C 30 35 29 37 25 37 C 19 38 15 41 14 45 C 13 50 16 52 24 52 C 27 52 29 52 30 53 C 31 54 31 52 31 90 C 30 115 30 119 31 123 C 36 139 48 147 64 141 C 79 135 82 133 83 129 C 84 125 82 122 79 121 C 77 120 77 120 71 121 C 62 125 58 124 55 119 C 53 115 52 112 52 96 C 52 88 52 76 52 69 C 52 62 52 56 52 55 C 52 51 57 51 66 52 C 76 54 82 50 81 43 C 80 37 76 35 64 37 C 53 39 51 37 53 26 C 55 16 54 13 52 10 C 51 9 46 9 44 10 z" fill="black"/><!-- width=93 height=156 -->
<path id="gl0" d="M 44 10 C 42 12 37 17 34 22 C 31 25 31 25 31 30 C 30 35 29 37 25 37 C 19 38 15 41 14 45 C 13 50 16 52 24 52 C 27 52 29 52 30 53 C 31 54 31 52 31 90 C 30 115 30 119 31 123 C 36 139 48 147 64 141 C 79 135 82 133 83 129 C 84 125 82 122 79 121 C 77 120 77 120 71 121 C 62 125 58 124 55 119 C 53 115 52 112 52 96 C 52 88 52 76 52 69 C 52 62 52 56 52 55 C 52 51 57 51 66 52 C 76 54 82 50 81 43 C 80 37 76 35 64 37 C 53 39 51 37 53 26 C 55 16 54 13 52 10 C 51 9 46 9 44 10 z" fill="black"/><!-- width=93 height=156 -->
<path id="gl5" d="M 43 12 C 31 14 30 15 28 17 C 24 21 26 24 33 27 C 40 30 40 24 40 91 C 40 130 40 150 39 152 C 39 156 37 157 33 160 C 26 163 25 169 31 172 C 34 172 70 172 73 171 C 79 169 78 163 70 159 C 64 156 63 154 64 120 C 64 112 64 105 64 97 C 64 96 65 95 66 94 C 72 85 88 84 96 91 C 101 96 102 101 102 129 C 102 156 102 156 94 160 C 90 162 89 163 89 166 C 88 172 91 172 114 172 C 136 172 138 172 138 166 C 138 163 137 162 133 159 C 131 158 129 156 128 156 C 127 155 127 154 126 154 C 126 144 126 135 126 125 C 126 109 125 95 125 93 C 119 69 97 60 72 72 C 69 73 66 73 64 72 C 64 71 64 64 63 43 C 63 5 64 6 43 12 z" fill="black"/><!-- width=152 height=210 -->
<path id="gl518" d="M 57 15 C 39 21 24 41 20 65 C 17 87 29 110 48 118 C 64 126 80 123 96 109 C 105 103 106 99 103 94 C 100 90 97 90 90 95 C 80 102 73 104 64 101 C 54 97 47 90 43 78 C 38 64 40 61 56 62 C 67 63 91 61 97 60 C 111 58 105 31 87 19 C 80 15 67 13 57 15 M 71 30 C 78 33 83 42 79 46 C 78 49 76 49 61 50 C 46 50 46 50 45 49 C 42 45 48 36 56 31 C 61 28 66 28 71 30 z" fill="black"/><!-- width=118 height=136 -->
<path id="gl5" d="M 43 12 C 31 14 30 15 28 17 C 24 21 26 24 33 27 C 40 30 40 24 40 91 C 40 130 40 150 39 152 C 39 156 37 157 33 160 C 26 163 25 169 31 172 C 34 172 70 172 73 171 C 79 169 78 163 70 159 C 64 156 63 154 64 120 C 64 112 64 105 64 97 C 64 96 65 95 66 94 C 72 85 88 84 96 91 C 101 96 102 101 102 129 C 102 156 102 156 94 160 C 90 162 89 163 89 166 C 88 172 91 172 114 172 C 136 172 138 172 138 166 C 138 163 137 162 133 159 C 131 158 129 156 128 156 C 127 155 127 154 126 154 C 126 144 126 135 126 125 C 126 109 125 95 125 93 C 119 69 97 60 72 72 C 69 73 66 73 64 72 C 64 71 64 64 63 43 C 63 5 64 6 43 12 z" fill="black"/><!-- width=152 height=210 -->
<path id="gl4" d="M 54 12 C 36 15 19 31 14 51 C 7 76 15 98 34 112 C 47 121 65 124 80 118 C 93 113 103 103 109 88 C 112 81 112 78 112 66 C 113 54 112 51 109 43 C 100 23 82 12 61 12 C 58 12 55 12 54 12 M 69 28 C 76 32 84 42 87 53 C 88 58 88 80 87 85 C 82 109 58 114 44 94 C 36 82 34 60 38 46 C 41 39 42 37 45 34 C 52 27 61 24 69 28 z" fill="black"/><!-- width=125 height=134 -->
<path id="gl257" d="M 31 9 C 28 10 24 10 21 10 C 14 10 10 12 10 16 C 9 21 12 24 18 25 C 22 26 23 27 24 30 C 25 31 25 44 25 60 C 24 93 25 96 31 105 C 40 117 62 118 75 108 C 78 106 82 103 84 103 C 85 103 87 105 87 108 C 89 114 91 115 101 112 C 103 112 109 111 113 110 C 123 109 126 106 126 102 C 127 98 124 96 117 95 C 110 94 109 93 108 88 C 108 79 109 19 110 19 C 111 18 109 12 108 10 C 106 9 103 8 97 9 C 94 9 88 10 82 10 C 73 10 71 11 69 14 C 66 19 70 24 78 25 C 87 26 87 25 87 60 C 87 67 87 76 87 84 C 87 85 86 86 85 87 C 84 89 83 90 79 92 C 63 100 51 97 48 85 C 46 81 46 38 48 24 C 48 9 46 7 31 9 z" fill="black"/><!-- width=136 height=128 -->
<path id="gl6" d="M 46 10 C 20 13 7 43 24 60 C 30 65 31 66 44 72 C 58 79 61 82 61 91 C 61 102 51 108 40 103 C 35 101 32 97 28 91 C 24 81 24 81 21 79 C 19 78 18 78 17 78 C 11 81 11 85 15 104 C 16 110 21 114 33 117 C 62 124 89 101 81 76 C 77 66 71 60 55 54 C 43 48 39 45 37 40 C 33 32 40 22 50 24 C 55 24 60 28 64 34 C 66 40 70 43 73 43 C 79 42 81 37 77 25 C 73 14 72 12 61 10 C 55 9 52 9 46 10 z" fill="black"/><!-- width=96 height=132 -->
<path id="gl1" d="M 60 16 C 32 23 14 55 20 86 C 25 114 57 132 81 120 C 94 114 104 105 103 99 C 102 91 96 90 87 97 C 76 106 61 105 49 94 C 44 88 39 76 40 69 C 40 64 42 63 55 64 C 63 65 67 64 76 64 C 82 63 88 63 90 63 C 104 63 108 52 100 37 C 92 21 75 12 60 16 M 71 32 C 78 36 82 45 78 49 C 76 51 72 52 65 51 C 63 51 57 51 53 52 C 51 52 49 52 46 52 C 46 52 45 51 45 51 C 41 47 45 39 53 34 C 58 30 66 29 71 32 z" fill="black"/><!-- width=116 height=138 -->
<path id="gl6" d="M 46 10 C 20 13 7 43 24 60 C 30 65 31 66 44 72 C 58 79 61 82 61 91 C 61 102 51 108 40 103 C 35 101 32 97 28 91 C 24 81 24 81 21 79 C 19 78 18 78 17 78 C 11 81 11 85 15 104 C 16 110 21 114 33 117 C 62 124 89 101 81 76 C 77 66 71 60 55 54 C 43 48 39 45 37 40 C 33 32 40 22 50 24 C 55 24 60 28 64 34 C 66 40 70 43 73 43 C 79 42 81 37 77 25 C 73 14 72 12 61 10 C 55 9 52 9 46 10 z" fill="black"/><!-- width=96 height=132 -->
<path id="gl770" d="M 84 13 C 63 19 47 39 44 61 C 43 70 42 72 36 75 C 27 79 27 87 37 88 C 43 90 43 90 43 125 C 43 162 43 161 36 164 C 29 167 28 174 36 176 C 38 177 78 177 79 175 C 86 173 85 166 78 165 C 76 164 75 163 73 163 C 70 162 67 159 67 156 C 66 152 66 94 67 92 C 68 89 70 88 79 88 C 89 88 93 86 93 81 C 93 76 89 74 79 73 C 66 73 66 72 67 55 C 69 31 76 25 93 35 C 99 39 102 39 106 36 C 118 25 101 9 84 13 z" fill="black"/><!-- width=124 height=190 -->
<path id="gl4" d="M 54 12 C 36 15 19 31 14 51 C 7 76 15 98 34 112 C 47 121 65 124 80 118 C 93 113 103 103 109 88 C 112 81 112 78 112 66 C 113 54 112 51 109 43 C 100 23 82 12 61 12 C 58 12 55 12 54 12 M 69 28 C 76 32 84 42 87 53 C 88 58 88 80 87 85 C 82 109 58 114 44 94 C 36 82 34 60 38 46 C 41 39 42 37 45 34 C 52 27 61 24 69 28 z" fill="black"/><!-- width=125 height=134 -->
<path id="gl258" d="M 39 9 C 36 10 30 11 27 12 C 20 12 16 13 15 16 C 13 21 16 26 21 27 C 27 27 28 28 30 30 C 31 33 31 148 30 152 C 30 156 27 157 22 158 C 15 159 11 167 16 171 C 19 173 20 173 33 172 C 42 171 45 171 53 172 C 63 173 66 173 69 170 C 74 165 69 158 60 158 C 57 158 54 156 54 153 C 53 151 53 130 53 81 C 54 6 54 10 51 8 C 48 7 47 7 39 9 z" fill="black"/><!-- width=83 height=189 -->
<path id="gl258" d="M 39 9 C 36 10 30 11 27 12 C 20 12 16 13 15 16 C 13 21 16 26 21 27 C 27 27 28 28 30 30 C 31 33 31 148 30 152 C 30 156 27 157 22 158 C 15 159 11 167 16 171 C 19 173 20 173 33 172 C 42 171 45 171 53 172 C 63 173 66 173 69 170 C 74 165 69 158 60 158 C 57 158 54 156 54 153 C 53 151 53 130 53 81 C 54 6 54 10 51 8 C 48 7 47 7 39 9 z" fill="black"/><!-- width=83 height=189 -->
<path id="gl4" d="M 54 12 C 36 15 19 31 14 51 C 7 76 15 98 34 112 C 47 121 65 124 80 118 C 93 113 103 103 109 88 C 112 81 112 78 112 66 C 113 54 112 51 109 43 C 100 23 82 12 61 12 C 58 12 55 12 54 12 M 69 28 C 76 32 84 42 87 53 C 88 58 88 80 87 85 C 82 109 58 114 44 94 C 36 82 34 60 38 46 C 41 39 42 37 45 34 C 52 27 61 24 69 28 z" fill="black"/><!-- width=125 height=134 -->
<path id="gl1024" d="M 28 28 C 19 28 18 29 18 34 C 18 37 19 38 23 40 C 28 43 31 49 43 88 C 50 108 55 124 57 127 C 57 128 59 129 60 130 C 63 131 63 131 66 130 C 69 128 70 127 79 102 C 81 99 82 93 84 91 C 85 88 86 85 86 84 C 87 81 91 74 92 74 C 93 74 97 79 99 84 C 99 86 101 91 103 94 C 105 98 106 103 108 106 C 115 125 117 127 119 129 C 124 133 129 129 133 115 C 135 111 137 105 138 100 C 140 96 142 89 143 86 C 144 84 146 78 148 73 C 149 70 151 64 153 60 C 157 47 160 43 166 40 C 171 36 172 31 167 29 C 164 27 136 27 132 29 C 127 31 128 37 135 40 C 141 42 141 45 139 52 C 138 54 138 58 136 61 C 135 66 132 78 130 81 C 130 82 129 84 127 85 C 127 86 126 87 126 87 C 124 85 124 84 123 82 C 121 79 120 75 118 72 C 117 69 115 63 114 60 C 112 57 111 51 109 49 C 103 34 102 31 99 31 C 96 30 94 31 92 34 C 90 36 89 39 84 53 C 81 60 78 69 75 77 C 73 82 69 88 68 87 C 66 85 60 69 57 56 C 55 52 54 49 54 48 C 52 46 54 42 59 40 C 63 37 63 36 63 34 C 63 31 61 29 58 28 C 56 28 37 28 28 28 z" fill="black"/><!-- width=184 height=146 -->
<path id="gl0" d="M 44 10 C 42 12 37 17 34 22 C 31 25 31 25 31 30 C 30 35 29 37 25 37 C 19 38 15 41 14 45 C 13 50 16 52 24 52 C 27 52 29 52 30 53 C 31 54 31 52 31 90 C 30 115 30 119 31 123 C 36 139 48 147 64 141 C 79 135 82 133 83 129 C 84 125 82 122 79 121 C 77 120 77 120 71 121 C 62 125 58 124 55 119 C 53 115 52 112 52 96 C 52 88 52 76 52 69 C 52 62 52 56 52 55 C 52 51 57 51 66 52 C 76 54 82 50 81 43 C 80 37 76 35 64 37 C 53 39 51 37 53 26 C 55 16 54 13 52 10 C 51 9 46 9 44 10 z" fill="black"/><!-- width=93 height=156 -->
<path id="gl5" d="M 43 12 C 31 14 30 15 28 17 C 24 21 26 24 33 27 C 40 30 40 24 40 91 C 40 130 40 150 39 152 C 39 156 37 157 33 160 C 26 163 25 169 31 172 C 34 172 70 172 73 171 C 79 169 78 163 70 159 C 64 156 63 154 64 120 C 64 112 64 105 64 97 C 64 96 65 95 66 94 C 72 85 88 84 96 91 C 101 96 102 101 102 129 C 102 156 102 156 94 160 C 90 162 89 163 89 166 C 88 172 91 172 114 172 C 136 172 138 172 138 166 C 138 163 137 162 133 159 C 131 158 129 156 128 156 C 127 155 127 154 126 154 C 126 144 126 135 126 125 C 126 109 125 95 125 93 C 119 69 97 60 72 72 C 69 73 66 73 64 72 C 64 71 64 64 63 43 C 63 5 64 6 43 12 z" fill="black"/><!-- width=152 height=210 -->
<path id="gl1" d="M 60 16 C 32 23 14 55 20 86 C 25 114 57 132 81 120 C 94 114 104 105 103 99 C 102 91 96 90 87 97 C 76 106 61 105 49 94 C 44 88 39 76 40 69 C 40 64 42 63 55 64 C 63 65 67 64 76 64 C 82 63 88 63 90 63 C 104 63 108 52 100 37 C 92 21 75 12 60 16 M 71 32 C 78 36 82 45 78 49 C 76 51 72 52 65 51 C 63 51 57 51 53 52 C 51 52 49 52 46 52 C 46 52 45 51 45 51 C 41 47 45 39 53 34 C 58 30 66 29 71 32 z" fill="black"/><!-- width=116 height=138 -->
<path id="gl772" d="M 50 36 C 49 36 45 37 40 39 C 27 43 25 44 25 48 C 25 51 27 53 31 55 C 35 57 37 59 37 62 C 38 63 38 88 39 118 C 39 136 39 154 39 172 C 38 174 37 174 37 175 C 36 177 34 178 31 180 C 25 183 24 186 27 190 C 27 191 28 192 28 192 C 36 192 43 192 49 192 C 61 192 72 192 73 192 C 76 192 79 189 79 187 C 79 183 78 182 72 180 C 69 179 66 178 66 178 C 63 175 61 168 62 155 C 63 145 63 144 72 144 C 96 142 121 124 129 102 C 139 74 127 46 103 38 C 94 35 88 36 75 41 C 66 45 64 45 61 40 C 59 37 58 36 54 36 C 52 36 51 36 50 36 M 85 57 C 99 59 108 72 107 92 C 107 114 94 128 76 126 C 69 125 64 122 63 117 C 62 114 62 69 63 66 C 65 59 75 54 85 57 z" fill="black"/><!-- width=146 height=207 -->
<path id="gl4" d="M 54 12 C 36 15 19 31 14 51 C 7 76 15 98 34 112 C 47 121 65 124 80 118 C 93 113 103 103 109 88 C 112 81 112 78 112 66 C 113 54 112 51 109 43 C 100 23 82 12 61 12 C 58 12 55 12 54 12 M 69 28 C 76 32 84 42 87 53 C 88 58 88 80 87 85 C 82 109 58 114 44 94 C 36 82 34 60 38 46 C 41 39 42 37 45 34 C 52 27 61 24 69 28 z" fill="black"/><!-- width=125 height=134 -->
<path id="gl3" d="M 38 8 C 34 9 30 12 28 15 C 25 19 25 27 27 31 C 37 49 61 37 55 18 C 53 12 46 7 38 8 M 45 61 C 39 63 28 66 25 66 C 18 67 15 69 14 74 C 13 78 15 80 24 82 C 30 84 30 82 30 116 C 30 150 30 150 25 153 C 24 153 22 153 21 154 C 19 154 15 156 13 157 C 12 160 12 162 15 165 C 16 166 17 167 18 168 C 20 168 22 168 24 168 C 31 167 50 167 57 168 C 63 168 65 168 68 165 C 73 160 67 153 58 153 C 57 153 54 151 53 148 C 52 146 52 91 53 75 C 54 69 53 67 53 66 C 52 63 48 60 45 61 z" fill="black"/><!-- width=81 height=202 -->
<path id="gl2" d="M 79 10 C 75 12 69 14 63 18 C 55 23 54 23 52 19 C 50 12 48 11 37 13 C 33 15 27 16 25 16 C 18 17 15 20 15 24 C 15 28 19 31 24 31 C 26 31 30 35 30 37 C 30 52 30 96 30 97 C 28 100 27 102 21 103 C 18 103 16 104 16 104 C 15 104 13 108 13 111 C 13 115 18 118 23 117 C 33 116 42 116 50 117 C 60 117 62 117 64 115 C 69 111 66 106 58 103 C 54 101 53 100 52 98 C 52 95 52 40 52 39 C 54 36 57 34 62 33 C 72 28 80 28 85 33 C 91 37 92 39 92 68 C 92 100 92 100 84 103 C 78 105 75 108 76 111 C 76 114 76 114 79 116 C 82 117 83 117 94 117 C 103 116 109 117 114 117 C 117 117 119 117 121 118 C 123 117 124 117 125 116 C 126 115 127 115 128 114 C 128 113 128 112 128 111 C 129 106 127 105 121 103 C 114 100 114 103 114 67 C 114 56 114 46 114 36 C 114 34 113 33 113 32 C 109 20 102 14 92 12 C 87 10 83 10 79 10 z" fill="black"/><!-- width=141 height=130 -->
<path id="gl0" d="M 44 10 C 42 12 37 17 34 22 C 31 25 31 25 31 30 C 30 35 29 37 25 37 C 19 38 15 41 14 45 C 13 50 16 52 24 52 C 27 52 29 52 30 53 C 31 54 31 52 31 90 C 30 115 30 119 31 123 C 36 139 48 147 64 141 C 79 135 82 133 83 129 C 84 125 82 122 79 121 C 77 120 77 120 71 121 C 62 125 58 124 55 119 C 53 115 52 112 52 96 C 52 88 52 76 52 69 C 52 62 52 56 52 55 C 52 51 57 51 66 52 C 76 54 82 50 81 43 C 80 37 76 35 64 37 C 53 39 51 37 53 26 C 55 16 54 13 52 10 C 51 9 46 9 44 10 z" fill="black"/><!-- width=93 height=156 -->
<path id="gl516" d="M 45 10 C 29 15 20 24 17 37 C 14 52 21 62 43 72 C 55 78 58 81 60 86 C 64 96 58 105 47 105 C 39 105 33 100 28 91 C 27 88 26 84 25 84 C 21 75 12 78 12 87 C 12 91 14 103 15 106 C 17 112 25 117 38 118 C 67 124 92 96 79 72 C 76 66 70 61 58 55 C 45 49 43 48 40 44 C 30 34 39 21 53 25 C 57 26 61 30 64 35 C 69 45 76 46 79 39 C 81 33 75 16 70 13 C 65 10 51 9 45 10 z" fill="black"/><!-- width=97 height=133 -->
<path id="gl4" d="M 54 12 C 36 15 19 31 14 51 C 7 76 15 98 34 112 C 47 121 65 124 80 118 C 93 113 103 103 109 88 C 112 81 112 78 112 66 C 113 54 112 51 109 43 C 100 23 82 12 61 12 C 58 12 55 12 54 12 M 69 28 C 76 32 84 42 87 53 C 88 58 88 80 87 85 C 82 109 58 114 44 94 C 36 82 34 60 38 46 C 41 39 42 37 45 34 C 52 27 61 24 69 28 z" fill="black"/><!-- width=125 height=134 -->
<path id="gl770" d="M 84 13 C 63 19 47 39 44 61 C 43 70 42 72 36 75 C 27 79 27 87 37 88 C 43 90 43 90 43 125 C 43 162 43 161 36 164 C 29 167 28 174 36 176 C 38 177 78 177 79 175 C 86 173 85 166 78 165 C 76 164 75 163 73 163 C 70 162 67 159 67 156 C 66 152 66 94 67 92 C 68 89 70 88 79 88 C 89 88 93 86 93 81 C 93 76 89 74 79 73 C 66 73 66 72 67 55 C 69 31 76 25 93 35 C 99 39 102 39 106 36 C 118 25 101 9 84 13 z" fill="black"/><!-- width=124 height=190 -->
<path id="gl256" d="M 51 10 C 37 15 19 25 17 31 C 15 37 17 43 22 46 C 30 49 35 46 39 36 C 43 24 55 20 64 28 C 69 33 70 46 66 49 C 66 50 61 52 57 54 C 42 58 27 65 23 69 C 8 82 15 109 36 115 C 45 118 51 116 61 107 C 64 105 64 105 67 105 C 68 105 69 105 70 105 C 71 106 72 108 73 109 C 78 116 82 117 91 113 C 93 112 97 111 100 109 C 105 108 107 106 107 102 C 108 96 105 94 98 95 C 88 96 88 97 89 58 C 89 26 89 26 85 21 C 79 10 65 6 51 10 M 67 63 C 68 64 69 64 69 64 C 69 69 69 72 69 76 C 69 91 69 92 60 96 C 52 99 47 99 42 94 C 39 92 38 90 39 85 C 39 78 41 74 49 69 C 64 61 65 61 67 63 z" fill="black"/><!-- width=118 height=135 -->
<path id="gl260" d="M 72 10 C 34 17 13 61 33 93 C 46 116 74 123 94 110 C 110 99 117 90 111 85 C 107 81 102 82 96 88 C 79 104 54 93 49 68 C 45 46 55 27 72 26 C 79 25 83 27 91 33 C 97 38 103 37 107 31 C 110 27 111 21 108 17 C 103 10 87 7 72 10 z" fill="black"/><!-- width=124 height=133 -->
<path id="gl4" d="M 54 12 C 36 15 19 31 14 51 C 7 76 15 98 34 112 C 47 121 65 124 80 118 C 93 113 103 103 109 88 C 112 81 112 78 112 66 C 113 54 112 51 109 43 C 100 23 82 12 61 12 C 58 12 55 12 54 12 M 69 28 C 76 32 84 42 87 53 C 88 58 88 80 87 85 C 82 109 58 114 44 94 C 36 82 34 60 38 46 C 41 39 42 37 45 34 C 52 27 61 24 69 28 z" fill="black"/><!-- width=125 height=134 -->
<path id="gl2065" d="M 78 12 C 75 13 72 14 66 17 C 56 22 55 22 53 18 C 50 12 46 12 33 16 C 30 16 26 18 24 18 C 20 19 18 21 18 24 C 16 27 18 28 24 32 C 30 36 30 37 30 69 C 30 99 30 101 22 104 C 15 107 14 111 18 114 C 19 115 20 115 21 117 C 27 117 34 117 40 117 C 58 117 59 116 62 115 C 64 114 64 114 64 111 C 65 108 64 106 60 105 C 53 100 53 100 53 71 C 53 43 53 41 57 37 C 63 32 75 30 82 33 C 90 37 91 42 91 73 C 92 98 91 102 85 104 C 81 105 79 107 78 110 C 78 113 78 114 82 115 C 86 117 120 117 124 115 C 126 114 126 114 126 111 C 126 108 126 107 119 103 C 115 100 115 101 115 69 C 115 59 115 49 115 40 C 117 39 117 39 118 37 C 125 31 136 29 144 33 C 153 37 153 40 153 73 C 153 102 153 101 147 104 C 142 106 141 108 140 111 C 140 116 143 117 165 116 C 171 116 177 116 183 116 C 184 115 185 115 186 114 C 190 111 189 108 183 104 C 177 100 177 102 177 69 C 177 51 176 39 176 37 C 172 22 164 13 150 12 C 141 11 132 13 120 21 C 113 25 111 25 105 20 C 97 13 89 10 78 12 z" fill="black"/><!-- width=202 height=128 -->
<path id="gl772" d="M 50 36 C 49 36 45 37 40 39 C 27 43 25 44 25 48 C 25 51 27 53 31 55 C 35 57 37 59 37 62 C 38 63 38 88 39 118 C 39 136 39 154 39 172 C 38 174 37 174 37 175 C 36 177 34 178 31 180 C 25 183 24 186 27 190 C 27 191 28 192 28 192 C 36 192 43 192 49 192 C 61 192 72 192 73 192 C 76 192 79 189 79 187 C 79 183 78 182 72 180 C 69 179 66 178 66 178 C 63 175 61 168 62 155 C 63 145 63 144 72 144 C 96 142 121 124 129 102 C 139 74 127 46 103 38 C 94 35 88 36 75 41 C 66 45 64 45 61 40 C 59 37 58 36 54 36 C 52 36 51 36 50 36 M 85 57 C 99 59 108 72 107 92 C 107 114 94 128 76 126 C 69 125 64 122 63 117 C 62 114 62 69 63 66 C 65 59 75 54 85 57 z" fill="black"/><!-- width=146 height=207 -->
<path id="gl261" d="M 54 8 C 42 10 22 22 19 29 C 15 37 21 46 30 45 C 35 44 37 42 40 34 C 43 25 50 21 59 23 C 66 24 70 31 70 40 C 70 46 69 48 57 51 C 46 55 30 62 25 66 C 10 78 15 103 35 112 C 44 115 50 114 61 106 C 65 104 67 103 69 103 C 69 103 70 102 71 102 C 72 104 73 105 74 106 C 80 114 83 115 93 111 C 96 109 100 108 102 106 C 109 104 110 103 110 100 C 111 94 107 92 100 93 C 90 94 90 93 91 43 C 91 30 91 28 88 21 C 85 10 70 4 54 8 M 69 61 C 71 62 72 63 71 75 C 70 88 70 88 65 91 C 53 99 41 96 40 85 C 39 76 42 72 57 64 C 65 60 66 60 69 61 z" fill="black"/><!-- width=121 height=130 -->
<path id="gl6" d="M 46 10 C 20 13 7 43 24 60 C 30 65 31 66 44 72 C 58 79 61 82 61 91 C 61 102 51 108 40 103 C 35 101 32 97 28 91 C 24 81 24 81 21 79 C 19 78 18 78 17 78 C 11 81 11 85 15 104 C 16 110 21 114 33 117 C 62 124 89 101 81 76 C 77 66 71 60 55 54 C 43 48 39 45 37 40 C 33 32 40 22 50 24 C 55 24 60 28 64 34 C 66 40 70 43 73 43 C 79 42 81 37 77 25 C 73 14 72 12 61 10 C 55 9 52 9 46 10 z" fill="black"/><!-- width=96 height=132 -->
<path id="gl6" d="M 46 10 C 20 13 7 43 24 60 C 30 65 31 66 44 72 C 58 79 61 82 61 91 C 61 102 51 108 40 103 C 35 101 32 97 28 91 C 24 81 24 81 21 79 C 19 78 18 78 17 78 C 11 81 11 85 15 104 C 16 110 21 114 33 117 C 62 124 89 101 81 76 C 77 66 71 60 55 54 C 43 48 39 45 37 40 C 33 32 40 22 50 24 C 55 24 60 28 64 34 C 66 40 70 43 73 43 C 79 42 81 37 77 25 C 73 14 72 12 61 10 C 55 9 52 9 46 10 z" fill="black"/><!-- width=96 height=132 -->
<path id="gl263" d="M 23 13 C 19 15 16 20 15 24 C 12 31 16 40 23 44 C 32 48 41 43 44 34 C 48 21 35 8 23 13 z" fill="black"/><!-- width=59 height=58 -->
<path id="gl34309" d="M 9 441 C 9 1195 14 3360 14 3360 C 19 3364 43 3364 734 3369 C 2030 3374 3004 3379 3014 3374 C 3019 3369 3024 28 3014 24 C 3014 24 2390 19 1636 14 C 1320 14 825 9 537 9 C 360 9 187 4 14 4 C 9 148 9 292 9 441 M 1113 33 C 1420 33 1972 38 2332 38 C 2697 38 2995 43 3000 43 C 3004 48 3004 388 3000 403 C 3000 408 2995 412 2995 412 C 2803 412 2616 412 2424 412 C 921 408 43 403 33 398 C 28 393 28 33 33 28 C 38 28 153 28 292 28 C 436 28 806 33 1113 33 M 811 427 C 1176 427 1473 432 1478 432 C 1478 432 1483 672 1483 960 C 1483 1132 1483 1305 1483 1483 C 1363 1483 1243 1478 1123 1478 C 926 1478 643 1473 494 1473 C 340 1473 177 1473 124 1473 C 96 1473 62 1468 33 1468 C 33 1296 33 1123 33 945 C 33 772 33 600 28 427 C 33 427 38 422 43 422 C 48 422 72 422 100 422 C 124 422 441 427 811 427 M 2452 436 C 2894 436 3000 436 3000 441 C 3004 451 3000 1473 3000 1478 C 2995 1488 1516 1483 1502 1478 C 1502 1473 1497 441 1502 432 C 1507 432 1564 427 1708 432 C 1819 432 2155 436 2452 436 M 1478 1502 C 1478 1507 1483 2332 1483 2601 C 1483 2625 1483 2649 1483 2673 C 1238 2673 998 2668 758 2668 C 364 2668 38 2664 33 2664 C 28 2659 28 1507 33 1497 C 38 1492 1473 1497 1478 1502 M 2995 1507 C 3004 1512 3004 2668 2995 2673 C 2995 2678 2880 2678 2606 2678 C 2390 2678 2059 2673 1862 2673 C 1584 2673 1507 2673 1502 2664 C 1502 2664 1502 1555 1502 1512 C 1507 1502 1507 1502 2246 1502 C 2654 1502 2995 1507 2995 1507 M 1368 2692 C 1809 2692 2356 2697 2582 2697 C 2937 2697 2995 2697 3000 2707 C 3000 2707 3000 2836 3000 3033 C 3000 3139 3000 3249 3000 3355 C 2923 3355 2841 3355 2764 3355 C 1857 3355 52 3345 38 3340 C 28 3340 28 2697 33 2688 C 38 2688 153 2688 297 2688 C 441 2688 921 2692 1368 2692 z" fill="black"/><!-- width=3028 height=3384 -->
</defs>
<use xlink:href="#gl11012" x="146" y="116"/>
<use xlink:href="#gl20760" x="286" y="206"/>
<use xlink:href="#gl11014" x="372" y="143"/>
<use xlink:href="#gl11015" x="505" y="142"/>
<use xlink:href="#gl23052" x="561" y="203"/>
<use xlink:href="#gl11017" x="734" y="158"/>
<use xlink:href="#gl34305" x="850" y="163"/>
<use xlink:href="#gl11018" x="960" y="206"/>
<use xlink:href="#gl16393" x="1064" y="150"/>
<use xlink:href="#gl12804" x="1232" y="153"/>
<use xlink:href="#gl20992" x="1279" y="194"/>
<use xlink:href="#gl12292" x="1373" y="207"/>
<use xlink:href="#gl34306" x="1479" y="216"/>
<use xlink:href="#gl11034" x="1560" y="194"/>
<use xlink:href="#gl12804" x="1630" y="155"/>
<use xlink:href="#gl9747" x="1692" y="206"/>
<use xlink:href="#gl23053" x="1808" y="211"/>
<use xlink:href="#gl34307" x="1992" y="159"/>
<use xlink:href="#gl34308" x="2117" y="226"/>
<use xlink:href="#gl12297" x="2269" y="160"/>
<use xlink:href="#gl9747" x="2450" y="208"/>
<use xlink:href="#gl10262" x="2563" y="214"/>
<use xlink:href="#gl10498" x="2690" y="214"/>
<use xlink:href="#gl12292" x="2766" y="213"/>
<use xlink:href="#gl1284" x="159" y="523"/>
<use xlink:href="#gl6" x="250" y="562"/>
<use xlink:href="#gl0" x="323" y="538"/>
<use xlink:href="#gl2067" x="400" y="564"/>
<use xlink:href="#gl4885" x="491" y="518"/>
<use xlink:href="#gl1537" x="620" y="518"/>
<use xlink:href="#gl1029" x="767" y="518"/>
<use xlink:href="#gl1281" x="865" y="487"/>
<use xlink:href="#gl3088" x="1588" y="485"/>
<use xlink:href="#gl0" x="1687" y="546"/>
<use xlink:href="#gl5" x="1744" y="514"/>
<use xlink:href="#gl2067" x="1881" y="573"/>
<use xlink:href="#gl3335" x="1966" y="507"/>
<use xlink:href="#gl3086" x="2177" y="526"/>
<use xlink:href="#gl1029" x="2314" y="524"/>
<use xlink:href="#gl1281" x="2412" y="494"/>
<use xlink:href="#gl1541" x="149" y="804"/>
<use xlink:href="#gl2" x="248" y="845"/>
<use xlink:href="#gl259" x="374" y="790"/>
<use xlink:href="#gl2067" x="491" y="847"/>
<use xlink:href="#gl3086" x="580" y="802"/>
<use xlink:href="#gl3091" x="710" y="795"/>
<use xlink:href="#gl4885" x="865" y="803"/>
<use xlink:href="#gl3342" x="1588" y="808"/>
<use xlink:href="#gl0" x="1688" y="829"/>
<use xlink:href="#gl5" x="1744" y="797"/>
<use xlink:href="#gl2067" x="1881" y="854"/>
<use xlink:href="#gl2311" x="1967" y="790"/>
<use xlink:href="#gl1029" x="2188" y="806"/>
<use xlink:href="#gl3335" x="2275" y="791"/>
<use xlink:href="#gl3078" x="151" y="1079"/>
<use xlink:href="#gl512" x="241" y="1117"/>
<use xlink:href="#gl259" x="332" y="1072"/>
<use xlink:href="#gl2067" x="449" y="1130"/>
<use xlink:href="#gl4111" x="546" y="1076"/>
<use xlink:href="#gl3091" x="708" y="1078"/>
<use xlink:href="#gl4885" x="865" y="1086"/>
<use xlink:href="#gl3082" x="1592" y="1078"/>
<use xlink:href="#gl0" x="1688" y="1112"/>
<use xlink:href="#gl5" x="1744" y="1080"/>
<use xlink:href="#gl2067" x="1881" y="1138"/>
<use xlink:href="#gl1029" x="1984" y="1089"/>
<use xlink:href="#gl1029" x="2088" y="1089"/>
<use xlink:href="#gl3335" x="2175" y="1073"/>
<use xlink:href="#gl4370" x="146" y="1659"/>
<use xlink:href="#gl0" x="245" y="1671"/>
<use xlink:href="#gl5" x="303" y="1640"/>
<use xlink:href="#gl2067" x="441" y="1697"/>
<use xlink:href="#gl3091" x="537" y="1643"/>
<use xlink:href="#gl3340" x="704" y="1647"/>
<use xlink:href="#gl3850" x="852" y="1652"/>
<use xlink:href="#gl32267" x="992" y="1623"/>
<use xlink:href="#gl2308" x="1129" y="1651"/>
<use xlink:href="#gl1284" x="1603" y="1664"/>
<use xlink:href="#gl3345" x="1692" y="1658"/>
<use xlink:href="#gl0" x="1793" y="1680"/>
<use xlink:href="#gl5" x="1849" y="1648"/>
<use xlink:href="#gl2067" x="1988" y="1704"/>
<use xlink:href="#gl1029" x="2090" y="1656"/>
<use xlink:href="#gl3340" x="2193" y="1653"/>
<use xlink:href="#gl3346" x="2341" y="1647"/>
<use xlink:href="#gl1281" x="2513" y="1626"/>
<use xlink:href="#gl2308" x="2651" y="1657"/>
<use xlink:href="#gl3081" x="152" y="1927"/>
<use xlink:href="#gl0" x="246" y="1955"/>
<use xlink:href="#gl5" x="303" y="1924"/>
<use xlink:href="#gl2067" x="441" y="1980"/>
<use xlink:href="#gl3091" x="537" y="1926"/>
<use xlink:href="#gl3091" x="701" y="1928"/>
<use xlink:href="#gl2311" x="851" y="1918"/>
<use xlink:href="#gl1284" x="1603" y="1947"/>
<use xlink:href="#gl1284" x="1708" y="1948"/>
<use xlink:href="#gl0" x="1794" y="1963"/>
<use xlink:href="#gl5" x="1850" y="1931"/>
<use xlink:href="#gl2067" x="1988" y="1988"/>
<use xlink:href="#gl1029" x="2091" y="1940"/>
<use xlink:href="#gl1029" x="2196" y="1940"/>
<use xlink:href="#gl3086" x="2286" y="1943"/>
<use xlink:href="#gl3341" x="141" y="2220"/>
<use xlink:href="#gl0" x="245" y="2237"/>
<use xlink:href="#gl5" x="303" y="2206"/>
<use xlink:href="#gl2067" x="441" y="2263"/>
<use xlink:href="#gl2311" x="527" y="2199"/>
<use xlink:href="#gl3091" x="745" y="2211"/>
<use xlink:href="#gl2311" x="896" y="2202"/>
<use xlink:href="#gl1284" x="1602" y="2230"/>
<use xlink:href="#gl1541" x="1699" y="2229"/>
<use xlink:href="#gl0" x="1793" y="2246"/>
<use xlink:href="#gl5" x="1850" y="2215"/>
<use xlink:href="#gl2067" x="1988" y="2271"/>
<use xlink:href="#gl3086" x="2076" y="2226"/>
<use xlink:href="#gl1029" x="2213" y="2223"/>
<use xlink:href="#gl4885" x="2304" y="2226"/>
<use xlink:href="#gl3091" x="302" y="2732"/>
<use xlink:href="#gl771" x="463" y="2784"/>
<use xlink:href="#gl0" x="571" y="2763"/>
<use xlink:href="#gl518" x="635" y="2783"/>
<use xlink:href="#gl0" x="779" y="2764"/>
<use xlink:href="#gl5" x="837" y="2733"/>
<use xlink:href="#gl256" x="968" y="2791"/>
<use xlink:href="#gl0" x="1061" y="2765"/>
<use xlink:href="#gl0" x="1180" y="2765"/>
<use xlink:href="#gl5" x="1238" y="2735"/>
<use xlink:href="#gl518" x="1364" y="2787"/>
<use xlink:href="#gl5" x="1498" y="2736"/>
<use xlink:href="#gl4" x="1633" y="2790"/>
<use xlink:href="#gl257" x="1747" y="2796"/>
<use xlink:href="#gl6" x="1863" y="2794"/>
<use xlink:href="#gl1" x="1935" y="2789"/>
<use xlink:href="#gl6" x="2034" y="2794"/>
<use xlink:href="#gl770" x="2148" y="2734"/>
<use xlink:href="#gl4" x="2230" y="2792"/>
<use xlink:href="#gl258" x="2335" y="2740"/>
<use xlink:href="#gl258" x="2391" y="2739"/>
<use xlink:href="#gl4" x="2456" y="2792"/>
<use xlink:href="#gl1024" x="2555" y="2781"/>
<use xlink:href="#gl0" x="447" y="3005"/>
<use xlink:href="#gl5" x="504" y="2973"/>
<use xlink:href="#gl1" x="632" y="3025"/>
<use xlink:href="#gl772" x="766" y="3007"/>
<use xlink:href="#gl4" x="899" y="3029"/>
<use xlink:href="#gl3" x="1008" y="2982"/>
<use xlink:href="#gl2" x="1066" y="3032"/>
<use xlink:href="#gl0" x="1184" y="3009"/>
<use xlink:href="#gl516" x="1257" y="3033"/>
<use xlink:href="#gl4" x="1389" y="3032"/>
<use xlink:href="#gl770" x="1484" y="2974"/>
<use xlink:href="#gl256" x="1613" y="3037"/>
<use xlink:href="#gl260" x="1751" y="3037"/>
<use xlink:href="#gl4" x="1852" y="3034"/>
<use xlink:href="#gl2065" x="1961" y="3036"/>
<use xlink:href="#gl772" x="2131" y="3012"/>
<use xlink:href="#gl261" x="2258" y="3042"/>
<use xlink:href="#gl6" x="2358" y="3038"/>
<use xlink:href="#gl6" x="2436" y="3038"/>
<use xlink:href="#gl263" x="2518" y="3111"/>
<use xlink:href="#gl34309" x="0" y="0"/>
</svg>
