<?xml version='1.0' encoding='utf-8'?>
<svg xmlns="http://www.w3.org/2000/svg" xmlns:xlink="http://www.w3.org/1999/xlink" width="283px" height="99px" viewBox="0 0 2834 995" version="1.1">
<defs>
<path id="gl1537" d="M 79 11 C 76 12 75 15 65 40 C 57 63 35 118 32 127 C 26 142 23 146 16 150 C 10 152 9 154 9 157 C 9 162 10 162 33 162 C 56 162 57 162 57 156 C 57 153 56 152 49 149 C 44 147 43 144 46 134 C 52 116 55 110 58 109 C 61 108 88 108 92 108 C 97 109 99 113 105 133 C 110 145 109 147 103 150 C 97 153 96 156 99 160 C 102 162 104 163 129 162 C 150 162 151 162 153 159 C 155 154 153 151 145 149 C 138 147 135 142 128 123 C 126 117 123 111 123 109 C 122 106 120 101 118 96 C 117 91 114 85 114 83 C 112 81 110 73 108 67 C 106 61 102 50 98 42 C 95 34 92 25 91 22 C 87 12 84 9 79 11 M 78 58 C 79 60 82 68 86 79 C 90 91 89 91 75 91 C 62 91 61 91 66 78 C 72 58 75 55 78 58 z" fill="black"/><!-- width=168 height=204 -->
<path id="gl2" d="M 79 10 C 75 12 69 14 63 18 C 55 23 54 23 52 19 C 50 12 48 11 37 13 C 33 15 27 16 25 16 C 18 17 15 20 15 24 C 15 28 19 31 24 31 C 26 31 30 35 30 37 C 30 52 30 96 30 97 C 28 100 27 102 21 103 C 18 103 16 104 16 104 C 15 104 13 108 13 111 C 13 115 18 118 23 117 C 33 116 42 116 50 117 C 60 117 62 117 64 115 C 69 111 66 106 58 103 C 54 101 53 100 52 98 C 52 95 52 40 52 39 C 54 36 57 34 62 33 C 72 28 80 28 85 33 C 91 37 92 39 92 68 C 92 100 92 100 84 103 C 78 105 75 108 76 111 C 76 114 76 114 79 116 C 82 117 83 117 94 117 C 103 116 109 117 114 117 C 117 117 119 117 121 118 C 123 117 124 117 125 116 C 126 115 127 115 128 114 C 128 113 128 112 128 111 C 129 106 127 105 121 103 C 114 100 114 103 114 67 C 114 56 114 46 114 36 C 114 34 113 33 113 32 C 109 20 102 14 92 12 C 87 10 83 10 79 10 z" fill="black"/><!-- width=141 height=130 -->
<path id="gl0" d="M 44 10 C 42 12 37 17 34 22 C 31 25 31 25 31 30 C 30 35 29 37 25 37 C 19 38 15 41 14 45 C 13 50 16 52 24 52 C 27 52 29 52 30 53 C 31 54 31 52 31 90 C 30 115 30 119 31 123 C 36 139 48 147 64 141 C 79 135 82 133 83 129 C 84 125 82 122 79 121 C 77 120 77 120 71 121 C 62 125 58 124 55 119 C 53 115 52 112 52 96 C 52 88 52 76 52 69 C 52 62 52 56 52 55 C 52 51 57 51 66 52 C 76 54 82 50 81 43 C 80 37 76 35 64 37 C 53 39 51 37 53 26 C 55 16 54 13 52 10 C 51 9 46 9 44 10 z" fill="black"/><!-- width=93 height=156 -->
<path id="gl5" d="M 43 12 C 31 14 30 15 28 17 C 24 21 26 24 33 27 C 40 30 40 24 40 91 C 40 130 40 150 39 152 C 39 156 37 157 33 160 C 26 163 25 169 31 172 C 34 172 70 172 73 171 C 79 169 78 163 70 159 C 64 156 63 154 64 120 C 64 112 64 105 64 97 C 64 96 65 95 66 94 C 72 85 88 84 96 91 C 101 96 102 101 102 129 C 102 156 102 156 94 160 C 90 162 89 163 89 166 C 88 172 91 172 114 172 C 136 172 138 172 138 166 C 138 163 137 162 133 159 C 131 158 129 156 128 156 C 127 155 127 154 126 154 C 126 144 126 135 126 125 C 126 109 125 95 125 93 C 119 69 97 60 72 72 C 69 73 66 73 64 72 C 64 71 64 64 63 43 C 63 5 64 6 43 12 z" fill="black"/><!-- width=152 height=210 -->
<path id="gl4" d="M 54 12 C 36 15 19 31 14 51 C 7 76 15 98 34 112 C 47 121 65 124 80 118 C 93 113 103 103 109 88 C 112 81 112 78 112 66 C 113 54 112 51 109 43 C 100 23 82 12 61 12 C 58 12 55 12 54 12 M 69 28 C 76 32 84 42 87 53 C 88 58 88 80 87 85 C 82 109 58 114 44 94 C 36 82 34 60 38 46 C 41 39 42 37 45 34 C 52 27 61 24 69 28 z" fill="black"/><!-- width=125 height=134 -->
<path id="gl2" d="M 79 10 C 75 12 69 14 63 18 C 55 23 54 23 52 19 C 50 12 48 11 37 13 C 33 15 27 16 25 16 C 18 17 15 20 15 24 C 15 28 19 31 24 31 C 26 31 30 35 30 37 C 30 52 30 96 30 97 C 28 100 27 102 21 103 C 18 103 16 104 16 104 C 15 104 13 108 13 111 C 13 115 18 118 23 117 C 33 116 42 116 50 117 C 60 117 62 117 64 115 C 69 111 66 106 58 103 C 54 101 53 100 52 98 C 52 95 52 40 52 39 C 54 36 57 34 62 33 C 72 28 80 28 85 33 C 91 37 92 39 92 68 C 92 100 92 100 84 103 C 78 105 75 108 76 111 C 76 114 76 114 79 116 C 82 117 83 117 94 117 C 103 116 109 117 114 117 C 117 117 119 117 121 118 C 123 117 124 117 125 116 C 126 115 127 115 128 114 C 128 113 128 112 128 111 C 129 106 127 105 121 103 C 114 100 114 103 114 67 C 114 56 114 46 114 36 C 114 34 113 33 113 32 C 109 20 102 14 92 12 C 87 10 83 10 79 10 z" fill="black"/><!-- width=141 height=130 -->
<path id="gl769" d="M 37 58 C 26 58 25 59 24 63 C 22 66 24 69 29 70 C 36 73 38 76 43 90 C 44 93 46 98 47 101 C 49 105 51 111 52 115 C 59 133 64 149 64 153 C 65 163 57 179 46 190 C 40 196 38 199 39 203 C 40 212 51 217 57 212 C 59 210 61 207 64 199 C 65 195 67 189 69 185 C 72 176 90 134 94 124 C 96 121 97 117 98 115 C 105 100 114 81 117 77 C 118 75 121 73 123 72 C 129 68 131 65 129 61 C 126 58 124 58 113 58 C 94 57 90 58 88 63 C 88 66 89 68 93 70 C 98 73 98 75 93 89 C 85 110 81 118 79 115 C 76 114 73 105 66 84 C 63 75 63 75 67 69 C 69 67 71 66 71 65 C 71 63 69 60 67 59 C 64 58 51 58 37 58 z" fill="black"/><!-- width=143 height=229 -->
<path id="gl2055" d="M 46 10 C 42 11 40 15 42 18 C 42 19 46 21 49 22 C 53 24 57 27 58 30 C 60 37 60 134 57 141 C 56 144 54 146 48 148 C 40 151 39 156 45 159 C 46 160 128 162 136 160 C 142 160 145 157 148 144 C 151 127 152 124 149 122 C 145 118 141 121 137 129 C 130 143 125 146 106 145 C 90 145 86 144 84 133 C 84 127 83 55 84 42 C 85 27 86 25 94 22 C 103 19 105 13 97 10 C 95 10 49 9 46 10 z" fill="black"/><!-- width=164 height=193 -->
<path id="gl4" d="M 54 12 C 36 15 19 31 14 51 C 7 76 15 98 34 112 C 47 121 65 124 80 118 C 93 113 103 103 109 88 C 112 81 112 78 112 66 C 113 54 112 51 109 43 C 100 23 82 12 61 12 C 58 12 55 12 54 12 M 69 28 C 76 32 84 42 87 53 C 88 58 88 80 87 85 C 82 109 58 114 44 94 C 36 82 34 60 38 46 C 41 39 42 37 45 34 C 52 27 61 24 69 28 z" fill="black"/><!-- width=125 height=134 -->
<path id="gl257" d="M 31 9 C 28 10 24 10 21 10 C 14 10 10 12 10 16 C 9 21 12 24 18 25 C 22 26 23 27 24 30 C 25 31 25 44 25 60 C 24 93 25 96 31 105 C 40 117 62 118 75 108 C 78 106 82 103 84 103 C 85 103 87 105 87 108 C 89 114 91 115 101 112 C 103 112 109 111 113 110 C 123 109 126 106 126 102 C 127 98 124 96 117 95 C 110 94 109 93 108 88 C 108 79 109 19 110 19 C 111 18 109 12 108 10 C 106 9 103 8 97 9 C 94 9 88 10 82 10 C 73 10 71 11 69 14 C 66 19 70 24 78 25 C 87 26 87 25 87 60 C 87 67 87 76 87 84 C 87 85 86 86 85 87 C 84 89 83 90 79 92 C 63 100 51 97 48 85 C 46 81 46 38 48 24 C 48 9 46 7 31 9 z" fill="black"/><!-- width=136 height=128 -->
<path id="gl3" d="M 38 8 C 34 9 30 12 28 15 C 25 19 25 27 27 31 C 37 49 61 37 55 18 C 53 12 46 7 38 8 M 45 61 C 39 63 28 66 25 66 C 18 67 15 69 14 74 C 13 78 15 80 24 82 C 30 84 30 82 30 116 C 30 150 30 150 25 153 C 24 153 22 153 21 154 C 19 154 15 156 13 157 C 12 160 12 162 15 165 C 16 166 17 167 18 168 C 20 168 22 168 24 168 C 31 167 50 167 57 168 C 63 168 65 168 68 165 C 73 160 67 153 58 153 C 57 153 54 151 53 148 C 52 146 52 91 53 75 C 54 69 53 67 53 66 C 52 63 48 60 45 61 z" fill="black"/><!-- width=81 height=202 -->
<path id="gl6" d="M 46 10 C 20 13 7 43 24 60 C 30 65 31 66 44 72 C 58 79 61 82 61 91 C 61 102 51 108 40 103 C 35 101 32 97 28 91 C 24 81 24 81 21 79 C 19 78 18 78 17 78 C 11 81 11 85 15 104 C 16 110 21 114 33 117 C 62 124 89 101 81 76 C 77 66 71 60 55 54 C 43 48 39 45 37 40 C 33 32 40 22 50 24 C 55 24 60 28 64 34 C 66 40 70 43 73 43 C 79 42 81 37 77 25 C 73 14 72 12 61 10 C 55 9 52 9 46 10 z" fill="black"/><!-- width=96 height=132 -->
<path id="gl260" d="M 72 10 C 34 17 13 61 33 93 C 46 116 74 123 94 110 C 110 99 117 90 111 85 C 107 81 102 82 96 88 C 79 104 54 93 49 68 C 45 46 55 27 72 26 C 79 25 83 27 91 33 C 97 38 103 37 107 31 C 110 27 111 21 108 17 C 103 10 87 7 72 10 z" fill="black"/><!-- width=124 height=133 -->
<path id="gl3338" d="M 63 12 C 58 13 57 16 54 29 C 51 40 49 46 46 57 C 43 66 36 92 32 103 C 25 127 18 150 15 161 C 11 171 11 173 16 177 C 18 178 21 178 25 177 C 29 176 31 174 33 166 C 37 150 37 149 45 123 C 46 118 49 110 50 106 C 51 102 54 94 55 87 C 58 81 61 69 64 61 C 66 53 69 42 72 36 C 78 17 78 17 73 13 C 71 11 66 10 63 12 z" fill="black"/><!-- width=88 height=190 -->
<path id="gl4" d="M 54 12 C 36 15 19 31 14 51 C 7 76 15 98 34 112 C 47 121 65 124 80 118 C 93 113 103 103 109 88 C 112 81 112 78 112 66 C 113 54 112 51 109 43 C 100 23 82 12 61 12 C 58 12 55 12 54 12 M 69 28 C 76 32 84 42 87 53 C 88 58 88 80 87 85 C 82 109 58 114 44 94 C 36 82 34 60 38 46 C 41 39 42 37 45 34 C 52 27 61 24 69 28 z" fill="black"/><!-- width=125 height=134 -->
<path id="gl2055" d="M 46 10 C 42 11 40 15 42 18 C 42 19 46 21 49 22 C 53 24 57 27 58 30 C 60 37 60 134 57 141 C 56 144 54 146 48 148 C 40 151 39 156 45 159 C 46 160 128 162 136 160 C 142 160 145 157 148 144 C 151 127 152 124 149 122 C 145 118 141 121 137 129 C 130 143 125 146 106 145 C 90 145 86 144 84 133 C 84 127 83 55 84 42 C 85 27 86 25 94 22 C 103 19 105 13 97 10 C 95 10 49 9 46 10 z" fill="black"/><!-- width=164 height=193 -->
<path id="gl258" d="M 39 9 C 36 10 30 11 27 12 C 20 12 16 13 15 16 C 13 21 16 26 21 27 C 27 27 28 28 30 30 C 31 33 31 148 30 152 C 30 156 27 157 22 158 C 15 159 11 167 16 171 C 19 173 20 173 33 172 C 42 171 45 171 53 172 C 63 173 66 173 69 170 C 74 165 69 158 60 158 C 57 158 54 156 54 153 C 53 151 53 130 53 81 C 54 6 54 10 51 8 C 48 7 47 7 39 9 z" fill="black"/><!-- width=83 height=189 -->
<path id="gl1" d="M 60 16 C 32 23 14 55 20 86 C 25 114 57 132 81 120 C 94 114 104 105 103 99 C 102 91 96 90 87 97 C 76 106 61 105 49 94 C 44 88 39 76 40 69 C 40 64 42 63 55 64 C 63 65 67 64 76 64 C 82 63 88 63 90 63 C 104 63 108 52 100 37 C 92 21 75 12 60 16 M 71 32 C 78 36 82 45 78 49 C 76 51 72 52 65 51 C 63 51 57 51 53 52 C 51 52 49 52 46 52 C 46 52 45 51 45 51 C 41 47 45 39 53 34 C 58 30 66 29 71 32 z" fill="black"/><!-- width=116 height=138 -->
<path id="gl1024" d="M 28 28 C 19 28 18 29 18 34 C 18 37 19 38 23 40 C 28 43 31 49 43 88 C 50 108 55 124 57 127 C 57 128 59 129 60 130 C 63 131 63 131 66 130 C 69 128 70 127 79 102 C 81 99 82 93 84 91 C 85 88 86 85 86 84 C 87 81 91 74 92 74 C 93 74 97 79 99 84 C 99 86 101 91 103 94 C 105 98 106 103 108 106 C 115 125 117 127 119 129 C 124 133 129 129 133 115 C 135 111 137 105 138 100 C 140 96 142 89 143 86 C 144 84 146 78 148 73 C 149 70 151 64 153 60 C 157 47 160 43 166 40 C 171 36 172 31 167 29 C 164 27 136 27 132 29 C 127 31 128 37 135 40 C 141 42 141 45 139 52 C 138 54 138 58 136 61 C 135 66 132 78 130 81 C 130 82 129 84 127 85 C 127 86 126 87 126 87 C 124 85 124 84 123 82 C 121 79 120 75 118 72 C 117 69 115 63 114 60 C 112 57 111 51 109 49 C 103 34 102 31 99 31 C 96 30 94 31 92 34 C 90 36 89 39 84 53 C 81 60 78 69 75 77 C 73 82 69 88 68 87 C 66 85 60 69 57 56 C 55 52 54 49 54 48 C 52 46 54 42 59 40 C 63 37 63 36 63 34 C 63 31 61 29 58 28 C 56 28 37 28 28 28 z" fill="black"/><!-- width=184 height=146 -->
<path id="gl1" d="M 60 16 C 32 23 14 55 20 86 C 25 114 57 132 81 120 C 94 114 104 105 103 99 C 102 91 96 90 87 97 C 76 106 61 105 49 94 C 44 88 39 76 40 69 C 40 64 42 63 55 64 C 63 65 67 64 76 64 C 82 63 88 63 90 63 C 104 63 108 52 100 37 C 92 21 75 12 60 16 M 71 32 C 78 36 82 45 78 49 C 76 51 72 52 65 51 C 63 51 57 51 53 52 C 51 52 49 52 46 52 C 46 52 45 51 45 51 C 41 47 45 39 53 34 C 58 30 66 29 71 32 z" fill="black"/><!-- width=116 height=138 -->
<path id="gl2066" d="M 38 9 C 36 10 30 12 26 12 C 18 13 15 15 13 18 C 11 22 14 26 21 28 C 26 28 27 29 28 32 C 30 36 30 151 28 154 C 27 157 24 159 20 159 C 15 160 13 162 13 167 C 13 169 13 170 15 171 C 18 174 19 174 26 174 C 35 172 48 172 55 174 C 61 175 63 174 66 172 C 69 169 69 169 69 166 C 69 162 67 160 60 159 C 55 158 54 157 52 154 C 51 152 51 38 52 24 C 53 9 50 6 38 9 z" fill="black"/><!-- width=80 height=192 -->
<path id="gl258" d="M 39 9 C 36 10 30 11 27 12 C 20 12 16 13 15 16 C 13 21 16 26 21 27 C 27 27 28 28 30 30 C 31 33 31 148 30 152 C 30 156 27 157 22 158 C 15 159 11 167 16 171 C 19 173 20 173 33 172 C 42 171 45 171 53 172 C 63 173 66 173 69 170 C 74 165 69 158 60 158 C 57 158 54 156 54 153 C 53 151 53 130 53 81 C 54 6 54 10 51 8 C 48 7 47 7 39 9 z" fill="black"/><!-- width=83 height=189 -->
<path id="gl2834" d="M 42 56 C 26 57 25 57 24 61 C 23 65 24 67 30 69 C 37 73 37 73 48 100 C 50 106 52 114 54 117 C 57 124 63 144 64 148 C 66 153 64 158 60 168 C 55 178 54 179 46 187 C 40 193 39 196 39 201 C 40 210 50 214 57 210 C 60 208 61 205 66 193 C 67 187 70 181 71 178 C 72 175 74 170 75 167 C 76 164 78 159 80 156 C 81 153 84 147 85 142 C 87 138 90 133 91 130 C 92 129 94 124 95 121 C 99 110 102 103 107 94 C 117 72 120 69 129 70 C 133 70 135 69 136 66 C 136 63 134 60 128 58 C 127 57 126 57 124 56 C 120 56 115 56 111 56 C 91 56 89 57 89 63 C 89 64 89 65 92 69 C 94 70 96 72 96 73 C 97 76 87 105 84 110 C 82 112 79 114 78 112 C 78 112 75 106 72 97 C 70 94 69 88 67 84 C 63 73 63 72 67 68 C 70 66 71 64 70 61 C 69 57 66 56 42 56 z" fill="black"/><!-- width=145 height=224 -->
<path id="gl3339" d="M 9 9 C 0 14 0 24 4 28 C 9 28 9 43 9 62 C 9 81 9 96 4 96 C 0 105 4 110 24 110 C 48 110 52 110 38 100 C 28 91 28 33 38 28 C 62 19 72 28 72 62 C 72 86 72 91 67 96 C 52 110 57 110 86 110 C 105 110 120 100 100 96 C 96 96 96 86 96 57 C 96 14 76 0 43 14 C 38 14 33 14 33 14 C 28 4 24 4 9 9 z" fill="black"/><!-- width=120 height=124 -->
<path id="gl2068" d="M 31 33 C 27 33 25 36 25 39 C 26 41 27 42 32 44 C 36 46 39 48 40 52 C 42 56 42 153 40 159 C 39 166 37 168 31 170 C 24 173 22 178 28 181 C 31 183 78 183 82 181 C 89 179 87 172 80 171 C 67 167 67 166 67 143 C 66 123 67 121 75 123 C 101 126 126 111 133 90 C 135 82 136 72 134 64 C 130 47 119 37 99 33 C 94 32 35 31 31 33 M 88 46 C 102 49 108 58 108 75 C 108 95 97 108 79 108 C 76 108 73 107 72 106 C 67 104 67 104 66 84 C 66 52 66 48 71 46 C 73 45 82 45 88 46 z" fill="black"/><!-- width=149 height=196 -->
<path id="gl257" d="M 31 9 C 28 10 24 10 21 10 C 14 10 10 12 10 16 C 9 21 12 24 18 25 C 22 26 23 27 24 30 C 25 31 25 44 25 60 C 24 93 25 96 31 105 C 40 117 62 118 75 108 C 78 106 82 103 84 103 C 85 103 87 105 87 108 C 89 114 91 115 101 112 C 103 112 109 111 113 110 C 123 109 126 106 126 102 C 127 98 124 96 117 95 C 110 94 109 93 108 88 C 108 79 109 19 110 19 C 111 18 109 12 108 10 C 106 9 103 8 97 9 C 94 9 88 10 82 10 C 73 10 71 11 69 14 C 66 19 70 24 78 25 C 87 26 87 25 87 60 C 87 67 87 76 87 84 C 87 85 86 86 85 87 C 84 89 83 90 79 92 C 63 100 51 97 48 85 C 46 81 46 38 48 24 C 48 9 46 7 31 9 z" fill="black"/><!-- width=136 height=128 -->
<path id="gl773" d="M 37 12 C 24 15 22 16 22 21 C 22 23 24 25 28 27 C 35 31 34 24 35 97 C 35 118 35 139 35 160 C 36 161 36 162 36 163 C 41 172 68 177 86 172 C 128 162 145 108 115 79 C 102 67 88 63 70 68 C 58 72 58 73 58 40 C 58 6 58 6 37 12 M 80 85 C 87 87 95 93 99 100 C 103 107 103 111 103 122 C 103 136 100 145 94 151 C 84 163 62 161 60 147 C 58 142 58 92 60 90 C 62 84 69 83 80 85 z" fill="black"/><!-- width=142 height=202 -->
<path id="gl258" d="M 39 9 C 36 10 30 11 27 12 C 20 12 16 13 15 16 C 13 21 16 26 21 27 C 27 27 28 28 30 30 C 31 33 31 148 30 152 C 30 156 27 157 22 158 C 15 159 11 167 16 171 C 19 173 20 173 33 172 C 42 171 45 171 53 172 C 63 173 66 173 69 170 C 74 165 69 158 60 158 C 57 158 54 156 54 153 C 53 151 53 130 53 81 C 54 6 54 10 51 8 C 48 7 47 7 39 9 z" fill="black"/><!-- width=83 height=189 -->
<path id="gl3" d="M 38 8 C 34 9 30 12 28 15 C 25 19 25 27 27 31 C 37 49 61 37 55 18 C 53 12 46 7 38 8 M 45 61 C 39 63 28 66 25 66 C 18 67 15 69 14 74 C 13 78 15 80 24 82 C 30 84 30 82 30 116 C 30 150 30 150 25 153 C 24 153 22 153 21 154 C 19 154 15 156 13 157 C 12 160 12 162 15 165 C 16 166 17 167 18 168 C 20 168 22 168 24 168 C 31 167 50 167 57 168 C 63 168 65 168 68 165 C 73 160 67 153 58 153 C 57 153 54 151 53 148 C 52 146 52 91 53 75 C 54 69 53 67 53 66 C 52 63 48 60 45 61 z" fill="black"/><!-- width=81 height=202 -->
<path id="gl260" d="M 72 10 C 34 17 13 61 33 93 C 46 116 74 123 94 110 C 110 99 117 90 111 85 C 107 81 102 82 96 88 C 79 104 54 93 49 68 C 45 46 55 27 72 26 C 79 25 83 27 91 33 C 97 38 103 37 107 31 C 110 27 111 21 108 17 C 103 10 87 7 72 10 z" fill="black"/><!-- width=124 height=133 -->
<path id="gl256" d="M 51 10 C 37 15 19 25 17 31 C 15 37 17 43 22 46 C 30 49 35 46 39 36 C 43 24 55 20 64 28 C 69 33 70 46 66 49 C 66 50 61 52 57 54 C 42 58 27 65 23 69 C 8 82 15 109 36 115 C 45 118 51 116 61 107 C 64 105 64 105 67 105 C 68 105 69 105 70 105 C 71 106 72 108 73 109 C 78 116 82 117 91 113 C 93 112 97 111 100 109 C 105 108 107 106 107 102 C 108 96 105 94 98 95 C 88 96 88 97 89 58 C 89 26 89 26 85 21 C 79 10 65 6 51 10 M 67 63 C 68 64 69 64 69 64 C 69 69 69 72 69 76 C 69 91 69 92 60 96 C 52 99 47 99 42 94 C 39 92 38 90 39 85 C 39 78 41 74 49 69 C 64 61 65 61 67 63 z" fill="black"/><!-- width=118 height=135 -->
<path id="gl0" d="M 44 10 C 42 12 37 17 34 22 C 31 25 31 25 31 30 C 30 35 29 37 25 37 C 19 38 15 41 14 45 C 13 50 16 52 24 52 C 27 52 29 52 30 53 C 31 54 31 52 31 90 C 30 115 30 119 31 123 C 36 139 48 147 64 141 C 79 135 82 133 83 129 C 84 125 82 122 79 121 C 77 120 77 120 71 121 C 62 125 58 124 55 119 C 53 115 52 112 52 96 C 52 88 52 76 52 69 C 52 62 52 56 52 55 C 52 51 57 51 66 52 C 76 54 82 50 81 43 C 80 37 76 35 64 37 C 53 39 51 37 53 26 C 55 16 54 13 52 10 C 51 9 46 9 44 10 z" fill="black"/><!-- width=93 height=156 -->
<path id="gl3" d="M 38 8 C 34 9 30 12 28 15 C 25 19 25 27 27 31 C 37 49 61 37 55 18 C 53 12 46 7 38 8 M 45 61 C 39 63 28 66 25 66 C 18 67 15 69 14 74 C 13 78 15 80 24 82 C 30 84 30 82 30 116 C 30 150 30 150 25 153 C 24 153 22 153 21 154 C 19 154 15 156 13 157 C 12 160 12 162 15 165 C 16 166 17 167 18 168 C 20 168 22 168 24 168 C 31 167 50 167 57 168 C 63 168 65 168 68 165 C 73 160 67 153 58 153 C 57 153 54 151 53 148 C 52 146 52 91 53 75 C 54 69 53 67 53 66 C 52 63 48 60 45 61 z" fill="black"/><!-- width=81 height=202 -->
<path id="gl4" d="M 54 12 C 36 15 19 31 14 51 C 7 76 15 98 34 112 C 47 121 65 124 80 118 C 93 113 103 103 109 88 C 112 81 112 78 112 66 C 113 54 112 51 109 43 C 100 23 82 12 61 12 C 58 12 55 12 54 12 M 69 28 C 76 32 84 42 87 53 C 88 58 88 80 87 85 C 82 109 58 114 44 94 C 36 82 34 60 38 46 C 41 39 42 37 45 34 C 52 27 61 24 69 28 z" fill="black"/><!-- width=125 height=134 -->
<path id="gl2" d="M 79 10 C 75 12 69 14 63 18 C 55 23 54 23 52 19 C 50 12 48 11 37 13 C 33 15 27 16 25 16 C 18 17 15 20 15 24 C 15 28 19 31 24 31 C 26 31 30 35 30 37 C 30 52 30 96 30 97 C 28 100 27 102 21 103 C 18 103 16 104 16 104 C 15 104 13 108 13 111 C 13 115 18 118 23 117 C 33 116 42 116 50 117 C 60 117 62 117 64 115 C 69 111 66 106 58 103 C 54 101 53 100 52 98 C 52 95 52 40 52 39 C 54 36 57 34 62 33 C 72 28 80 28 85 33 C 91 37 92 39 92 68 C 92 100 92 100 84 103 C 78 105 75 108 76 111 C 76 114 76 114 79 116 C 82 117 83 117 94 117 C 103 116 109 117 114 117 C 117 117 119 117 121 118 C 123 117 124 117 125 116 C 126 115 127 115 128 114 C 128 113 128 112 128 111 C 129 106 127 105 121 103 C 114 100 114 103 114 67 C 114 56 114 46 114 36 C 114 34 113 33 113 32 C 109 20 102 14 92 12 C 87 10 83 10 79 10 z" fill="black"/><!-- width=141 height=130 -->
<path id="gl516" d="M 45 10 C 29 15 20 24 17 37 C 14 52 21 62 43 72 C 55 78 58 81 60 86 C 64 96 58 105 47 105 C 39 105 33 100 28 91 C 27 88 26 84 25 84 C 21 75 12 78 12 87 C 12 91 14 103 15 106 C 17 112 25 117 38 118 C 67 124 92 96 79 72 C 76 66 70 61 58 55 C 45 49 43 48 40 44 C 30 34 39 21 53 25 C 57 26 61 30 64 35 C 69 45 76 46 79 39 C 81 33 75 16 70 13 C 65 10 51 9 45 10 z" fill="black"/><!-- width=97 height=133 -->
<path id="gl3337" d="M 37 34 C 33 34 29 34 28 34 C 27 36 25 39 25 40 C 25 42 28 45 31 46 C 37 48 40 51 40 58 C 42 64 42 154 40 160 C 40 167 37 169 30 172 C 22 174 22 180 28 183 C 31 184 79 184 83 183 C 86 182 87 180 86 177 C 85 174 83 173 78 172 C 68 169 67 167 67 148 C 66 123 66 124 81 124 C 99 124 110 120 121 110 C 132 100 135 90 135 75 C 134 52 121 38 96 34 C 89 33 53 33 37 34 M 91 49 C 102 53 107 61 108 76 C 109 97 97 110 77 109 C 72 109 70 108 68 105 C 67 103 67 102 67 78 C 67 49 67 50 71 48 C 74 47 86 48 91 49 z" fill="black"/><!-- width=149 height=199 -->
<path id="gl263" d="M 23 13 C 19 15 16 20 15 24 C 12 31 16 40 23 44 C 32 48 41 43 44 34 C 48 21 35 8 23 13 z" fill="black"/><!-- width=59 height=58 -->
<path id="gl3340" d="M 82 13 C 81 13 79 14 76 15 C 46 19 22 43 15 75 C 13 84 13 102 15 111 C 21 138 39 158 64 166 C 78 171 100 171 115 165 C 145 154 163 128 163 93 C 164 64 154 42 134 27 C 120 17 99 11 82 13 M 91 28 C 115 30 131 50 135 79 C 141 124 124 156 92 156 C 64 156 43 130 41 94 C 38 54 55 28 85 27 C 85 27 88 27 91 28 z" fill="black"/><!-- width=178 height=184 -->
<path id="gl263" d="M 23 13 C 19 15 16 20 15 24 C 12 31 16 40 23 44 C 32 48 41 43 44 34 C 48 21 35 8 23 13 z" fill="black"/><!-- width=59 height=58 -->
<path id="gl2071" d="M 19 14 C 12 17 14 23 22 25 C 27 28 29 30 30 36 C 31 41 31 136 30 141 C 29 147 27 148 20 151 C 16 153 12 156 12 157 C 12 159 14 162 16 163 C 19 164 19 164 46 164 C 66 164 76 164 80 163 C 112 159 130 143 130 118 C 130 104 124 95 111 85 C 104 79 104 79 109 73 C 116 66 119 60 120 52 C 122 34 111 19 91 15 C 85 13 22 13 19 14 M 75 27 C 90 30 97 43 93 59 C 90 70 81 75 66 75 C 55 75 55 75 55 55 C 55 32 55 29 61 27 C 63 26 70 26 75 27 M 78 91 C 94 95 102 106 102 123 C 101 140 90 150 72 150 C 57 150 55 145 55 113 C 55 94 56 91 60 90 C 63 89 73 90 78 91 z" fill="black"/><!-- width=144 height=178 -->
<path id="gl4" d="M 54 12 C 36 15 19 31 14 51 C 7 76 15 98 34 112 C 47 121 65 124 80 118 C 93 113 103 103 109 88 C 112 81 112 78 112 66 C 113 54 112 51 109 43 C 100 23 82 12 61 12 C 58 12 55 12 54 12 M 69 28 C 76 32 84 42 87 53 C 88 58 88 80 87 85 C 82 109 58 114 44 94 C 36 82 34 60 38 46 C 41 39 42 37 45 34 C 52 27 61 24 69 28 z" fill="black"/><!-- width=125 height=134 -->
<path id="gl2321" d="M 18 13 C 10 17 13 25 23 27 C 31 28 32 28 46 49 C 59 67 59 66 50 76 C 48 79 44 84 43 85 C 33 99 30 101 22 102 C 10 103 7 112 17 117 C 19 117 20 118 25 117 C 28 117 36 117 42 117 C 52 116 53 116 55 115 C 59 112 59 108 54 105 C 50 102 49 100 52 96 C 63 75 64 74 73 90 C 79 99 79 101 76 103 C 70 108 69 110 71 113 C 73 116 74 116 87 116 C 95 116 103 116 108 117 C 113 117 116 117 117 117 C 127 114 124 102 114 102 C 107 102 103 99 93 85 C 90 79 85 72 82 68 C 75 58 75 56 81 50 C 82 48 86 44 89 40 C 99 28 101 27 112 27 C 120 27 120 27 121 25 C 124 22 124 18 121 15 C 117 12 115 12 101 12 C 94 13 86 13 83 13 C 77 13 75 15 75 18 C 75 21 75 21 78 24 C 81 28 81 29 77 37 C 73 43 72 45 69 45 C 67 45 66 45 63 40 C 57 30 56 29 61 24 C 67 16 64 13 51 13 C 48 13 42 13 37 13 C 21 12 21 12 18 13 z" fill="black"/><!-- width=135 height=130 -->
<path id="gl3341" d="M 91 11 C 46 21 18 55 18 101 C 18 122 24 137 36 148 C 49 160 70 163 87 154 C 115 141 123 97 101 76 C 90 65 75 61 61 65 C 52 67 51 66 52 60 C 58 43 74 30 97 23 C 104 20 106 18 106 15 C 106 10 102 9 91 11 M 70 84 C 81 87 88 99 88 116 C 88 136 82 145 69 145 C 54 145 45 131 44 105 C 43 90 45 87 52 84 C 58 82 64 82 70 84 z" fill="black"/><!-- width=127 height=184 -->
<path id="gl3080" d="M 70 10 C 67 12 67 12 62 20 C 53 31 9 98 7 102 C 6 105 6 109 8 112 C 10 115 11 115 34 115 C 62 116 61 115 60 129 C 60 138 58 140 51 141 C 43 144 40 150 46 153 C 48 154 92 154 96 153 C 103 151 101 144 94 142 C 87 139 85 138 85 128 C 84 118 85 117 93 115 C 103 115 105 112 105 106 C 105 100 102 99 94 97 C 91 97 88 97 88 96 C 84 94 84 94 84 53 C 84 12 84 14 81 10 C 78 8 73 8 70 10 M 60 54 C 60 55 60 63 60 73 C 61 98 61 97 45 97 C 29 97 29 97 42 75 C 52 58 58 51 60 54 z" fill="black"/><!-- width=124 height=180 -->
<path id="gl3078" d="M 48 17 C 35 18 24 25 18 36 C 15 41 14 45 16 47 C 18 51 21 50 28 44 C 35 37 42 34 49 35 C 63 38 67 53 57 63 C 53 67 48 70 39 75 C 29 80 27 82 28 86 C 28 90 30 90 40 90 C 62 88 72 96 72 116 C 72 144 51 156 28 142 C 20 138 15 138 11 144 C 4 154 16 167 34 167 C 58 167 86 147 93 124 C 100 105 96 88 79 76 C 73 72 73 71 79 65 C 87 56 88 48 85 38 C 81 24 66 15 48 17 z" fill="black"/><!-- width=119 height=181 -->
<path id="gl3342" d="M 53 12 C 33 17 19 32 19 51 C 19 62 24 70 33 78 C 42 84 42 87 33 91 C 20 99 15 108 15 122 C 15 131 15 135 18 141 C 28 162 60 170 81 157 C 97 148 104 136 104 119 C 104 103 100 96 85 86 C 76 79 76 78 85 72 C 94 64 97 60 99 51 C 102 34 90 18 72 13 C 68 12 55 11 53 12 M 65 27 C 69 29 73 33 76 38 C 81 51 73 73 64 72 C 58 71 46 62 43 55 C 40 51 40 42 42 37 C 46 28 56 24 65 27 M 61 94 C 69 100 76 107 80 114 C 83 120 83 130 80 136 C 74 148 62 152 49 145 C 36 139 33 116 43 100 C 49 92 54 90 61 94 z" fill="black"/><!-- width=118 height=177 -->
<path id="gl3078" d="M 48 17 C 35 18 24 25 18 36 C 15 41 14 45 16 47 C 18 51 21 50 28 44 C 35 37 42 34 49 35 C 63 38 67 53 57 63 C 53 67 48 70 39 75 C 29 80 27 82 28 86 C 28 90 30 90 40 90 C 62 88 72 96 72 116 C 72 144 51 156 28 142 C 20 138 15 138 11 144 C 4 154 16 167 34 167 C 58 167 86 147 93 124 C 100 105 96 88 79 76 C 73 72 73 71 79 65 C 87 56 88 48 85 38 C 81 24 66 15 48 17 z" fill="black"/><!-- width=119 height=181 -->
<path id="gl514" d="M 17 19 C 12 22 10 27 10 31 C 11 36 13 37 18 39 C 24 41 26 43 28 46 C 31 54 27 64 16 69 C 10 72 9 76 11 80 C 15 85 19 85 28 77 C 42 67 48 57 47 44 C 46 27 29 13 17 19 z" fill="black"/><!-- width=60 height=94 -->
<path id="gl2069" d="M 24 16 C 16 19 17 24 25 28 C 35 33 35 31 34 95 C 34 138 34 142 33 145 C 31 150 30 152 23 154 C 16 156 15 162 21 165 C 24 166 25 166 51 166 C 82 166 90 166 105 162 C 145 151 168 119 163 78 C 160 42 136 20 94 16 C 85 15 27 15 24 16 M 88 30 C 118 32 134 49 136 81 C 139 125 115 153 76 151 C 65 151 61 149 60 139 C 59 134 58 42 59 37 C 61 28 66 27 88 30 z" fill="black"/><!-- width=178 height=181 -->
<path id="gl1" d="M 60 16 C 32 23 14 55 20 86 C 25 114 57 132 81 120 C 94 114 104 105 103 99 C 102 91 96 90 87 97 C 76 106 61 105 49 94 C 44 88 39 76 40 69 C 40 64 42 63 55 64 C 63 65 67 64 76 64 C 82 63 88 63 90 63 C 104 63 108 52 100 37 C 92 21 75 12 60 16 M 71 32 C 78 36 82 45 78 49 C 76 51 72 52 65 51 C 63 51 57 51 53 52 C 51 52 49 52 46 52 C 46 52 45 51 45 51 C 41 47 45 39 53 34 C 58 30 66 29 71 32 z" fill="black"/><!-- width=116 height=138 -->
<path id="gl772" d="M 50 36 C 49 36 45 37 40 39 C 27 43 25 44 25 48 C 25 51 27 53 31 55 C 35 57 37 59 37 62 C 38 63 38 88 39 118 C 39 136 39 154 39 172 C 38 174 37 174 37 175 C 36 177 34 178 31 180 C 25 183 24 186 27 190 C 27 191 28 192 28 192 C 36 192 43 192 49 192 C 61 192 72 192 73 192 C 76 192 79 189 79 187 C 79 183 78 182 72 180 C 69 179 66 178 66 178 C 63 175 61 168 62 155 C 63 145 63 144 72 144 C 96 142 121 124 129 102 C 139 74 127 46 103 38 C 94 35 88 36 75 41 C 66 45 64 45 61 40 C 59 37 58 36 54 36 C 52 36 51 36 50 36 M 85 57 C 99 59 108 72 107 92 C 107 114 94 128 76 126 C 69 125 64 122 63 117 C 62 114 62 69 63 66 C 65 59 75 54 85 57 z" fill="black"/><!-- width=146 height=207 -->
<path id="gl0" d="M 44 10 C 42 12 37 17 34 22 C 31 25 31 25 31 30 C 30 35 29 37 25 37 C 19 38 15 41 14 45 C 13 50 16 52 24 52 C 27 52 29 52 30 53 C 31 54 31 52 31 90 C 30 115 30 119 31 123 C 36 139 48 147 64 141 C 79 135 82 133 83 129 C 84 125 82 122 79 121 C 77 120 77 120 71 121 C 62 125 58 124 55 119 C 53 115 52 112 52 96 C 52 88 52 76 52 69 C 52 62 52 56 52 55 C 52 51 57 51 66 52 C 76 54 82 50 81 43 C 80 37 76 35 64 37 C 53 39 51 37 53 26 C 55 16 54 13 52 10 C 51 9 46 9 44 10 z" fill="black"/><!-- width=93 height=156 -->
<path id="gl263" d="M 23 13 C 19 15 16 20 15 24 C 12 31 16 40 23 44 C 32 48 41 43 44 34 C 48 21 35 8 23 13 z" fill="black"/><!-- width=59 height=58 -->
<path id="gl3343" d="M 49 10 C 39 10 37 10 36 12 C 30 15 33 20 40 22 C 47 23 49 27 51 38 C 52 52 51 136 49 139 C 48 144 45 147 40 148 C 33 151 31 157 37 159 C 40 160 85 160 89 160 C 92 159 94 157 94 154 C 94 151 92 150 87 148 C 76 145 75 140 75 112 C 75 97 75 97 79 98 C 82 99 91 108 118 139 C 135 159 135 159 143 160 C 148 160 165 160 166 159 C 168 159 169 156 169 154 C 169 151 167 149 162 146 C 156 143 147 135 138 124 C 135 121 130 117 128 114 C 118 103 100 83 99 79 C 96 75 97 72 112 57 C 141 30 145 25 158 22 C 168 20 170 15 163 11 C 160 9 118 9 115 11 C 111 13 111 18 115 21 C 122 25 122 25 113 36 C 102 49 82 69 79 70 C 75 70 75 70 75 50 C 75 27 76 25 85 22 C 91 20 93 19 93 16 C 93 13 91 12 89 11 C 87 10 68 9 49 10 z" fill="black"/><!-- width=183 height=174 -->
<path id="gl3080" d="M 70 10 C 67 12 67 12 62 20 C 53 31 9 98 7 102 C 6 105 6 109 8 112 C 10 115 11 115 34 115 C 62 116 61 115 60 129 C 60 138 58 140 51 141 C 43 144 40 150 46 153 C 48 154 92 154 96 153 C 103 151 101 144 94 142 C 87 139 85 138 85 128 C 84 118 85 117 93 115 C 103 115 105 112 105 106 C 105 100 102 99 94 97 C 91 97 88 97 88 96 C 84 94 84 94 84 53 C 84 12 84 14 81 10 C 78 8 73 8 70 10 M 60 54 C 60 55 60 63 60 73 C 61 98 61 97 45 97 C 29 97 29 97 42 75 C 52 58 58 51 60 54 z" fill="black"/><!-- width=124 height=180 -->
<path id="gl3083" d="M 54 10 C 34 13 18 37 15 69 C 12 100 16 125 27 142 C 39 160 60 167 78 158 C 84 155 93 147 96 141 C 97 139 99 136 100 136 C 103 130 108 109 109 90 C 109 78 106 56 103 45 C 101 38 92 24 87 19 C 79 12 66 8 54 10 M 67 26 C 78 30 84 49 84 85 C 84 106 84 108 80 127 C 76 143 65 151 54 145 C 46 141 40 126 39 103 C 39 99 38 93 38 90 C 37 81 40 56 42 46 C 43 41 49 31 51 29 C 55 25 61 24 67 26 z" fill="black"/><!-- width=123 height=172 -->
<path id="gl1284" d="M 51 8 C 49 8 46 9 43 10 C 41 11 35 13 30 13 C 19 16 18 16 15 19 C 13 21 13 25 15 27 C 16 29 19 30 26 30 C 33 30 36 31 36 34 C 36 34 36 58 36 85 C 36 134 36 136 35 137 C 33 140 30 141 25 141 C 18 141 14 143 13 148 C 13 150 13 151 16 153 C 19 156 21 157 30 156 C 39 154 53 154 64 156 C 67 156 70 156 72 157 C 73 156 74 156 75 156 C 79 154 80 151 80 148 C 80 144 76 141 70 141 C 63 141 59 139 58 134 C 58 132 58 31 59 15 C 59 10 56 7 51 8 z" fill="black"/><!-- width=92 height=174 -->
<path id="gl1283" d="M 16 14 C 12 17 12 28 16 31 C 18 33 19 33 24 32 C 33 31 57 31 63 32 C 71 33 74 31 74 22 C 74 13 72 13 60 14 C 52 15 34 14 22 13 C 18 13 18 13 16 14 z" fill="black"/><!-- width=87 height=46 -->
<path id="gl3080" d="M 70 10 C 67 12 67 12 62 20 C 53 31 9 98 7 102 C 6 105 6 109 8 112 C 10 115 11 115 34 115 C 62 116 61 115 60 129 C 60 138 58 140 51 141 C 43 144 40 150 46 153 C 48 154 92 154 96 153 C 103 151 101 144 94 142 C 87 139 85 138 85 128 C 84 118 85 117 93 115 C 103 115 105 112 105 106 C 105 100 102 99 94 97 C 91 97 88 97 88 96 C 84 94 84 94 84 53 C 84 12 84 14 81 10 C 78 8 73 8 70 10 M 60 54 C 60 55 60 63 60 73 C 61 98 61 97 45 97 C 29 97 29 97 42 75 C 52 58 58 51 60 54 z" fill="black"/><!-- width=124 height=180 -->
<path id="gl1029" d="M 51 11 C 28 16 15 33 16 55 C 16 74 26 84 53 97 C 66 103 73 108 76 112 C 85 125 81 145 67 151 C 51 158 34 150 26 130 C 22 120 20 118 16 118 C 11 118 8 123 9 129 C 10 135 15 153 15 155 C 19 166 54 172 73 165 C 93 157 105 139 103 118 C 103 99 93 87 68 76 C 49 67 43 63 39 56 C 33 44 40 29 52 26 C 66 22 79 30 82 45 C 84 51 89 55 93 54 C 97 51 99 46 97 40 C 97 39 96 34 96 30 C 93 16 92 15 80 12 C 73 10 56 10 51 11 z" fill="black"/><!-- width=117 height=181 -->
<path id="gl0" d="M 44 10 C 42 12 37 17 34 22 C 31 25 31 25 31 30 C 30 35 29 37 25 37 C 19 38 15 41 14 45 C 13 50 16 52 24 52 C 27 52 29 52 30 53 C 31 54 31 52 31 90 C 30 115 30 119 31 123 C 36 139 48 147 64 141 C 79 135 82 133 83 129 C 84 125 82 122 79 121 C 77 120 77 120 71 121 C 62 125 58 124 55 119 C 53 115 52 112 52 96 C 52 88 52 76 52 69 C 52 62 52 56 52 55 C 52 51 57 51 66 52 C 76 54 82 50 81 43 C 80 37 76 35 64 37 C 53 39 51 37 53 26 C 55 16 54 13 52 10 C 51 9 46 9 44 10 z" fill="black"/><!-- width=93 height=156 -->
<path id="gl263" d="M 23 13 C 19 15 16 20 15 24 C 12 31 16 40 23 44 C 32 48 41 43 44 34 C 48 21 35 8 23 13 z" fill="black"/><!-- width=59 height=58 -->
<path id="gl3337" d="M 37 34 C 33 34 29 34 28 34 C 27 36 25 39 25 40 C 25 42 28 45 31 46 C 37 48 40 51 40 58 C 42 64 42 154 40 160 C 40 167 37 169 30 172 C 22 174 22 180 28 183 C 31 184 79 184 83 183 C 86 182 87 180 86 177 C 85 174 83 173 78 172 C 68 169 67 167 67 148 C 66 123 66 124 81 124 C 99 124 110 120 121 110 C 132 100 135 90 135 75 C 134 52 121 38 96 34 C 89 33 53 33 37 34 M 91 49 C 102 53 107 61 108 76 C 109 97 97 110 77 109 C 72 109 70 108 68 105 C 67 103 67 102 67 78 C 67 49 67 50 71 48 C 74 47 86 48 91 49 z" fill="black"/><!-- width=149 height=199 -->
<path id="gl256" d="M 51 10 C 37 15 19 25 17 31 C 15 37 17 43 22 46 C 30 49 35 46 39 36 C 43 24 55 20 64 28 C 69 33 70 46 66 49 C 66 50 61 52 57 54 C 42 58 27 65 23 69 C 8 82 15 109 36 115 C 45 118 51 116 61 107 C 64 105 64 105 67 105 C 68 105 69 105 70 105 C 71 106 72 108 73 109 C 78 116 82 117 91 113 C 93 112 97 111 100 109 C 105 108 107 106 107 102 C 108 96 105 94 98 95 C 88 96 88 97 89 58 C 89 26 89 26 85 21 C 79 10 65 6 51 10 M 67 63 C 68 64 69 64 69 64 C 69 69 69 72 69 76 C 69 91 69 92 60 96 C 52 99 47 99 42 94 C 39 92 38 90 39 85 C 39 78 41 74 49 69 C 64 61 65 61 67 63 z" fill="black"/><!-- width=118 height=135 -->
<path id="gl257" d="M 31 9 C 28 10 24 10 21 10 C 14 10 10 12 10 16 C 9 21 12 24 18 25 C 22 26 23 27 24 30 C 25 31 25 44 25 60 C 24 93 25 96 31 105 C 40 117 62 118 75 108 C 78 106 82 103 84 103 C 85 103 87 105 87 108 C 89 114 91 115 101 112 C 103 112 109 111 113 110 C 123 109 126 106 126 102 C 127 98 124 96 117 95 C 110 94 109 93 108 88 C 108 79 109 19 110 19 C 111 18 109 12 108 10 C 106 9 103 8 97 9 C 94 9 88 10 82 10 C 73 10 71 11 69 14 C 66 19 70 24 78 25 C 87 26 87 25 87 60 C 87 67 87 76 87 84 C 87 85 86 86 85 87 C 84 89 83 90 79 92 C 63 100 51 97 48 85 C 46 81 46 38 48 24 C 48 9 46 7 31 9 z" fill="black"/><!-- width=136 height=128 -->
<path id="gl258" d="M 39 9 C 36 10 30 11 27 12 C 20 12 16 13 15 16 C 13 21 16 26 21 27 C 27 27 28 28 30 30 C 31 33 31 148 30 152 C 30 156 27 157 22 158 C 15 159 11 167 16 171 C 19 173 20 173 33 172 C 42 171 45 171 53 172 C 63 173 66 173 69 170 C 74 165 69 158 60 158 C 57 158 54 156 54 153 C 53 151 53 130 53 81 C 54 6 54 10 51 8 C 48 7 47 7 39 9 z" fill="black"/><!-- width=83 height=189 -->
<path id="gl1538" d="M 22 18 C 14 19 13 20 13 28 C 13 35 13 36 19 38 C 27 40 29 43 29 49 C 29 55 25 60 18 64 C 12 68 10 73 14 76 C 16 79 24 79 27 76 C 49 60 54 37 36 22 C 31 17 28 16 22 18 z" fill="black"/><!-- width=61 height=89 -->
<path id="gl1282" d="M 24 9 C 17 9 15 10 13 12 C 11 15 13 19 19 21 C 29 24 31 27 31 40 C 31 60 27 119 25 131 C 24 142 22 144 15 147 C 10 150 9 151 9 154 C 9 160 12 160 38 160 C 56 160 57 160 59 159 C 64 155 62 149 55 148 C 46 145 43 142 42 130 C 42 127 42 123 42 121 C 42 121 43 111 43 102 C 44 71 45 61 47 61 C 48 61 52 67 53 71 C 54 73 55 75 55 75 C 56 76 57 78 58 80 C 58 82 61 87 63 91 C 65 96 69 105 72 112 C 76 123 78 127 84 141 C 89 151 90 151 92 154 C 94 156 95 156 97 156 C 101 155 103 153 108 142 C 114 130 119 118 124 105 C 129 96 135 83 140 72 C 141 69 142 67 142 67 C 142 66 148 58 148 58 C 150 58 151 69 151 102 C 152 144 152 144 141 148 C 133 151 133 159 142 160 C 148 160 181 160 187 160 C 197 159 198 150 189 148 C 176 144 177 148 175 67 C 174 25 174 24 184 21 C 191 19 193 16 191 12 C 190 9 188 9 172 9 C 151 9 154 6 139 39 C 137 44 132 56 127 64 C 124 73 118 85 115 91 C 107 109 105 112 103 112 C 100 112 100 114 79 69 C 51 9 53 12 48 10 C 46 9 37 8 24 9 z" fill="black"/><!-- width=208 height=177 -->
<path id="gl3091" d="M 18 20 C 12 23 13 29 21 31 C 30 34 33 38 34 47 C 35 52 34 139 34 144 C 33 151 31 153 25 157 C 17 160 15 163 18 166 C 19 169 23 170 45 169 C 69 169 69 169 70 165 C 71 162 69 159 63 157 C 51 154 51 152 49 118 C 49 87 49 69 52 67 C 54 65 59 71 83 100 C 87 105 92 111 94 114 C 96 116 102 124 108 130 C 129 156 138 167 140 168 C 145 171 150 169 151 164 C 151 162 152 145 152 110 C 152 37 152 36 162 32 C 172 28 172 22 163 19 C 157 18 121 19 119 21 C 113 24 115 29 124 31 C 136 35 136 37 136 84 C 136 125 136 125 122 108 C 118 104 114 99 112 97 C 110 94 106 88 102 84 C 51 23 50 22 45 20 C 40 19 21 19 18 20 z" fill="black"/><!-- width=183 height=184 -->
<path id="gl3081" d="M 76 21 C 70 22 48 22 37 22 C 24 22 22 23 21 35 C 21 38 21 43 20 46 C 19 49 19 56 18 61 C 18 67 17 75 16 79 C 15 88 15 90 18 92 C 20 94 22 94 29 92 C 55 84 75 96 75 120 C 74 148 50 161 30 145 C 21 139 16 139 12 144 C 5 151 9 162 19 168 C 41 177 74 165 90 141 C 99 127 100 108 94 94 C 85 76 65 67 43 72 C 31 75 30 73 33 57 C 35 45 36 44 49 44 C 54 44 64 45 71 45 C 87 46 89 45 91 37 C 94 25 90 20 76 21 z" fill="black"/><!-- width=112 height=184 -->
<path id="gl3081" d="M 76 21 C 70 22 48 22 37 22 C 24 22 22 23 21 35 C 21 38 21 43 20 46 C 19 49 19 56 18 61 C 18 67 17 75 16 79 C 15 88 15 90 18 92 C 20 94 22 94 29 92 C 55 84 75 96 75 120 C 74 148 50 161 30 145 C 21 139 16 139 12 144 C 5 151 9 162 19 168 C 41 177 74 165 90 141 C 99 127 100 108 94 94 C 85 76 65 67 43 72 C 31 75 30 73 33 57 C 35 45 36 44 49 44 C 54 44 64 45 71 45 C 87 46 89 45 91 37 C 94 25 90 20 76 21 z" fill="black"/><!-- width=112 height=184 -->
<path id="gl3344" d="M 43 10 C 40 12 34 13 29 15 C 16 17 14 18 14 24 C 14 30 18 31 27 31 C 31 30 33 31 35 34 C 36 36 36 135 34 138 C 33 141 31 142 25 142 C 16 142 14 144 14 149 C 14 153 15 154 19 156 C 22 157 22 157 27 157 C 44 154 45 154 68 157 C 76 157 81 153 79 147 C 78 144 75 142 69 142 C 62 141 60 141 58 138 C 57 136 57 132 57 80 C 58 49 58 24 58 24 C 58 24 58 21 58 18 C 58 8 55 6 43 10 z" fill="black"/><!-- width=91 height=175 -->
<path id="gl3341" d="M 91 11 C 46 21 18 55 18 101 C 18 122 24 137 36 148 C 49 160 70 163 87 154 C 115 141 123 97 101 76 C 90 65 75 61 61 65 C 52 67 51 66 52 60 C 58 43 74 30 97 23 C 104 20 106 18 106 15 C 106 10 102 9 91 11 M 70 84 C 81 87 88 99 88 116 C 88 136 82 145 69 145 C 54 145 45 131 44 105 C 43 90 45 87 52 84 C 58 82 64 82 70 84 z" fill="black"/><!-- width=127 height=184 -->
<path id="gl3080" d="M 70 10 C 67 12 67 12 62 20 C 53 31 9 98 7 102 C 6 105 6 109 8 112 C 10 115 11 115 34 115 C 62 116 61 115 60 129 C 60 138 58 140 51 141 C 43 144 40 150 46 153 C 48 154 92 154 96 153 C 103 151 101 144 94 142 C 87 139 85 138 85 128 C 84 118 85 117 93 115 C 103 115 105 112 105 106 C 105 100 102 99 94 97 C 91 97 88 97 88 96 C 84 94 84 94 84 53 C 84 12 84 14 81 10 C 78 8 73 8 70 10 M 60 54 C 60 55 60 63 60 73 C 61 98 61 97 45 97 C 29 97 29 97 42 75 C 52 58 58 51 60 54 z" fill="black"/><!-- width=124 height=180 -->
<path id="gl1283" d="M 16 14 C 12 17 12 28 16 31 C 18 33 19 33 24 32 C 33 31 57 31 63 32 C 71 33 74 31 74 22 C 74 13 72 13 60 14 C 52 15 34 14 22 13 C 18 13 18 13 16 14 z" fill="black"/><!-- width=87 height=46 -->
<path id="gl3345" d="M 52 14 C 28 19 13 48 13 88 C 13 112 18 130 28 144 C 45 169 78 169 95 144 C 112 119 115 70 100 40 C 90 19 72 10 52 14 M 67 28 C 77 33 82 51 84 81 C 85 120 78 145 64 148 C 53 151 45 140 42 119 C 37 91 39 54 46 39 C 52 29 60 25 67 28 z" fill="black"/><!-- width=123 height=177 -->
<path id="gl3078" d="M 48 17 C 35 18 24 25 18 36 C 15 41 14 45 16 47 C 18 51 21 50 28 44 C 35 37 42 34 49 35 C 63 38 67 53 57 63 C 53 67 48 70 39 75 C 29 80 27 82 28 86 C 28 90 30 90 40 90 C 62 88 72 96 72 116 C 72 144 51 156 28 142 C 20 138 15 138 11 144 C 4 154 16 167 34 167 C 58 167 86 147 93 124 C 100 105 96 88 79 76 C 73 72 73 71 79 65 C 87 56 88 48 85 38 C 81 24 66 15 48 17 z" fill="black"/><!-- width=119 height=181 -->
<path id="gl3342" d="M 53 12 C 33 17 19 32 19 51 C 19 62 24 70 33 78 C 42 84 42 87 33 91 C 20 99 15 108 15 122 C 15 131 15 135 18 141 C 28 162 60 170 81 157 C 97 148 104 136 104 119 C 104 103 100 96 85 86 C 76 79 76 78 85 72 C 94 64 97 60 99 51 C 102 34 90 18 72 13 C 68 12 55 11 53 12 M 65 27 C 69 29 73 33 76 38 C 81 51 73 73 64 72 C 58 71 46 62 43 55 C 40 51 40 42 42 37 C 46 28 56 24 65 27 M 61 94 C 69 100 76 107 80 114 C 83 120 83 130 80 136 C 74 148 62 152 49 145 C 36 139 33 116 43 100 C 49 92 54 90 61 94 z" fill="black"/><!-- width=118 height=177 -->
<path id="gl3078" d="M 48 17 C 35 18 24 25 18 36 C 15 41 14 45 16 47 C 18 51 21 50 28 44 C 35 37 42 34 49 35 C 63 38 67 53 57 63 C 53 67 48 70 39 75 C 29 80 27 82 28 86 C 28 90 30 90 40 90 C 62 88 72 96 72 116 C 72 144 51 156 28 142 C 20 138 15 138 11 144 C 4 154 16 167 34 167 C 58 167 86 147 93 124 C 100 105 96 88 79 76 C 73 72 73 71 79 65 C 87 56 88 48 85 38 C 81 24 66 15 48 17 z" fill="black"/><!-- width=119 height=181 -->
<path id="gl514" d="M 17 19 C 12 22 10 27 10 31 C 11 36 13 37 18 39 C 24 41 26 43 28 46 C 31 54 27 64 16 69 C 10 72 9 76 11 80 C 15 85 19 85 28 77 C 42 67 48 57 47 44 C 46 27 29 13 17 19 z" fill="black"/><!-- width=60 height=94 -->
<path id="gl3346" d="M 36 22 C 25 24 25 31 36 35 C 42 37 43 39 45 44 C 45 46 46 63 46 86 C 46 128 47 130 49 140 C 56 164 75 177 102 177 C 136 177 157 156 162 120 C 162 117 163 101 163 84 C 164 40 164 39 174 35 C 183 32 184 27 178 24 C 175 22 174 22 155 22 C 133 22 132 22 129 25 C 125 28 127 33 135 35 C 147 39 147 41 148 77 C 148 112 147 129 139 142 C 128 163 93 165 79 144 C 75 137 72 128 71 113 C 70 100 71 48 72 43 C 73 39 76 37 81 35 C 89 33 91 26 84 24 C 82 22 44 22 36 22 z" fill="black"/><!-- width=195 height=191 -->
<path id="gl263" d="M 23 13 C 19 15 16 20 15 24 C 12 31 16 40 23 44 C 32 48 41 43 44 34 C 48 21 35 8 23 13 z" fill="black"/><!-- width=59 height=58 -->
<path id="gl1029" d="M 51 11 C 28 16 15 33 16 55 C 16 74 26 84 53 97 C 66 103 73 108 76 112 C 85 125 81 145 67 151 C 51 158 34 150 26 130 C 22 120 20 118 16 118 C 11 118 8 123 9 129 C 10 135 15 153 15 155 C 19 166 54 172 73 165 C 93 157 105 139 103 118 C 103 99 93 87 68 76 C 49 67 43 63 39 56 C 33 44 40 29 52 26 C 66 22 79 30 82 45 C 84 51 89 55 93 54 C 97 51 99 46 97 40 C 97 39 96 34 96 30 C 93 16 92 15 80 12 C 73 10 56 10 51 11 z" fill="black"/><!-- width=117 height=181 -->
<path id="gl263" d="M 23 13 C 19 15 16 20 15 24 C 12 31 16 40 23 44 C 32 48 41 43 44 34 C 48 21 35 8 23 13 z" fill="black"/><!-- width=59 height=58 -->
<path id="gl1537" d="M 79 11 C 76 12 75 15 65 40 C 57 63 35 118 32 127 C 26 142 23 146 16 150 C 10 152 9 154 9 157 C 9 162 10 162 33 162 C 56 162 57 162 57 156 C 57 153 56 152 49 149 C 44 147 43 144 46 134 C 52 116 55 110 58 109 C 61 108 88 108 92 108 C 97 109 99 113 105 133 C 110 145 109 147 103 150 C 97 153 96 156 99 160 C 102 162 104 163 129 162 C 150 162 151 162 153 159 C 155 154 153 151 145 149 C 138 147 135 142 128 123 C 126 117 123 111 123 109 C 122 106 120 101 118 96 C 117 91 114 85 114 83 C 112 81 110 73 108 67 C 106 61 102 50 98 42 C 95 34 92 25 91 22 C 87 12 84 9 79 11 M 78 58 C 79 60 82 68 86 79 C 90 91 89 91 75 91 C 62 91 61 91 66 78 C 72 58 75 55 78 58 z" fill="black"/><!-- width=168 height=204 -->
</defs>
<use xlink:href="#gl1537" x="748" y="10"/>
<use xlink:href="#gl2" x="888" y="55"/>
<use xlink:href="#gl0" x="1005" y="32"/>
<use xlink:href="#gl5" x="1061" y="0"/>
<use xlink:href="#gl4" x="1198" y="54"/>
<use xlink:href="#gl2" x="1307" y="56"/>
<use xlink:href="#gl769" x="1406" y="10"/>
<use xlink:href="#gl2055" x="1546" y="11"/>
<use xlink:href="#gl4" x="1691" y="53"/>
<use xlink:href="#gl257" x="1804" y="58"/>
<use xlink:href="#gl3" x="1919" y="4"/>
<use xlink:href="#gl6" x="1980" y="53"/>
<use xlink:href="#gl260" x="240" y="319"/>
<use xlink:href="#gl3338" x="341" y="266"/>
<use xlink:href="#gl4" x="416" y="315"/>
<use xlink:href="#gl2055" x="553" y="274"/>
<use xlink:href="#gl258" x="690" y="263"/>
<use xlink:href="#gl1" x="746" y="313"/>
<use xlink:href="#gl1024" x="835" y="304"/>
<use xlink:href="#gl1" x="987" y="313"/>
<use xlink:href="#gl2066" x="1079" y="264"/>
<use xlink:href="#gl258" x="1134" y="263"/>
<use xlink:href="#gl2834" x="1178" y="276"/>
<use xlink:href="#gl3339" x="1312" y="323"/>
<use xlink:href="#gl2068" x="1455" y="251"/>
<use xlink:href="#gl257" x="1585" y="321"/>
<use xlink:href="#gl773" x="1689" y="261"/>
<use xlink:href="#gl258" x="1810" y="261"/>
<use xlink:href="#gl3" x="1869" y="266"/>
<use xlink:href="#gl260" x="1919" y="317"/>
<use xlink:href="#gl256" x="2020" y="318"/>
<use xlink:href="#gl0" x="2113" y="291"/>
<use xlink:href="#gl3" x="2183" y="265"/>
<use xlink:href="#gl4" x="2246" y="313"/>
<use xlink:href="#gl2" x="2354" y="314"/>
<use xlink:href="#gl516" x="2477" y="314"/>
<use xlink:href="#gl3337" x="85" y="511"/>
<use xlink:href="#gl263" x="195" y="652"/>
<use xlink:href="#gl3340" x="244" y="528"/>
<use xlink:href="#gl263" x="401" y="652"/>
<use xlink:href="#gl2071" x="501" y="532"/>
<use xlink:href="#gl4" x="633" y="579"/>
<use xlink:href="#gl2321" x="730" y="580"/>
<use xlink:href="#gl3341" x="887" y="539"/>
<use xlink:href="#gl3080" x="1001" y="543"/>
<use xlink:href="#gl3078" x="1109" y="532"/>
<use xlink:href="#gl3342" x="1209" y="536"/>
<use xlink:href="#gl3078" x="1320" y="531"/>
<use xlink:href="#gl514" x="1425" y="640"/>
<use xlink:href="#gl2069" x="1521" y="529"/>
<use xlink:href="#gl1" x="1679" y="572"/>
<use xlink:href="#gl772" x="1763" y="552"/>
<use xlink:href="#gl0" x="1888" y="553"/>
<use xlink:href="#gl263" x="1966" y="651"/>
<use xlink:href="#gl3343" x="2047" y="532"/>
<use xlink:href="#gl3080" x="2213" y="539"/>
<use xlink:href="#gl3083" x="2313" y="535"/>
<use xlink:href="#gl1284" x="2435" y="538"/>
<use xlink:href="#gl1283" x="2530" y="615"/>
<use xlink:href="#gl3080" x="2610" y="538"/>
<use xlink:href="#gl1029" x="0" y="792"/>
<use xlink:href="#gl0" x="96" y="816"/>
<use xlink:href="#gl263" x="174" y="914"/>
<use xlink:href="#gl3337" x="263" y="773"/>
<use xlink:href="#gl256" x="386" y="843"/>
<use xlink:href="#gl257" x="486" y="845"/>
<use xlink:href="#gl258" x="597" y="787"/>
<use xlink:href="#gl1538" x="665" y="906"/>
<use xlink:href="#gl1282" x="766" y="799"/>
<use xlink:href="#gl3091" x="956" y="788"/>
<use xlink:href="#gl3081" x="1180" y="790"/>
<use xlink:href="#gl3081" x="1286" y="791"/>
<use xlink:href="#gl3344" x="1400" y="803"/>
<use xlink:href="#gl3341" x="1485" y="800"/>
<use xlink:href="#gl3080" x="1599" y="803"/>
<use xlink:href="#gl1283" x="1707" y="880"/>
<use xlink:href="#gl3345" x="1781" y="796"/>
<use xlink:href="#gl3078" x="1895" y="790"/>
<use xlink:href="#gl3342" x="1995" y="795"/>
<use xlink:href="#gl3078" x="2106" y="791"/>
<use xlink:href="#gl514" x="2209" y="900"/>
<use xlink:href="#gl3346" x="2291" y="781"/>
<use xlink:href="#gl263" x="2463" y="911"/>
<use xlink:href="#gl1029" x="2514" y="789"/>
<use xlink:href="#gl263" x="2620" y="910"/>
<use xlink:href="#gl1537" x="2666" y="791"/>
</svg>
