<?xml version='1.0' encoding='utf-8'?>
<svg xmlns="http://www.w3.org/2000/svg" xmlns:xlink="http://www.w3.org/1999/xlink" width="706px" height="25px" viewBox="0 0 7061 257" version="1.1">
<defs>
<path id="gl3337" d="M 37 34 C 33 34 29 34 28 34 C 27 36 25 39 25 40 C 25 42 28 45 31 46 C 37 48 40 51 40 58 C 42 64 42 154 40 160 C 40 167 37 169 30 172 C 22 174 22 180 28 183 C 31 184 79 184 83 183 C 86 182 87 180 86 177 C 85 174 83 173 78 172 C 68 169 67 167 67 148 C 66 123 66 124 81 124 C 99 124 110 120 121 110 C 132 100 135 90 135 75 C 134 52 121 38 96 34 C 89 33 53 33 37 34 M 91 49 C 102 53 107 61 108 76 C 109 97 97 110 77 109 C 72 109 70 108 68 105 C 67 103 67 102 67 78 C 67 49 67 50 71 48 C 74 47 86 48 91 49 z" fill="black"/><!-- width=149 height=199 -->
<path id="gl258" d="M 39 9 C 36 10 30 11 27 12 C 20 12 16 13 15 16 C 13 21 16 26 21 27 C 27 27 28 28 30 30 C 31 33 31 148 30 152 C 30 156 27 157 22 158 C 15 159 11 167 16 171 C 19 173 20 173 33 172 C 42 171 45 171 53 172 C 63 173 66 173 69 170 C 74 165 69 158 60 158 C 57 158 54 156 54 153 C 53 151 53 130 53 81 C 54 6 54 10 51 8 C 48 7 47 7 39 9 z" fill="black"/><!-- width=83 height=189 -->
<path id="gl22285" d="M 54 10 C 43 14 25 24 21 29 C 15 37 19 48 30 48 C 36 48 39 46 41 39 C 45 27 55 22 64 27 C 67 29 69 31 70 36 C 73 45 71 49 63 52 C 48 57 30 66 25 69 C 17 76 15 87 19 96 C 26 114 44 122 57 113 C 58 112 61 110 63 108 C 65 107 67 106 69 106 C 70 105 70 105 72 105 C 72 106 73 108 75 109 C 81 117 85 118 94 114 C 97 112 102 111 105 109 C 111 108 111 107 112 104 C 113 97 109 94 100 95 C 99 95 97 96 95 96 C 94 95 94 94 93 93 C 93 93 93 92 92 91 C 93 81 93 71 93 60 C 93 50 93 40 93 30 C 93 28 92 27 91 25 C 88 17 84 13 75 10 C 67 8 63 8 54 10 M 69 63 C 72 65 72 67 72 78 C 72 91 70 94 60 97 C 47 102 37 90 43 78 C 46 73 49 71 58 66 C 66 62 67 62 69 63 z" fill="black"/><!-- width=124 height=135 -->
<path id="gl2" d="M 79 10 C 75 12 69 14 63 18 C 55 23 54 23 52 19 C 50 12 48 11 37 13 C 33 15 27 16 25 16 C 18 17 15 20 15 24 C 15 28 19 31 24 31 C 26 31 30 35 30 37 C 30 52 30 96 30 97 C 28 100 27 102 21 103 C 18 103 16 104 16 104 C 15 104 13 108 13 111 C 13 115 18 118 23 117 C 33 116 42 116 50 117 C 60 117 62 117 64 115 C 69 111 66 106 58 103 C 54 101 53 100 52 98 C 52 95 52 40 52 39 C 54 36 57 34 62 33 C 72 28 80 28 85 33 C 91 37 92 39 92 68 C 92 100 92 100 84 103 C 78 105 75 108 76 111 C 76 114 76 114 79 116 C 82 117 83 117 94 117 C 103 116 109 117 114 117 C 117 117 119 117 121 118 C 123 117 124 117 125 116 C 126 115 127 115 128 114 C 128 113 128 112 128 111 C 129 106 127 105 121 103 C 114 100 114 103 114 67 C 114 56 114 46 114 36 C 114 34 113 33 113 32 C 109 20 102 14 92 12 C 87 10 83 10 79 10 z" fill="black"/><!-- width=141 height=130 -->
<path id="gl513" d="M 58 16 C 43 20 28 36 24 52 C 19 69 19 75 22 86 C 30 118 62 133 88 117 C 102 108 108 100 103 94 C 99 91 95 91 90 96 C 78 106 62 105 51 94 C 44 85 39 70 42 66 C 44 63 44 63 56 63 C 66 64 70 64 93 62 C 102 61 105 57 105 48 C 103 26 80 10 58 16 M 72 31 C 78 34 82 42 80 46 C 78 49 76 50 66 51 C 61 51 56 51 54 51 C 44 52 41 48 46 40 C 53 31 63 27 72 31 z" fill="black"/><!-- width=118 height=138 -->
<path id="gl0" d="M 44 10 C 42 12 37 17 34 22 C 31 25 31 25 31 30 C 30 35 29 37 25 37 C 19 38 15 41 14 45 C 13 50 16 52 24 52 C 27 52 29 52 30 53 C 31 54 31 52 31 90 C 30 115 30 119 31 123 C 36 139 48 147 64 141 C 79 135 82 133 83 129 C 84 125 82 122 79 121 C 77 120 77 120 71 121 C 62 125 58 124 55 119 C 53 115 52 112 52 96 C 52 88 52 76 52 69 C 52 62 52 56 52 55 C 52 51 57 51 66 52 C 76 54 82 50 81 43 C 80 37 76 35 64 37 C 53 39 51 37 53 26 C 55 16 54 13 52 10 C 51 9 46 9 44 10 z" fill="black"/><!-- width=93 height=156 -->
<path id="gl261" d="M 54 8 C 42 10 22 22 19 29 C 15 37 21 46 30 45 C 35 44 37 42 40 34 C 43 25 50 21 59 23 C 66 24 70 31 70 40 C 70 46 69 48 57 51 C 46 55 30 62 25 66 C 10 78 15 103 35 112 C 44 115 50 114 61 106 C 65 104 67 103 69 103 C 69 103 70 102 71 102 C 72 104 73 105 74 106 C 80 114 83 115 93 111 C 96 109 100 108 102 106 C 109 104 110 103 110 100 C 111 94 107 92 100 93 C 90 94 90 93 91 43 C 91 30 91 28 88 21 C 85 10 70 4 54 8 M 69 61 C 71 62 72 63 71 75 C 70 88 70 88 65 91 C 53 99 41 96 40 85 C 39 76 42 72 57 64 C 65 60 66 60 69 61 z" fill="black"/><!-- width=121 height=130 -->
<path id="gl2" d="M 79 10 C 75 12 69 14 63 18 C 55 23 54 23 52 19 C 50 12 48 11 37 13 C 33 15 27 16 25 16 C 18 17 15 20 15 24 C 15 28 19 31 24 31 C 26 31 30 35 30 37 C 30 52 30 96 30 97 C 28 100 27 102 21 103 C 18 103 16 104 16 104 C 15 104 13 108 13 111 C 13 115 18 118 23 117 C 33 116 42 116 50 117 C 60 117 62 117 64 115 C 69 111 66 106 58 103 C 54 101 53 100 52 98 C 52 95 52 40 52 39 C 54 36 57 34 62 33 C 72 28 80 28 85 33 C 91 37 92 39 92 68 C 92 100 92 100 84 103 C 78 105 75 108 76 111 C 76 114 76 114 79 116 C 82 117 83 117 94 117 C 103 116 109 117 114 117 C 117 117 119 117 121 118 C 123 117 124 117 125 116 C 126 115 127 115 128 114 C 128 113 128 112 128 111 C 129 106 127 105 121 103 C 114 100 114 103 114 67 C 114 56 114 46 114 36 C 114 34 113 33 113 32 C 109 20 102 14 92 12 C 87 10 83 10 79 10 z" fill="black"/><!-- width=141 height=130 -->
<path id="gl10266" d="M 82 11 C 67 14 67 14 66 16 C 62 20 63 24 69 27 C 77 30 78 31 77 49 C 77 64 76 65 66 66 C 49 67 35 73 24 85 C 15 93 12 99 9 110 C 7 118 8 133 10 141 C 15 154 24 163 36 169 C 48 175 57 175 68 169 C 73 167 75 167 78 169 C 82 174 82 174 96 170 C 101 169 108 168 110 167 C 119 165 122 162 120 157 C 119 155 114 153 112 152 C 110 152 108 150 107 147 C 106 145 106 121 106 81 C 106 43 105 17 105 15 C 103 7 100 7 82 11 M 67 82 C 72 84 75 86 76 90 C 78 94 78 144 76 147 C 74 150 70 152 64 152 C 46 152 35 127 42 101 C 45 87 56 79 67 82 z" fill="black"/><!-- width=137 height=210 -->
<path id="gl1798" d="M 52 11 C 33 16 19 29 17 48 C 15 69 25 83 54 97 C 73 107 78 113 78 124 C 78 146 55 154 38 138 C 34 133 33 132 30 124 C 25 114 23 112 19 112 C 13 111 10 116 11 123 C 14 141 16 150 20 153 C 28 159 56 164 68 160 C 92 154 106 136 105 113 C 103 95 94 84 72 73 C 60 67 55 65 52 63 C 33 50 43 22 66 26 C 74 28 79 32 83 43 C 85 49 87 51 89 52 C 93 55 98 53 100 49 C 102 45 97 21 94 17 C 90 12 64 9 52 11 z" fill="black"/><!-- width=119 height=175 -->
<path id="gl4101" d="M 39 12 C 34 13 30 14 24 14 C 15 14 15 14 13 15 C 9 20 11 27 17 29 C 25 31 25 29 25 65 C 25 101 25 104 32 111 C 42 122 63 123 75 113 C 78 110 81 108 83 108 C 85 108 86 109 87 114 C 89 119 92 120 100 117 C 105 116 109 115 117 115 C 128 114 132 112 130 106 C 130 102 127 100 121 99 C 117 99 115 97 115 93 C 114 89 114 37 115 25 C 117 10 115 9 100 12 C 94 13 90 14 84 14 C 74 15 72 15 70 19 C 69 21 69 21 70 24 C 72 27 73 27 79 29 C 86 31 87 33 87 46 C 87 51 87 63 87 72 C 87 91 87 91 81 95 C 68 101 56 99 53 88 C 52 86 52 38 53 30 C 54 27 54 22 54 20 C 55 11 52 9 39 12 z" fill="black"/><!-- width=141 height=135 -->
<path id="gl2" d="M 79 10 C 75 12 69 14 63 18 C 55 23 54 23 52 19 C 50 12 48 11 37 13 C 33 15 27 16 25 16 C 18 17 15 20 15 24 C 15 28 19 31 24 31 C 26 31 30 35 30 37 C 30 52 30 96 30 97 C 28 100 27 102 21 103 C 18 103 16 104 16 104 C 15 104 13 108 13 111 C 13 115 18 118 23 117 C 33 116 42 116 50 117 C 60 117 62 117 64 115 C 69 111 66 106 58 103 C 54 101 53 100 52 98 C 52 95 52 40 52 39 C 54 36 57 34 62 33 C 72 28 80 28 85 33 C 91 37 92 39 92 68 C 92 100 92 100 84 103 C 78 105 75 108 76 111 C 76 114 76 114 79 116 C 82 117 83 117 94 117 C 103 116 109 117 114 117 C 117 117 119 117 121 118 C 123 117 124 117 125 116 C 126 115 127 115 128 114 C 128 113 128 112 128 111 C 129 106 127 105 121 103 C 114 100 114 103 114 67 C 114 56 114 46 114 36 C 114 34 113 33 113 32 C 109 20 102 14 92 12 C 87 10 83 10 79 10 z" fill="black"/><!-- width=141 height=130 -->
<path id="gl11018" d="M 27 16 C 13 21 9 38 19 49 C 28 59 46 56 51 43 C 57 27 42 10 27 16 M 28 84 C 14 89 9 107 19 118 C 27 126 40 126 47 118 C 52 112 54 102 50 95 C 46 87 36 82 28 84 z" fill="black"/><!-- width=66 height=139 -->
<path id="gl22283" d="M 115 10 C 114 11 109 13 105 16 C 100 18 91 24 84 27 C 62 38 45 47 33 54 C 31 55 25 58 21 60 C 9 66 6 70 10 77 C 12 81 11 81 29 90 C 38 94 46 99 48 100 C 49 101 59 106 69 111 C 80 117 91 122 94 124 C 98 126 101 127 101 127 C 102 127 103 129 106 130 C 115 136 121 138 123 135 C 127 130 127 123 121 118 C 116 115 47 81 39 78 C 37 78 36 76 36 76 C 32 72 33 70 46 65 C 51 63 61 58 68 54 C 75 51 90 43 102 37 C 126 25 126 25 126 18 C 127 12 122 8 115 10 z" fill="black"/><!-- width=137 height=146 -->
<path id="gl2326" d="M 223 14 C 218 15 54 15 31 15 C 16 14 15 14 13 18 C 11 21 11 28 13 31 C 16 35 16 35 31 34 C 41 34 210 34 230 34 C 232 34 234 34 235 34 C 237 34 237 33 238 32 C 241 29 242 21 239 17 C 237 13 233 13 223 14 z" fill="black"/><!-- width=253 height=49 -->
<path id="gl3078" d="M 48 17 C 35 18 24 25 18 36 C 15 41 14 45 16 47 C 18 51 21 50 28 44 C 35 37 42 34 49 35 C 63 38 67 53 57 63 C 53 67 48 70 39 75 C 29 80 27 82 28 86 C 28 90 30 90 40 90 C 62 88 72 96 72 116 C 72 144 51 156 28 142 C 20 138 15 138 11 144 C 4 154 16 167 34 167 C 58 167 86 147 93 124 C 100 105 96 88 79 76 C 73 72 73 71 79 65 C 87 56 88 48 85 38 C 81 24 66 15 48 17 z" fill="black"/><!-- width=119 height=181 -->
<path id="gl514" d="M 17 19 C 12 22 10 27 10 31 C 11 36 13 37 18 39 C 24 41 26 43 28 46 C 31 54 27 64 16 69 C 10 72 9 76 11 80 C 15 85 19 85 28 77 C 42 67 48 57 47 44 C 46 27 29 13 17 19 z" fill="black"/><!-- width=60 height=94 -->
<path id="gl2326" d="M 223 14 C 218 15 54 15 31 15 C 16 14 15 14 13 18 C 11 21 11 28 13 31 C 16 35 16 35 31 34 C 41 34 210 34 230 34 C 232 34 234 34 235 34 C 237 34 237 33 238 32 C 241 29 242 21 239 17 C 237 13 233 13 223 14 z" fill="black"/><!-- width=253 height=49 -->
<path id="gl22281" d="M 21 13 C 17 15 16 21 19 25 C 20 28 21 28 40 39 C 98 69 102 71 103 73 C 105 76 104 78 87 87 C 79 90 71 95 67 97 C 64 99 56 103 51 105 C 25 118 20 121 18 126 C 15 132 19 138 25 136 C 27 135 63 117 82 108 C 88 104 101 97 109 93 C 126 85 129 83 130 79 C 133 73 130 67 123 63 C 117 60 87 45 66 34 C 58 30 51 26 48 25 C 40 21 26 14 24 13 C 24 13 22 13 21 13 z" fill="black"/><!-- width=145 height=150 -->
<path id="gl2309" d="M 69 11 C 66 12 59 19 51 28 C 34 50 25 75 25 108 C 24 149 36 183 61 207 C 70 215 74 215 78 208 C 79 207 80 205 79 204 C 79 202 76 198 75 198 C 74 198 66 187 63 183 C 46 159 40 115 48 79 C 52 57 60 42 72 30 C 80 21 81 19 78 14 C 75 10 73 9 69 11 z" fill="black"/><!-- width=90 height=223 -->
<path id="gl3337" d="M 37 34 C 33 34 29 34 28 34 C 27 36 25 39 25 40 C 25 42 28 45 31 46 C 37 48 40 51 40 58 C 42 64 42 154 40 160 C 40 167 37 169 30 172 C 22 174 22 180 28 183 C 31 184 79 184 83 183 C 86 182 87 180 86 177 C 85 174 83 173 78 172 C 68 169 67 167 67 148 C 66 123 66 124 81 124 C 99 124 110 120 121 110 C 132 100 135 90 135 75 C 134 52 121 38 96 34 C 89 33 53 33 37 34 M 91 49 C 102 53 107 61 108 76 C 109 97 97 110 77 109 C 72 109 70 108 68 105 C 67 103 67 102 67 78 C 67 49 67 50 71 48 C 74 47 86 48 91 49 z" fill="black"/><!-- width=149 height=199 -->
<path id="gl4112" d="M 10 12 C 9 12 8 13 7 15 C 5 19 6 21 13 28 C 24 40 33 57 37 73 C 37 77 38 82 39 85 C 40 92 42 123 40 131 C 36 160 28 180 13 195 C 6 202 6 205 9 210 C 13 216 22 211 34 196 C 39 190 48 176 48 175 C 48 175 49 172 50 169 C 67 133 64 76 45 43 C 38 31 28 20 20 13 C 16 10 12 10 10 12 z" fill="black"/><!-- width=82 height=223 -->
<path id="gl22283" d="M 115 10 C 114 11 109 13 105 16 C 100 18 91 24 84 27 C 62 38 45 47 33 54 C 31 55 25 58 21 60 C 9 66 6 70 10 77 C 12 81 11 81 29 90 C 38 94 46 99 48 100 C 49 101 59 106 69 111 C 80 117 91 122 94 124 C 98 126 101 127 101 127 C 102 127 103 129 106 130 C 115 136 121 138 123 135 C 127 130 127 123 121 118 C 116 115 47 81 39 78 C 37 78 36 76 36 76 C 32 72 33 70 46 65 C 51 63 61 58 68 54 C 75 51 90 43 102 37 C 126 25 126 25 126 18 C 127 12 122 8 115 10 z" fill="black"/><!-- width=137 height=146 -->
<path id="gl2326" d="M 223 14 C 218 15 54 15 31 15 C 16 14 15 14 13 18 C 11 21 11 28 13 31 C 16 35 16 35 31 34 C 41 34 210 34 230 34 C 232 34 234 34 235 34 C 237 34 237 33 238 32 C 241 29 242 21 239 17 C 237 13 233 13 223 14 z" fill="black"/><!-- width=253 height=49 -->
<path id="gl3078" d="M 48 17 C 35 18 24 25 18 36 C 15 41 14 45 16 47 C 18 51 21 50 28 44 C 35 37 42 34 49 35 C 63 38 67 53 57 63 C 53 67 48 70 39 75 C 29 80 27 82 28 86 C 28 90 30 90 40 90 C 62 88 72 96 72 116 C 72 144 51 156 28 142 C 20 138 15 138 11 144 C 4 154 16 167 34 167 C 58 167 86 147 93 124 C 100 105 96 88 79 76 C 73 72 73 71 79 65 C 87 56 88 48 85 38 C 81 24 66 15 48 17 z" fill="black"/><!-- width=119 height=181 -->
<path id="gl514" d="M 17 19 C 12 22 10 27 10 31 C 11 36 13 37 18 39 C 24 41 26 43 28 46 C 31 54 27 64 16 69 C 10 72 9 76 11 80 C 15 85 19 85 28 77 C 42 67 48 57 47 44 C 46 27 29 13 17 19 z" fill="black"/><!-- width=60 height=94 -->
<path id="gl2326" d="M 223 14 C 218 15 54 15 31 15 C 16 14 15 14 13 18 C 11 21 11 28 13 31 C 16 35 16 35 31 34 C 41 34 210 34 230 34 C 232 34 234 34 235 34 C 237 34 237 33 238 32 C 241 29 242 21 239 17 C 237 13 233 13 223 14 z" fill="black"/><!-- width=253 height=49 -->
<path id="gl22281" d="M 21 13 C 17 15 16 21 19 25 C 20 28 21 28 40 39 C 98 69 102 71 103 73 C 105 76 104 78 87 87 C 79 90 71 95 67 97 C 64 99 56 103 51 105 C 25 118 20 121 18 126 C 15 132 19 138 25 136 C 27 135 63 117 82 108 C 88 104 101 97 109 93 C 126 85 129 83 130 79 C 133 73 130 67 123 63 C 117 60 87 45 66 34 C 58 30 51 26 48 25 C 40 21 26 14 24 13 C 24 13 22 13 21 13 z" fill="black"/><!-- width=145 height=150 -->
<path id="gl22283" d="M 115 10 C 114 11 109 13 105 16 C 100 18 91 24 84 27 C 62 38 45 47 33 54 C 31 55 25 58 21 60 C 9 66 6 70 10 77 C 12 81 11 81 29 90 C 38 94 46 99 48 100 C 49 101 59 106 69 111 C 80 117 91 122 94 124 C 98 126 101 127 101 127 C 102 127 103 129 106 130 C 115 136 121 138 123 135 C 127 130 127 123 121 118 C 116 115 47 81 39 78 C 37 78 36 76 36 76 C 32 72 33 70 46 65 C 51 63 61 58 68 54 C 75 51 90 43 102 37 C 126 25 126 25 126 18 C 127 12 122 8 115 10 z" fill="black"/><!-- width=137 height=146 -->
<path id="gl22286" d="M 335 15 C 335 15 295 15 247 15 C 0 16 19 16 15 18 C 9 21 9 31 15 34 C 18 35 6 35 248 34 C 471 34 454 34 456 29 C 458 24 457 19 453 16 C 451 15 451 15 393 15 C 361 15 335 15 335 15 z" fill="black"/><!-- width=470 height=50 -->
<path id="gl1284" d="M 51 8 C 49 8 46 9 43 10 C 41 11 35 13 30 13 C 19 16 18 16 15 19 C 13 21 13 25 15 27 C 16 29 19 30 26 30 C 33 30 36 31 36 34 C 36 34 36 58 36 85 C 36 134 36 136 35 137 C 33 140 30 141 25 141 C 18 141 14 143 13 148 C 13 150 13 151 16 153 C 19 156 21 157 30 156 C 39 154 53 154 64 156 C 67 156 70 156 72 157 C 73 156 74 156 75 156 C 79 154 80 151 80 148 C 80 144 76 141 70 141 C 63 141 59 139 58 134 C 58 132 58 31 59 15 C 59 10 56 7 51 8 z" fill="black"/><!-- width=92 height=174 -->
<path id="gl3088" d="M 24 57 C 19 59 18 61 16 76 C 15 87 16 91 21 91 C 24 91 25 90 28 85 C 32 79 34 79 56 79 C 79 79 82 79 82 84 C 81 90 66 122 38 174 C 33 183 28 193 27 195 C 25 202 32 205 43 202 C 48 201 51 195 73 142 C 76 136 91 102 97 90 C 107 66 108 64 106 61 C 104 57 105 57 64 57 C 33 57 26 57 24 57 z" fill="black"/><!-- width=121 height=217 -->
<path id="gl514" d="M 17 19 C 12 22 10 27 10 31 C 11 36 13 37 18 39 C 24 41 26 43 28 46 C 31 54 27 64 16 69 C 10 72 9 76 11 80 C 15 85 19 85 28 77 C 42 67 48 57 47 44 C 46 27 29 13 17 19 z" fill="black"/><!-- width=60 height=94 -->
<path id="gl22286" d="M 335 15 C 335 15 295 15 247 15 C 0 16 19 16 15 18 C 9 21 9 31 15 34 C 18 35 6 35 248 34 C 471 34 454 34 456 29 C 458 24 457 19 453 16 C 451 15 451 15 393 15 C 361 15 335 15 335 15 z" fill="black"/><!-- width=470 height=50 -->
<path id="gl22281" d="M 21 13 C 17 15 16 21 19 25 C 20 28 21 28 40 39 C 98 69 102 71 103 73 C 105 76 104 78 87 87 C 79 90 71 95 67 97 C 64 99 56 103 51 105 C 25 118 20 121 18 126 C 15 132 19 138 25 136 C 27 135 63 117 82 108 C 88 104 101 97 109 93 C 126 85 129 83 130 79 C 133 73 130 67 123 63 C 117 60 87 45 66 34 C 58 30 51 26 48 25 C 40 21 26 14 24 13 C 24 13 22 13 21 13 z" fill="black"/><!-- width=145 height=150 -->
<path id="gl2309" d="M 69 11 C 66 12 59 19 51 28 C 34 50 25 75 25 108 C 24 149 36 183 61 207 C 70 215 74 215 78 208 C 79 207 80 205 79 204 C 79 202 76 198 75 198 C 74 198 66 187 63 183 C 46 159 40 115 48 79 C 52 57 60 42 72 30 C 80 21 81 19 78 14 C 75 10 73 9 69 11 z" fill="black"/><!-- width=90 height=223 -->
<path id="gl1029" d="M 51 11 C 28 16 15 33 16 55 C 16 74 26 84 53 97 C 66 103 73 108 76 112 C 85 125 81 145 67 151 C 51 158 34 150 26 130 C 22 120 20 118 16 118 C 11 118 8 123 9 129 C 10 135 15 153 15 155 C 19 166 54 172 73 165 C 93 157 105 139 103 118 C 103 99 93 87 68 76 C 49 67 43 63 39 56 C 33 44 40 29 52 26 C 66 22 79 30 82 45 C 84 51 89 55 93 54 C 97 51 99 46 97 40 C 97 39 96 34 96 30 C 93 16 92 15 80 12 C 73 10 56 10 51 11 z" fill="black"/><!-- width=117 height=181 -->
<path id="gl257" d="M 31 9 C 28 10 24 10 21 10 C 14 10 10 12 10 16 C 9 21 12 24 18 25 C 22 26 23 27 24 30 C 25 31 25 44 25 60 C 24 93 25 96 31 105 C 40 117 62 118 75 108 C 78 106 82 103 84 103 C 85 103 87 105 87 108 C 89 114 91 115 101 112 C 103 112 109 111 113 110 C 123 109 126 106 126 102 C 127 98 124 96 117 95 C 110 94 109 93 108 88 C 108 79 109 19 110 19 C 111 18 109 12 108 10 C 106 9 103 8 97 9 C 94 9 88 10 82 10 C 73 10 71 11 69 14 C 66 19 70 24 78 25 C 87 26 87 25 87 60 C 87 67 87 76 87 84 C 87 85 86 86 85 87 C 84 89 83 90 79 92 C 63 100 51 97 48 85 C 46 81 46 38 48 24 C 48 9 46 7 31 9 z" fill="black"/><!-- width=136 height=128 -->
<path id="gl2" d="M 79 10 C 75 12 69 14 63 18 C 55 23 54 23 52 19 C 50 12 48 11 37 13 C 33 15 27 16 25 16 C 18 17 15 20 15 24 C 15 28 19 31 24 31 C 26 31 30 35 30 37 C 30 52 30 96 30 97 C 28 100 27 102 21 103 C 18 103 16 104 16 104 C 15 104 13 108 13 111 C 13 115 18 118 23 117 C 33 116 42 116 50 117 C 60 117 62 117 64 115 C 69 111 66 106 58 103 C 54 101 53 100 52 98 C 52 95 52 40 52 39 C 54 36 57 34 62 33 C 72 28 80 28 85 33 C 91 37 92 39 92 68 C 92 100 92 100 84 103 C 78 105 75 108 76 111 C 76 114 76 114 79 116 C 82 117 83 117 94 117 C 103 116 109 117 114 117 C 117 117 119 117 121 118 C 123 117 124 117 125 116 C 126 115 127 115 128 114 C 128 113 128 112 128 111 C 129 106 127 105 121 103 C 114 100 114 103 114 67 C 114 56 114 46 114 36 C 114 34 113 33 113 32 C 109 20 102 14 92 12 C 87 10 83 10 79 10 z" fill="black"/><!-- width=141 height=130 -->
<path id="gl4112" d="M 10 12 C 9 12 8 13 7 15 C 5 19 6 21 13 28 C 24 40 33 57 37 73 C 37 77 38 82 39 85 C 40 92 42 123 40 131 C 36 160 28 180 13 195 C 6 202 6 205 9 210 C 13 216 22 211 34 196 C 39 190 48 176 48 175 C 48 175 49 172 50 169 C 67 133 64 76 45 43 C 38 31 28 20 20 13 C 16 10 12 10 10 12 z" fill="black"/><!-- width=82 height=223 -->
<path id="gl22283" d="M 115 10 C 114 11 109 13 105 16 C 100 18 91 24 84 27 C 62 38 45 47 33 54 C 31 55 25 58 21 60 C 9 66 6 70 10 77 C 12 81 11 81 29 90 C 38 94 46 99 48 100 C 49 101 59 106 69 111 C 80 117 91 122 94 124 C 98 126 101 127 101 127 C 102 127 103 129 106 130 C 115 136 121 138 123 135 C 127 130 127 123 121 118 C 116 115 47 81 39 78 C 37 78 36 76 36 76 C 32 72 33 70 46 65 C 51 63 61 58 68 54 C 75 51 90 43 102 37 C 126 25 126 25 126 18 C 127 12 122 8 115 10 z" fill="black"/><!-- width=137 height=146 -->
<path id="gl22286" d="M 335 15 C 335 15 295 15 247 15 C 0 16 19 16 15 18 C 9 21 9 31 15 34 C 18 35 6 35 248 34 C 471 34 454 34 456 29 C 458 24 457 19 453 16 C 451 15 451 15 393 15 C 361 15 335 15 335 15 z" fill="black"/><!-- width=470 height=50 -->
<path id="gl1284" d="M 51 8 C 49 8 46 9 43 10 C 41 11 35 13 30 13 C 19 16 18 16 15 19 C 13 21 13 25 15 27 C 16 29 19 30 26 30 C 33 30 36 31 36 34 C 36 34 36 58 36 85 C 36 134 36 136 35 137 C 33 140 30 141 25 141 C 18 141 14 143 13 148 C 13 150 13 151 16 153 C 19 156 21 157 30 156 C 39 154 53 154 64 156 C 67 156 70 156 72 157 C 73 156 74 156 75 156 C 79 154 80 151 80 148 C 80 144 76 141 70 141 C 63 141 59 139 58 134 C 58 132 58 31 59 15 C 59 10 56 7 51 8 z" fill="black"/><!-- width=92 height=174 -->
<path id="gl3088" d="M 24 57 C 19 59 18 61 16 76 C 15 87 16 91 21 91 C 24 91 25 90 28 85 C 32 79 34 79 56 79 C 79 79 82 79 82 84 C 81 90 66 122 38 174 C 33 183 28 193 27 195 C 25 202 32 205 43 202 C 48 201 51 195 73 142 C 76 136 91 102 97 90 C 107 66 108 64 106 61 C 104 57 105 57 64 57 C 33 57 26 57 24 57 z" fill="black"/><!-- width=121 height=217 -->
<path id="gl1538" d="M 22 18 C 14 19 13 20 13 28 C 13 35 13 36 19 38 C 27 40 29 43 29 49 C 29 55 25 60 18 64 C 12 68 10 73 14 76 C 16 79 24 79 27 76 C 49 60 54 37 36 22 C 31 17 28 16 22 18 z" fill="black"/><!-- width=61 height=89 -->
<path id="gl22286" d="M 335 15 C 335 15 295 15 247 15 C 0 16 19 16 15 18 C 9 21 9 31 15 34 C 18 35 6 35 248 34 C 471 34 454 34 456 29 C 458 24 457 19 453 16 C 451 15 451 15 393 15 C 361 15 335 15 335 15 z" fill="black"/><!-- width=470 height=50 -->
<path id="gl22281" d="M 21 13 C 17 15 16 21 19 25 C 20 28 21 28 40 39 C 98 69 102 71 103 73 C 105 76 104 78 87 87 C 79 90 71 95 67 97 C 64 99 56 103 51 105 C 25 118 20 121 18 126 C 15 132 19 138 25 136 C 27 135 63 117 82 108 C 88 104 101 97 109 93 C 126 85 129 83 130 79 C 133 73 130 67 123 63 C 117 60 87 45 66 34 C 58 30 51 26 48 25 C 40 21 26 14 24 13 C 24 13 22 13 21 13 z" fill="black"/><!-- width=145 height=150 -->
</defs>
<use xlink:href="#gl3337" x="0" y="16"/>
<use xlink:href="#gl258" x="130" y="29"/>
<use xlink:href="#gl22285" x="190" y="87"/>
<use xlink:href="#gl2" x="290" y="86"/>
<use xlink:href="#gl513" x="408" y="82"/>
<use xlink:href="#gl0" x="503" y="62"/>
<use xlink:href="#gl261" x="625" y="91"/>
<use xlink:href="#gl2" x="724" y="87"/>
<use xlink:href="#gl10266" x="853" y="33"/>
<use xlink:href="#gl1798" x="1018" y="44"/>
<use xlink:href="#gl4101" x="1118" y="89"/>
<use xlink:href="#gl2" x="1237" y="90"/>
<use xlink:href="#gl11018" x="1362" y="86"/>
<use xlink:href="#gl22283" x="1472" y="69"/>
<use xlink:href="#gl2326" x="1591" y="129"/>
<use xlink:href="#gl3078" x="1828" y="43"/>
<use xlink:href="#gl514" x="1933" y="23"/>
<use xlink:href="#gl2326" x="1973" y="130"/>
<use xlink:href="#gl22281" x="2202" y="69"/>
<use xlink:href="#gl2309" x="2386" y="33"/>
<use xlink:href="#gl3337" x="2460" y="25"/>
<use xlink:href="#gl4112" x="2605" y="34"/>
<use xlink:href="#gl22283" x="2734" y="73"/>
<use xlink:href="#gl2326" x="2854" y="132"/>
<use xlink:href="#gl3078" x="3091" y="46"/>
<use xlink:href="#gl514" x="3196" y="27"/>
<use xlink:href="#gl2326" x="3235" y="133"/>
<use xlink:href="#gl22281" x="3465" y="71"/>
<use xlink:href="#gl22283" x="3608" y="72"/>
<use xlink:href="#gl22286" x="3731" y="130"/>
<use xlink:href="#gl1284" x="4194" y="53"/>
<use xlink:href="#gl3088" x="4286" y="6"/>
<use xlink:href="#gl514" x="4396" y="23"/>
<use xlink:href="#gl22286" x="4436" y="127"/>
<use xlink:href="#gl22281" x="4887" y="65"/>
<use xlink:href="#gl2309" x="5071" y="28"/>
<use xlink:href="#gl1029" x="5159" y="40"/>
<use xlink:href="#gl257" x="5259" y="91"/>
<use xlink:href="#gl2" x="5374" y="87"/>
<use xlink:href="#gl4112" x="5510" y="27"/>
<use xlink:href="#gl22283" x="5638" y="65"/>
<use xlink:href="#gl22286" x="5761" y="123"/>
<use xlink:href="#gl1284" x="6223" y="46"/>
<use xlink:href="#gl3088" x="6315" y="0"/>
<use xlink:href="#gl1538" x="6425" y="19"/>
<use xlink:href="#gl22286" x="6469" y="120"/>
<use xlink:href="#gl22281" x="6916" y="60"/>
</svg>
