<?xml version='1.0' encoding='utf-8'?>
<svg xmlns="http://www.w3.org/2000/svg" xmlns:xlink="http://www.w3.org/1999/xlink" width="565px" height="25px" viewBox="0 0 5659 255" version="1.1">
<defs>
<path id="gl4891" d="M 12 42 C 10 45 8 58 8 73 C 8 80 12 84 16 81 C 18 79 19 78 22 70 C 27 61 32 59 46 59 C 55 59 57 59 59 62 C 60 64 60 161 60 169 C 58 178 55 181 48 183 C 41 184 39 187 40 190 C 41 195 42 195 72 195 C 102 195 103 195 105 191 C 106 187 105 185 97 183 C 88 180 87 178 85 171 C 84 165 84 64 85 62 C 89 57 109 57 117 63 C 118 64 124 75 124 77 C 124 79 129 82 130 82 C 132 82 135 79 136 77 C 136 75 135 47 133 45 C 132 41 129 40 123 42 C 121 43 120 43 118 44 C 103 44 88 44 73 44 C 57 44 42 44 27 44 C 25 43 24 43 22 42 C 16 40 14 40 12 42 M 121 93 C 115 95 115 100 120 103 C 126 108 127 109 132 118 C 132 119 132 120 133 121 C 133 120 133 119 134 118 C 136 114 136 94 134 93 C 132 92 124 92 121 93 z" fill="black"/><!-- width=150 height=209 -->
<path id="gl5124" d="M 31 24 C 27 26 27 25 27 42 C 27 60 29 66 37 90 C 39 93 41 99 42 104 C 48 121 51 124 55 124 C 60 124 63 121 67 109 C 72 94 77 83 81 76 C 82 72 82 72 85 72 C 85 72 86 71 87 71 C 88 73 88 75 90 77 C 93 84 98 95 102 105 C 108 120 110 124 115 124 C 119 125 121 122 126 108 C 129 102 131 94 132 92 C 133 89 135 84 137 79 C 140 70 144 58 147 51 C 150 43 153 39 156 37 C 160 34 161 33 161 30 C 161 26 160 24 157 24 C 152 23 130 23 128 24 C 120 25 120 32 127 35 C 132 37 133 39 132 46 C 130 55 123 76 121 78 C 120 78 120 78 118 78 C 116 77 112 69 110 63 C 110 62 109 59 108 57 C 107 55 105 51 105 49 C 98 30 95 25 90 26 C 85 26 84 28 72 60 C 69 66 64 77 63 78 C 63 79 59 77 58 76 C 58 76 57 73 56 71 C 55 68 54 65 54 63 C 53 61 51 55 49 51 C 46 39 46 38 52 35 C 58 31 58 25 51 24 C 46 22 34 22 31 24 z" fill="black"/><!-- width=174 height=138 -->
<path id="gl3860" d="M 56 13 C 37 18 22 33 16 52 C 13 60 14 78 16 86 C 29 123 76 133 102 105 C 122 85 123 49 103 28 C 97 22 87 16 79 14 C 75 13 61 12 56 13 M 73 30 C 78 33 82 39 85 49 C 87 57 87 81 85 88 C 82 100 76 106 67 106 C 53 106 42 85 44 58 C 45 34 58 22 73 30 z" fill="black"/><!-- width=132 height=135 -->
<path id="gl10759" d="M 43 36 C 24 41 22 42 24 47 C 24 50 25 51 29 52 C 37 55 37 55 37 118 C 37 134 37 150 37 165 C 36 166 36 168 35 168 C 34 171 33 171 30 173 C 23 177 22 179 24 183 C 26 186 29 186 52 186 C 76 186 78 186 80 183 C 82 179 81 176 75 174 C 64 171 63 169 64 154 C 64 139 64 140 75 139 C 81 138 84 138 86 136 C 88 136 90 135 91 135 C 96 134 106 127 112 123 C 120 116 128 103 130 93 C 132 87 132 72 131 66 C 126 48 112 35 94 33 C 89 33 85 34 76 38 C 74 39 72 40 69 42 C 69 41 68 41 67 40 C 65 40 64 39 64 37 C 63 35 63 34 60 34 C 57 32 55 32 43 36 M 85 55 C 98 58 105 73 104 93 C 102 115 87 127 72 120 C 67 118 67 117 65 115 C 65 114 64 113 64 112 C 64 103 64 96 64 87 C 64 59 64 60 70 57 C 76 54 79 54 85 55 z" fill="black"/><!-- width=145 height=199 -->
<path id="gl258" d="M 39 9 C 36 10 30 11 27 12 C 20 12 16 13 15 16 C 13 21 16 26 21 27 C 27 27 28 28 30 30 C 31 33 31 148 30 152 C 30 156 27 157 22 158 C 15 159 11 167 16 171 C 19 173 20 173 33 172 C 42 171 45 171 53 172 C 63 173 66 173 69 170 C 74 165 69 158 60 158 C 57 158 54 156 54 153 C 53 151 53 130 53 81 C 54 6 54 10 51 8 C 48 7 47 7 39 9 z" fill="black"/><!-- width=83 height=189 -->
<path id="gl261" d="M 54 8 C 42 10 22 22 19 29 C 15 37 21 46 30 45 C 35 44 37 42 40 34 C 43 25 50 21 59 23 C 66 24 70 31 70 40 C 70 46 69 48 57 51 C 46 55 30 62 25 66 C 10 78 15 103 35 112 C 44 115 50 114 61 106 C 65 104 67 103 69 103 C 69 103 70 102 71 102 C 72 104 73 105 74 106 C 80 114 83 115 93 111 C 96 109 100 108 102 106 C 109 104 110 103 110 100 C 111 94 107 92 100 93 C 90 94 90 93 91 43 C 91 30 91 28 88 21 C 85 10 70 4 54 8 M 69 61 C 71 62 72 63 71 75 C 70 88 70 88 65 91 C 53 99 41 96 40 85 C 39 76 42 72 57 64 C 65 60 66 60 69 61 z" fill="black"/><!-- width=121 height=130 -->
<path id="gl2" d="M 79 10 C 75 12 69 14 63 18 C 55 23 54 23 52 19 C 50 12 48 11 37 13 C 33 15 27 16 25 16 C 18 17 15 20 15 24 C 15 28 19 31 24 31 C 26 31 30 35 30 37 C 30 52 30 96 30 97 C 28 100 27 102 21 103 C 18 103 16 104 16 104 C 15 104 13 108 13 111 C 13 115 18 118 23 117 C 33 116 42 116 50 117 C 60 117 62 117 64 115 C 69 111 66 106 58 103 C 54 101 53 100 52 98 C 52 95 52 40 52 39 C 54 36 57 34 62 33 C 72 28 80 28 85 33 C 91 37 92 39 92 68 C 92 100 92 100 84 103 C 78 105 75 108 76 111 C 76 114 76 114 79 116 C 82 117 83 117 94 117 C 103 116 109 117 114 117 C 117 117 119 117 121 118 C 123 117 124 117 125 116 C 126 115 127 115 128 114 C 128 113 128 112 128 111 C 129 106 127 105 121 103 C 114 100 114 103 114 67 C 114 56 114 46 114 36 C 114 34 113 33 113 32 C 109 20 102 14 92 12 C 87 10 83 10 79 10 z" fill="black"/><!-- width=141 height=130 -->
<path id="gl513" d="M 58 16 C 43 20 28 36 24 52 C 19 69 19 75 22 86 C 30 118 62 133 88 117 C 102 108 108 100 103 94 C 99 91 95 91 90 96 C 78 106 62 105 51 94 C 44 85 39 70 42 66 C 44 63 44 63 56 63 C 66 64 70 64 93 62 C 102 61 105 57 105 48 C 103 26 80 10 58 16 M 72 31 C 78 34 82 42 80 46 C 78 49 76 50 66 51 C 61 51 56 51 54 51 C 44 52 41 48 46 40 C 53 31 63 27 72 31 z" fill="black"/><!-- width=118 height=138 -->
<path id="gl0" d="M 44 10 C 42 12 37 17 34 22 C 31 25 31 25 31 30 C 30 35 29 37 25 37 C 19 38 15 41 14 45 C 13 50 16 52 24 52 C 27 52 29 52 30 53 C 31 54 31 52 31 90 C 30 115 30 119 31 123 C 36 139 48 147 64 141 C 79 135 82 133 83 129 C 84 125 82 122 79 121 C 77 120 77 120 71 121 C 62 125 58 124 55 119 C 53 115 52 112 52 96 C 52 88 52 76 52 69 C 52 62 52 56 52 55 C 52 51 57 51 66 52 C 76 54 82 50 81 43 C 80 37 76 35 64 37 C 53 39 51 37 53 26 C 55 16 54 13 52 10 C 51 9 46 9 44 10 z" fill="black"/><!-- width=93 height=156 -->
<path id="gl6" d="M 46 10 C 20 13 7 43 24 60 C 30 65 31 66 44 72 C 58 79 61 82 61 91 C 61 102 51 108 40 103 C 35 101 32 97 28 91 C 24 81 24 81 21 79 C 19 78 18 78 17 78 C 11 81 11 85 15 104 C 16 110 21 114 33 117 C 62 124 89 101 81 76 C 77 66 71 60 55 54 C 43 48 39 45 37 40 C 33 32 40 22 50 24 C 55 24 60 28 64 34 C 66 40 70 43 73 43 C 79 42 81 37 77 25 C 73 14 72 12 61 10 C 55 9 52 9 46 10 z" fill="black"/><!-- width=96 height=132 -->
<path id="gl11018" d="M 27 16 C 13 21 9 38 19 49 C 28 59 46 56 51 43 C 57 27 42 10 27 16 M 28 84 C 14 89 9 107 19 118 C 27 126 40 126 47 118 C 52 112 54 102 50 95 C 46 87 36 82 28 84 z" fill="black"/><!-- width=66 height=139 -->
<path id="gl22280" d="M 110 14 C 106 16 100 19 97 22 C 93 24 88 27 87 27 C 66 38 58 42 46 49 C 45 50 43 51 42 51 C 42 51 40 52 39 52 C 35 55 28 59 21 61 C 11 66 9 69 9 75 C 9 79 9 79 11 82 C 13 84 13 85 24 90 C 28 91 34 95 38 97 C 51 103 79 119 84 121 C 87 122 91 124 93 126 C 95 127 98 128 100 129 C 102 130 106 132 109 134 C 118 139 121 139 126 135 C 128 132 128 131 128 129 C 127 124 121 119 115 117 C 114 117 101 111 87 103 C 73 96 60 90 57 88 C 36 79 36 79 34 76 C 34 72 33 73 52 64 C 56 63 66 57 74 53 C 87 46 100 40 118 31 C 128 27 131 18 125 13 C 121 10 119 10 110 14 z" fill="black"/><!-- width=138 height=149 -->
<path id="gl2326" d="M 223 14 C 218 15 54 15 31 15 C 16 14 15 14 13 18 C 11 21 11 28 13 31 C 16 35 16 35 31 34 C 41 34 210 34 230 34 C 232 34 234 34 235 34 C 237 34 237 33 238 32 C 241 29 242 21 239 17 C 237 13 233 13 223 14 z" fill="black"/><!-- width=253 height=49 -->
<path id="gl3078" d="M 48 17 C 35 18 24 25 18 36 C 15 41 14 45 16 47 C 18 51 21 50 28 44 C 35 37 42 34 49 35 C 63 38 67 53 57 63 C 53 67 48 70 39 75 C 29 80 27 82 28 86 C 28 90 30 90 40 90 C 62 88 72 96 72 116 C 72 144 51 156 28 142 C 20 138 15 138 11 144 C 4 154 16 167 34 167 C 58 167 86 147 93 124 C 100 105 96 88 79 76 C 73 72 73 71 79 65 C 87 56 88 48 85 38 C 81 24 66 15 48 17 z" fill="black"/><!-- width=119 height=181 -->
<path id="gl514" d="M 17 19 C 12 22 10 27 10 31 C 11 36 13 37 18 39 C 24 41 26 43 28 46 C 31 54 27 64 16 69 C 10 72 9 76 11 80 C 15 85 19 85 28 77 C 42 67 48 57 47 44 C 46 27 29 13 17 19 z" fill="black"/><!-- width=60 height=94 -->
<path id="gl2326" d="M 223 14 C 218 15 54 15 31 15 C 16 14 15 14 13 18 C 11 21 11 28 13 31 C 16 35 16 35 31 34 C 41 34 210 34 230 34 C 232 34 234 34 235 34 C 237 34 237 33 238 32 C 241 29 242 21 239 17 C 237 13 233 13 223 14 z" fill="black"/><!-- width=253 height=49 -->
<path id="gl22281" d="M 21 13 C 17 15 16 21 19 25 C 20 28 21 28 40 39 C 98 69 102 71 103 73 C 105 76 104 78 87 87 C 79 90 71 95 67 97 C 64 99 56 103 51 105 C 25 118 20 121 18 126 C 15 132 19 138 25 136 C 27 135 63 117 82 108 C 88 104 101 97 109 93 C 126 85 129 83 130 79 C 133 73 130 67 123 63 C 117 60 87 45 66 34 C 58 30 51 26 48 25 C 40 21 26 14 24 13 C 24 13 22 13 21 13 z" fill="black"/><!-- width=145 height=150 -->
<path id="gl2309" d="M 69 11 C 66 12 59 19 51 28 C 34 50 25 75 25 108 C 24 149 36 183 61 207 C 70 215 74 215 78 208 C 79 207 80 205 79 204 C 79 202 76 198 75 198 C 74 198 66 187 63 183 C 46 159 40 115 48 79 C 52 57 60 42 72 30 C 80 21 81 19 78 14 C 75 10 73 9 69 11 z" fill="black"/><!-- width=90 height=223 -->
<path id="gl2068" d="M 31 33 C 27 33 25 36 25 39 C 26 41 27 42 32 44 C 36 46 39 48 40 52 C 42 56 42 153 40 159 C 39 166 37 168 31 170 C 24 173 22 178 28 181 C 31 183 78 183 82 181 C 89 179 87 172 80 171 C 67 167 67 166 67 143 C 66 123 67 121 75 123 C 101 126 126 111 133 90 C 135 82 136 72 134 64 C 130 47 119 37 99 33 C 94 32 35 31 31 33 M 88 46 C 102 49 108 58 108 75 C 108 95 97 108 79 108 C 76 108 73 107 72 106 C 67 104 67 104 66 84 C 66 52 66 48 71 46 C 73 45 82 45 88 46 z" fill="black"/><!-- width=149 height=196 -->
<path id="gl5405" d="M 41 9 C 36 10 30 12 26 12 C 18 13 15 15 14 19 C 13 25 16 28 25 27 C 27 27 29 27 31 27 C 31 27 32 28 33 28 C 34 30 35 31 35 32 C 35 33 35 55 35 82 C 35 99 35 115 35 132 C 34 133 34 133 34 134 C 32 137 31 137 24 138 C 16 138 14 139 14 145 C 14 151 18 153 29 151 C 40 150 51 150 61 151 C 69 152 70 152 73 151 C 77 150 79 146 77 142 C 76 139 74 138 67 138 C 61 138 59 136 57 133 C 56 132 56 131 56 81 C 56 52 57 25 57 20 C 57 17 57 13 57 10 C 57 10 56 9 55 9 C 52 6 51 6 41 9 z" fill="black"/><!-- width=89 height=166 -->
<path id="gl4112" d="M 10 12 C 9 12 8 13 7 15 C 5 19 6 21 13 28 C 24 40 33 57 37 73 C 37 77 38 82 39 85 C 40 92 42 123 40 131 C 36 160 28 180 13 195 C 6 202 6 205 9 210 C 13 216 22 211 34 196 C 39 190 48 176 48 175 C 48 175 49 172 50 169 C 67 133 64 76 45 43 C 38 31 28 20 20 13 C 16 10 12 10 10 12 z" fill="black"/><!-- width=82 height=223 -->
<path id="gl22280" d="M 110 14 C 106 16 100 19 97 22 C 93 24 88 27 87 27 C 66 38 58 42 46 49 C 45 50 43 51 42 51 C 42 51 40 52 39 52 C 35 55 28 59 21 61 C 11 66 9 69 9 75 C 9 79 9 79 11 82 C 13 84 13 85 24 90 C 28 91 34 95 38 97 C 51 103 79 119 84 121 C 87 122 91 124 93 126 C 95 127 98 128 100 129 C 102 130 106 132 109 134 C 118 139 121 139 126 135 C 128 132 128 131 128 129 C 127 124 121 119 115 117 C 114 117 101 111 87 103 C 73 96 60 90 57 88 C 36 79 36 79 34 76 C 34 72 33 73 52 64 C 56 63 66 57 74 53 C 87 46 100 40 118 31 C 128 27 131 18 125 13 C 121 10 119 10 110 14 z" fill="black"/><!-- width=138 height=149 -->
<path id="gl2326" d="M 223 14 C 218 15 54 15 31 15 C 16 14 15 14 13 18 C 11 21 11 28 13 31 C 16 35 16 35 31 34 C 41 34 210 34 230 34 C 232 34 234 34 235 34 C 237 34 237 33 238 32 C 241 29 242 21 239 17 C 237 13 233 13 223 14 z" fill="black"/><!-- width=253 height=49 -->
<path id="gl3078" d="M 48 17 C 35 18 24 25 18 36 C 15 41 14 45 16 47 C 18 51 21 50 28 44 C 35 37 42 34 49 35 C 63 38 67 53 57 63 C 53 67 48 70 39 75 C 29 80 27 82 28 86 C 28 90 30 90 40 90 C 62 88 72 96 72 116 C 72 144 51 156 28 142 C 20 138 15 138 11 144 C 4 154 16 167 34 167 C 58 167 86 147 93 124 C 100 105 96 88 79 76 C 73 72 73 71 79 65 C 87 56 88 48 85 38 C 81 24 66 15 48 17 z" fill="black"/><!-- width=119 height=181 -->
<path id="gl1538" d="M 22 18 C 14 19 13 20 13 28 C 13 35 13 36 19 38 C 27 40 29 43 29 49 C 29 55 25 60 18 64 C 12 68 10 73 14 76 C 16 79 24 79 27 76 C 49 60 54 37 36 22 C 31 17 28 16 22 18 z" fill="black"/><!-- width=61 height=89 -->
<path id="gl2326" d="M 223 14 C 218 15 54 15 31 15 C 16 14 15 14 13 18 C 11 21 11 28 13 31 C 16 35 16 35 31 34 C 41 34 210 34 230 34 C 232 34 234 34 235 34 C 237 34 237 33 238 32 C 241 29 242 21 239 17 C 237 13 233 13 223 14 z" fill="black"/><!-- width=253 height=49 -->
<path id="gl22281" d="M 21 13 C 17 15 16 21 19 25 C 20 28 21 28 40 39 C 98 69 102 71 103 73 C 105 76 104 78 87 87 C 79 90 71 95 67 97 C 64 99 56 103 51 105 C 25 118 20 121 18 126 C 15 132 19 138 25 136 C 27 135 63 117 82 108 C 88 104 101 97 109 93 C 126 85 129 83 130 79 C 133 73 130 67 123 63 C 117 60 87 45 66 34 C 58 30 51 26 48 25 C 40 21 26 14 24 13 C 24 13 22 13 21 13 z" fill="black"/><!-- width=145 height=150 -->
<path id="gl22280" d="M 110 14 C 106 16 100 19 97 22 C 93 24 88 27 87 27 C 66 38 58 42 46 49 C 45 50 43 51 42 51 C 42 51 40 52 39 52 C 35 55 28 59 21 61 C 11 66 9 69 9 75 C 9 79 9 79 11 82 C 13 84 13 85 24 90 C 28 91 34 95 38 97 C 51 103 79 119 84 121 C 87 122 91 124 93 126 C 95 127 98 128 100 129 C 102 130 106 132 109 134 C 118 139 121 139 126 135 C 128 132 128 131 128 129 C 127 124 121 119 115 117 C 114 117 101 111 87 103 C 73 96 60 90 57 88 C 36 79 36 79 34 76 C 34 72 33 73 52 64 C 56 63 66 57 74 53 C 87 46 100 40 118 31 C 128 27 131 18 125 13 C 121 10 119 10 110 14 z" fill="black"/><!-- width=138 height=149 -->
<path id="gl2326" d="M 223 14 C 218 15 54 15 31 15 C 16 14 15 14 13 18 C 11 21 11 28 13 31 C 16 35 16 35 31 34 C 41 34 210 34 230 34 C 232 34 234 34 235 34 C 237 34 237 33 238 32 C 241 29 242 21 239 17 C 237 13 233 13 223 14 z" fill="black"/><!-- width=253 height=49 -->
<path id="gl3078" d="M 48 17 C 35 18 24 25 18 36 C 15 41 14 45 16 47 C 18 51 21 50 28 44 C 35 37 42 34 49 35 C 63 38 67 53 57 63 C 53 67 48 70 39 75 C 29 80 27 82 28 86 C 28 90 30 90 40 90 C 62 88 72 96 72 116 C 72 144 51 156 28 142 C 20 138 15 138 11 144 C 4 154 16 167 34 167 C 58 167 86 147 93 124 C 100 105 96 88 79 76 C 73 72 73 71 79 65 C 87 56 88 48 85 38 C 81 24 66 15 48 17 z" fill="black"/><!-- width=119 height=181 -->
<path id="gl514" d="M 17 19 C 12 22 10 27 10 31 C 11 36 13 37 18 39 C 24 41 26 43 28 46 C 31 54 27 64 16 69 C 10 72 9 76 11 80 C 15 85 19 85 28 77 C 42 67 48 57 47 44 C 46 27 29 13 17 19 z" fill="black"/><!-- width=60 height=94 -->
<path id="gl2326" d="M 223 14 C 218 15 54 15 31 15 C 16 14 15 14 13 18 C 11 21 11 28 13 31 C 16 35 16 35 31 34 C 41 34 210 34 230 34 C 232 34 234 34 235 34 C 237 34 237 33 238 32 C 241 29 242 21 239 17 C 237 13 233 13 223 14 z" fill="black"/><!-- width=253 height=49 -->
<path id="gl22281" d="M 21 13 C 17 15 16 21 19 25 C 20 28 21 28 40 39 C 98 69 102 71 103 73 C 105 76 104 78 87 87 C 79 90 71 95 67 97 C 64 99 56 103 51 105 C 25 118 20 121 18 126 C 15 132 19 138 25 136 C 27 135 63 117 82 108 C 88 104 101 97 109 93 C 126 85 129 83 130 79 C 133 73 130 67 123 63 C 117 60 87 45 66 34 C 58 30 51 26 48 25 C 40 21 26 14 24 13 C 24 13 22 13 21 13 z" fill="black"/><!-- width=145 height=150 -->
<path id="gl2309" d="M 69 11 C 66 12 59 19 51 28 C 34 50 25 75 25 108 C 24 149 36 183 61 207 C 70 215 74 215 78 208 C 79 207 80 205 79 204 C 79 202 76 198 75 198 C 74 198 66 187 63 183 C 46 159 40 115 48 79 C 52 57 60 42 72 30 C 80 21 81 19 78 14 C 75 10 73 9 69 11 z" fill="black"/><!-- width=90 height=223 -->
<path id="gl3337" d="M 37 34 C 33 34 29 34 28 34 C 27 36 25 39 25 40 C 25 42 28 45 31 46 C 37 48 40 51 40 58 C 42 64 42 154 40 160 C 40 167 37 169 30 172 C 22 174 22 180 28 183 C 31 184 79 184 83 183 C 86 182 87 180 86 177 C 85 174 83 173 78 172 C 68 169 67 167 67 148 C 66 123 66 124 81 124 C 99 124 110 120 121 110 C 132 100 135 90 135 75 C 134 52 121 38 96 34 C 89 33 53 33 37 34 M 91 49 C 102 53 107 61 108 76 C 109 97 97 110 77 109 C 72 109 70 108 68 105 C 67 103 67 102 67 78 C 67 49 67 50 71 48 C 74 47 86 48 91 49 z" fill="black"/><!-- width=149 height=199 -->
<path id="gl1541" d="M 45 9 C 33 11 25 16 15 29 C 10 36 9 37 9 41 C 9 45 11 48 15 48 C 19 49 21 48 25 41 C 34 31 38 28 47 28 C 62 28 70 37 70 54 C 70 65 64 78 53 93 C 42 107 22 132 16 137 C 7 145 6 149 7 153 C 9 156 12 157 20 157 C 30 156 52 155 71 156 C 94 157 94 157 98 144 C 103 128 103 127 101 124 C 97 118 91 120 85 129 C 82 133 79 134 58 135 C 35 135 35 135 55 114 C 78 91 89 75 92 60 C 97 36 85 16 64 10 C 60 9 49 8 45 9 z" fill="black"/><!-- width=117 height=178 -->
<path id="gl8728" d="M 9 11 C 7 12 4 16 4 18 C 4 19 7 24 11 28 C 24 41 33 60 36 82 C 43 127 34 172 12 195 C 3 203 3 207 9 211 C 14 215 33 196 43 176 C 50 163 55 147 57 132 C 61 91 52 54 33 30 C 22 16 13 9 9 11 z" fill="black"/><!-- width=76 height=223 -->
<path id="gl22280" d="M 110 14 C 106 16 100 19 97 22 C 93 24 88 27 87 27 C 66 38 58 42 46 49 C 45 50 43 51 42 51 C 42 51 40 52 39 52 C 35 55 28 59 21 61 C 11 66 9 69 9 75 C 9 79 9 79 11 82 C 13 84 13 85 24 90 C 28 91 34 95 38 97 C 51 103 79 119 84 121 C 87 122 91 124 93 126 C 95 127 98 128 100 129 C 102 130 106 132 109 134 C 118 139 121 139 126 135 C 128 132 128 131 128 129 C 127 124 121 119 115 117 C 114 117 101 111 87 103 C 73 96 60 90 57 88 C 36 79 36 79 34 76 C 34 72 33 73 52 64 C 56 63 66 57 74 53 C 87 46 100 40 118 31 C 128 27 131 18 125 13 C 121 10 119 10 110 14 z" fill="black"/><!-- width=138 height=149 -->
<path id="gl2326" d="M 223 14 C 218 15 54 15 31 15 C 16 14 15 14 13 18 C 11 21 11 28 13 31 C 16 35 16 35 31 34 C 41 34 210 34 230 34 C 232 34 234 34 235 34 C 237 34 237 33 238 32 C 241 29 242 21 239 17 C 237 13 233 13 223 14 z" fill="black"/><!-- width=253 height=49 -->
<path id="gl3078" d="M 48 17 C 35 18 24 25 18 36 C 15 41 14 45 16 47 C 18 51 21 50 28 44 C 35 37 42 34 49 35 C 63 38 67 53 57 63 C 53 67 48 70 39 75 C 29 80 27 82 28 86 C 28 90 30 90 40 90 C 62 88 72 96 72 116 C 72 144 51 156 28 142 C 20 138 15 138 11 144 C 4 154 16 167 34 167 C 58 167 86 147 93 124 C 100 105 96 88 79 76 C 73 72 73 71 79 65 C 87 56 88 48 85 38 C 81 24 66 15 48 17 z" fill="black"/><!-- width=119 height=181 -->
<path id="gl514" d="M 17 19 C 12 22 10 27 10 31 C 11 36 13 37 18 39 C 24 41 26 43 28 46 C 31 54 27 64 16 69 C 10 72 9 76 11 80 C 15 85 19 85 28 77 C 42 67 48 57 47 44 C 46 27 29 13 17 19 z" fill="black"/><!-- width=60 height=94 -->
<path id="gl2326" d="M 223 14 C 218 15 54 15 31 15 C 16 14 15 14 13 18 C 11 21 11 28 13 31 C 16 35 16 35 31 34 C 41 34 210 34 230 34 C 232 34 234 34 235 34 C 237 34 237 33 238 32 C 241 29 242 21 239 17 C 237 13 233 13 223 14 z" fill="black"/><!-- width=253 height=49 -->
<path id="gl22282" d="M 9 14 C 9 19 24 33 52 48 C 72 57 86 62 100 72 C 86 76 67 86 52 96 C 19 110 4 120 4 129 C 4 139 4 139 67 110 C 134 72 134 72 72 38 C 14 4 4 4 9 14 z" fill="black"/><!-- width=134 height=144 -->
</defs>
<use xlink:href="#gl4891" x="0" y="0"/>
<use xlink:href="#gl5124" x="109" y="70"/>
<use xlink:href="#gl3860" x="256" y="76"/>
<use xlink:href="#gl10759" x="406" y="56"/>
<use xlink:href="#gl258" x="530" y="25"/>
<use xlink:href="#gl261" x="591" y="84"/>
<use xlink:href="#gl2" x="690" y="80"/>
<use xlink:href="#gl513" x="809" y="75"/>
<use xlink:href="#gl0" x="904" y="56"/>
<use xlink:href="#gl6" x="982" y="81"/>
<use xlink:href="#gl11018" x="1063" y="76"/>
<use xlink:href="#gl22280" x="1172" y="58"/>
<use xlink:href="#gl2326" x="1293" y="121"/>
<use xlink:href="#gl3078" x="1529" y="34"/>
<use xlink:href="#gl514" x="1633" y="15"/>
<use xlink:href="#gl2326" x="1672" y="122"/>
<use xlink:href="#gl22281" x="1904" y="61"/>
<use xlink:href="#gl2309" x="2088" y="24"/>
<use xlink:href="#gl2068" x="2162" y="18"/>
<use xlink:href="#gl5405" x="2312" y="48"/>
<use xlink:href="#gl4112" x="2414" y="24"/>
<use xlink:href="#gl22280" x="2541" y="61"/>
<use xlink:href="#gl2326" x="2660" y="123"/>
<use xlink:href="#gl3078" x="2897" y="35"/>
<use xlink:href="#gl1538" x="3001" y="18"/>
<use xlink:href="#gl2326" x="3042" y="122"/>
<use xlink:href="#gl22281" x="3273" y="59"/>
<use xlink:href="#gl22280" x="3415" y="58"/>
<use xlink:href="#gl2326" x="3536" y="119"/>
<use xlink:href="#gl3078" x="3771" y="31"/>
<use xlink:href="#gl514" x="3876" y="12"/>
<use xlink:href="#gl2326" x="3915" y="118"/>
<use xlink:href="#gl22281" x="4146" y="54"/>
<use xlink:href="#gl2309" x="4330" y="17"/>
<use xlink:href="#gl3337" x="4405" y="9"/>
<use xlink:href="#gl1541" x="4543" y="35"/>
<use xlink:href="#gl8728" x="4659" y="17"/>
<use xlink:href="#gl22280" x="4784" y="52"/>
<use xlink:href="#gl2326" x="4903" y="114"/>
<use xlink:href="#gl3078" x="5140" y="26"/>
<use xlink:href="#gl514" x="5244" y="7"/>
<use xlink:href="#gl2326" x="5284" y="112"/>
<use xlink:href="#gl22282" x="5525" y="54"/>
</svg>
